<svg width="36" height="36" viewBox="0 0 36 36" fill="none" xmlns="http://www.w3.org/2000/svg">
<circle opacity="0.8" cx="18" cy="18" r="18" fill="#00DA7D"/>
<path d="M25.8657 16.928L18.9142 16.949V10.1343C18.9145 9.99346 18.887 9.85395 18.8332 9.72378C18.7795 9.59361 18.7005 9.47533 18.6009 9.37575C18.5013 9.27616 18.3831 9.19723 18.2529 9.14347C18.1227 9.08972 17.9832 9.0622 17.8424 9.0625C17.7016 9.0622 17.562 9.08972 17.4319 9.14347C17.3017 9.19723 17.1834 9.27616 17.0838 9.37575C16.9843 9.47533 16.9053 9.59361 16.8516 9.72378C16.7978 9.85395 16.7703 9.99346 16.7706 10.1343L16.7916 16.9282H10.1343C9.99346 16.9279 9.85395 16.9554 9.72378 17.0092C9.59361 17.0629 9.47533 17.1419 9.37575 17.2415C9.27616 17.341 9.19723 17.4593 9.14347 17.5895C9.08972 17.7197 9.0622 17.8592 9.0625 18C9.0622 18.1408 9.08972 18.2803 9.14348 18.4105C9.19723 18.5406 9.27617 18.6589 9.37576 18.7585C9.47535 18.858 9.59362 18.937 9.72379 18.9907C9.85396 19.0444 9.99347 19.0719 10.1343 19.0716H16.7811V25.8657C16.7808 26.0065 16.8084 26.146 16.8621 26.2762C16.9159 26.4064 16.9948 26.5246 17.0944 26.6242C17.194 26.7238 17.3122 26.8027 17.4424 26.8565C17.5726 26.9102 17.7121 26.9378 17.8529 26.9375C17.9937 26.9378 18.1332 26.9102 18.2634 26.8565C18.3935 26.8027 18.5118 26.7238 18.6114 26.6242C18.711 26.5246 18.7899 26.4064 18.8437 26.2762C18.8974 26.146 18.925 26.0065 18.9247 25.8657V19.0718H25.8657C26.0065 19.0721 26.146 19.0445 26.2762 18.9908C26.4064 18.937 26.5246 18.8581 26.6242 18.7585C26.7238 18.6589 26.8027 18.5406 26.8565 18.4105C26.9102 18.2803 26.9378 18.1408 26.9375 18C26.9373 17.7158 26.8243 17.4433 26.6233 17.2423C26.4224 17.0414 26.1499 16.9283 25.8657 16.928Z" fill="white"/>
</svg>
