<svg width="7" height="7" viewBox="0 0 7 7" fill="none" xmlns="http://www.w3.org/2000/svg">
<g opacity="0.8" clip-path="url(#clip0_1027_21506)">
<path d="M6.30574 4.40958L4.73031 3.5L6.30574 2.59042C6.6 2.42054 6.70082 2.04427 6.53093 1.75C6.36105 1.45575 5.9848 1.3549 5.69051 1.52481L4.11509 2.43439V0.615234C4.11509 0.275447 3.83964 0 3.49985 0C3.16006 0 2.88462 0.275447 2.88462 0.615234V2.43439L1.30919 1.52481C1.01489 1.35491 0.638643 1.45574 0.468756 1.75C0.29887 2.04426 0.399686 2.42054 0.693946 2.59042L2.2694 3.5L0.69396 4.40958C0.3997 4.57946 0.29887 4.95574 0.468756 5.25C0.582712 5.44739 0.789499 5.55773 1.00214 5.55773C1.10649 5.55773 1.2123 5.53114 1.30918 5.47519L2.88462 4.56561V6.38477C2.88462 6.72455 3.16006 7 3.49985 7C3.83964 7 4.11509 6.72455 4.11509 6.38477V4.56561L5.69051 5.47519C5.7874 5.53114 5.89317 5.55773 5.99755 5.55773C6.21018 5.55773 6.41699 5.44737 6.53093 5.25C6.70083 4.95574 6.6 4.57946 6.30574 4.40958Z" fill="#EA5F7E"/>
</g>
<defs>
<clipPath id="clip0_1027_21506">
<rect width="7" height="7" fill="white"/>
</clipPath>
</defs>
</svg>
