<svg width="22" height="22" viewBox="0 0 22 22" fill="none" xmlns="http://www.w3.org/2000/svg">
<path d="M13.5883 11.9625C13.5883 12.7348 13.2815 13.4754 12.7354 14.0215C12.1894 14.5675 11.4488 14.8743 10.6765 14.8743C9.0718 14.8743 7.76474 13.5673 7.76474 11.9625C7.76474 10.3578 9.0718 9.05078 10.6765 9.05078C11.4488 9.05078 12.1894 9.35756 12.7354 9.90362C13.2815 10.4497 13.5883 11.1903 13.5883 11.9625Z" fill="#5F7EEA"/>
<path d="M19.0882 4.52711H15.2576L14.8305 3.24594C14.7011 2.85123 14.3323 2.58594 13.9117 2.58594H7.44109C7.0205 2.58594 6.65168 2.85123 6.52227 3.24594L6.09521 4.52711H2.91168C1.66286 4.52711 0.646973 5.543 0.646973 6.79182V17.1448C0.646973 18.3936 1.66286 19.4095 2.91168 19.4095H19.0882C20.337 19.4095 21.3529 18.3936 21.3529 17.1448V6.79182C21.3529 5.543 20.337 4.52711 19.0882 4.52711ZM10.6764 16.8148C8.00403 16.8148 5.82344 14.6406 5.82344 11.9618C5.82344 9.28947 8.00403 7.10888 10.6764 7.10888C13.3552 7.10888 15.5293 9.28947 15.5293 11.9618C15.5293 14.6406 13.3552 16.8148 10.6764 16.8148ZM18.4864 8.76535C18.3032 8.94735 18.0555 9.0495 17.7973 9.0495C17.5391 9.0495 17.2913 8.94735 17.1082 8.76535C16.9301 8.58142 16.8305 8.33546 16.8305 8.07947C16.8305 7.82347 16.9301 7.57751 17.1082 7.39358C17.4705 7.03123 18.124 7.03123 18.4864 7.39358C18.5765 7.48361 18.6481 7.59053 18.6969 7.70822C18.7457 7.82591 18.7708 7.95206 18.7708 8.07947C18.7708 8.20687 18.7457 8.33303 18.6969 8.45072C18.6481 8.56841 18.5765 8.67532 18.4864 8.76535Z" fill="#5F7EEA"/>
</svg>
