<svg width="118" height="80" viewBox="0 0 118 80" fill="none" xmlns="http://www.w3.org/2000/svg">
<g clip-path="url(#clip0_739_8397)">
<path fill-rule="evenodd" clip-rule="evenodd" d="M66.5094 80.0003L116.55 68.0402C116.55 68.0402 55.5255 66.4398 0 80.0003H66.5094Z" fill="black"/>
<path fill-rule="evenodd" clip-rule="evenodd" d="M14.8877 73.1364C14.8877 73.1364 16.1451 75.6069 17.4004 76.1906C18.6579 76.7743 24.1871 76.579 24.1871 76.579C24.1871 76.579 25.8075 76.4686 26.4501 75.747C27.0927 75.0254 28.0427 73.72 28.0427 73.72C28.0427 73.72 14.9475 73.2488 14.8898 73.1364H14.8877Z" fill="black"/>
<path fill-rule="evenodd" clip-rule="evenodd" d="M113.564 57.5289C114.516 57.5289 115.289 60.0377 115.289 63.1301C115.289 66.2225 114.516 68.7313 113.564 68.7313C112.612 68.7313 111.839 66.2225 111.839 63.1301C111.839 60.0377 112.612 57.5289 113.564 57.5289Z" fill="black"/>
<path fill-rule="evenodd" clip-rule="evenodd" d="M113.564 68.7286C113.131 68.875 110.244 68.8135 110.244 68.8135C110.244 68.8135 109.634 68.0876 109.296 66.916C108.959 65.7422 108.66 61.2214 109.459 59.4937C110.257 57.766 111.039 57.5113 112.302 57.5177L113.566 57.5262C112.614 57.5262 111.841 60.0349 111.841 63.1274C111.841 66.2198 112.614 68.7286 113.566 68.7286H113.564Z" fill="black"/>
<path fill-rule="evenodd" clip-rule="evenodd" d="M113.51 59.8202C112.987 59.8202 112.562 61.342 112.562 63.2204C112.562 65.0988 112.987 66.6206 113.51 66.6206C114.033 66.6206 114.458 65.0988 114.458 63.2204C114.458 61.342 114.033 59.8202 113.51 59.8202Z" fill="white"/>
<path fill-rule="evenodd" clip-rule="evenodd" d="M113.51 61.8199C113.294 61.8199 113.119 62.4482 113.119 63.225C113.119 64.0018 113.294 64.6301 113.51 64.6301C113.726 64.6301 113.901 64.0018 113.901 63.225C113.901 62.4482 113.726 61.8199 113.51 61.8199Z" fill="black"/>
<path fill-rule="evenodd" clip-rule="evenodd" d="M113.511 60.483C113.461 60.483 113.421 60.6252 113.421 60.8014C113.421 60.9776 113.461 61.1198 113.511 61.1198C113.56 61.1198 113.6 60.9776 113.6 60.8014C113.6 60.6252 113.56 60.483 113.511 60.483Z" fill="black"/>
<path fill-rule="evenodd" clip-rule="evenodd" d="M113.511 65.9599C113.56 65.9599 113.6 65.8177 113.6 65.6415C113.6 65.4653 113.56 65.3231 113.511 65.3231C113.461 65.3231 113.421 65.4653 113.421 65.6415C113.421 65.8177 113.461 65.9599 113.511 65.9599Z" fill="black"/>
<path fill-rule="evenodd" clip-rule="evenodd" d="M112.747 63.2214C112.747 63.3976 112.788 63.5398 112.837 63.5398C112.886 63.5398 112.927 63.3976 112.927 63.2214C112.927 63.0453 112.886 62.9031 112.837 62.9031C112.788 62.9031 112.747 63.0453 112.747 63.2214Z" fill="black"/>
<path fill-rule="evenodd" clip-rule="evenodd" d="M114.273 63.2214C114.273 63.0453 114.233 62.9031 114.183 62.9031C114.134 62.9031 114.094 63.0453 114.094 63.2214C114.094 63.3976 114.134 63.5398 114.183 63.5398C114.233 63.5398 114.273 63.3976 114.273 63.2214Z" fill="black"/>
<path fill-rule="evenodd" clip-rule="evenodd" d="M112.971 61.289C112.937 61.4142 112.937 61.6158 112.971 61.7389C113.005 61.8642 113.063 61.8642 113.097 61.7389C113.131 61.6137 113.131 61.4121 113.097 61.289C113.063 61.1638 113.005 61.1638 112.971 61.289Z" fill="black"/>
<path fill-rule="evenodd" clip-rule="evenodd" d="M114.049 65.1589C114.083 65.0336 114.083 64.832 114.049 64.7089C114.015 64.5837 113.957 64.5837 113.923 64.7089C113.889 64.8341 113.889 65.0358 113.923 65.1589C113.957 65.2841 114.015 65.2841 114.049 65.1589Z" fill="black"/>
<path fill-rule="evenodd" clip-rule="evenodd" d="M112.971 65.1589C113.005 65.2841 113.063 65.2841 113.097 65.1589C113.131 65.0336 113.131 64.832 113.097 64.7089C113.063 64.5837 113.005 64.5837 112.971 64.7089C112.937 64.8341 112.937 65.0358 112.971 65.1589Z" fill="black"/>
<path fill-rule="evenodd" clip-rule="evenodd" d="M114.049 61.289C114.015 61.1638 113.957 61.1638 113.923 61.289C113.889 61.4142 113.889 61.6158 113.923 61.7389C113.957 61.8642 114.015 61.8642 114.049 61.7389C114.083 61.6137 114.083 61.4121 114.049 61.289Z" fill="black"/>
<path fill-rule="evenodd" clip-rule="evenodd" d="M110.585 57.6993C111.537 57.6993 112.31 60.2081 112.31 63.3005C112.31 66.393 111.537 68.9017 110.585 68.9017C109.633 68.9017 108.86 66.393 108.86 63.3005C108.86 60.2081 109.633 57.6993 110.585 57.6993Z" fill="black"/>
<path fill-rule="evenodd" clip-rule="evenodd" d="M110.586 68.899C110.152 69.0454 107.266 68.9839 107.266 68.9839C107.266 68.9839 106.655 68.258 106.318 67.0864C105.981 65.9127 105.682 61.3918 106.48 59.6641C107.279 57.9364 108.06 57.6817 109.324 57.6881L110.588 57.6966C109.636 57.6966 108.863 60.2054 108.863 63.2978C108.863 66.3902 109.636 68.899 110.588 68.899H110.586Z" fill="black"/>
<path fill-rule="evenodd" clip-rule="evenodd" d="M110.532 59.9907C110.009 59.9907 109.584 61.5125 109.584 63.3909C109.584 65.2693 110.009 66.7911 110.532 66.7911C111.055 66.7911 111.48 65.2693 111.48 63.3909C111.48 61.5125 111.055 59.9907 110.532 59.9907Z" fill="white"/>
<path fill-rule="evenodd" clip-rule="evenodd" d="M110.533 61.9866C110.317 61.9866 110.142 62.6148 110.142 63.3917C110.142 64.1685 110.317 64.7967 110.533 64.7967C110.748 64.7967 110.923 64.1685 110.923 63.3917C110.923 62.6148 110.748 61.9866 110.533 61.9866Z" fill="black"/>
<path fill-rule="evenodd" clip-rule="evenodd" d="M110.533 60.6534C110.484 60.6534 110.443 60.7956 110.443 60.9718C110.443 61.148 110.484 61.2902 110.533 61.2902C110.582 61.2902 110.623 61.148 110.623 60.9718C110.623 60.7956 110.582 60.6534 110.533 60.6534Z" fill="black"/>
<path fill-rule="evenodd" clip-rule="evenodd" d="M110.533 66.1304C110.582 66.1304 110.623 65.9882 110.623 65.812C110.623 65.6359 110.582 65.4937 110.533 65.4937C110.484 65.4937 110.443 65.6359 110.443 65.812C110.443 65.9882 110.484 66.1304 110.533 66.1304Z" fill="black"/>
<path fill-rule="evenodd" clip-rule="evenodd" d="M109.77 63.3919C109.77 63.568 109.81 63.7102 109.859 63.7102C109.908 63.7102 109.949 63.568 109.949 63.3919C109.949 63.2157 109.908 63.0735 109.859 63.0735C109.81 63.0735 109.77 63.2157 109.77 63.3919Z" fill="black"/>
<path fill-rule="evenodd" clip-rule="evenodd" d="M111.295 63.3919C111.295 63.2157 111.254 63.0735 111.205 63.0735C111.156 63.0735 111.115 63.2157 111.115 63.3919C111.115 63.568 111.156 63.7102 111.205 63.7102C111.254 63.7102 111.295 63.568 111.295 63.3919Z" fill="black"/>
<path fill-rule="evenodd" clip-rule="evenodd" d="M109.991 61.4556C109.957 61.5808 109.957 61.7825 109.991 61.9056C110.026 62.0308 110.083 62.0308 110.117 61.9056C110.152 61.7804 110.152 61.5787 110.117 61.4556C110.083 61.3304 110.026 61.3304 109.991 61.4556Z" fill="black"/>
<path fill-rule="evenodd" clip-rule="evenodd" d="M111.073 65.3293C111.107 65.2041 111.107 65.0024 111.073 64.8793C111.038 64.7541 110.981 64.7541 110.947 64.8793C110.912 65.0045 110.912 65.2062 110.947 65.3293C110.981 65.4545 111.038 65.4545 111.073 65.3293Z" fill="black"/>
<path fill-rule="evenodd" clip-rule="evenodd" d="M109.991 65.3293C110.026 65.4545 110.083 65.4545 110.117 65.3293C110.152 65.2041 110.152 65.0024 110.117 64.8793C110.083 64.7541 110.026 64.7541 109.991 64.8793C109.957 65.0045 109.957 65.2062 109.991 65.3293Z" fill="black"/>
<path fill-rule="evenodd" clip-rule="evenodd" d="M111.073 61.4556C111.038 61.3304 110.981 61.3304 110.947 61.4556C110.912 61.5808 110.912 61.7825 110.947 61.9056C110.981 62.0308 111.038 62.0308 111.073 61.9056C111.107 61.7804 111.107 61.5787 111.073 61.4556Z" fill="black"/>
<path fill-rule="evenodd" clip-rule="evenodd" d="M90.3976 68.272L93.9266 68.1935L107.205 66.8563L107.297 59.4574L86.2197 59.2218C86.2197 59.2218 86.2197 67.8008 90.3976 68.2741V68.272Z" fill="#323233"/>
<path fill-rule="evenodd" clip-rule="evenodd" d="M93.9277 68.1936L107.207 66.8564L107.298 59.4575L93.9277 59.309V68.1936Z" fill="#323233"/>
<path fill-rule="evenodd" clip-rule="evenodd" d="M88.8932 58.9453C90.0951 58.9453 91.0686 62.1078 91.0686 66.0089C91.0686 69.91 90.0951 73.0724 88.8932 73.0724C87.6913 73.0724 86.7178 69.91 86.7178 66.0089C86.7178 62.1078 87.6913 58.9453 88.8932 58.9453Z" fill="black"/>
<path fill-rule="evenodd" clip-rule="evenodd" d="M88.8938 73.072C88.3451 73.2566 84.7073 73.1781 84.7073 73.1781C84.7073 73.1781 83.9367 72.2633 83.5118 70.7839C83.087 69.3046 82.7091 63.6036 83.7168 61.4239C84.7223 59.2441 85.7086 58.9236 87.3012 58.9342L88.8938 58.9448C87.6919 58.9448 86.7205 62.1073 86.7205 66.0084C86.7205 69.9095 87.694 73.072 88.8959 73.072H88.8938Z" fill="black"/>
<path fill-rule="evenodd" clip-rule="evenodd" d="M88.8225 61.8389C88.1628 61.8389 87.627 63.7597 87.627 66.1284C87.627 68.497 88.1628 70.4179 88.8225 70.4179C89.4821 70.4179 90.018 68.497 90.018 66.1284C90.018 63.7597 89.4821 61.8389 88.8225 61.8389Z" fill="white"/>
<path fill-rule="evenodd" clip-rule="evenodd" d="M88.8225 64.3536C88.5491 64.3536 88.3291 65.1474 88.3291 66.1259C88.3291 67.1043 88.5513 67.8982 88.8225 67.8982C89.0938 67.8982 89.316 67.1043 89.316 66.1259C89.316 65.1474 89.0938 64.3536 88.8225 64.3536Z" fill="black"/>
<path fill-rule="evenodd" clip-rule="evenodd" d="M88.823 62.6721C88.761 62.6721 88.7119 62.8525 88.7119 63.0733C88.7119 63.294 88.761 63.4744 88.823 63.4744C88.8849 63.4744 88.9341 63.294 88.9341 63.0733C88.9341 62.8525 88.8849 62.6721 88.823 62.6721Z" fill="black"/>
<path fill-rule="evenodd" clip-rule="evenodd" d="M88.823 69.5795C88.8849 69.5795 88.9341 69.3991 88.9341 69.1784C88.9341 68.9576 88.8849 68.7772 88.823 68.7772C88.761 68.7772 88.7119 68.9576 88.7119 69.1784C88.7119 69.3991 88.761 69.5795 88.823 69.5795Z" fill="black"/>
<path fill-rule="evenodd" clip-rule="evenodd" d="M87.8623 66.1258C87.8623 66.3486 87.9114 66.5269 87.9734 66.5269C88.0353 66.5269 88.0845 66.3465 88.0845 66.1258C88.0845 65.905 88.0353 65.7246 87.9734 65.7246C87.9114 65.7246 87.8623 65.905 87.8623 66.1258Z" fill="black"/>
<path fill-rule="evenodd" clip-rule="evenodd" d="M89.7856 66.1258C89.7856 65.905 89.7365 65.7246 89.6745 65.7246C89.6126 65.7246 89.5635 65.905 89.5635 66.1258C89.5635 66.3465 89.6126 66.5269 89.6745 66.5269C89.7365 66.5269 89.7856 66.3465 89.7856 66.1258Z" fill="black"/>
<path fill-rule="evenodd" clip-rule="evenodd" d="M88.1434 63.6875C88.1006 63.8446 88.1006 64.0993 88.1434 64.2563C88.1861 64.4134 88.2587 64.4134 88.3014 64.2563C88.3442 64.0993 88.3442 63.8446 88.3014 63.6875C88.2587 63.5304 88.1861 63.5304 88.1434 63.6875Z" fill="black"/>
<path fill-rule="evenodd" clip-rule="evenodd" d="M89.5046 68.5663C89.5473 68.4092 89.5473 68.1545 89.5046 67.9974C89.4618 67.8404 89.3892 67.8404 89.3465 67.9974C89.3038 68.1545 89.3038 68.4092 89.3465 68.5663C89.3892 68.7233 89.4618 68.7233 89.5046 68.5663Z" fill="black"/>
<path fill-rule="evenodd" clip-rule="evenodd" d="M88.1434 68.5663C88.1861 68.7233 88.2587 68.7233 88.3014 68.5663C88.3442 68.4092 88.3442 68.1545 88.3014 67.9974C88.2587 67.8404 88.1861 67.8404 88.1434 67.9974C88.1006 68.1545 88.1006 68.4092 88.1434 68.5663Z" fill="black"/>
<path fill-rule="evenodd" clip-rule="evenodd" d="M89.5046 63.6875C89.4618 63.5304 89.3892 63.5304 89.3465 63.6875C89.3038 63.8446 89.3038 64.0993 89.3465 64.2563C89.3892 64.4134 89.4618 64.4134 89.5046 64.2563C89.5473 64.0993 89.5473 63.8446 89.5046 63.6875Z" fill="black"/>
<path fill-rule="evenodd" clip-rule="evenodd" d="M85.1383 59.1613C86.3402 59.1613 87.3137 62.3237 87.3137 66.2248C87.3137 70.1259 86.3402 73.2884 85.1383 73.2884C83.9364 73.2884 82.9629 70.1259 82.9629 66.2248C82.9629 62.3237 83.9364 59.1613 85.1383 59.1613Z" fill="black"/>
<path fill-rule="evenodd" clip-rule="evenodd" d="M85.1379 73.2841C84.5893 73.4688 80.9515 73.3902 80.9515 73.3902C80.9515 73.3902 80.1808 72.4755 79.756 70.9961C79.3311 69.5167 78.9533 63.8158 79.9609 61.636C80.9664 59.4562 81.9527 59.1358 83.5453 59.1464L85.1379 59.157C83.936 59.157 82.9647 62.3195 82.9647 66.2205C82.9647 70.1216 83.9382 73.2841 85.1401 73.2841H85.1379Z" fill="black"/>
<path fill-rule="evenodd" clip-rule="evenodd" d="M85.0695 62.0509C84.4099 62.0509 83.874 63.9717 83.874 66.3404C83.874 68.7091 84.4099 70.6299 85.0695 70.6299C85.7292 70.6299 86.2651 68.7091 86.2651 66.3404C86.2651 63.9717 85.7292 62.0509 85.0695 62.0509Z" fill="white"/>
<path fill-rule="evenodd" clip-rule="evenodd" d="M85.0696 64.5695C84.7962 64.5695 84.5762 65.3633 84.5762 66.3417C84.5762 67.3202 84.7983 68.114 85.0696 68.114C85.3409 68.114 85.563 67.3202 85.563 66.3417C85.563 65.3633 85.3409 64.5695 85.0696 64.5695Z" fill="black"/>
<path fill-rule="evenodd" clip-rule="evenodd" d="M85.0701 62.8879C85.0081 62.8879 84.959 63.0683 84.959 63.2891C84.959 63.5098 85.0081 63.6902 85.0701 63.6902C85.132 63.6902 85.1811 63.5098 85.1811 63.2891C85.1811 63.0683 85.132 62.8879 85.0701 62.8879Z" fill="black"/>
<path fill-rule="evenodd" clip-rule="evenodd" d="M85.0701 69.7915C85.132 69.7915 85.1811 69.6111 85.1811 69.3904C85.1811 69.1697 85.132 68.9893 85.0701 68.9893C85.0081 68.9893 84.959 69.1697 84.959 69.3904C84.959 69.6111 85.0081 69.7915 85.0701 69.7915Z" fill="black"/>
<path fill-rule="evenodd" clip-rule="evenodd" d="M84.1084 66.3416C84.1084 66.5644 84.1575 66.7427 84.2195 66.7427C84.2814 66.7427 84.3305 66.5623 84.3305 66.3416C84.3305 66.1208 84.2814 65.9404 84.2195 65.9404C84.1575 65.9404 84.1084 66.1208 84.1084 66.3416Z" fill="black"/>
<path fill-rule="evenodd" clip-rule="evenodd" d="M86.0327 66.3416C86.0327 66.1208 85.9836 65.9404 85.9216 65.9404C85.8597 65.9404 85.8105 66.1208 85.8105 66.3416C85.8105 66.5623 85.8597 66.7427 85.9216 66.7427C85.9836 66.7427 86.0327 66.5623 86.0327 66.3416Z" fill="black"/>
<path fill-rule="evenodd" clip-rule="evenodd" d="M84.3914 63.8995C84.3487 64.0566 84.3487 64.3113 84.3914 64.4684C84.4341 64.6254 84.5068 64.6254 84.5495 64.4684C84.5922 64.3113 84.5922 64.0566 84.5495 63.8995C84.5068 63.7425 84.4341 63.7425 84.3914 63.8995Z" fill="black"/>
<path fill-rule="evenodd" clip-rule="evenodd" d="M85.7516 68.7821C85.7944 68.625 85.7944 68.3703 85.7516 68.2133C85.7089 68.0562 85.6363 68.0562 85.5936 68.2133C85.5508 68.3703 85.5508 68.625 85.5936 68.7821C85.6363 68.9391 85.7089 68.9391 85.7516 68.7821Z" fill="black"/>
<path fill-rule="evenodd" clip-rule="evenodd" d="M84.3914 68.7821C84.4341 68.9391 84.5068 68.9391 84.5495 68.7821C84.5922 68.625 84.5922 68.3703 84.5495 68.2133C84.5068 68.0562 84.4341 68.0562 84.3914 68.2133C84.3487 68.3703 84.3487 68.625 84.3914 68.7821Z" fill="black"/>
<path fill-rule="evenodd" clip-rule="evenodd" d="M85.7516 63.8995C85.7089 63.7425 85.6363 63.7425 85.5936 63.8995C85.5508 64.0566 85.5508 64.3113 85.5936 64.4684C85.6363 64.6254 85.7089 64.6254 85.7516 64.4684C85.7944 64.3113 85.7944 64.0566 85.7516 63.8995Z" fill="black"/>
<path fill-rule="evenodd" clip-rule="evenodd" d="M30.2422 7.81068L29.1748 58.4548L67.7239 59.7135L117.577 59.6307L118 27.5326L72.5829 0L30.2422 7.81068Z" fill="#F6F6F6"/>
<path fill-rule="evenodd" clip-rule="evenodd" d="M30.2422 7.81068L29.1748 58.4548L67.7239 59.7135L72.1132 59.7156L72.5829 0L30.2422 7.81068Z" fill="#A7A9AC"/>
<path fill-rule="evenodd" clip-rule="evenodd" d="M30.1782 10.8737L29.1748 58.4572L69.0518 59.7159L69.8417 3.9502L30.1782 10.8737Z" fill="#F6F6F6"/>
<path fill-rule="evenodd" clip-rule="evenodd" d="M61.871 75.2481L66.1151 75.1929C66.1151 75.1929 66.7022 61.1995 66.5613 60.0342C66.4226 58.869 65.6391 59.0897 65.6391 59.0897L65.2484 57.6465C65.2484 57.6465 64.2984 57.3132 64.1724 57.014C64.0465 56.7147 63.9696 56.0758 63.9696 56.0758L63.438 55.299C63.438 55.299 60.1141 54.8278 59.1085 55.6322C58.103 56.4366 56.9865 58.4636 56.6513 59.6861C56.3161 60.9087 61.8668 75.2481 61.8668 75.2481H61.871Z" fill="black"/>
<path fill-rule="evenodd" clip-rule="evenodd" d="M60.8192 57.3661C62.9519 57.3661 64.6833 61.8785 64.6833 67.4436C64.6833 73.0087 62.954 77.521 60.8192 77.521C58.6843 77.521 56.9551 73.0087 56.9551 67.4436C56.9551 61.8785 58.6843 57.3661 60.8192 57.3661Z" fill="black"/>
<path fill-rule="evenodd" clip-rule="evenodd" d="M60.8199 77.5249C59.8464 77.7881 53.382 77.6777 53.382 77.6777C53.382 77.6777 52.0136 76.3724 51.26 74.2626C50.5064 72.1529 49.836 64.0175 51.6229 60.9081C53.4098 57.7987 55.1604 57.3402 57.9891 57.3551L60.8178 57.3699C58.685 57.3699 56.9558 61.8823 56.9558 67.4474C56.9558 73.0125 58.685 77.5249 60.8199 77.5249Z" fill="black"/>
<path fill-rule="evenodd" clip-rule="evenodd" d="M6.13372 54.4759C6.13372 54.4759 6.69305 44.0376 6.91508 42.537C7.09441 41.3314 7.4552 39.1241 7.58969 38.3027C7.87363 36.9804 8.34116 34.5162 9.04994 32.6145C9.31679 31.8971 9.98287 30.3158 10.7109 28.6221L11.0268 25.4999L10.6916 28.8174L12.3568 24.8271C12.5874 24.3008 12.7881 23.8402 12.9461 23.4836L12.9781 23.49L13.2855 22.7132C13.2855 22.7132 16.6927 16.4391 17.5296 15.2718C18.3665 14.1066 20.2665 13.2172 23.394 12.4404C26.5216 11.6636 43.2269 8.11271 45.9616 7.66699C48.6964 7.22127 51.7129 6.88804 54.1424 7.80495C56.5719 8.72185 64.0289 14.219 64.0289 14.219C64.0289 14.219 65.0345 13.109 66.04 13.1918C67.0455 13.2745 67.5194 13.7754 67.6326 14.1915C67.7436 14.6075 67.6881 56.4752 67.6881 56.4752C67.6881 56.4752 67.101 56.4752 66.9473 56.5453C66.7936 56.6153 66.4733 56.6429 66.2342 56.6004C65.9951 56.558 62.3531 55.7812 61.0956 55.8088C59.8382 55.8364 58.8626 56.0592 58.0236 58.0565C57.1867 60.0558 56.5164 62.3884 56.3349 62.6091C56.1534 62.832 55.4831 62.9976 55.4831 62.9976C55.4831 62.9976 55.3849 63.3032 55.1906 63.4688C54.9942 63.6343 54.8405 63.6216 54.8405 63.6216L54.7701 64.8568C54.7701 64.8568 55.5514 64.7316 55.7201 64.8717C55.8866 65.0097 55.6923 69.7852 55.6923 69.7852L55.8567 69.781C55.8567 69.781 55.7948 71.1903 55.6133 71.6487C55.4319 72.1072 55.3208 72.4256 55.3208 72.4256H55.6133C55.6133 72.4256 55.5984 73.578 54.7615 74.1893C53.9247 74.8006 46.3843 75.467 45.0436 75.4119C43.703 75.3567 37.0571 74.9131 37.0571 74.9131C37.0571 74.9131 36.0089 74.4971 35.6609 74.3443C35.3108 74.1914 12.3419 73.803 12.3419 73.803C12.3419 73.803 11.5605 74.219 10.6938 74.2466C9.82703 74.2742 7.09227 74.0514 6.86811 73.941C6.64395 73.8306 6.30878 73.0517 6.28103 72.7185C6.25327 72.3852 6.28103 72.3025 6.28103 72.3025C6.28103 72.3025 5.44416 71.2752 5.30326 70.3031C5.1645 69.331 5.0791 68.637 5.0791 68.637L5.40787 68.6157L5.45697 58.2729C5.45697 58.2729 5.45697 56.7172 5.59574 56.524C5.7345 56.3288 6.65676 56.108 6.82542 55.8576C6.99193 55.6071 6.96418 54.5523 6.96418 54.5523L6.13586 54.4737L6.13372 54.4759Z" fill="black"/>
<path fill-rule="evenodd" clip-rule="evenodd" d="M64.0054 13.9736C64.0203 13.9609 64.0331 13.9461 64.0481 13.9333L64.2979 13.6956L64.3598 14.0331C64.4665 14.6104 64.5711 15.1898 64.6779 15.7671C64.8081 16.4824 64.9383 17.1955 65.0685 17.9108C65.1475 18.3438 65.2287 18.7789 65.2991 19.214C65.376 19.6916 65.4336 20.1755 65.4912 20.6552C65.5617 21.241 65.6279 21.8289 65.6919 22.4168V22.4211L65.7624 23.2849L65.4464 23.0875C63.5934 21.9265 61.7339 20.774 59.868 19.6364C58.7942 18.9827 57.7182 18.3311 56.6316 17.6943C56.2089 17.446 55.7819 17.1998 55.3528 16.9621C55.0731 16.8071 54.7828 16.6458 54.4925 16.51C53.8755 16.2213 53.2585 15.9369 52.6394 15.6546L52.4494 15.5676L52.5583 15.3893C52.7483 15.0794 52.823 14.6974 52.7739 14.3387C52.7269 13.9843 52.7312 13.6744 52.5391 13.356C52.2444 12.8678 51.589 12.5771 51.0703 12.3945C50.4618 12.1802 49.721 12.1313 49.0785 12.1186C48.2331 12.1016 47.3876 12.1504 46.5465 12.2141C45.4278 12.299 44.3135 12.4264 43.1948 12.507C42.9813 12.5219 42.7678 12.5537 42.5565 12.5855C42.2149 12.6365 41.8733 12.6938 41.5339 12.7532C40.539 12.9251 39.5463 13.114 38.5536 13.3051C35.8317 13.8293 33.1161 14.379 30.4006 14.933C27.5505 15.5146 24.7026 16.1046 21.8547 16.6946C20.8684 16.8984 19.88 17.1043 18.8937 17.308C18.5863 17.3717 18.2767 17.4354 17.9693 17.4969C17.8135 17.5288 17.6597 17.5606 17.5039 17.5882C17.0193 17.6731 16.5389 17.7983 16.0778 17.9681L15.5996 18.1464L15.8515 17.7049C16.1461 17.1892 16.4407 16.6755 16.746 16.1662C16.9446 15.835 17.1517 15.4827 17.3779 15.1686C17.8989 14.4448 18.7293 13.9291 19.5213 13.547C20.0679 13.2838 20.64 13.0673 21.2164 12.8742C21.9167 12.6407 22.6318 12.4412 23.3491 12.2629C23.9213 12.1207 24.4977 11.9913 25.072 11.8597C25.9537 11.6602 26.8354 11.4649 27.7171 11.2717C29.9928 10.773 32.2707 10.2827 34.5486 9.80087C36.8927 9.30422 39.2389 8.8118 41.5872 8.33213C42.4796 8.14959 43.372 7.96919 44.2643 7.79514C44.8173 7.6869 45.3745 7.57653 45.9317 7.48526C46.6917 7.36216 47.4538 7.24967 48.2202 7.16689C50.18 6.95889 52.3405 6.92705 54.2085 7.63171C54.5287 7.75269 54.8468 7.91188 55.15 8.07106C55.5492 8.28119 55.9399 8.50829 56.3263 8.73964C57.2528 9.29573 58.1601 9.89002 59.0568 10.4907C60.2352 11.2824 61.3987 12.0953 62.5537 12.9209C63.0404 13.269 63.5272 13.6192 64.0096 13.9736H64.0054Z" fill="black"/>
<path fill-rule="evenodd" clip-rule="evenodd" d="M16.0137 17.7933C16.6584 16.6599 17.2433 15.6708 17.5273 15.2718C18.3641 14.1066 20.2642 13.2172 23.3917 12.4404C26.5193 11.6636 43.2246 8.11271 45.9593 7.66699C48.6941 7.22127 51.7106 6.88804 54.1401 7.80495C56.5696 8.72185 64.0266 14.219 64.0266 14.219C64.0266 14.219 64.08 14.1596 64.1761 14.0683C64.5219 15.9467 65.0236 18.689 65.1133 19.245C65.252 20.1068 65.5039 22.4372 65.5039 22.4372L65.5445 22.9318C65.5445 22.9318 56.4137 17.2032 54.5713 16.3436C53.8583 16.0104 53.2264 15.7196 52.7183 15.4883C52.9275 15.1466 53.0129 14.7221 52.9617 14.3167C52.9104 13.9283 52.9168 13.6184 52.7033 13.2639C52.381 12.7312 51.7021 12.4234 51.1364 12.2239C50.5151 12.0053 49.7423 11.9501 49.0869 11.9374C48.2393 11.9204 47.3811 11.9692 46.5379 12.0329C45.4192 12.1178 44.3048 12.2451 43.1883 12.3258C42.9727 12.3407 42.7506 12.3746 42.535 12.4065C42.1913 12.4574 41.8497 12.5147 41.5081 12.5741C40.5112 12.7461 39.5185 12.9349 38.5257 13.126C35.8038 13.6502 33.0861 14.1999 30.3706 14.7539C27.5206 15.3355 24.6727 15.9255 21.8248 16.5156C20.8385 16.7193 19.85 16.9252 18.8637 17.1289C18.5563 17.1926 18.2489 17.2563 17.9393 17.3178C17.7856 17.3497 17.6319 17.3815 17.4782 17.4091C16.9978 17.4919 16.4961 17.6214 16.0201 17.7975L16.0137 17.7933Z" fill="#5FC4EA"/>
<path fill-rule="evenodd" clip-rule="evenodd" d="M5.40527 68.5143L5.45438 58.2755C5.45438 58.2755 5.45438 56.7197 5.59314 56.5266C5.67213 56.4162 6.0073 56.2952 6.31045 56.1658C6.4172 56.1573 6.5154 56.1509 6.59866 56.1509C7.03204 56.1424 7.50811 56.2422 7.84542 56.3313C7.66822 56.4162 7.58923 56.6009 7.57856 56.7983V56.8131V56.828C7.70025 57.9444 7.8198 59.0629 7.93935 60.1815C8.01193 60.8691 8.08665 61.5589 8.15711 62.2466C8.19767 62.6478 8.24463 63.0553 8.27666 63.4586C8.30228 63.796 8.34924 64.1399 8.3898 64.4752C8.45599 65.0164 8.5243 65.5598 8.59262 66.101C8.70576 66.9925 8.82105 67.8839 8.9406 68.7732C8.68869 68.7711 7.93721 68.7541 6.77372 68.6777C6.15461 68.6374 5.71056 68.5716 5.40527 68.5121V68.5143Z" fill="#323233"/>
<path fill-rule="evenodd" clip-rule="evenodd" d="M8.60624 66.2109C8.68737 66.8477 8.77062 67.4823 8.85388 68.119C7.90387 67.9047 6.39026 67.546 6.05082 67.3783C5.54912 67.1278 5.63238 66.5866 5.61744 66.351C5.6025 66.1154 5.53418 64.2816 5.53418 64.2816C5.53418 64.2816 6.76386 65.3641 8.14511 66.0029C8.31377 66.0815 8.46747 66.1494 8.60624 66.2109Z" fill="white"/>
<path fill-rule="evenodd" clip-rule="evenodd" d="M8.85104 68.0945V68.1157C7.90317 67.9013 6.38955 67.5426 6.05011 67.3749C5.54842 67.1245 5.63168 66.5833 5.61673 66.3477C5.61033 66.2437 5.59325 65.8298 5.57617 65.3989C5.79606 65.868 6.06505 66.3243 6.38528 66.6639C7.1026 67.4259 8.21059 67.8822 8.84891 68.0987L8.85104 68.0945Z" fill="#C9E2F8"/>
<path fill-rule="evenodd" clip-rule="evenodd" d="M54.77 64.84V64.8634C54.77 64.8634 55.5513 64.7382 55.7178 64.8782C55.8844 65.0162 55.6901 69.7918 55.6901 69.7918L55.8545 69.7875C55.8545 69.7875 55.7926 71.1968 55.6111 71.6553C55.4659 72.0225 55.3656 72.3005 55.3314 72.396C53.7709 72.5085 47.9171 72.9351 47.5307 72.9585C47.1058 72.9839 38.7521 72.9733 37.9323 72.9733V72.9606C37.911 72.3451 37.8896 71.7232 37.8896 71.1077C37.8896 70.8551 37.9302 70.5792 37.9729 70.3287C38.0348 69.9552 38.1138 69.5753 38.2056 69.2081V69.1953C38.7628 69.1678 42.9108 68.9661 45.0436 68.8366C47.3343 68.6987 49.9303 68.2806 49.9303 68.2806V65.6848C49.9303 65.6848 50.4319 65.6848 51.8708 65.5596C53.2073 65.4428 54.0911 65.012 54.77 64.84Z" fill="#323233"/>
<path fill-rule="evenodd" clip-rule="evenodd" d="M55.6083 72.4286V72.4328C55.6083 72.505 55.5678 73.6023 54.7565 74.1923C54.1844 74.6083 50.489 75.0519 47.7755 75.2727C46.4818 75.3724 45.4165 75.4297 45.0387 75.4127C44.0758 75.3724 40.3697 75.1326 38.363 74.9989H38.3416L38.2455 74.9904H38.2349L38.1516 74.984H38.111L38.0598 74.9776L38.0385 74.9097C37.9573 74.655 37.8826 74.4173 37.8719 74.1478C37.8677 74.0119 37.8719 73.874 37.8741 73.7402C37.8784 73.5895 37.8698 73.337 37.8741 73.1523H37.9403H37.9488H38.015H38.0235H38.0897H38.0982H38.1644H38.173H38.2391H38.2477H38.316H38.3245H38.3928H38.4014H38.4697H38.4782H38.5466H38.5551H38.6234H38.632H38.7003H38.7088H38.7771H38.7835H38.8518H38.8583H38.9266H38.933H39.0013H39.0077H39.076H39.0824H39.1507H39.1571H39.2254H39.2319H39.3002H39.3066H39.3749H39.3813H39.4517H39.4581H39.5286H39.535H39.6055H39.6119H39.6823H39.6887H39.7592H39.7656H39.836H39.8424H39.9129H39.9171H39.9876H39.9919H40.0623H40.0666H40.137H40.1413H40.2117H40.216H40.2865H40.2907H40.3612H40.3655H40.4359H40.4402H40.5106H40.5149H40.5875H40.5918H40.6643H40.6686H40.7412H40.7455H40.818H40.8223H40.8949H40.8992H40.9718H40.976H41.0486H41.0507H41.1233H41.1255H41.1981H41.2002H41.2728H41.2749H41.3475H41.3496H41.4222H41.4243H41.4969H41.4991H41.5717H41.6442H41.719H41.7937H41.9431H42.0178H42.1673H42.6946C43.7599 73.1523 44.823 73.1523 45.8883 73.1481C46.2577 73.1481 46.627 73.146 46.9963 73.1438C47.1693 73.1438 47.355 73.1438 47.5279 73.1353C47.9741 73.1077 48.4224 73.0738 48.8707 73.042C49.7247 72.9825 50.5765 72.921 51.4304 72.8594C52.737 72.766 54.0008 72.6748 55.3073 72.5835V72.4243H55.5998L55.6083 72.4286Z" fill="#323233"/>
<path fill-rule="evenodd" clip-rule="evenodd" d="M6.27231 72.3376C6.27444 72.3142 6.27871 72.3036 6.27871 72.3036C6.27871 72.3036 5.44185 71.2763 5.30095 70.3042C5.17712 69.4425 5.09813 68.7994 5.08105 68.6636C5.21128 68.6997 5.35645 68.7336 5.49949 68.7612C5.94567 68.844 8.83627 68.9968 8.83627 68.9968C8.83627 68.9968 8.83627 69.3215 8.91099 69.763C8.94301 70.0092 8.99211 70.2512 9.04976 70.491C9.10099 70.7033 9.16717 70.9155 9.23549 71.1235C9.37425 71.5374 9.54077 71.964 9.71797 72.3694L6.27017 72.3354L6.27231 72.3376Z" fill="#323233"/>
<path fill-rule="evenodd" clip-rule="evenodd" d="M37.8618 74.9672C37.3623 74.9333 37.0527 74.9142 37.0527 74.9142C37.0527 74.9142 36.0045 74.4982 35.6565 74.3453C35.3064 74.1925 12.3375 73.8041 12.3375 73.8041C12.3375 73.8041 11.6095 74.1904 10.7812 74.2435C10.6872 74.148 10.6018 74.0376 10.542 73.9208C10.3456 73.5282 10.0895 72.8787 10.0596 72.6516L27.4651 73.0337L37.4092 73.1461C37.6056 73.1525 37.7145 73.1568 37.7145 73.1568C37.7145 73.1568 37.6761 73.8381 37.6868 74.1607C37.6974 74.4812 37.7935 74.7613 37.8618 74.9736V74.9672Z" fill="#323233"/>
<path fill-rule="evenodd" clip-rule="evenodd" d="M10.5404 74.2505C9.54556 74.2526 7.07767 74.0489 6.86631 73.9428C6.64215 73.8324 6.30698 73.0534 6.27923 72.7202C6.27282 72.6396 6.26855 72.5759 6.26855 72.5228L9.88073 72.5589C9.87646 72.5759 9.87433 72.5929 9.87433 72.6141C9.87433 72.9006 10.2373 73.722 10.3782 74.0043C10.423 74.0913 10.4785 74.1741 10.5404 74.2505Z" fill="#323233"/>
<path fill-rule="evenodd" clip-rule="evenodd" d="M6.13379 54.4787C6.13379 54.4787 6.69312 44.0404 6.91515 42.5398C7.09448 41.3343 7.45527 39.1269 7.58976 38.3055C7.68583 37.8598 7.80111 37.2846 7.94201 36.6458C8.12988 36.8283 8.41382 36.9769 8.6273 37.0448L8.61663 37.1106C8.36685 38.6069 8.14696 40.1224 7.96123 41.6272C7.84595 42.5611 7.74134 43.5077 7.69224 44.4458C7.63246 45.5835 7.60257 46.7275 7.57909 47.8672C7.5556 48.9242 7.53853 49.9812 7.52572 51.0382C7.51931 51.624 7.51077 52.2119 7.51077 52.7977C7.51077 53.3835 7.50437 53.9311 7.49583 54.4957V54.5594L6.96425 54.5806V54.553L6.13592 54.4745L6.13379 54.4787Z" fill="#5FC4EA"/>
<path fill-rule="evenodd" clip-rule="evenodd" d="M7.90527 36.8051C8.18494 35.5147 8.55854 33.9313 9.04956 32.6133C9.31641 31.8959 9.98249 30.3146 10.7105 28.6209L11.0264 25.4988L10.6913 28.8162L12.3565 24.8259C12.587 24.2996 12.7877 23.839 12.9457 23.4824L12.9777 23.4888L13.2851 22.712C13.2851 22.712 13.8039 21.7569 14.487 20.5216C17.4951 20.0016 48.0086 14.7379 48.5402 14.844C49.0995 14.9544 50.4957 15.7885 50.5512 17.0089C50.6067 18.2314 48.3736 30.3359 48.0385 31.0575C47.7033 31.7791 41.9499 33.6681 40.2185 33.8889C38.4871 34.1117 10.3924 37.5268 9.22035 37.3039C8.75495 37.2169 8.29595 37.0153 7.90954 36.803L7.90527 36.8051Z" fill="black"/>
<path fill-rule="evenodd" clip-rule="evenodd" d="M14.8263 20.466C19.2796 19.6976 48.0234 14.7438 48.5379 14.8478C48.8581 14.9115 49.4537 15.2129 49.9127 15.6883C49.7505 17.3926 47.7586 28.2851 47.6007 28.8837C47.4341 29.5225 46.8193 30.1338 46.371 30.2442C45.9248 30.3545 40.9805 30.5222 38.2436 30.743C35.5067 30.9658 21.7112 32.7423 18.5837 33.1583C15.4561 33.5743 9.67491 34.7141 9.33974 34.7417C9.00457 34.7693 9.06007 34.4912 9.25648 33.6868C9.45289 32.8824 14.5894 21.1367 14.5894 21.1367L14.8221 20.466H14.8263Z" fill="#C9E2F8"/>
<path fill-rule="evenodd" clip-rule="evenodd" d="M45.6374 15.2557C47.3603 14.9819 48.4405 14.8249 48.5366 14.844C48.543 14.844 48.5494 14.8461 48.5579 14.8482L43.1375 30.4483C42.2537 30.4929 41.2909 30.5417 40.375 30.5948L45.6353 15.2536L45.6374 15.2557Z" fill="white"/>
<path fill-rule="evenodd" clip-rule="evenodd" d="M42.518 15.7617C43.103 15.6662 43.658 15.5749 44.1768 15.49L38.9507 30.6868C38.703 30.7038 38.4682 30.7208 38.2462 30.7399C37.9985 30.759 37.6591 30.793 37.2471 30.8354L42.518 15.7595V15.7617Z" fill="white"/>
<path fill-rule="evenodd" clip-rule="evenodd" d="M19.6218 19.6391C20.2942 19.5223 21.0158 19.3992 21.7737 19.2698L16.3746 33.4924C15.6958 33.6049 14.987 33.7259 14.291 33.849L19.6218 19.6412V19.6391Z" fill="white"/>
<path fill-rule="evenodd" clip-rule="evenodd" d="M23.264 19.0161C25.2195 18.6807 27.3608 18.3156 29.5405 17.9442C27.6682 23.1888 25.6593 28.7688 24.2972 32.4173C21.761 32.742 19.607 33.0222 18.5865 33.1581C18.3816 33.1856 18.1638 33.2154 17.9375 33.2493C19.2099 29.7006 21.2935 24.18 23.264 19.0161Z" fill="white"/>
<path fill-rule="evenodd" clip-rule="evenodd" d="M17.3625 20.0285L18.5601 19.8226L13.2123 34.041C12.7619 34.1217 12.3263 34.2023 11.9229 34.2766L17.3625 20.0285Z" fill="white"/>
<path fill-rule="evenodd" clip-rule="evenodd" d="M7.58941 38.3047L7.64279 37.9863C7.64279 37.9863 6.86143 37.8208 6.94469 36.6534C7.02795 35.4882 7.22435 34.8493 7.50402 34.654C7.78369 34.4588 7.92245 34.3548 7.92245 34.3548L7.87976 33.4463C7.87976 33.4463 7.58728 33.0707 7.80931 31.517C8.03347 29.9613 8.36864 27.1299 8.73156 26.491C9.09449 25.8522 9.42966 25.4638 9.42966 25.4638C9.42966 25.4638 9.84809 24.7973 10.1278 24.5468C10.4074 24.2964 10.5462 24.1584 10.5462 24.1584C10.5462 24.1584 10.4907 23.492 10.7127 23.3264C10.9369 23.1609 11.3553 23.1885 11.746 23.2437C12.0918 23.2925 12.7878 23.4517 12.9436 23.4856C12.7878 23.8422 12.585 24.3028 12.3544 24.8291L12.4633 24.5702C12.4633 24.5702 12.2605 24.2858 11.8912 24.4046L11.8485 24.7527L11.0244 25.502L10.7084 28.6241C9.98046 30.3178 9.31438 31.8991 9.04752 32.6165C8.34088 34.5203 7.87122 36.9824 7.58728 38.3047H7.58941Z" fill="black"/>
<path fill-rule="evenodd" clip-rule="evenodd" d="M13.3581 22.6543L13.975 21.436C13.0229 21.6016 12.4785 21.6971 12.4785 21.6971C12.4785 21.6971 12.0601 21.8775 12.1711 22.0728C12.2821 22.268 13.3581 22.6565 13.3581 22.6565V22.6543Z" fill="black"/>
<path fill-rule="evenodd" clip-rule="evenodd" d="M8.79738 37.1428C8.79738 37.1428 8.01602 41.8207 7.87512 44.4589C7.73635 47.0971 7.69365 52.2059 7.69365 52.8023C7.69365 53.3987 7.67871 54.5024 7.67871 54.5024C7.67871 54.5024 19.5186 53.9888 20.6095 53.9612C21.6983 53.9336 41.4991 52.9339 41.4991 52.9339C41.4991 52.9339 42.5324 41.5511 42.6434 40.5514C42.7544 39.5518 43.6212 32.832 43.6212 32.832C43.6212 32.832 41.2195 33.8317 40.4381 33.9145C39.6567 33.9973 10.4455 37.4951 10.4455 37.4951C10.4455 37.4951 9.18805 37.5227 8.79738 37.1406V37.1428Z" fill="#5FC4EA"/>
<path fill-rule="evenodd" clip-rule="evenodd" d="M43.8187 32.8575C43.8187 32.8575 43.7952 32.9997 43.7568 33.2586C43.6052 34.4302 43.4558 35.6018 43.3063 36.7734C43.206 37.5566 43.1078 38.3419 43.0075 39.1251C42.9477 39.6048 42.8836 40.0866 42.8303 40.5684C42.8025 40.821 42.779 41.0756 42.7555 41.3303C42.7107 41.8058 42.6659 42.2812 42.621 42.7588C42.4972 44.0789 42.3755 45.4012 42.256 46.7214C42.066 48.7802 41.8781 50.8411 41.6924 52.902C42.2581 52.8766 46.4062 52.6919 46.8075 52.6134C47.2409 52.5306 49.1943 52.295 49.1943 52.295L49.7387 30.7223C49.7387 30.7223 49.1793 30.7074 48.9296 30.7223C48.6776 30.7371 48.1333 30.7074 48.1333 30.7074C48.1333 30.7074 47.9945 31.3887 46.6389 31.8323C45.2854 32.2759 43.8187 32.8596 43.8187 32.8596V32.8575Z" fill="#5FC4EA"/>
<path fill-rule="evenodd" clip-rule="evenodd" d="M8.56103 45.2134C8.56103 45.2134 8.42227 51.4874 8.53328 52.209C8.64429 52.9306 9.28689 53.3467 10.8517 53.5695C12.4166 53.7924 21.7993 53.2363 21.7993 53.2363L33.5282 52.5698C33.5282 52.5698 38.3594 52.0137 39.3094 51.6529C40.2594 51.2921 40.3704 50.6532 40.5092 49.9316C40.6479 49.21 41.2628 42.3799 41.2628 42.3799C41.2628 42.3799 41.3738 41.8514 40.2295 41.8811C39.0852 41.9087 8.97947 44.6573 8.97947 44.6573C8.97947 44.6573 8.56103 44.8525 8.56103 45.2134Z" fill="black"/>
<path fill-rule="evenodd" clip-rule="evenodd" d="M13.4583 45.4189L13.4434 46.2998L17.9842 46.0387L17.9693 45.0687L13.4583 45.4189Z" fill="white"/>
<path fill-rule="evenodd" clip-rule="evenodd" d="M13.3779 47.1974L13.395 48.3711L17.8526 48.1907V46.9851L13.3779 47.1974Z" fill="white"/>
<path fill-rule="evenodd" clip-rule="evenodd" d="M13.3047 49.3978L13.3196 50.5545L17.7132 50.3423V49.1855L13.3047 49.3978Z" fill="white"/>
<path fill-rule="evenodd" clip-rule="evenodd" d="M13.1719 51.6298L13.1954 52.3579C13.6992 52.3494 14.203 52.3366 14.7068 52.3239C15.7294 52.2963 16.752 52.2623 17.7746 52.222L17.7618 51.3518L13.1719 51.6298Z" fill="white"/>
<path fill-rule="evenodd" clip-rule="evenodd" d="M18.3638 45.0365L18.3467 46.0043L23.2206 45.7454L23.2035 44.6863L21.186 44.8179L18.3638 45.0365Z" fill="white"/>
<path fill-rule="evenodd" clip-rule="evenodd" d="M18.2764 46.9019L18.2956 48.0757L23.0798 47.8953V46.6897L18.2764 46.9019Z" fill="white"/>
<path fill-rule="evenodd" clip-rule="evenodd" d="M18.1973 49.104L18.2165 50.2629L22.9302 50.0507V48.8939L18.1973 49.104Z" fill="white"/>
<path fill-rule="evenodd" clip-rule="evenodd" d="M18.0568 51.3323L18.0867 52.2068C19.6174 52.1473 21.1502 52.0752 22.6788 51.9988L22.9947 51.9839L22.9798 51.0564L18.0547 51.3344L18.0568 51.3323Z" fill="white"/>
<path fill-rule="evenodd" clip-rule="evenodd" d="M23.7161 44.6219L23.7012 45.4794L28.7288 45.2098L28.7117 44.2356L23.7161 44.6219Z" fill="white"/>
<path fill-rule="evenodd" clip-rule="evenodd" d="M23.6289 46.4009L23.646 47.6128L28.5839 47.4281V46.1823L23.6289 46.4009Z" fill="white"/>
<path fill-rule="evenodd" clip-rule="evenodd" d="M23.5469 48.6732L23.564 49.8682L28.4293 49.6495V48.4546L23.5469 48.6732Z" fill="white"/>
<path fill-rule="evenodd" clip-rule="evenodd" d="M23.4025 50.9773L23.4367 51.9621C25.1254 51.8751 26.8119 51.7817 28.4984 51.6777L28.4835 50.6929L23.4004 50.9794L23.4025 50.9773Z" fill="white"/>
<path fill-rule="evenodd" clip-rule="evenodd" d="M29.2112 44.1949L29.1963 45.0502L34.5633 44.7743L34.5462 43.781L29.2112 44.1949Z" fill="white"/>
<path fill-rule="evenodd" clip-rule="evenodd" d="M29.1201 45.9961L29.1393 47.2313L34.4103 47.0424V45.7732L29.1201 45.9961Z" fill="white"/>
<path fill-rule="evenodd" clip-rule="evenodd" d="M29.0312 48.3121L29.0505 49.5304L34.2446 49.3076V48.0872L29.0312 48.3121Z" fill="white"/>
<path fill-rule="evenodd" clip-rule="evenodd" d="M28.876 50.6639L28.9123 51.6529C29.6061 51.6084 30.2978 51.5638 30.9916 51.515C32.0164 51.4449 33.0411 51.3685 34.0637 51.2794C34.1491 51.2709 34.2345 51.2645 34.3177 51.256L34.3028 50.371L28.876 50.6617V50.6639Z" fill="white"/>
<path fill-rule="evenodd" clip-rule="evenodd" d="M7.76465 56.812C7.76465 56.812 8.40724 62.7252 8.46275 63.4468C8.51825 64.1685 9.13309 68.806 9.13309 68.806L11.1612 68.857L13.3836 68.8803L13.3793 68.9143H13.4903L13.5053 68.7721L32.6699 68.8825C32.6699 68.8825 32.8236 68.8973 32.8407 68.9631C32.8535 69.0077 32.8535 69.0331 32.8514 69.0459C33.1182 69.0459 33.3872 69.0395 33.6541 69.0353C34.239 69.0268 34.824 69.0204 35.4089 69.0119C36.2799 68.9992 37.151 68.9886 38.022 68.9758H38.1992C38.2355 68.7912 38.4255 67.8913 38.6774 66.7006L38.7137 66.5244C39.019 65.0068 39.3264 63.4893 39.6402 61.9738C39.969 60.3777 40.302 58.7774 40.6607 57.1877C40.7802 56.6549 40.904 56.1201 41.045 55.5916C41.0855 55.4366 41.1303 55.2774 41.1816 55.1246C41.1901 55.1013 41.1987 55.0737 41.2093 55.0482L8.1596 56.4872C8.1596 56.4872 7.79667 56.3769 7.76892 56.8141L7.76465 56.812Z" fill="#323233"/>
<path fill-rule="evenodd" clip-rule="evenodd" d="M9.96279 72.466C9.96279 72.466 9.43975 71.3135 9.23054 70.4539C9.02132 69.5921 9.04907 69.0233 9.04907 69.0233L13.1672 69.0658C13.1672 69.0658 13.1117 69.4414 13.2505 69.4818C13.3892 69.5242 17.9706 69.7322 17.9706 69.7322V69.2886H27.1996L27.2274 69.8447L32.6734 69.6494C32.6734 69.6494 32.6585 69.2334 32.7994 69.2334C32.9403 69.2334 38.0212 69.1634 38.0212 69.1634C38.0212 69.1634 37.701 70.4539 37.701 71.1076C37.701 71.7613 37.7437 72.9669 37.7437 72.9669L27.4708 72.8501L9.96493 72.466H9.96279Z" fill="#323233"/>
<path fill-rule="evenodd" clip-rule="evenodd" d="M49.737 68.123C49.737 68.0763 49.7413 68.0105 49.7413 67.9256V65.4996H49.7904C49.8651 61.6346 49.9825 54.968 49.9825 54.6347C49.9825 54.1635 49.6196 53.9407 49.3271 53.8982C49.0347 53.8558 41.7441 54.8979 41.4388 55.0083C41.1357 55.1187 38.6059 68.0699 38.3945 68.9975C40.6062 68.8913 42.8201 68.7831 45.0297 68.6494C45.2752 68.6345 45.5207 68.6175 45.7662 68.5963C46.7119 68.5199 47.6577 68.4095 48.5991 68.2843C48.977 68.2334 49.357 68.1803 49.7349 68.123H49.737Z" fill="#323233"/>
<path fill-rule="evenodd" clip-rule="evenodd" d="M39.0078 65.9884C38.8327 66.8565 38.6833 67.6036 38.5723 68.1427C39.945 67.9241 43.6703 67.3234 43.9884 67.2088C44.3791 67.0708 44.6716 66.8204 44.8253 66.5572C44.979 66.294 45.2031 64.3774 45.2309 64.0039C45.2586 63.6282 44.8957 63.8787 44.8957 63.8787L39.0078 65.9884Z" fill="white"/>
<path fill-rule="evenodd" clip-rule="evenodd" d="M38.5808 68.0998L38.5723 68.1444C39.945 67.9258 43.6703 67.3251 43.9884 67.2105C44.3791 67.0725 44.6716 66.8221 44.8253 66.5589C44.979 66.2957 45.2031 64.3791 45.2309 64.0056C45.233 63.9695 45.2309 63.9398 45.2288 63.9143C45.0494 64.5256 44.6203 65.5507 43.6682 66.0835C42.7203 66.6141 40.1606 67.548 38.5808 68.1019V68.0998Z" fill="#C9E2F8"/>
<path fill-rule="evenodd" clip-rule="evenodd" d="M46.0007 54.3097C43.9214 54.6005 41.6114 54.9464 41.4407 55.008C41.24 55.0801 40.0637 60.7875 39.2354 64.8775L45.546 62.1989L46.0007 54.3097Z" fill="white"/>
<path fill-rule="evenodd" clip-rule="evenodd" d="M39.6328 64.707L45.5442 62.1982L45.9904 54.4385C45.4396 55.6164 44.7543 57.0937 43.9175 58.9232C42.4978 62.0242 40.8966 63.7519 39.6328 64.707Z" fill="#C9E2F8"/>
<path fill-rule="evenodd" clip-rule="evenodd" d="M8.49073 65.2701C8.49073 65.2701 6.69745 64.4614 6.24059 64.0496C5.78587 63.6379 5.46777 63.0627 5.46777 63.0627L5.52328 57.7799C5.52328 57.7799 6.9579 57.7671 7.13723 57.8351C7.31656 57.903 7.35712 58.2192 7.39982 58.5482C7.44252 58.8772 8.49073 65.2722 8.49073 65.2722V65.2701Z" fill="white"/>
<path fill-rule="evenodd" clip-rule="evenodd" d="M8.48433 65.2646C8.37545 65.2158 6.68037 64.4432 6.24059 64.0463C5.78587 63.6345 5.46777 63.0594 5.46777 63.0594L5.52328 57.7765C5.52328 57.7765 5.93531 57.7723 6.3452 57.7787C6.49891 59.3408 6.76363 61.3211 7.17352 62.4629C7.67308 63.8553 8.19399 64.7934 8.48433 65.2646Z" fill="#C9E2F8"/>
<path fill-rule="evenodd" clip-rule="evenodd" d="M5.46814 63.1226V63.061L5.48308 61.535L5.52151 57.7803C5.52151 57.7803 5.94208 57.7761 6.35837 57.7824V63.1247C6.80456 63.9312 7.75244 64.7866 8.39289 65.228C8.01929 65.0561 6.6295 64.4045 6.23669 64.0501C5.87162 63.719 5.59409 63.2839 5.50016 63.1247H5.46387L5.46814 63.1226Z" fill="#C9E2F8"/>
<path fill-rule="evenodd" clip-rule="evenodd" d="M60.6982 61.4943C59.5262 61.4943 58.5762 64.2344 58.5762 67.6133C58.5762 70.9923 59.5262 73.7324 60.6982 73.7324C61.8703 73.7324 62.8203 70.9923 62.8203 67.6133C62.8203 64.2344 61.8703 61.4943 60.6982 61.4943Z" fill="white"/>
<path fill-rule="evenodd" clip-rule="evenodd" d="M60.6992 65.0846C60.2143 65.0846 59.8213 66.2159 59.8213 67.6124C59.8213 69.009 60.2143 70.1403 60.6992 70.1403C61.1841 70.1403 61.5771 69.009 61.5771 67.6124C61.5771 66.2159 61.1841 65.0846 60.6992 65.0846Z" fill="black"/>
<path fill-rule="evenodd" clip-rule="evenodd" d="M60.6987 62.6873C60.5897 62.6873 60.5 62.9441 60.5 63.2603C60.5 63.5766 60.5897 63.8334 60.6987 63.8334C60.8076 63.8334 60.8973 63.5766 60.8973 63.2603C60.8973 62.9441 60.8076 62.6873 60.6987 62.6873Z" fill="black"/>
<path fill-rule="evenodd" clip-rule="evenodd" d="M60.6987 72.5403C60.8076 72.5403 60.8973 72.2835 60.8973 71.9672C60.8973 71.651 60.8076 71.3942 60.6987 71.3942C60.5897 71.3942 60.5 71.651 60.5 71.9672C60.5 72.2835 60.5897 72.5403 60.6987 72.5403Z" fill="black"/>
<path fill-rule="evenodd" clip-rule="evenodd" d="M58.9873 67.6119C58.9873 67.9281 59.077 68.1849 59.186 68.1849C59.2949 68.1849 59.3846 67.9281 59.3846 67.6119C59.3846 67.2956 59.2949 67.0388 59.186 67.0388C59.077 67.0388 58.9873 67.2956 58.9873 67.6119Z" fill="black"/>
<path fill-rule="evenodd" clip-rule="evenodd" d="M62.4071 67.6119C62.4071 67.2956 62.3174 67.0388 62.2084 67.0388C62.0995 67.0388 62.0098 67.2956 62.0098 67.6119C62.0098 67.9281 62.0995 68.1849 62.2084 68.1849C62.3174 68.1849 62.4071 67.9281 62.4071 67.6119Z" fill="black"/>
<path fill-rule="evenodd" clip-rule="evenodd" d="M59.4903 64.1306C59.4134 64.3535 59.4134 64.7164 59.4903 64.9414C59.5672 65.1643 59.6932 65.1643 59.7723 64.9414C59.8492 64.7186 59.8492 64.3556 59.7723 64.1306C59.6954 63.9078 59.5693 63.9078 59.4903 64.1306Z" fill="black"/>
<path fill-rule="evenodd" clip-rule="evenodd" d="M61.906 71.0958C61.9829 70.873 61.9829 70.51 61.906 70.2851C61.8291 70.0622 61.7031 70.0622 61.6241 70.2851C61.5472 70.5079 61.5472 70.8709 61.6241 71.0958C61.701 71.3187 61.827 71.3187 61.906 71.0958Z" fill="black"/>
<path fill-rule="evenodd" clip-rule="evenodd" d="M59.4903 71.0958C59.5672 71.3187 59.6932 71.3187 59.7723 71.0958C59.8492 70.873 59.8492 70.51 59.7723 70.2851C59.6954 70.0622 59.5693 70.0622 59.4903 70.2851C59.4134 70.5079 59.4134 70.8709 59.4903 71.0958Z" fill="black"/>
<path fill-rule="evenodd" clip-rule="evenodd" d="M61.906 64.1306C61.8291 63.9078 61.7031 63.9078 61.6241 64.1306C61.5472 64.3535 61.5472 64.7164 61.6241 64.9414C61.701 65.1643 61.827 65.1643 61.906 64.9414C61.9829 64.7186 61.9829 64.3556 61.906 64.1306Z" fill="black"/>
<path fill-rule="evenodd" clip-rule="evenodd" d="M66.1621 59.184L83.0745 59.6827C82.1052 61.3361 82.0668 63.6454 82.0412 64.626C82.0156 65.6065 81.9579 69.3315 82.2376 70.0255C82.4895 70.6495 68.9609 71.9591 66.2368 72.2159C66.4012 68.0389 66.6617 60.8522 66.5635 60.0308C66.5058 59.549 66.3393 59.3049 66.1621 59.184Z" fill="#323233"/>
<path fill-rule="evenodd" clip-rule="evenodd" d="M51.2941 7.06006C53.4717 6.82446 56.4648 6.54642 58.7896 6.51458C62.9227 6.4594 64.4876 6.95818 64.6541 7.34659C64.8206 7.735 65.1558 9.45632 65.1558 10.7892C65.1558 11.3772 65.1771 12.3981 65.2027 13.3532C64.8569 13.506 64.5516 13.7352 64.3381 13.9177L64.2975 13.6928L64.0478 13.9305C64.0328 13.9432 64.02 13.9581 64.0051 13.9708C63.5226 13.6164 63.0358 13.2661 62.5491 12.9181C61.3941 12.0924 60.2306 11.2795 59.0522 10.4878C58.1556 9.88506 57.2482 9.29289 56.3217 8.73681C55.9353 8.50546 55.5446 8.27835 55.1454 8.06823C54.8423 7.90904 54.5242 7.74986 54.2039 7.62888C53.2859 7.28292 52.2954 7.11312 51.292 7.05794L51.2941 7.06006Z" fill="#5FC4EA"/>
<path fill-rule="evenodd" clip-rule="evenodd" d="M9.13711 57.7979C9.13711 57.7979 10.0594 65.0992 10.3945 65.8781C10.7297 66.6549 12.4056 67.4891 13.1869 67.7098C13.9683 67.9327 31.3951 67.9878 32.6504 67.9051C33.9079 67.8223 36.3928 66.8226 36.7003 66.101C37.0077 65.3793 38.9333 56.9107 38.9333 56.9107C38.9333 56.9107 39.2685 56.2994 38.1797 56.3546C37.0909 56.4098 9.69431 57.3819 9.69431 57.3819C9.69431 57.3819 9.12217 57.3967 9.13498 57.7979H9.13711Z" fill="#323233"/>
<path fill-rule="evenodd" clip-rule="evenodd" d="M13.1562 59.3727L13.1861 60.2068L17.4943 60.1219L17.4324 59.2029L13.1562 59.3727Z" fill="white"/>
<path fill-rule="evenodd" clip-rule="evenodd" d="M13.168 61.0535L13.2427 62.1657L17.4761 62.1551L17.4185 61.0132L13.168 61.0535Z" fill="white"/>
<path fill-rule="evenodd" clip-rule="evenodd" d="M13.2061 63.1327L13.2786 64.23L17.448 64.1876L17.3925 63.0924L13.2061 63.1327Z" fill="white"/>
<path fill-rule="evenodd" clip-rule="evenodd" d="M13.1916 65.2444L13.2492 65.9364C13.7274 65.947 14.2078 65.9533 14.686 65.9576C15.6573 65.9682 16.6287 65.9724 17.6001 65.9724L17.5446 65.1489L13.1895 65.2466L13.1916 65.2444Z" fill="white"/>
<path fill-rule="evenodd" clip-rule="evenodd" d="M17.8086 59.1879L17.8406 60.1048L22.4647 60.0326L22.3964 59.0287L20.4836 59.0817L17.8086 59.1879Z" fill="white"/>
<path fill-rule="evenodd" clip-rule="evenodd" d="M17.8174 60.95L17.8921 62.0621L22.4372 62.0643L22.3774 60.9224L17.8174 60.95Z" fill="white"/>
<path fill-rule="evenodd" clip-rule="evenodd" d="M17.8486 63.0313L17.9212 64.1286L22.398 64.0989L22.3425 63.0016L17.8486 63.0313Z" fill="white"/>
<path fill-rule="evenodd" clip-rule="evenodd" d="M17.8262 65.1451L17.8988 65.9729C19.3526 65.9729 20.8064 65.958 22.2603 65.9411L22.5613 65.9368L22.5015 65.0581L17.8262 65.143V65.1451Z" fill="white"/>
<path fill-rule="evenodd" clip-rule="evenodd" d="M22.8809 58.9883L22.9086 59.7991L27.68 59.7248L27.6181 58.8015L22.8809 58.9883Z" fill="white"/>
<path fill-rule="evenodd" clip-rule="evenodd" d="M22.8857 60.6718L22.9626 61.8179L27.6507 61.8222L27.591 60.6421L22.8857 60.6718Z" fill="white"/>
<path fill-rule="evenodd" clip-rule="evenodd" d="M22.9189 62.8175L22.9937 63.9488L27.6114 63.9169L27.5537 62.7856L22.9189 62.8175Z" fill="white"/>
<path fill-rule="evenodd" clip-rule="evenodd" d="M22.8945 64.9974L22.9757 65.9313C24.5768 65.9101 26.1801 65.8825 27.7791 65.8443L27.7172 64.9104L22.8945 64.9974Z" fill="white"/>
<path fill-rule="evenodd" clip-rule="evenodd" d="M28.0928 58.7813L28.1184 59.59L33.2143 59.5242L33.1481 58.5818L28.0928 58.7813Z" fill="white"/>
<path fill-rule="evenodd" clip-rule="evenodd" d="M28.0908 60.4816L28.1698 61.6532L33.1782 61.6638L33.1141 60.4603L28.0908 60.4816Z" fill="white"/>
<path fill-rule="evenodd" clip-rule="evenodd" d="M28.1201 62.6726L28.1991 63.8273L33.1306 63.8039L33.0709 62.6493L28.1201 62.6726Z" fill="white"/>
<path fill-rule="evenodd" clip-rule="evenodd" d="M28.0889 64.8963L28.1721 65.8345C28.8297 65.8175 29.4872 65.8005 30.1426 65.7793C31.114 65.7496 32.0853 65.7156 33.0545 65.6668C33.1357 65.6625 33.2147 65.6583 33.2958 65.6541L33.2381 64.8157L28.0889 64.8963Z" fill="white"/>
<path fill-rule="evenodd" clip-rule="evenodd" d="M49.6294 52.3429C49.6294 52.3429 57.6437 50.4836 58.5659 50.2884C59.4882 50.0931 60.7435 50.1504 60.7435 50.1504L60.8545 38.1288C60.8545 38.1288 55.9401 36.6303 54.9068 36.3523C53.8735 36.0742 53.1199 35.8811 53.1199 35.8811C53.1199 35.8811 57.1142 36.9083 58.44 37.2564C59.7657 37.6045 60.8694 37.9505 60.8694 37.9505L60.3379 19.7652C60.3379 19.7652 55.1715 16.7937 53.8586 16.2398C52.5456 15.6837 52.0439 15.5733 51.8198 15.6837C51.5956 15.794 49.892 30.7871 49.8365 31.564C49.781 32.3408 49.4181 51.4982 49.4181 51.4982C49.4181 51.4982 49.3476 52.4151 49.6273 52.345L49.6294 52.3429Z" fill="#5FC4EA"/>
<path fill-rule="evenodd" clip-rule="evenodd" d="M58.4031 34.4631C57.3763 34.2339 56.3494 34.0047 55.3225 33.7712C54.7226 33.6353 54.1206 33.4995 53.5207 33.3594C53.1279 33.2682 52.7329 33.179 52.3423 33.0793C50.8756 32.7015 50.438 31.5108 50.3419 30.163C50.3206 29.8595 50.3419 29.5263 50.3611 29.227C50.391 28.7473 50.4337 28.2676 50.4785 27.7901C50.5981 26.5357 50.7433 25.2834 50.8927 24.0333C51.1403 21.9703 51.4051 19.9072 51.6847 17.8506L51.7338 17.4897H52.1032C53.0147 17.4897 55.2798 18.7208 56.1359 19.1814C57.4019 19.8648 58.6678 20.5949 59.8997 21.3463L60.1388 21.4927L60.1452 21.7623C60.1836 23.6131 60.2071 25.4639 60.2156 27.3125C60.2199 28.2719 60.222 29.2312 60.2114 30.1885C60.2028 30.8889 60.1964 31.6041 60.1452 32.2982C60.0939 32.9944 59.9338 33.9856 59.3019 34.3718C59.05 34.5268 58.7041 34.5735 58.4031 34.4589V34.4631Z" fill="black"/>
<path fill-rule="evenodd" clip-rule="evenodd" d="M50.4636 31.0314C50.4017 30.7555 50.3633 30.4626 50.3419 30.1633C50.3206 29.8598 50.3419 29.5266 50.3611 29.2273C50.391 28.7476 50.4337 28.2679 50.4785 27.7904C50.5981 26.536 50.7433 25.2837 50.8927 24.0336C51.008 23.0721 51.1275 22.1107 51.2492 21.1492V21.1343L51.2599 21.0749C51.3175 20.6313 51.3709 20.2153 51.42 19.8375C51.5075 19.1753 51.5951 18.5152 51.6847 17.8551V17.8381C53.0425 17.8381 59.2891 21.6543 59.2891 21.6543C59.2891 21.6543 59.4577 29.9553 59.2891 32.2369C59.1204 34.5186 58.1064 34.0432 58.1064 34.0432C58.1064 34.0432 52.9251 32.8907 51.9687 32.6423C51.2129 32.4471 50.7027 31.9929 50.4657 31.0335L50.4636 31.0314Z" fill="#C9E2F8"/>
<path fill-rule="evenodd" clip-rule="evenodd" d="M13.3582 22.6572C13.3582 22.6572 11.9897 22.5744 11.7933 22.2687C11.5969 21.9631 12.3527 21.3518 12.3527 21.3518C12.3527 21.3518 14.8248 18.5884 15.2155 18.3677C15.6062 18.1448 16.3875 17.784 17.5062 17.5908C18.6227 17.3956 40.853 12.6773 43.1992 12.5096C45.5454 12.3441 49.3433 11.788 51.0747 12.3993C52.8061 13.0105 52.6951 13.7046 52.7783 14.3435C52.8616 14.9823 52.5542 15.7591 51.8283 15.9544C51.1025 16.1497 49.5376 15.5936 47.8916 15.704C46.2435 15.8143 12.4807 21.6999 12.4807 21.6999C12.4807 21.6999 12.0623 21.8803 12.1733 22.0756C12.2843 22.2709 13.3603 22.6593 13.3603 22.6593L13.3582 22.6572Z" fill="#5FC4EA"/>
<path fill-rule="evenodd" clip-rule="evenodd" d="M15.0788 18.4712C15.1365 18.4203 15.1834 18.3863 15.2155 18.3672C15.6062 18.1443 16.3875 17.7835 17.5062 17.5904C18.6227 17.3951 40.853 12.6769 43.1992 12.5092C44.2367 12.4349 45.5582 12.2863 46.8583 12.1951C46.5595 12.5559 46.1987 12.974 46.0193 13.1056C45.6842 13.3561 37.9496 15.0222 36.6366 15.2981C35.3237 15.5762 18.2342 18.7408 17.5638 18.8787C16.8935 19.0167 15.1621 19.1568 14.9102 18.9615C14.8269 18.8978 14.9187 18.7026 15.081 18.4691L15.0788 18.4712Z" fill="black"/>
<path fill-rule="evenodd" clip-rule="evenodd" d="M60.9795 50.206L66.5088 51.316C66.5088 51.316 66.8717 46.1245 66.8717 44.9295C66.8717 43.7346 66.7607 40.6825 66.7607 40.6825C66.7607 40.6825 63.7591 39.2795 63.1869 39.0864C62.6148 38.8911 61.0499 38.282 61.0499 38.282C61.0499 38.282 61.1481 48.1387 60.9795 50.206Z" fill="#5FC4EA"/>
<path fill-rule="evenodd" clip-rule="evenodd" d="M61.0953 38.1005C61.0953 38.1005 60.6747 25.8581 60.5616 25.2192C60.4506 24.5804 60.1709 19.7772 60.1709 19.7772C60.1709 19.7772 65.1558 22.8442 65.38 23.0119C65.6041 23.1774 65.5892 23.3175 65.6169 23.4703C65.6447 23.6231 66.0631 27.0382 66.1464 27.6494C66.2296 28.2607 66.7356 38.1026 66.6651 40.4352C66.1165 40.1805 65.5678 39.9279 65.017 39.6775C64.6648 39.5162 64.3104 39.357 63.9539 39.202C63.7254 39.1023 63.4799 38.9919 63.2451 38.9113C62.9227 38.8009 62.6004 38.6778 62.2801 38.5568C61.8916 38.4104 61.503 38.2597 61.1166 38.109L61.0932 38.0984L61.0953 38.1005Z" fill="#5FC4EA"/>
<path fill-rule="evenodd" clip-rule="evenodd" d="M49.3343 52.524L49.4731 52.5028C49.4731 52.5028 49.4902 52.5112 49.4966 52.5134C49.5542 52.5346 49.614 52.5367 49.6716 52.5219C50.1456 52.4072 50.6259 52.3011 51.102 52.1907C52.1267 51.953 53.1514 51.7153 54.1783 51.4797C55.1112 51.2654 56.0442 51.0489 56.9771 50.8366C57.5172 50.7135 58.0595 50.584 58.6017 50.4694C58.7811 50.4312 58.9647 50.4058 59.1483 50.3845C59.4343 50.3527 59.7225 50.3378 60.0107 50.3293C62.0196 50.6286 66.5498 51.7599 66.5498 51.7599C66.5498 51.7599 66.774 52.0103 66.885 52.5643C66.996 53.1204 66.9405 56.563 66.9405 56.563L65.0618 56.2786C65.2091 56.2043 65.3244 56.0855 65.3244 55.9242C65.3244 55.731 64.9337 54.9839 64.8355 54.7993C64.7096 54.5615 64.5687 54.3132 64.4107 54.0946C64.0819 53.6404 63.6848 53.3645 63.1767 53.1501C63.1276 53.114 63.0785 53.0843 63.0316 53.0652C62.658 52.9124 61.9705 52.8169 61.2938 52.7765C60.8988 52.7341 60.4484 52.7065 60.0726 52.7574C60.0513 52.7596 60.03 52.7638 60.0107 52.7659C59.7695 52.7808 59.5838 52.8063 59.4856 52.8423C59.381 52.8806 59.2166 53.0121 59.0116 53.2371C58.9049 53.3326 58.8045 53.4366 58.7085 53.547C58.3413 53.9736 58.021 54.5 57.7328 54.9818C57.6069 55.1898 57.5044 55.419 57.4105 55.644C57.2888 55.9327 57.182 56.2277 57.0796 56.5248C56.9515 56.8984 56.8298 57.2762 56.7167 57.6561C56.612 57.9702 56.5117 58.2992 56.4135 58.6452C55.7624 60.9587 55.5531 61.9541 55.4763 62.4274C55.4443 62.5696 55.4123 62.7097 55.3802 62.8519L55.3205 63.1236L55.3525 63.1172C55.3034 63.2615 55.2222 63.3952 55.0045 63.4886C54.6843 63.6266 51.8065 63.7794 51.3453 63.7667C50.8842 63.7518 50.7028 63.8219 50.2971 63.391C49.9129 62.9835 49.868 62.3871 49.8638 61.5678C49.9235 58.2398 49.9833 54.8629 49.9833 54.6295C49.9833 54.4788 49.947 54.3535 49.8872 54.2517C49.8851 54.1986 49.8808 54.1668 49.8787 54.1583C49.8232 54.0203 49.3194 52.8954 49.3343 52.5197V52.524Z" fill="#323233"/>
<path fill-rule="evenodd" clip-rule="evenodd" d="M55.5627 62.8955C55.5627 62.8955 56.9439 56.6618 57.8939 55.0806C58.844 53.4972 59.2901 53.0536 60.0993 52.9433C60.9084 52.8329 62.6547 53.1385 63.0603 53.3041C63.4659 53.4696 63.8972 53.7074 64.2601 54.2061C64.623 54.7049 65.1397 55.8022 65.1397 55.9275C65.1397 56.0527 64.9155 56.1906 64.6785 56.1906C64.4416 56.1906 60.6287 55.4817 59.9455 55.7471C59.2624 56.0102 58.3124 57.0651 57.753 58.6485C57.1937 60.2318 56.7625 61.7451 56.5383 62.1187C56.3141 62.4944 56.3291 62.7576 55.5605 62.8955H55.5627Z" fill="#260000"/>
<path fill-rule="evenodd" clip-rule="evenodd" d="M49.4328 28.1309V30.2555C49.4328 30.2555 50.2697 30.3383 50.4234 30.2279C50.5771 30.1175 50.703 29.6867 50.9123 29.6718C51.1215 29.6569 51.8623 29.7694 52.0843 29.6294C52.3085 29.4914 52.2658 28.7124 52.2658 28.7124C52.2658 28.7124 53.8861 28.0035 54.2896 27.8231C54.6952 27.6427 54.8212 27.6151 54.9877 27.5727C55.1542 27.5302 55.2674 27.4899 55.2674 27.4899C55.2674 27.4899 54.6397 27.7404 54.486 28.2816C54.3323 28.8228 54.2896 30.4189 54.3195 30.8922C54.3472 31.3634 54.7934 31.8495 55.088 32.0872C55.3805 32.3228 55.6602 32.3779 56.038 32.3504C56.4159 32.3228 58.8176 32.0596 59.1656 31.9068C59.5157 31.7539 59.8787 31.3231 59.9342 31.045C59.9897 30.767 60.0452 28.8101 59.9342 28.462C59.8232 28.1139 59.5157 27.8507 59.2638 27.7955C59.0119 27.7404 56.0658 27.5175 56.0658 27.5175C56.0658 27.5175 59.1101 27.2267 59.3748 27.1694C59.6396 27.1142 59.9064 26.919 59.9897 26.5857C60.0729 26.2525 60.5341 21.2265 60.5341 19.9785C60.5341 18.7305 60.1989 17.924 59.7805 17.8412C59.362 17.7584 56.8194 17.3127 55.5364 17.2575C54.2512 17.2023 52.5753 17.007 52.5753 17.007V16.3406C52.5753 16.3406 52.3938 16.1453 51.9605 16.0901C51.5271 16.035 51.1919 16.1326 51.1919 16.1326C51.1919 16.1326 51.0809 16.243 51.066 16.4658C51.051 16.6887 51.0233 18.3124 51.0233 18.3124C51.0233 18.3124 51.6232 18.4928 51.8046 18.4376C51.9861 18.3824 52.4323 18.0619 52.9767 18.0343C53.5211 18.0067 54.9044 18.132 55.0432 18.2975C55.182 18.4631 55.0283 19.2271 54.9877 19.4351C54.945 19.6432 54.723 21.1989 54.6376 22.6422C54.5543 24.0855 54.5543 26.1952 54.5543 26.1952C54.5543 26.1952 53.6876 26.8617 52.9212 27.2777C52.1526 27.6937 51.273 28.2773 51.0361 28.3198C50.7991 28.3622 49.7786 27.8337 49.4307 28.1245L49.4328 28.1309Z" fill="black"/>
<path fill-rule="evenodd" clip-rule="evenodd" d="M22.4757 34.5207C22.4757 34.5207 20.3301 32.532 19.933 32.0693C19.536 31.6066 18.9104 31.1884 18.9104 31.1884C18.9104 31.1884 15.5416 31.5068 13.9896 31.7976C12.4397 32.0884 10.9111 32.4916 10.9111 32.4916C10.9111 32.4916 12.3436 31.7233 13.759 31.3434C15.1744 30.9635 17.6189 30.6854 18.5689 30.7003C19.5189 30.7151 20.7635 30.9953 20.7635 30.9953L19.4442 31.1014L22.7105 33.6399C22.7105 33.6399 23.1716 33.9392 23.1609 34.1748C23.1503 34.4103 22.8727 34.6629 22.4735 34.5186L22.4757 34.5207Z" fill="black"/>
<path fill-rule="evenodd" clip-rule="evenodd" d="M41.5377 33.3328C41.5377 33.3328 38.5574 31.117 38.0024 30.6012C37.4473 30.0876 36.5827 29.6185 36.5827 29.6185C36.5827 29.6185 31.9437 29.9263 29.8088 30.2277C27.6761 30.5269 25.5732 30.9514 25.5732 30.9514C25.5732 30.9514 27.5394 30.1237 29.4843 29.7225C31.4292 29.3214 34.7958 29.0476 36.1045 29.0773C37.4132 29.107 39.1339 29.4296 39.1339 29.4296L37.3171 29.5294L41.8494 32.3671C41.8494 32.3671 42.4899 32.7024 42.477 32.9614C42.4642 33.2203 42.0864 33.4941 41.5356 33.3307L41.5377 33.3328Z" fill="black"/>
</g>
<circle opacity="0.8" cx="58" cy="40" r="18" fill="#00DA7D"/>
<path d="M65.8657 38.928L58.9142 38.949V32.1343C58.9145 31.9935 58.887 31.854 58.8332 31.7238C58.7795 31.5936 58.7005 31.4753 58.6009 31.3757C58.5013 31.2762 58.3831 31.1972 58.2529 31.1435C58.1227 31.0897 57.9832 31.0622 57.8424 31.0625C57.7016 31.0622 57.562 31.0897 57.4319 31.1435C57.3017 31.1972 57.1834 31.2762 57.0838 31.3757C56.9843 31.4753 56.9053 31.5936 56.8516 31.7238C56.7978 31.854 56.7703 31.9935 56.7706 32.1343L56.7916 38.9282H50.1343C49.9935 38.9279 49.854 38.9554 49.7238 39.0092C49.5936 39.0629 49.4753 39.1419 49.3757 39.2415C49.2762 39.341 49.1972 39.4593 49.1435 39.5895C49.0897 39.7197 49.0622 39.8592 49.0625 40C49.0622 40.1408 49.0897 40.2803 49.1435 40.4105C49.1972 40.5406 49.2762 40.6589 49.3758 40.7585C49.4753 40.858 49.5936 40.937 49.7238 40.9907C49.854 41.0444 49.9935 41.0719 50.1343 41.0716H56.7811V47.8657C56.7808 48.0065 56.8084 48.146 56.8621 48.2762C56.9159 48.4064 56.9948 48.5246 57.0944 48.6242C57.194 48.7238 57.3122 48.8027 57.4424 48.8565C57.5726 48.9102 57.7121 48.9378 57.8529 48.9375C57.9937 48.9378 58.1332 48.9102 58.2634 48.8565C58.3935 48.8027 58.5118 48.7238 58.6114 48.6242C58.711 48.5246 58.7899 48.4064 58.8437 48.2762C58.8974 48.146 58.925 48.0065 58.9247 47.8657V41.0718H65.8657C66.0065 41.0721 66.146 41.0445 66.2762 40.9908C66.4064 40.937 66.5246 40.8581 66.6242 40.7585C66.7238 40.6589 66.8027 40.5406 66.8565 40.4105C66.9102 40.2803 66.9378 40.1408 66.9375 40C66.9373 39.7158 66.8243 39.4433 66.6233 39.2423C66.4224 39.0414 66.1499 38.9283 65.8657 38.928Z" fill="white"/>
<defs>
<clipPath id="clip0_739_8397">
<rect width="118" height="80" fill="white"/>
</clipPath>
</defs>
</svg>
