<svg width="22" height="24" viewBox="0 0 22 24" fill="none" xmlns="http://www.w3.org/2000/svg">
<g id="Group">
<path id="Vector" d="M15 13C14.5343 13.621 13.9303 14.125 13.2361 14.4721C12.5418 14.8193 11.7762 15 11 15C10.2238 15 9.45821 14.8193 8.76393 14.4721C8.06966 14.125 7.46574 13.621 7 13C6.60803 13.5284 6.11479 13.9734 5.54903 14.3092C4.98328 14.6449 4.35634 14.8647 3.70477 14.9556C3.0532 15.0466 2.39005 15.0069 1.75398 14.8388C1.11791 14.6708 0.521662 14.3778 0 13.977V19C0.00158786 20.3256 0.528882 21.5964 1.46622 22.5338C2.40356 23.4711 3.6744 23.9984 5 24H17C18.3256 23.9984 19.5964 23.4711 20.5338 22.5338C21.4711 21.5964 21.9984 20.3256 22 19V13.974C21.4785 14.375 20.8824 14.6682 20.2465 14.8364C19.6105 15.0047 18.9474 15.0447 18.2959 14.954C17.6443 14.8633 17.0173 14.6439 16.4515 14.3084C15.8856 13.9729 15.3922 13.5281 15 13Z" fill="#483D6B"/>
<path id="Vector_2" d="M20.7 3.13101C20.5064 2.2401 20.0125 1.44281 19.301 0.872768C18.5895 0.302728 17.7037 -0.00540822 16.792 9.1976e-06H16V3.00001C16 3.26523 15.8946 3.51958 15.7071 3.70712C15.5196 3.89465 15.2652 4.00001 15 4.00001C14.7348 4.00001 14.4804 3.89465 14.2929 3.70712C14.1054 3.51958 14 3.26523 14 3.00001V9.1976e-06H8V3.00001C8 3.26523 7.89464 3.51958 7.70711 3.70712C7.51957 3.89465 7.26522 4.00001 7 4.00001C6.73478 4.00001 6.48043 3.89465 6.29289 3.70712C6.10536 3.51958 6 3.26523 6 3.00001V9.1976e-06H5.208C4.29619 -0.00535929 3.41025 0.302919 2.69872 0.873156C1.9872 1.44339 1.49336 2.24092 1.3 3.13201L0.022 8.90001L0 10.02C0.00131322 10.414 0.0802108 10.8038 0.232188 11.1673C0.384166 11.5308 0.606246 11.8608 0.885751 12.1384C1.45024 12.6991 2.21435 13.0127 3.01 13.01C3.40397 13.0087 3.79381 12.9298 4.15729 12.7778C4.52076 12.6258 4.85074 12.4038 5.12839 12.1243C5.40604 11.8448 5.62591 11.5133 5.77547 11.1488C5.92502 10.7843 6.00131 10.394 6 10C6 9.73479 6.10536 9.48044 6.29289 9.2929C6.48043 9.10537 6.73478 9.00001 7 9.00001C7.26522 9.00001 7.51957 9.10537 7.70711 9.2929C7.89464 9.48044 8 9.73479 8 10C8 10.7957 8.31607 11.5587 8.87868 12.1213C9.44129 12.6839 10.2044 13 11 13C11.7956 13 12.5587 12.6839 13.1213 12.1213C13.6839 11.5587 14 10.7957 14 10C14 9.73479 14.1054 9.48044 14.2929 9.2929C14.4804 9.10537 14.7348 9.00001 15 9.00001C15.2652 9.00001 15.5196 9.10537 15.7071 9.2929C15.8946 9.48044 16 9.73479 16 10C16 10.7957 16.3161 11.5587 16.8787 12.1213C17.4413 12.6839 18.2044 13 19 13C19.7956 13 20.5587 12.6839 21.1213 12.1213C21.6839 11.5587 22 10.7957 22 10V9.10701L20.7 3.13101Z" fill="#483D6B"/>
</g>
</svg>
