<svg width="24" height="25" viewBox="0 0 24 25" fill="none" xmlns="http://www.w3.org/2000/svg">
<g clip-path="url(#clip0_613_6494)">
<path d="M24 10.5001C24 10.4271 23.992 10.3543 23.976 10.2831L22.676 4.41508C22.4345 3.30132 21.8173 2.30447 20.9281 1.59167C20.0389 0.878865 18.9316 0.493464 17.792 0.500084H6.208C5.06905 0.494384 3.96273 0.880206 3.07433 1.59293C2.18593 2.30565 1.5694 3.302 1.328 4.41508L0.0240014 10.2831C0.00800947 10.3543 -3.96599e-05 10.4271 1.3694e-06 10.5001V11.5001C-0.000805438 12.4737 0.354923 13.4139 1 14.1431V19.5001C1.00159 20.8257 1.52888 22.0965 2.46622 23.0339C3.40356 23.9712 4.67441 24.4985 6 24.5001H18C19.3256 24.4985 20.5964 23.9712 21.5338 23.0339C22.4711 22.0965 22.9984 20.8257 23 19.5001V14.1431C23.6451 13.4139 24.0008 12.4737 24 11.5001V10.5001ZM2 10.6091L3.28 4.84908C3.42504 4.18134 3.79502 3.58366 4.32801 3.15606C4.86101 2.72846 5.52469 2.49689 6.208 2.50008H7V5.50008C7 5.7653 7.10536 6.01965 7.29289 6.20719C7.48043 6.39473 7.73478 6.50008 8 6.50008C8.26522 6.50008 8.51957 6.39473 8.70711 6.20719C8.89464 6.01965 9 5.7653 9 5.50008V2.50008H15V5.50008C15 5.7653 15.1054 6.01965 15.2929 6.20719C15.4804 6.39473 15.7348 6.50008 16 6.50008C16.2652 6.50008 16.5196 6.39473 16.7071 6.20719C16.8946 6.01965 17 5.7653 17 5.50008V2.50008H17.792C18.4753 2.49689 19.139 2.72846 19.672 3.15606C20.205 3.58366 20.575 4.18134 20.72 4.84908L22 10.6091V11.5001C22 12.0305 21.7893 12.5392 21.4142 12.9143C21.0391 13.2894 20.5304 13.5001 20 13.5001H19C18.4696 13.5001 17.9609 13.2894 17.5858 12.9143C17.2107 12.5392 17 12.0305 17 11.5001C17 11.2349 16.8946 10.9805 16.7071 10.793C16.5196 10.6054 16.2652 10.5001 16 10.5001C15.7348 10.5001 15.4804 10.6054 15.2929 10.793C15.1054 10.9805 15 11.2349 15 11.5001C15 12.0305 14.7893 12.5392 14.4142 12.9143C14.0391 13.2894 13.5304 13.5001 13 13.5001H11C10.4696 13.5001 9.96086 13.2894 9.58579 12.9143C9.21072 12.5392 9 12.0305 9 11.5001C9 11.2349 8.89464 10.9805 8.70711 10.793C8.51957 10.6054 8.26522 10.5001 8 10.5001C7.73478 10.5001 7.48043 10.6054 7.29289 10.793C7.10536 10.9805 7 11.2349 7 11.5001C7 12.0305 6.78929 12.5392 6.41422 12.9143C6.03914 13.2894 5.53043 13.5001 5 13.5001H4C3.46957 13.5001 2.96086 13.2894 2.58579 12.9143C2.21072 12.5392 2 12.0305 2 11.5001V10.6091ZM18 22.5001H6C5.20435 22.5001 4.44129 22.184 3.87868 21.6214C3.31607 21.0588 3 20.2957 3 19.5001V15.3731C3.3266 15.4577 3.66263 15.5003 4 15.5001H5C5.56782 15.5004 6.12916 15.3795 6.64651 15.1455C7.16386 14.9115 7.6253 14.5697 8 14.1431C8.3747 14.5697 8.83615 14.9115 9.3535 15.1455C9.87085 15.3795 10.4322 15.5004 11 15.5001H13C13.5678 15.5004 14.1292 15.3795 14.6465 15.1455C15.1639 14.9115 15.6253 14.5697 16 14.1431C16.3747 14.5697 16.8361 14.9115 17.3535 15.1455C17.8708 15.3795 18.4322 15.5004 19 15.5001H20C20.3374 15.5003 20.6734 15.4577 21 15.3731V19.5001C21 20.2957 20.6839 21.0588 20.1213 21.6214C19.5587 22.184 18.7957 22.5001 18 22.5001Z" fill="#483D6B"/>
</g>
<defs>
<clipPath id="clip0_613_6494">
<rect width="24" height="24" fill="white" transform="translate(0 0.5)"/>
</clipPath>
</defs>
</svg>
