<svg width="221" height="166" viewBox="0 0 221 166" fill="none" xmlns="http://www.w3.org/2000/svg">
<g clip-path="url(#clip0_3979_88597)">
<path d="M108.381 31.5909C57.7308 28.9272 29.0481 70.2689 31.7949 111.394C36.0732 111.295 40.339 111.101 43.9254 110.912C43.174 96.8032 46.6394 79.6657 56.4384 65.4266C65.4231 52.3705 79.6343 41.6676 102.892 39.7455C148.568 35.9708 171.02 96.78 175.625 110.974C177.835 110.835 180.17 110.513 182.473 110.081C179.861 96.4013 164.945 34.5656 108.381 31.5909Z" fill="#98D2D8"/>
<path d="M102.816 39.383C79.0987 40.5548 65.1619 52.4596 56.1944 65.6333C46.5311 79.8295 43.1778 96.8829 43.9248 110.911C48.6998 110.66 52.2681 110.417 53.0366 110.417C57.1529 110.417 49.8914 60.3955 89.1699 50.6174C150.002 35.4732 160.522 106.534 166.011 109.64C168.241 110.903 171.738 111.218 175.624 110.973C171.02 96.7791 148.592 37.1207 102.816 39.383Z" fill="#B9A4B8"/>
<path d="M98.3182 22.2728C33.7818 25.3509 20.8212 94.9053 18.6621 111.259C22.4738 111.501 27.1385 111.504 31.7941 111.396C31.2121 86.9326 39.8664 62.9493 57.0588 48.2842C63.7961 42.5373 71.3975 37.8447 80.941 35.682C89.8095 33.6724 98.0752 31.417 108.261 31.9528C130.68 33.1319 145.57 44.3324 156.29 57.5601C163.137 66.0089 168.651 74.6323 172.409 83.3128C177.611 95.3313 181.557 105.288 182.473 110.083C186.159 109.39 189.753 108.414 192.611 107.438C189.954 93.5486 172.191 18.7495 98.3182 22.2728Z" fill="#FCCE5E"/>
<path d="M198.486 104.593C198.486 104.593 186.518 11.3373 101.52 15.2819C16.5222 19.226 9.26277 104.13 10.0425 108.864C10.2691 110.239 13.759 110.945 18.662 111.257C20.8211 94.9035 33.7813 25.3495 98.3181 22.2714C127.394 20.8847 147.116 32.2683 161.308 46.6584C183.173 68.8299 191 99.0136 192.611 107.436C195.775 106.355 198.035 105.277 198.486 104.593Z" fill="#E5839A"/>
<path d="M18.6627 111.761C18.6441 111.761 18.6256 111.76 18.6071 111.758C18.3271 111.727 18.125 111.477 18.1556 111.198C19.2972 100.786 23.7874 74.1736 40.779 51.9922C57.6978 29.906 81.1144 19.8105 110.369 21.9844C145.052 24.5615 165.708 47.6483 176.929 66.5625C189.065 87.0169 193.074 107.135 193.112 107.336C193.166 107.611 192.985 107.878 192.709 107.931C192.428 107.982 192.165 107.803 192.112 107.529C192.073 107.33 188.09 87.3592 176.037 67.0532C164.94 48.3591 144.526 25.5407 110.294 22.9967C81.4039 20.8473 58.2863 30.8124 41.5907 52.6082C24.7537 74.5866 20.3018 100.98 19.1693 111.308C19.1408 111.568 18.9198 111.761 18.6627 111.761Z" fill="#241726"/>
<path d="M31.7946 111.903C31.5158 111.903 31.2884 111.68 31.2845 111.401C31.0058 89.1118 36.8491 70.0742 48.1835 56.3455C61.3129 40.4429 81.1151 32.0674 107.041 31.4528C129.748 30.92 150.088 44.3364 165.851 70.2685C177.724 89.7998 182.916 109.756 182.967 109.956C183.037 110.227 182.872 110.504 182.599 110.573C182.326 110.642 182.049 110.478 181.979 110.207C181.929 110.009 176.767 90.179 164.967 70.7742C154.115 52.9303 135.259 31.7801 107.064 32.4681C81.4494 33.0755 61.904 41.3257 48.971 56.9906C37.7913 70.5314 32.0281 89.3422 32.3038 111.388C32.3072 111.669 32.0819 111.899 31.8006 111.903C31.7984 111.903 31.7963 111.903 31.7946 111.903Z" fill="#241726"/>
<path d="M175.624 111.482C175.401 111.482 175.196 111.334 175.133 111.109C174.95 110.446 156.264 44.782 109.953 40.2991C91.8831 38.5512 75.9271 44.3183 63.8148 56.9806C48.4391 73.0539 42.3515 96.7259 44.4296 110.839C44.4706 111.116 44.2776 111.374 43.9993 111.415C43.7158 111.457 43.4616 111.264 43.4207 110.986C41.3076 96.6362 47.478 72.5864 63.0764 56.2806C75.4132 43.3832 91.6556 37.5054 110.052 39.289C134.647 41.6696 151.306 61.0204 160.951 76.8346C171.372 93.9214 176.07 110.673 176.116 110.84C176.191 111.11 176.032 111.39 175.761 111.464C175.715 111.476 175.669 111.482 175.624 111.482Z" fill="#241726"/>
<path d="M33.6144 134.62C33.2246 134.62 32.886 134.619 32.0002 130.796C28.7916 130.115 28.5233 129.742 28.4203 129.598C28.3281 129.47 28.2923 129.239 28.3384 129.089C28.4065 128.864 28.5482 128.401 32.2626 126.993C33.6493 123.594 34.1017 123.594 34.4037 123.594C34.5678 123.594 34.791 123.711 34.8866 123.845C35.1197 124.169 35.3183 124.997 35.6185 126.322C35.7107 126.731 35.8223 127.223 35.8891 127.446C36.0834 127.536 36.4995 127.694 36.8454 127.825C38.7367 128.541 39.223 128.783 39.3044 129.245C39.3359 129.421 39.2424 129.673 39.1063 129.789C38.713 130.127 36.8747 130.767 35.9041 131.09C34.2736 134.598 33.9475 134.609 33.6321 134.619C33.6269 134.62 33.62 134.62 33.6144 134.62ZM29.7407 129.187C30.386 129.382 31.5285 129.662 32.5275 129.868C32.7236 129.909 32.8778 130.059 32.9217 130.253C33.1582 131.294 33.4701 132.479 33.7015 133.176C34.0711 132.538 34.6217 131.439 35.0705 130.466C35.1291 130.338 35.2394 130.24 35.3738 130.196C36.235 129.912 37.2082 129.565 37.8307 129.309C37.4081 129.125 36.8485 128.912 36.4823 128.774C35.4048 128.366 35.2015 128.277 35.0632 128.085C34.9422 127.917 34.872 127.643 34.6234 126.544C34.5333 126.147 34.3963 125.542 34.271 125.075C33.9397 125.683 33.4835 126.687 33.1246 127.577C33.0716 127.709 32.9652 127.813 32.8313 127.863C31.7086 128.286 30.433 128.824 29.7407 129.187Z" fill="#241726"/>
<path d="M184.805 137.991C184.415 137.991 184.076 137.991 183.19 134.167C179.982 133.486 179.713 133.113 179.61 132.969C179.518 132.841 179.482 132.611 179.528 132.46C179.596 132.235 179.738 131.772 183.453 130.364C184.839 126.965 185.293 126.965 185.594 126.965C185.758 126.965 185.981 127.082 186.077 127.216C186.309 127.54 186.508 128.368 186.808 129.692C186.901 130.101 187.012 130.595 187.079 130.818C187.273 130.908 187.691 131.066 188.038 131.198C189.927 131.914 190.413 132.155 190.495 132.617C190.526 132.793 190.432 133.045 190.296 133.161C189.904 133.498 188.065 134.139 187.095 134.462C185.464 137.969 185.138 137.98 184.823 137.99C184.817 137.991 184.81 137.991 184.805 137.991ZM180.931 132.558C181.577 132.753 182.72 133.034 183.718 133.239C183.914 133.28 184.068 133.43 184.112 133.625C184.348 134.665 184.66 135.851 184.892 136.547C185.261 135.91 185.812 134.81 186.261 133.837C186.319 133.71 186.43 133.612 186.564 133.568C187.426 133.284 188.398 132.935 189.02 132.68C188.598 132.496 188.039 132.285 187.674 132.146C186.595 131.737 186.392 131.649 186.253 131.455C186.132 131.288 186.062 131.014 185.813 129.915C185.723 129.517 185.586 128.914 185.461 128.447C185.129 129.055 184.673 130.058 184.314 130.948C184.262 131.081 184.155 131.184 184.021 131.235C182.899 131.656 181.623 132.195 180.931 132.558Z" fill="#241726"/>
<path d="M34.9135 31.3892C34.5237 31.3892 34.1851 31.3888 33.2993 27.5652C30.0907 26.8845 29.8224 26.5113 29.7194 26.368C29.6272 26.2398 29.5914 26.009 29.6371 25.8584C29.706 25.6332 29.8469 25.1704 33.5617 23.7622C34.9484 20.3633 35.4008 20.3633 35.7028 20.3633C35.8669 20.3633 36.0901 20.4808 36.1857 20.6142C36.4183 20.9389 36.6169 21.7659 36.9172 23.0901C37.0098 23.4997 37.1214 23.993 37.1882 24.2165C37.3825 24.3061 37.7986 24.464 38.1441 24.5948C40.0353 25.3111 40.5221 25.553 40.6031 26.015C40.6346 26.1909 40.5411 26.4427 40.4049 26.5598C40.0121 26.8969 38.1738 27.5369 37.2032 27.8603C35.5727 31.3678 35.2466 31.3789 34.9312 31.3888C34.926 31.3892 34.9187 31.3892 34.9135 31.3892ZM31.0398 25.9567C31.6851 26.1514 32.8276 26.4319 33.8266 26.6378C34.0227 26.6786 34.1769 26.8287 34.2208 27.023C34.4573 28.0636 34.7692 29.2488 35.0006 29.9458C35.3702 29.308 35.9208 28.2086 36.3696 27.2353C36.4282 27.1075 36.5385 27.0097 36.6729 26.9655C37.5345 26.682 38.5073 26.3341 39.1298 26.0789C38.7067 25.8936 38.1476 25.6817 37.7814 25.5432C36.7039 25.1352 36.5006 25.0469 36.3623 24.8547C36.2413 24.6866 36.171 24.4125 35.922 23.3135C35.832 22.9159 35.6954 22.312 35.5701 21.8461C35.2388 22.4539 34.7826 23.4572 34.4237 24.3473C34.3707 24.4798 34.2643 24.5832 34.1303 24.6334C33.0073 25.055 31.7317 25.5938 31.0398 25.9567Z" fill="#241726"/>
<path d="M187.863 35.9591C187.474 35.9591 187.135 35.9591 186.25 32.1347C183.041 31.4544 182.772 31.0807 182.669 30.937C182.577 30.8092 182.541 30.5785 182.587 30.4279C182.656 30.2031 182.797 29.7403 186.512 28.3325C187.898 24.9336 188.351 24.9336 188.653 24.9336C188.817 24.9336 189.04 25.0511 189.136 25.1845C189.369 25.5088 189.568 26.3375 189.868 27.6642C189.961 28.0717 190.072 28.5637 190.138 28.7868C190.333 28.8764 190.749 29.0347 191.096 29.1655C192.986 29.8819 193.472 30.1238 193.554 30.5853C193.585 30.7612 193.492 31.013 193.356 31.1296C192.963 31.4668 191.124 32.1072 190.154 32.4306C188.523 35.9376 188.183 35.9492 187.882 35.9591C187.876 35.9591 187.869 35.9591 187.863 35.9591ZM183.99 30.5261C184.635 30.7213 185.778 31.0022 186.777 31.2073C186.973 31.2476 187.127 31.3982 187.171 31.5925C187.407 32.6335 187.719 33.8191 187.95 34.5161C188.32 33.8779 188.871 32.7789 189.319 31.8057C189.378 31.6778 189.488 31.58 189.623 31.5358C190.484 31.2523 191.457 30.9036 192.08 30.6492C191.657 30.4644 191.098 30.2525 190.733 30.1139C189.654 29.7056 189.451 29.6172 189.312 29.4237C189.192 29.2556 189.122 28.9824 188.873 27.8869C188.783 27.4884 188.646 26.8823 188.52 26.4156C188.189 27.0234 187.733 28.0271 187.374 28.9172C187.321 29.0497 187.215 29.1531 187.081 29.2033C185.958 29.6245 184.682 30.1632 183.99 30.5261Z" fill="#241726"/>
<path d="M49.4296 164.67C49.4296 164.67 169.414 169.118 169.491 161.492C169.937 117.604 154.744 58.3536 148.273 47.8557C146.918 45.6578 129.629 62.7558 126.853 63.2238C124.076 63.6917 86.3702 66.6935 86.7803 64.0649C87.19 61.4364 76.6246 39.6149 68.9021 42.9079C61.1792 46.2 44.2862 162.977 49.4296 164.67Z" fill="#F8D3CB"/>
<path d="M102.915 92.8438C102.915 92.8438 114.869 91.1405 116.94 93.0656C120.279 96.169 112.316 103.093 109.868 103.093C107.419 103.093 96.7956 94.7517 102.915 92.8438Z" fill="#241726"/>
<path d="M103.302 64.7083C103.302 64.7083 107.319 125.262 52.9991 113.514C52.9991 113.514 60.7255 40.6456 64.5971 37.6074C73.105 30.9314 85.705 62.7497 91.6927 63.7174C95.4376 64.3227 103.302 64.7083 103.302 64.7083Z" fill="#E36C50"/>
<path d="M116.108 63.8786C116.108 63.8786 111.09 125.212 165.409 113.465C165.409 113.465 158.562 55.4919 149.419 37.7398C146.951 32.9477 131.839 62.0556 128.049 62.2276C124.259 62.3996 116.108 63.8786 116.108 63.8786Z" fill="#E36C50"/>
<path d="M95.3743 165.295C95.3433 165.295 95.3114 165.292 95.2795 165.286C94.9944 165.234 94.8061 164.962 94.8582 164.679C94.8772 164.576 96.752 154.3 97.5038 143.492C98.4864 129.361 97.1527 120.761 93.6464 118.622C92.9321 118.186 92.1442 118.106 91.2378 118.375C83.9133 120.555 72.7664 144.137 68.57 153.015C66.7748 156.814 66.5633 157.222 66.307 157.393C66.0644 157.552 65.7401 157.487 65.5798 157.248C65.4359 157.032 65.4734 156.75 65.6556 156.579C65.8637 156.289 66.6796 154.563 67.6214 152.57C72.2727 142.731 83.1642 119.689 90.9375 117.375C92.1295 117.02 93.2242 117.14 94.1944 117.732C103.406 123.353 96.201 163.175 95.8896 164.867C95.8435 165.118 95.6229 165.295 95.3743 165.295Z" fill="#241726"/>
<path d="M84.3162 132.679C84.2753 132.679 84.2339 132.674 84.193 132.664C83.9112 132.596 83.7385 132.315 83.8065 132.035C83.8914 131.684 85.9407 123.409 90.4197 120.435C90.6606 120.276 90.9854 120.34 91.1469 120.58C91.3076 120.82 91.2426 121.144 91.0013 121.304C86.8648 124.051 84.8452 132.198 84.8254 132.279C84.7677 132.518 84.5531 132.679 84.3162 132.679Z" fill="#241726"/>
<path d="M88.3857 134.996C88.3447 134.996 88.3034 134.991 88.2624 134.981C87.9807 134.913 87.8079 134.632 87.876 134.351C87.9609 134.001 90.0102 125.725 94.4892 122.752C94.7305 122.592 95.0557 122.657 95.2164 122.897C95.3771 123.137 95.312 123.461 95.0708 123.621C90.9343 126.368 88.9147 134.515 88.8949 134.596C88.8367 134.835 88.6222 134.996 88.3857 134.996Z" fill="#241726"/>
<path d="M124.503 163.86C124.255 163.86 124.034 163.684 123.988 163.432C123.676 161.74 116.471 121.919 125.683 116.297C126.652 115.706 127.747 115.587 128.94 115.94C136.713 118.255 147.605 141.296 152.256 151.136C153.198 153.129 154.014 154.854 154.222 155.144C154.404 155.315 154.442 155.598 154.298 155.813C154.137 156.053 153.811 156.117 153.571 155.958C153.314 155.788 153.103 155.379 151.308 151.581C147.111 142.703 135.964 119.121 128.64 116.94C127.734 116.671 126.945 116.751 126.231 117.187C122.724 119.327 121.391 127.93 122.374 142.066C123.127 152.874 125 163.141 125.019 163.244C125.071 163.528 124.883 163.799 124.598 163.851C124.567 163.858 124.535 163.86 124.503 163.86Z" fill="#241726"/>
<path d="M135.729 131.633C135.492 131.633 135.278 131.472 135.22 131.233C135.2 131.151 133.181 123.004 129.044 120.258C128.803 120.098 128.738 119.774 128.898 119.533C129.058 119.293 129.384 119.229 129.626 119.388C134.105 122.362 136.154 130.637 136.239 130.988C136.307 131.268 136.134 131.55 135.852 131.618C135.811 131.628 135.77 131.633 135.729 131.633Z" fill="#241726"/>
<path d="M131.66 133.949C131.423 133.949 131.209 133.789 131.151 133.549C131.131 133.468 129.111 125.321 124.974 122.574C124.733 122.414 124.668 122.09 124.829 121.85C124.989 121.61 125.313 121.545 125.556 121.705C130.036 124.679 132.085 132.954 132.17 133.305C132.238 133.585 132.065 133.866 131.783 133.934C131.742 133.945 131.701 133.949 131.66 133.949Z" fill="#241726"/>
<path d="M69.1594 112.411C73.2991 112.411 76.6549 109.069 76.6549 104.948C76.6549 100.826 73.2991 97.4844 69.1594 97.4844C65.0198 97.4844 61.664 100.826 61.664 104.948C61.664 109.069 65.0198 112.411 69.1594 112.411Z" fill="#F2ABB5"/>
<path d="M146.492 110.329C150.632 110.329 153.987 106.987 153.987 102.865C153.987 98.7437 150.632 95.4023 146.492 95.4023C142.352 95.4023 138.996 98.7437 138.996 102.865C138.996 106.987 142.352 110.329 146.492 110.329Z" fill="#F2ABB5"/>
<path d="M69.1194 63.2772C68.9462 63.2772 68.7752 63.1927 68.6731 63.0396C67.796 61.7288 69.6777 52.0583 70.8637 50.3721C71.0433 50.1161 71.3151 49.9844 71.6249 50.0063C73.4067 50.1439 77.5824 58.2398 79.2944 61.7142C79.4219 61.9733 79.3151 62.2855 79.0549 62.4125C78.7951 62.539 78.4802 62.4331 78.3535 62.174C75.898 57.1927 72.7153 51.6971 71.6451 51.0932C70.5664 52.9372 69.1185 61.5418 69.5545 62.4751C69.7152 62.7153 69.6458 63.0319 69.4046 63.1919C69.3171 63.2498 69.218 63.2772 69.1194 63.2772Z" fill="#241726"/>
<path d="M148.039 63.2698C147.984 63.2698 147.928 63.2612 147.873 63.2427C147.598 63.1518 147.45 62.8563 147.541 62.5826C148.657 59.2493 146.809 51.7484 145.675 49.8851C144.611 50.5774 141.554 56.239 139.206 61.3528C139.086 61.614 138.775 61.7294 138.511 61.6102C138.248 61.4905 138.132 61.1808 138.253 60.9183C139.903 57.3242 143.931 48.947 145.685 48.7874C145.987 48.7664 146.265 48.8912 146.445 49.1482C147.716 50.9566 149.82 59.079 148.536 62.9125C148.463 63.1312 148.258 63.2698 148.039 63.2698Z" fill="#241726"/>
<path d="M71.5164 71.0543C71.5164 71.0543 61.8475 64.4996 62.6708 66.9579C63.4936 69.4157 68.8424 76.38 68.8424 76.38C68.8424 76.38 58.3507 73.5125 58.7621 74.7414C59.1736 75.9703 65.3452 82.1153 65.3452 82.1153C65.3452 82.1153 56.0877 80.0672 56.911 81.5007C57.7338 82.9346 62.8767 88.6696 64.5224 88.2599C66.1676 87.8503 69.0479 73.1029 71.5164 71.0543Z" fill="#241726"/>
<path d="M67.0844 76.083C67.0844 76.083 70.7475 65.547 85.8061 72.0308C100.865 78.5147 99.2367 97.561 83.771 102.424C68.3053 107.286 60.1654 88.2401 67.0844 76.083Z" fill="#FDFFFF"/>
<path d="M69.3121 77.452C69.3121 77.452 72.342 68.7368 84.7985 74.0998C97.2551 79.4629 95.908 95.2174 83.1154 99.24C70.3224 103.263 63.589 87.5081 69.3121 77.452Z" fill="#241726"/>
<path d="M79.3788 79.1576C79.3788 79.1576 80.5036 75.9221 85.1283 77.9133C89.7529 79.9044 89.2527 85.7534 84.5032 87.247C79.7536 88.7406 77.2541 82.8911 79.3788 79.1576Z" fill="#FDFFFF"/>
<path d="M75.1112 89.6119C75.1112 89.6119 75.8815 87.3964 79.0474 88.76C82.2134 90.1236 81.8713 94.1278 78.6197 95.1503C75.368 96.1721 73.6564 92.1679 75.1112 89.6119Z" fill="#FDFFFF"/>
<path d="M148.19 69.7886C148.19 69.7886 157.859 63.234 157.035 65.6922C156.213 68.1501 150.864 75.1144 150.864 75.1144C150.864 75.1144 161.356 72.2469 160.944 73.4758C160.533 74.7047 154.361 80.8497 154.361 80.8497C154.361 80.8497 163.619 78.8015 162.795 80.235C161.972 81.6686 156.83 87.4039 155.184 86.9943C153.538 86.5847 150.658 71.8368 148.19 69.7886Z" fill="#241726"/>
<path d="M152.652 75.0869C152.652 75.0869 148.989 64.5509 133.93 71.0348C118.872 77.5186 120.5 96.5649 135.966 101.428C151.431 106.291 159.571 87.2444 152.652 75.0869Z" fill="#FDFFFF"/>
<path d="M150.425 76.452C150.425 76.452 147.395 67.7368 134.939 73.0998C122.482 78.4629 123.829 94.2174 136.622 98.24C149.415 102.263 156.148 86.5081 150.425 76.452Z" fill="#241726"/>
<path d="M140.357 78.1615C140.357 78.1615 139.233 74.926 134.608 76.9172C129.983 78.9083 130.483 84.7574 135.233 86.2509C139.983 87.7445 142.482 81.895 140.357 78.1615Z" fill="#FDFFFF"/>
<path d="M144.625 88.6119C144.625 88.6119 143.855 86.3964 140.689 87.76C137.523 89.1232 137.865 93.1277 141.117 94.1503C144.369 95.1725 146.08 91.1679 144.625 88.6119Z" fill="#FDFFFF"/>
<path d="M61.9981 101.596C61.9248 101.596 61.8503 101.58 61.7788 101.548C61.6302 101.48 46.771 94.7521 34.9426 97.5514C34.6652 97.6188 34.3787 97.4459 34.3115 97.1645C34.2443 96.884 34.4183 96.6026 34.7 96.5361C46.8779 93.6489 61.597 100.315 62.2182 100.6C62.4814 100.721 62.596 101.031 62.4746 101.293C62.3862 101.484 62.1963 101.596 61.9981 101.596Z" fill="#241726"/>
<path d="M35.8928 113.01C35.717 113.01 35.546 112.922 35.4469 112.763C35.2944 112.518 35.3702 112.196 35.6158 112.044C46.257 105.474 62.3335 107.172 63.0146 107.247C63.3024 107.279 63.5092 107.537 63.4773 107.823C63.445 108.11 63.1844 108.315 62.8983 108.285C62.735 108.267 46.4956 106.555 36.1685 112.931C36.0828 112.985 35.9871 113.01 35.8928 113.01Z" fill="#241726"/>
<path d="M154.574 101.022C154.375 101.022 154.185 100.91 154.097 100.719C153.975 100.457 154.09 100.147 154.353 100.026C154.974 99.7405 169.692 93.0739 181.871 95.9624C182.153 96.0293 182.327 96.3107 182.259 96.5908C182.193 96.8717 181.91 97.0472 181.628 96.9777C169.807 94.1797 154.942 100.906 154.792 100.974C154.722 101.007 154.647 101.022 154.574 101.022Z" fill="#241726"/>
<path d="M181.438 110.67C181.343 110.67 181.248 110.644 181.161 110.591C170.833 104.215 154.594 105.925 154.431 105.945C154.149 105.977 153.885 105.771 153.852 105.483C153.82 105.197 154.027 104.939 154.315 104.907C154.994 104.832 171.072 103.135 181.714 109.704C181.96 109.856 182.035 110.178 181.883 110.423C181.784 110.582 181.613 110.67 181.438 110.67Z" fill="#241726"/>
<path d="M103.709 115.226C103.709 115.226 109.718 109.514 110.152 102.766C110.152 102.766 114.618 114.971 117.878 115.221C117.878 115.221 119.05 119.604 112.236 124.396C105.237 129.317 103.709 115.226 103.709 115.226Z" fill="#241726"/>
<path d="M102.699 116.113C102.229 116.113 101.762 115.988 101.301 115.737C95.9122 112.81 98.9906 106.039 99.0225 105.971C99.1444 105.71 99.4568 105.597 99.7183 105.717C99.9811 105.838 100.095 106.148 99.9737 106.41C99.8617 106.652 97.2787 112.363 101.802 114.82C102.356 115.12 102.895 115.145 103.452 114.895C106.454 113.542 108.988 104.954 109.711 101.759C109.763 101.527 109.966 101.36 110.205 101.352C110.468 101.341 110.657 101.497 110.725 101.724C111.715 105.024 114.82 113.812 117.265 114.829C117.525 114.936 117.746 114.934 117.963 114.818C120.504 113.468 120.111 106.546 119.744 103.992C119.703 103.707 119.902 103.442 120.189 103.401C120.473 103.359 120.741 103.559 120.783 103.844C120.928 104.858 122.098 113.805 118.456 115.739C117.961 116.002 117.411 116.019 116.861 115.792C114.179 114.677 111.452 107.311 110.28 103.783C109.347 107.208 107.045 114.421 103.884 115.846C103.489 116.024 103.094 116.113 102.699 116.113Z" fill="#241726"/>
<path d="M118.065 115.921C118.065 115.921 109.062 113.268 103.71 116.783C103.71 116.783 104.312 125.668 108.867 127.708C113.422 129.749 118.648 123.052 118.065 115.921Z" fill="#E48299"/>
<path d="M110.189 120.929C110.187 120.929 110.185 120.929 110.183 120.929C109.901 120.926 109.676 120.696 109.679 120.416C109.685 119.873 109.761 115.073 110.543 113.774C110.688 113.534 111 113.455 111.243 113.6C111.484 113.744 111.562 114.056 111.417 114.297C110.935 115.098 110.72 118.482 110.698 120.426C110.696 120.705 110.468 120.929 110.189 120.929Z" fill="#241726"/>
<path d="M9.96493 60.3731C9.96105 60.3731 9.88738 60.3722 9.88264 60.3722C8.98313 60.3508 8.1448 59.9819 7.52358 59.3329C6.90237 58.6843 6.57195 57.8333 6.59306 56.9373C6.63571 55.1301 8.14695 53.6602 9.96191 53.6602C11.9009 53.7056 13.3764 55.2468 13.3329 57.0964C13.2898 58.9031 11.779 60.3731 9.96493 60.3731ZM10.0171 54.6767C8.69579 54.6767 7.64249 55.7015 7.61276 56.9613C7.59768 57.5862 7.82816 58.1799 8.26154 58.6324C8.69493 59.0845 9.27909 59.3419 9.9072 59.3569L9.96493 59.8656V59.3578C11.2302 59.3578 12.2831 58.3326 12.3132 57.0728C12.3442 55.7826 11.3146 54.7076 10.0183 54.6767C10.0183 54.6767 10.0179 54.6767 10.0171 54.6767Z" fill="#241726"/>
<path d="M201.673 43.1114C201.669 43.1114 201.595 43.1105 201.59 43.1105C200.691 43.0891 199.853 42.7202 199.231 42.0712C198.61 41.4226 198.28 40.5716 198.301 39.6755C198.343 37.8684 199.855 36.3984 201.67 36.3984C203.609 36.4439 205.084 37.9851 205.041 39.8347C204.998 41.6414 203.486 43.1114 201.673 43.1114ZM201.725 37.415C200.404 37.415 199.35 38.4398 199.321 39.6996C199.305 40.3245 199.536 40.9182 199.969 41.3707C200.403 41.8228 200.987 42.0802 201.615 42.0952L201.673 42.6039V42.0961C202.938 42.0961 203.991 41.0709 204.021 39.8111C204.052 38.5208 203.022 37.4459 201.726 37.415H201.725Z" fill="#241726"/>
<path d="M6.49817 136.793C6.49817 136.793 5.9321 130.443 11.9491 132.745C17.9656 135.046 15.7302 140.743 13.4875 138.666C11.2447 136.59 15.8974 130.065 20.4406 133.25C24.9838 136.435 23.6918 142.188 20.3604 142.476C17.0291 142.763 22.654 135.811 26.6385 140.42C30.6229 145.03 21.1656 152.726 17.5658 149.597C13.9661 146.468 17.0872 141.795 17.8562 144.756C18.6256 147.716 16.0925 150.481 9.48792 150.088C2.88334 149.695 6.3237 139.698 8.50828 142.742C10.6929 145.787 6.7153 148.951 2.20095 145.282C-2.3134 141.613 3.31198 134.66 6.49817 136.793Z" fill="white"/>
<path d="M19.6824 150.833C18.7063 150.833 17.8808 150.546 17.2303 149.98C16.9658 149.75 16.7263 149.505 16.5143 149.247C14.9281 150.304 12.5471 150.776 9.45699 150.595C7.27068 150.465 5.77193 149.293 5.29288 147.359C4.16117 147.155 2.98854 146.579 1.87837 145.676C0.120275 144.247 -0.437611 142.167 0.348598 139.97C1.16798 137.681 3.28708 135.887 5.17398 135.887C5.45443 135.887 5.72454 135.925 5.98259 135.999C6.02524 135.111 6.24366 133.713 7.12163 132.758C8.19001 131.596 9.89727 131.417 12.131 132.272C12.9469 132.584 13.6607 132.972 14.2591 133.429C16.1258 131.672 18.6701 131.389 20.734 132.836C22.6959 134.211 23.8461 136.241 23.8845 138.348C25.0476 138.454 26.1263 139.051 27.025 140.09C28.2562 141.515 28.4445 143.362 27.5553 145.292C26.172 148.294 22.5666 150.833 19.6824 150.833ZM17.3027 148.602C17.4789 148.817 17.6792 149.022 17.9007 149.215C18.3608 149.615 18.9604 149.818 19.6829 149.817C22.1251 149.817 25.4358 147.458 26.6287 144.869C27.1331 143.773 27.4778 142.17 26.2521 140.752C25.528 139.915 24.7103 139.448 23.816 139.361C23.5006 141.37 22.1488 142.832 20.4045 142.982C19.2435 143.093 18.8501 142.462 18.8389 141.884C18.8157 140.666 20.6069 138.705 22.8652 138.377C22.8363 136.591 21.8433 134.855 20.1473 133.666C18.4921 132.506 16.5346 132.728 15.0199 134.112C16.3494 135.529 16.5523 137.205 16.1292 138.311C15.6222 139.635 14.1992 140.021 13.1408 139.039C11.8845 137.876 12.361 135.757 13.5741 134.186C13.0667 133.81 12.461 133.486 11.7669 133.22C9.96232 132.529 8.65398 132.594 7.87509 133.444C7.00531 134.389 6.95361 136.151 7.0066 136.75C7.02384 136.944 6.92734 137.132 6.75803 137.231C6.58873 137.33 6.37677 137.324 6.21436 137.215C5.90505 137.008 5.55524 136.903 5.17484 136.903C3.71659 136.903 1.98262 138.432 1.31057 140.311C0.938794 141.351 0.601478 143.327 2.52457 144.89C3.38832 145.592 4.28137 146.068 5.13995 146.287C5.07188 144.845 5.50828 143.29 6.27511 142.383C6.67489 141.91 7.13455 141.66 7.60541 141.66C7.94833 141.66 8.45581 141.797 8.92323 142.449C9.70341 143.536 9.85117 144.739 9.32947 145.749C8.80519 146.763 7.7101 147.386 6.37807 147.439C6.72529 148.455 7.56621 149.466 9.51859 149.583C12.3735 149.751 14.5551 149.336 15.9466 148.406C15.1254 146.89 15.2551 145.273 15.7902 144.277C16.1219 143.66 16.5949 143.306 17.0873 143.306C17.4307 143.306 18.0514 143.478 18.3504 144.63C18.7364 146.118 18.3552 147.541 17.3027 148.602ZM17.0808 144.319C17.0386 144.322 16.8504 144.437 16.6694 144.791C16.3093 145.496 16.2244 146.619 16.7379 147.715C17.4164 146.932 17.6383 145.946 17.3622 144.883C17.2359 144.396 17.0826 144.32 17.0808 144.319ZM6.16913 146.426C7.23579 146.43 8.04957 146.005 8.42221 145.283C8.7634 144.624 8.64321 143.805 8.09308 143.038C7.97418 142.872 7.79281 142.674 7.60455 142.674C7.4486 142.674 7.24871 142.806 7.05442 143.036C6.50688 143.684 6.04592 145.047 6.16913 146.426ZM22.7674 139.425C21.4418 139.71 20.3834 140.692 20.006 141.402C19.8302 141.732 19.8548 141.899 19.8664 141.919C19.8789 141.933 20.0267 141.995 20.3162 141.97C21.5189 141.866 22.4693 140.851 22.7674 139.425ZM14.3315 134.866C13.3501 136.158 13.1132 137.628 13.8339 138.295C14.3828 138.802 14.9113 138.636 15.1754 137.949C15.4774 137.16 15.3116 135.947 14.3315 134.866Z" fill="#241726"/>
<path d="M198.959 63.1989C198.959 63.1989 198.393 56.8497 204.41 59.1509C210.427 61.4522 208.191 67.149 205.948 65.0725C203.705 62.996 208.358 56.4709 212.901 59.6562C217.445 62.8416 216.153 68.5945 212.821 68.8819C209.49 69.1693 215.115 62.217 219.099 66.8264C223.084 71.4358 213.626 79.1323 210.027 76.0032C206.427 72.874 209.548 68.2016 210.317 71.1621C211.086 74.1227 208.553 76.8872 201.948 76.4943C195.344 76.1014 198.784 66.1041 200.969 69.1487C203.153 72.1937 199.176 75.3576 194.661 71.6885C190.148 68.0184 195.773 61.0662 198.959 63.1989Z" fill="white"/>
<path d="M212.144 77.2391C211.168 77.2391 210.342 76.9522 209.692 76.386C209.427 76.1565 209.188 75.9111 208.976 75.6533C207.39 76.7103 205.015 77.1838 201.919 77.0019C199.733 76.872 198.234 75.6992 197.754 73.7656C196.623 73.5618 195.45 72.9853 194.34 72.0824C192.582 70.6536 192.024 68.5741 192.811 66.3766C193.63 64.0874 195.749 62.2936 197.636 62.2936C197.916 62.2936 198.187 62.3313 198.445 62.4051C198.487 61.5176 198.706 60.1197 199.584 59.164C200.652 58.002 202.359 57.824 204.593 58.678C205.409 58.9903 206.123 59.3785 206.721 59.8357C208.588 58.0779 211.131 57.7948 213.196 59.2425C215.158 60.6181 216.308 62.6479 216.346 64.7544C217.51 64.8608 218.589 65.4579 219.487 66.4963C220.718 67.9213 220.906 69.7687 220.017 71.6994C218.633 74.7019 215.028 77.2387 212.144 77.2391ZM209.764 75.0091C209.94 75.2231 210.14 75.4286 210.362 75.6212C210.822 76.0209 211.422 76.2234 212.144 76.2234C214.586 76.223 217.896 73.8647 219.089 71.2752C219.594 70.1796 219.939 68.5758 218.713 67.1578C217.99 66.3209 217.171 65.8538 216.277 65.7663C215.963 67.7754 214.61 69.2373 212.866 69.3878C212.782 69.3951 212.703 69.3985 212.629 69.3985H212.628C211.665 69.3985 211.31 68.8255 211.3 68.2897C211.276 67.0715 213.068 65.11 215.327 64.7827C215.298 62.9966 214.304 61.2607 212.608 60.0716C210.953 58.9109 208.996 59.1323 207.481 60.5177C208.81 61.9341 209.013 63.6104 208.589 64.7162C208.28 65.5252 207.643 66.0275 206.927 66.0279H206.927C206.472 66.0279 206.013 65.8263 205.601 65.4446C204.345 64.2808 204.822 62.1623 206.035 60.5911C205.527 60.2149 204.922 59.8911 204.228 59.6255C202.424 58.9362 201.118 59.0019 200.338 59.8465C199.293 60.9801 199.466 63.1334 199.468 63.1553C199.485 63.35 199.388 63.5375 199.219 63.6366C199.049 63.7344 198.839 63.7292 198.675 63.6207C198.366 63.4135 198.016 63.3084 197.636 63.3084C196.178 63.3084 194.444 64.8372 193.772 66.7168C193.4 67.7561 193.063 69.7331 194.986 71.2957C195.849 71.9979 196.742 72.4732 197.601 72.6928C197.533 71.2507 197.969 69.6958 198.736 68.7886C199.136 68.315 199.596 68.0654 200.067 68.0654C200.409 68.0654 200.917 68.2022 201.384 68.8542C202.165 69.9416 202.312 71.1447 201.791 72.1545C201.266 73.1689 200.171 73.7922 198.839 73.8441C199.187 74.8611 200.028 75.8717 201.98 75.9884C204.84 76.1552 207.017 75.7408 208.408 74.8109C207.587 73.295 207.716 71.6792 208.251 70.6832C208.583 70.066 209.056 69.7117 209.548 69.7117C209.892 69.7117 210.513 69.8837 210.812 71.0362C211.198 72.5242 210.816 73.9479 209.764 75.0091ZM209.542 70.7261C209.5 70.7287 209.312 70.8441 209.131 71.1979C208.771 71.9023 208.686 73.0248 209.2 74.1216C209.878 73.3383 210.1 72.3522 209.824 71.2897C209.697 70.8025 209.544 70.727 209.542 70.7261ZM198.631 72.8322C198.639 72.8322 198.647 72.8322 198.656 72.8322C199.681 72.8322 200.514 72.4054 200.884 71.6899C201.225 71.0302 201.105 70.2114 200.555 69.444C200.436 69.2784 200.254 69.0807 200.066 69.0807C199.91 69.0807 199.709 69.2124 199.516 69.4423C198.968 70.0908 198.507 71.4536 198.631 72.8322ZM215.229 65.8315C213.905 66.1158 212.847 67.0977 212.468 67.8067C212.305 68.1121 212.308 68.2936 212.328 68.3253C212.34 68.3399 212.493 68.4017 212.777 68.3768C213.98 68.273 214.931 67.2581 215.229 65.8315ZM206.793 61.2727C205.811 62.5647 205.575 64.0338 206.295 64.7012C206.843 65.2061 207.372 65.0452 207.637 64.3551C207.939 63.5671 207.772 62.354 206.793 61.2727Z" fill="#241726"/>
<path d="M8.27228 5.32386C8.27228 5.32386 7.70621 -1.02532 13.7232 1.27595C19.7397 3.57722 17.5043 9.27398 15.2616 7.19747C13.0188 5.12097 17.6715 -1.40407 22.2147 1.78124C26.7579 4.96655 25.4659 10.7195 22.1345 11.0069C18.8032 11.2943 24.4281 4.34202 28.4126 8.95141C32.397 13.5608 22.9397 21.2569 19.3399 18.1282C15.7402 14.999 18.8613 10.3266 19.6303 13.2871C20.3993 16.2477 17.8666 19.0122 11.2616 18.6193C4.65658 18.2264 8.09737 8.22908 10.282 11.2737C12.4665 14.3183 8.48897 17.4826 3.97462 13.8135C-0.538862 10.1434 5.08609 3.19074 8.27228 5.32386Z" fill="white"/>
<path d="M21.4567 19.3643C20.4809 19.3643 19.6551 19.0773 19.0046 18.5111C18.7401 18.2817 18.5006 18.0363 18.2886 17.7785C16.7028 18.8354 14.3261 19.312 11.2313 19.1271C9.04538 18.9971 7.54663 17.8244 7.06715 15.8907C5.93544 15.687 4.7628 15.1105 3.65263 14.2076C1.89454 12.7788 1.33665 10.6993 2.12373 8.50181C2.94267 6.21256 5.06221 4.41873 6.94868 4.41873C7.22913 4.41873 7.49924 4.45647 7.75729 4.53025C7.79994 3.64277 8.01835 2.24486 8.89632 1.28875C9.96427 0.127607 11.6715 -0.0512625 13.9057 0.802758C14.7216 1.11503 15.4354 1.50322 16.0338 1.96047C17.9 0.20353 20.4443 -0.0800007 22.5087 1.36724C24.471 2.74286 25.6208 4.7726 25.6592 6.87913C26.8223 6.98551 27.9019 7.58259 28.7997 8.62106C30.0309 10.0456 30.2192 11.8934 29.33 13.8241C27.9463 16.8267 24.3409 19.3639 21.4567 19.3643ZM19.0774 17.1342C19.2532 17.3483 19.4535 17.5537 19.6749 17.7463C20.135 18.1461 20.7347 18.3486 21.4571 18.3486C23.8993 18.3481 27.2096 15.9898 28.4025 13.4003C28.9074 12.3048 29.252 10.701 28.0264 9.28292C27.3031 8.44605 26.4846 7.97893 25.5902 7.89143C25.2757 9.90059 23.923 11.3624 22.1787 11.513C22.0956 11.5203 22.0163 11.5237 21.9418 11.5237H21.9409C20.9777 11.5237 20.6231 10.9506 20.6123 10.4149C20.5891 9.1967 22.3803 7.23515 24.6395 6.90787C24.6106 5.12176 23.6172 3.38584 21.9207 2.19682C20.266 1.03653 18.308 1.25786 16.7933 2.64291C18.1228 4.05928 18.3257 5.73558 17.9022 6.84138C17.5929 7.65037 16.9561 8.15266 16.2402 8.15308C15.7852 8.15308 15.326 7.95148 14.9142 7.56973C13.6579 6.40601 14.1344 4.28747 15.3475 2.71626C14.8401 2.34008 14.2344 2.01623 13.5403 1.75072C11.7366 1.06098 10.4308 1.12747 9.65065 1.97162C8.60596 3.10531 8.77828 5.25859 8.78044 5.28047C8.79724 5.47521 8.70031 5.66266 8.53144 5.76174C8.36256 5.85954 8.15104 5.85439 7.9882 5.74587C7.67888 5.53869 7.32907 5.4336 6.94868 5.4336C5.49042 5.4336 3.75645 6.96235 3.08441 8.84196C2.71263 9.88129 2.37531 11.8583 4.2984 13.4209C5.16172 14.1231 6.0552 14.5983 6.91378 14.818C6.84572 13.3759 7.28169 11.821 8.04851 10.9137C8.44829 10.4402 8.90838 10.1906 9.37925 10.1906C9.72216 10.1906 10.2296 10.3274 10.6971 10.9794C11.4772 12.0667 11.625 13.2699 11.1033 14.2796C10.579 15.2941 9.48393 15.9173 8.1519 15.9692C8.49956 16.9863 9.34048 17.9968 11.2924 18.1135C14.1525 18.2834 16.3298 17.8664 17.7204 16.9361C16.8993 15.4202 17.029 13.8044 17.564 12.8084C17.8957 12.1911 18.3687 11.8368 18.8611 11.8368C19.2045 11.8368 19.8253 12.0088 20.1242 13.1614C20.5107 14.6494 20.1294 16.0726 19.0774 17.1342ZM18.8551 12.8513C18.8129 12.8538 18.6246 12.9692 18.4437 13.3231C18.0836 14.0274 17.9987 15.15 18.5131 16.2468C19.1911 15.4635 19.4126 14.4774 19.1369 13.4149C19.0102 12.9276 18.8568 12.8517 18.8551 12.8513ZM7.94339 14.9574C9.01005 14.9578 9.8234 14.5361 10.1965 13.8151C10.5377 13.1554 10.4175 12.3365 9.86734 11.5692C9.74844 11.4036 9.56708 11.2059 9.37882 11.2059C9.22287 11.2059 9.02212 11.3375 8.82826 11.5675C8.28071 12.2156 7.81975 13.5788 7.94339 14.9574ZM24.5421 7.95663C23.2182 8.24102 22.1602 9.22286 21.7815 9.9319C21.6183 10.2373 21.6213 10.4187 21.6407 10.4505C21.654 10.4651 21.8057 10.5273 22.0904 10.502C23.2932 10.3977 24.2436 9.38286 24.5421 7.95663ZM16.1057 3.39785C15.124 4.68982 14.8874 6.15894 15.6082 6.82637C16.1553 7.33123 16.6852 7.17038 16.9497 6.48022C17.2517 5.69225 17.0854 4.47878 16.1057 3.39785Z" fill="#241726"/>
<g opacity="0.1">
<path d="M55.6559 157.534C55.6559 157.534 56.4956 158.686 65.7362 158.182C89.4741 156.887 90.6416 135.767 93.0511 142.964C94.3516 146.849 93.7016 160.448 90.7747 161.743C87.8479 163.038 55.3307 164.01 52.7291 161.419C50.1279 158.829 55.6559 157.534 55.6559 157.534Z" fill="#DF4244"/>
</g>
<g opacity="0.1">
<path d="M165.891 161.42C165.891 161.42 134.348 164.981 130.121 162.068C125.894 159.154 125.894 146.85 127.195 143.936C129.034 139.815 139.877 156.887 145.405 158.83C150.933 160.773 166.216 153.65 166.866 155.268C167.516 156.887 165.891 161.42 165.891 161.42Z" fill="#DF4244"/>
</g>
</g>
<defs>
<clipPath id="clip0_3979_88597">
<rect width="221" height="166" fill="white"/>
</clipPath>
</defs>
</svg>
