<svg width="20" height="20" viewBox="0 0 20 20" fill="none" xmlns="http://www.w3.org/2000/svg">
<g id="&#208;&#152;&#209;&#129;&#208;&#186;&#208;&#176;&#209;&#130;&#209;&#140; &#209;&#128;&#208;&#181;&#208;&#183;&#209;&#131;&#208;&#187;&#209;&#140;&#209;&#130;&#208;&#176;&#209;&#130;&#209;&#139; &#208;&#180;&#208;&#187;&#209;&#143; &#208;&#187;&#209;&#142;&#208;&#180;&#208;&#184; - Flaticon-12 1">
<g id="Group">
<path id="Vector" d="M1.00503 19C0.40201 19 0 18.6 0 18C0 14.1 3.11558 11 7.03518 11C8.94472 11 10.6533 11.7 11.9598 13C14.1709 11.3 17.2864 11.7 18.995 13.9C19.6985 14.8 20 15.9 20 17C20 17.6 19.598 18 18.995 18H13.9698C13.9698 18.6 13.5678 19 12.9648 19H1.00503ZM12.0603 8C12.0603 6.3 13.3668 5 15.0754 5C16.7839 5 18.0905 6.3 18.0905 8C18.0905 9.7 16.7839 11 15.0754 11C13.3668 11 12.0603 9.7 12.0603 8ZM3.01508 5C3.01508 2.8 4.82412 1 7.03518 1C9.24623 1 11.0553 2.8 11.0553 5C11.0553 7.2 9.24623 9 7.03518 9C4.82412 9 3.01508 7.2 3.01508 5Z" fill="#5F7EEA"/>
</g>
</g>
</svg>
