<svg width="84" height="84" viewBox="0 0 84 84" fill="none" xmlns="http://www.w3.org/2000/svg">
<g clip-path="url(#clip0_1018_16717)">
<path d="M42 1.05469C26.0403 1.05469 16.2089 10.057 16.1819 10.0721C16.1819 10.0721 15.7731 10.5822 15.6968 10.9215C15.0758 13.6779 14.4957 17.3722 14.4957 20.0679C14.4957 42.9727 33.8111 61.5358 56.7156 61.5358C65.5356 61.5358 75.3487 57.3085 81.9161 52.226C82.0631 52.1122 82.5291 51.3483 82.5291 51.3483C82.558 51.1716 83.4725 47.5302 83.4725 42.5272C83.4725 19.6225 64.9047 1.05469 42 1.05469Z" fill="#5F7EEA"/>
<path d="M56.712 60.3653C33.8072 60.3653 15.2395 41.7973 15.2395 18.8928C15.2395 15.8653 15.5659 12.9154 16.1819 10.0723C6.64401 17.6707 0.527466 29.3849 0.527466 42.5273C0.527466 52.5048 4.05086 61.6593 9.92116 68.8147L74.0788 68.8154C78.1564 63.8472 81.1094 57.9011 82.5291 51.3485C75.4448 56.9913 66.4729 60.3653 56.712 60.3653Z" fill="#5F7EEA"/>
<path d="M59.0012 34.0969H58.8368L57.7133 28.5727L58.8368 24.0151H59.0012C61.1975 24.0151 62.9781 25.7957 62.9781 27.9921V30.1202C62.9781 32.3163 61.1977 34.0969 59.0012 34.0969Z" fill="#FF965A"/>
<path d="M42.3529 73.3976C53.7439 73.3976 62.9781 65.9287 62.9781 56.7152C62.9781 47.5017 53.7439 40.0327 42.3529 40.0327C30.9619 40.0327 21.7277 47.5017 21.7277 56.7152C21.7277 65.9287 30.9619 73.3976 42.3529 73.3976Z" fill="#FF3C3C"/>
<path d="M64.5156 55.1438L64.1308 55.0586L50.9283 54.4332C38.2433 53.8322 27.6301 63.9546 27.6301 76.6539V81.4389C32.1077 83.0931 36.9475 84.0002 42 84.0002C54.8492 84.0002 66.4382 78.1245 74.0788 68.8156V67.0549C74.0788 61.3332 70.1022 56.3801 64.5156 55.1438Z" fill="#FF3C3C"/>
<path d="M42.385 70.762C54.8083 70.762 64.8794 69.0706 64.8794 59.0222C64.8794 57.6783 64.6976 56.369 64.3558 55.108L41.9517 50.1504L19.4773 55.1386C13.8496 56.3878 9.9212 61.3776 9.9212 67.0482V68.8147C14.5989 74.5163 20.7671 78.9484 27.8301 81.5161C29.6382 75.2906 35.3967 70.7529 42.2101 70.7618L42.385 70.762Z" fill="#DC1428"/>
<path d="M62.9781 56.7152C62.9781 65.9286 53.7439 67.4793 42.3529 67.4793C30.962 67.4793 21.7277 65.9286 21.7277 56.7152C21.7277 47.5018 30.962 40.0327 42.3529 40.0327C53.7439 40.0327 62.9781 47.5016 62.9781 56.7152Z" fill="#FF3C3C"/>
<path d="M56.5328 54.4588C56.5328 60.793 50.1843 65.928 42.3529 65.928C34.5215 65.928 28.173 60.7931 28.173 54.4588C28.173 48.1244 34.5215 49.6578 42.3529 49.6578C50.1843 49.6578 56.5328 48.1246 56.5328 54.4588Z" fill="#DC1428"/>
<path d="M42.0396 62.6683C45.3393 62.6683 48.0139 59.9935 48.0139 56.694V43.312H36.0651V56.6938C36.0651 59.9935 38.7399 62.6683 42.0396 62.6683Z" fill="#F99675"/>
<path d="M40.0752 55.6153L40.076 55.615C38.7155 55.5421 37.3688 55.3049 36.0652 54.9086V43.312H47.0227L48.0141 52.2583C46.5427 54.6267 42.4302 55.7414 40.0752 55.6153Z" fill="#EF6A30"/>
<path d="M58.2468 22.35C58.2468 16.8977 54.7491 11.9121 49.2969 11.9121H34.7822C33.2265 11.9121 31.8016 12.3193 30.5585 13.0261V41.8441C30.5585 48.134 35.6176 53.2814 41.9072 53.329C41.9513 53.3294 41.9955 53.3295 42.0396 53.3295C51.4073 53.3295 59.0012 45.7355 59.0012 36.3679V31.0132L58.2468 22.35Z" fill="#FBAC91"/>
<path d="M59.0012 30.9674V27.1445C59.4012 27.1445 59.7848 27.3034 60.0676 27.5862C60.3504 27.869 60.5093 28.2526 60.5093 28.6526V29.4595C60.5093 29.6576 60.4703 29.8537 60.3945 30.0366C60.3187 30.2196 60.2076 30.3858 60.0676 30.5258C59.9275 30.6659 59.7613 30.7769 59.5783 30.8527C59.3953 30.9285 59.1993 30.9675 59.0012 30.9674Z" fill="#EF6A30"/>
<path d="M20.9331 30.12C20.9331 32.3163 22.7137 34.0969 24.91 34.0969H25.1653L27.2012 29.8078L25.1993 24.0151H24.9099C22.7135 24.0151 20.9329 25.7957 20.9329 27.9921L20.9331 30.12Z" fill="#FF965A"/>
<path d="M23.2923 29.4889C23.2923 30.3823 24.0166 31.1066 24.91 31.1066V27.0054C24.0166 27.0054 23.2923 27.7296 23.2923 28.6231V29.4889Z" fill="#EF6A30"/>
<path d="M22.2064 31.3133C22.2064 32.8064 23.4169 34.0169 24.91 34.0169V28.6426C23.4169 28.6426 22.2064 29.8531 22.2064 31.3462V31.3133Z" fill="white"/>
<path d="M34.7111 30.0298V31.2258C34.7111 31.6005 34.8599 31.9598 35.1248 32.2248C35.3898 32.4897 35.7491 32.6386 36.1238 32.6386C36.4984 32.6386 36.8578 32.4897 37.1227 32.2248C37.3876 31.9598 37.5365 31.6005 37.5365 31.2258V30.0298H34.7111ZM46.2217 30.0298V31.2258C46.2217 31.6005 46.3705 31.9598 46.6355 32.2248C46.9004 32.4897 47.2597 32.6386 47.6344 32.6386C48.0091 32.6386 48.3684 32.4897 48.6333 32.2248C48.8983 31.9598 49.0471 31.6005 49.0471 31.2258V30.0298H46.2217Z" fill="#FF965A"/>
<path d="M36.1237 31.507C35.7491 31.507 35.3897 31.3582 35.1248 31.0932C34.8599 30.8283 34.711 30.469 34.711 30.0943V28.277L35.2318 27.4885L34.711 26.6999V26.2306C34.711 25.856 34.8599 25.4966 35.1248 25.2317C35.3897 24.9668 35.7491 24.8179 36.1237 24.8179C36.4984 24.8179 36.8577 24.9668 37.1227 25.2317C37.3876 25.4966 37.5364 25.856 37.5364 26.2306V30.0943C37.5364 30.469 37.3876 30.8283 37.1227 31.0932C36.8577 31.3582 36.4984 31.507 36.1237 31.507ZM47.6344 31.507C47.2597 31.507 46.9004 31.3582 46.6354 31.0932C46.3705 30.8283 46.2217 30.469 46.2217 30.0943V28.277L46.7424 27.4885L46.2217 26.6999V26.2306C46.2217 25.856 46.3705 25.4966 46.6354 25.2317C46.9004 24.9668 47.2597 24.8179 47.6344 24.8179C48.009 24.8179 48.3684 24.9668 48.6333 25.2317C48.8982 25.4966 49.0471 25.856 49.0471 26.2306V30.0943C49.0471 30.469 48.8982 30.8283 48.6333 31.0932C48.3684 31.3582 48.009 31.507 47.6344 31.507ZM37.9849 24.1116H33.8651C33.4904 24.1116 33.1311 23.9627 32.8662 23.6978C32.6012 23.4328 32.4524 23.0735 32.4524 22.6988C32.4524 22.3242 32.6012 21.9648 32.8662 21.6999C33.1311 21.435 33.4904 21.2861 33.8651 21.2861H37.9849C38.3596 21.2861 38.7189 21.435 38.9838 21.6999C39.2488 21.9648 39.3976 22.3242 39.3976 22.6988C39.3976 23.0735 39.2488 23.4328 38.9838 23.6978C38.7189 23.9627 38.3596 24.1116 37.9849 24.1116ZM49.7574 24.1116H45.6376C45.2629 24.1116 44.9036 23.9627 44.6387 23.6978C44.3737 23.4328 44.2249 23.0735 44.2249 22.6988C44.2249 22.3242 44.3737 21.9648 44.6387 21.6999C44.9036 21.435 45.2629 21.2861 45.6376 21.2861H49.7574C50.1321 21.2861 50.4914 21.435 50.7563 21.6999C51.0213 21.9648 51.1701 22.3242 51.1701 22.6988C51.1701 23.0735 51.0213 23.4328 50.7563 23.6978C50.4914 23.9627 50.1321 24.1116 49.7574 24.1116Z" fill="#373C41"/>
<path d="M47.2414 39.3223H45.7867L41.9558 40.1176L38.1248 39.3223H36.838C36.4064 39.3223 36.0615 39.699 36.119 40.1269C36.2266 40.9273 36.4964 41.6973 36.9118 42.3898L44.6689 44.6886C46.4208 43.8287 47.69 42.136 47.9604 40.1269C48.0179 39.699 47.6731 39.3223 47.2414 39.3223Z" fill="#BE1423"/>
<path d="M56.2454 16.4493C56.4075 16.4494 56.5676 16.4415 56.7268 16.4297C55.2039 13.758 52.6129 11.9121 49.297 11.9121H34.7822C33.2265 11.9121 31.8016 12.3193 30.5585 13.0261V13.3871C27.3674 14.8761 25.284 18.064 25.284 21.9762L24.9102 31.013V36.1999C24.9102 45.99 33.1129 53.8263 42.959 53.3047C35.8279 51.2338 30.6153 44.6529 30.6153 36.8537C30.6577 35.8899 30.6153 26.5511 30.6153 23.0037L30.6156 22.9279C30.6427 19.3201 33.6154 16.4267 37.2233 16.4304L56.2454 16.4493Z" fill="#F99675"/>
<path d="M39.7505 33.5123C39.3994 34.9146 40.0376 36.4422 41.2581 36.9027C41.7616 37.0934 42.3175 37.0934 42.8211 36.9027C44.0416 36.4422 44.6799 34.9146 44.3286 33.5123L43.1645 28.8632C42.8714 27.6927 41.208 27.6927 40.9149 28.8632L39.7505 33.5123Z" fill="#FF965A"/>
<path d="M59.0012 12.9395V31.0131C57.7465 31.0131 56.7293 29.9959 56.7293 28.7412V18.7095C56.7293 16.4938 55.4822 14.4515 53.4897 13.4822C53.4412 13.4586 53.3925 13.4354 53.3434 13.4127V12.9396H59.0012V12.9395Z" fill="#433F43"/>
<path d="M35.2318 28.7978C35.0937 28.7978 34.9613 28.743 34.8636 28.6453C34.7659 28.5476 34.7111 28.4152 34.7111 28.2771V26.7C34.7111 26.5619 34.7659 26.4294 34.8636 26.3317C34.9613 26.2341 35.0937 26.1792 35.2318 26.1792C35.3699 26.1792 35.5024 26.2341 35.6001 26.3317C35.6977 26.4294 35.7526 26.5619 35.7526 26.7V28.2771C35.7526 28.4152 35.6977 28.5476 35.6001 28.6453C35.5024 28.743 35.3699 28.7978 35.2318 28.7978ZM46.7425 28.7978C46.6043 28.7978 46.4719 28.743 46.3742 28.6453C46.2766 28.5476 46.2217 28.4152 46.2217 28.2771V26.7C46.2217 26.5619 46.2766 26.4294 46.3742 26.3317C46.4719 26.2341 46.6043 26.1792 46.7425 26.1792C46.8806 26.1792 47.013 26.2341 47.1107 26.3317C47.2084 26.4294 47.2632 26.5619 47.2632 26.7V28.2771C47.2632 28.4152 47.2084 28.5476 47.1107 28.6453C47.013 28.743 46.8806 28.7978 46.7425 28.7978Z" fill="white"/>
<path d="M36.9123 42.3894C37.9563 44.1307 39.8615 45.2967 42.0394 45.2967C42.983 45.2967 43.8749 45.0773 44.6682 44.6878C44.3271 42.5484 42.4742 40.9131 40.2388 40.9131C38.9194 40.9129 37.7332 41.4827 36.9123 42.3894Z" fill="#FF3C3C"/>
<path d="M44.9439 40.913H38.9674C38.7439 40.913 38.5295 40.8242 38.3715 40.6662C38.2134 40.5081 38.1246 40.2937 38.1246 40.0702V39.3223H45.7867V40.0702C45.7867 40.2937 45.6979 40.5081 45.5398 40.6661C45.3818 40.8242 45.1674 40.913 44.9439 40.913Z" fill="white"/>
<path d="M44.5155 0.0167671C39.6611 0.0212055 35.7587 4.00636 35.845 8.86011C35.8818 10.9282 35.9377 12.996 36.0228 15.063L36.025 15.1142L56.2455 15.1341C59.7639 15.1376 62.618 12.2864 62.618 8.76789V0L44.5155 0.0167671Z" fill="#554E56"/>
<path d="M36.0887 9.7011C36.0887 4.3611 40.415 0.0309041 45.755 0.0259726L62.6178 0.0103562V0L34.5762 0.0259726C29.2362 0.0309041 24.91 4.36126 24.91 9.7011V31.0133C26.1647 31.0133 27.1819 29.9961 27.1819 28.7413V18.7096L27.1821 18.6699C27.1956 16.6895 28.8429 15.1073 30.8233 15.1093L36.0889 15.1144V9.7011H36.0887Z" fill="#433F43"/>
<path d="M34.2163 80.779C33.9547 80.779 33.7038 80.6751 33.5189 80.4901C33.3339 80.3052 33.23 80.0543 33.23 79.7927V68.394C33.23 68.1324 33.3339 67.8816 33.5189 67.6966C33.7038 67.5116 33.9547 67.4077 34.2163 67.4077C34.4779 67.4077 34.7287 67.5116 34.9137 67.6966C35.0987 67.8816 35.2026 68.1324 35.2026 68.394V79.7927C35.2026 80.0543 35.0987 80.3052 34.9137 80.4901C34.7287 80.6751 34.4779 80.779 34.2163 80.779Z" fill="#DC1428"/>
<path d="M34.2163 78.3127C33.9547 78.3127 33.7038 78.2088 33.5189 78.0238C33.3339 77.8388 33.23 77.588 33.23 77.3264V65.9277C33.23 65.6661 33.3339 65.4153 33.5189 65.2303C33.7038 65.0453 33.9547 64.9414 34.2163 64.9414C34.4779 64.9414 34.7287 65.0453 34.9137 65.2303C35.0987 65.4153 35.2026 65.6661 35.2026 65.9277V77.3264C35.2026 77.588 35.0987 77.8388 34.9137 78.0238C34.7287 78.2088 34.4779 78.3127 34.2163 78.3127Z" fill="white"/>
<path d="M50.3269 80.779C50.0653 80.779 49.8144 80.6751 49.6295 80.4901C49.4445 80.3052 49.3406 80.0543 49.3406 79.7927V68.394C49.3406 68.1324 49.4445 67.8816 49.6295 67.6966C49.8144 67.5116 50.0653 67.4077 50.3269 67.4077C50.5885 67.4077 50.8393 67.5116 51.0243 67.6966C51.2093 67.8816 51.3132 68.1324 51.3132 68.394V79.7927C51.3132 80.0543 51.2093 80.3052 51.0243 80.4901C50.8393 80.6751 50.5885 80.779 50.3269 80.779Z" fill="#DC1428"/>
<path d="M50.3268 78.3132C50.0653 78.3132 49.8144 78.2093 49.6294 78.0243C49.4445 77.8394 49.3405 77.5885 49.3405 77.3269V65.9282C49.3405 65.6666 49.4445 65.4158 49.6294 65.2308C49.8144 65.0458 50.0653 64.9419 50.3268 64.9419C50.5884 64.9419 50.8393 65.0458 51.0243 65.2308C51.2092 65.4158 51.3131 65.6666 51.3131 65.9282V77.3269C51.3131 77.5885 51.2092 77.8394 51.0243 78.0243C50.8393 78.2093 50.5884 78.3132 50.3268 78.3132ZM24.1609 37.7856C23.9647 37.7856 23.7766 37.7077 23.6379 37.5689C23.4991 37.4302 23.4212 37.2421 23.4212 37.0459V31.5071C23.4212 31.3109 23.4991 31.1228 23.6379 30.9841C23.7766 30.8453 23.9647 30.7674 24.1609 30.7674C24.3571 30.7674 24.5453 30.8453 24.684 30.9841C24.8227 31.1228 24.9007 31.3109 24.9007 31.5071V37.0459C24.9007 37.2421 24.8227 37.4302 24.684 37.5689C24.5453 37.7077 24.3571 37.7856 24.1609 37.7856ZM61.7048 31.7249C61.7048 33.218 60.4943 34.4286 59.0012 34.4286V29.0542C60.4943 29.0542 61.7048 30.2647 61.7048 31.7578V31.7249Z" fill="white"/>
<path d="M59.7503 38.1964C59.5541 38.1964 59.3659 38.1185 59.2272 37.9798C59.0885 37.841 59.0106 37.6529 59.0106 37.4567V31.9179C59.0106 31.7218 59.0885 31.5336 59.2272 31.3949C59.3659 31.2562 59.5541 31.1782 59.7503 31.1782C59.9465 31.1782 60.1346 31.2562 60.2734 31.3949C60.4121 31.5336 60.49 31.7218 60.49 31.9179V37.4567C60.49 37.6529 60.4121 37.841 60.2734 37.9798C60.1346 38.1185 59.9465 38.1964 59.7503 38.1964Z" fill="white"/>
</g>
<defs>
<clipPath id="clip0_1018_16717">
<rect width="84" height="84" fill="white"/>
</clipPath>
</defs>
</svg>
