<svg width="20" height="20" viewBox="0 0 20 20" fill="none" xmlns="http://www.w3.org/2000/svg">
<g id="&#208;&#152;&#209;&#129;&#208;&#186;&#208;&#176;&#209;&#130;&#209;&#140; &#209;&#128;&#208;&#181;&#208;&#183;&#209;&#131;&#208;&#187;&#209;&#140;&#209;&#130;&#208;&#176;&#209;&#130;&#209;&#139; &#208;&#180;&#208;&#187;&#209;&#143; &#208;&#180;&#208;&#176;&#209;&#130;&#208;&#176; - Flaticon-12 (2)" clip-path="url(#clip0_613_7343)">
<g id="Group">
<g id="Layer 2">
<path id="Vector" d="M18.3333 2.49992H15.8333V1.66659C15.8333 1.44557 15.7455 1.23361 15.5893 1.07733C15.433 0.921049 15.221 0.833252 15 0.833252C14.779 0.833252 14.567 0.921049 14.4108 1.07733C14.2545 1.23361 14.1667 1.44557 14.1667 1.66659V2.49992H10.8333V1.66659C10.8333 1.44557 10.7455 1.23361 10.5893 1.07733C10.433 0.921049 10.221 0.833252 10 0.833252C9.779 0.833252 9.56704 0.921049 9.41076 1.07733C9.25447 1.23361 9.16668 1.44557 9.16668 1.66659V2.49992H5.83334V1.66659C5.83334 1.44557 5.74555 1.23361 5.58927 1.07733C5.43299 0.921049 5.22102 0.833252 5.00001 0.833252C4.779 0.833252 4.56704 0.921049 4.41075 1.07733C4.25447 1.23361 4.16668 1.44557 4.16668 1.66659V2.49992H1.66668C1.44566 2.49992 1.2337 2.58772 1.07742 2.744C0.921141 2.90028 0.833344 3.11224 0.833344 3.33325V7.49992H19.1667V3.33325C19.1667 3.11224 19.0789 2.90028 18.9226 2.744C18.7663 2.58772 18.5544 2.49992 18.3333 2.49992ZM0.833344 18.3333C0.833344 18.5543 0.921141 18.7662 1.07742 18.9225C1.2337 19.0788 1.44566 19.1666 1.66668 19.1666H18.3333C18.5544 19.1666 18.7663 19.0788 18.9226 18.9225C19.0789 18.7662 19.1667 18.5543 19.1667 18.3333V9.16659H0.833344V18.3333Z" fill="#5F7EEA"/>
</g>
</g>
</g>
<defs>
<clipPath id="clip0_613_7343">
<rect width="20" height="20" fill="white"/>
</clipPath>
</defs>
</svg>
