<svg width="24" height="24" viewBox="0 0 24 24" fill="none" xmlns="http://www.w3.org/2000/svg">
<path d="M15.1989 9H13.1705V18.375H15.1989V9ZM11.142 9H9.11364V18.375H11.142V9ZM17.2273 3.375V2.8125C17.2273 1.26169 15.8624 0 14.1847 0H10.1278C8.45014 0 7.08523 1.26169 7.08523 2.8125V3.375H1V5.25H3.13424L5.07533 21.4985C5.24566 22.9246 6.54572 24 8.09943 24H16.2131C17.7668 24 19.0668 22.9246 19.2372 21.4985L21.1783 5.25H23.3125V3.375H17.2273ZM9.11364 2.8125C9.11364 2.29556 9.56861 1.875 10.1278 1.875H14.1847C14.7439 1.875 15.1989 2.29556 15.1989 2.8125V3.375H9.11364V2.8125ZM17.221 21.2927C17.1643 21.7672 16.731 22.125 16.2131 22.125H8.09943C7.58148 22.125 7.14816 21.7672 7.09146 21.2927L5.17497 5.25H19.1375L17.221 21.2927Z" fill="#483D6B"/>
</svg>
