<svg width="20" height="20" viewBox="0 0 20 20" fill="none" xmlns="http://www.w3.org/2000/svg">
<g id="&#208;&#152;&#209;&#129;&#208;&#186;&#208;&#176;&#209;&#130;&#209;&#140; &#209;&#128;&#208;&#181;&#208;&#183;&#209;&#131;&#208;&#187;&#209;&#140;&#209;&#130;&#208;&#176;&#209;&#130;&#209;&#139; &#208;&#180;&#208;&#187;&#209;&#143; &#209;&#128;&#208;&#176;&#208;&#183;&#208;&#188;&#208;&#181;&#209;&#128; - Flaticon-12 (2) 1" clip-path="url(#clip0_613_7325)">
<g id="Group">
<path id="Vector" fill-rule="evenodd" clip-rule="evenodd" d="M3.90625 0H16.0938C17.1291 0.00199254 18.1216 0.414183 18.8537 1.14632C19.5858 1.87845 19.998 2.87086 20 3.90625V16.0938C19.998 17.1291 19.5858 18.1216 18.8537 18.8537C18.1216 19.5858 17.1291 19.998 16.0938 20H3.90625C2.87086 19.998 1.87845 19.5858 1.14632 18.8537C0.414183 18.1216 0.00199254 17.1291 0 16.0938L0 3.90625C0.00199254 2.87086 0.414183 1.87845 1.14632 1.14632C1.87845 0.414183 2.87086 0.00199254 3.90625 0ZM5.60547 13.3586V11.2936C5.60348 11.1006 5.52543 10.9163 5.38829 10.7805C5.25115 10.6448 5.066 10.5687 4.87305 10.5687C4.6801 10.5687 4.49494 10.6448 4.3578 10.7805C4.22066 10.9163 4.14262 11.1006 4.14062 11.2936V15.1269C4.14065 15.3212 4.21782 15.5074 4.35517 15.6448C4.49252 15.7822 4.6788 15.8593 4.87305 15.8594H8.70637C8.80319 15.8604 8.89924 15.8422 8.98898 15.8058C9.07872 15.7695 9.16036 15.7157 9.22918 15.6475C9.298 15.5794 9.35263 15.4984 9.38991 15.409C9.4272 15.3196 9.44639 15.2238 9.44639 15.127C9.44639 15.0301 9.4272 14.9343 9.38991 14.8449C9.35263 14.7555 9.298 14.6745 9.22918 14.6064C9.16036 14.5382 9.07872 14.4845 8.98898 14.4481C8.89924 14.4117 8.80319 14.3935 8.70637 14.3945H6.64145L14.3945 6.64141V8.70633C14.3935 8.80315 14.4117 8.8992 14.4481 8.98894C14.4845 9.07868 14.5382 9.16032 14.6064 9.22914C14.6745 9.29796 14.7555 9.35259 14.8449 9.38987C14.9343 9.42716 15.0301 9.44635 15.127 9.44635C15.2238 9.44635 15.3196 9.42716 15.409 9.38987C15.4984 9.35259 15.5794 9.29796 15.6475 9.22914C15.7157 9.16032 15.7695 9.07868 15.8058 8.98894C15.8422 8.8992 15.8604 8.80315 15.8594 8.70633V4.87297C15.8593 4.67874 15.7822 4.49248 15.6448 4.35514C15.5075 4.21781 15.3212 4.14065 15.127 4.14062H11.2936C11.0994 4.14062 10.9131 4.21779 10.7757 4.35515C10.6384 4.4925 10.5612 4.6788 10.5612 4.87305C10.5612 5.0673 10.6384 5.25359 10.7757 5.39095C10.9131 5.5283 11.0994 5.60547 11.2936 5.60547H13.3589L5.60547 13.3586Z" fill="#5F7EEA"/>
</g>
</g>
<defs>
<clipPath id="clip0_613_7325">
<rect width="20" height="20" fill="white"/>
</clipPath>
</defs>
</svg>
