<svg width="84" height="84" viewBox="0 0 84 84" fill="none" xmlns="http://www.w3.org/2000/svg">
<g clip-path="url(#clip0_1018_16682)">
<path d="M42 1.84424C19.3133 1.84424 0.92215 20.2354 0.92215 42.9221C0.92215 51.4874 3.54375 59.4406 8.02828 66.0228L75.9501 66.0546C80.4478 59.4662 83.0778 51.5013 83.0778 42.9221C83.0778 20.2354 64.6867 1.84424 42 1.84424Z" fill="#5FC4EA"/>
<path d="M42 76.4555C60.5197 76.4555 75.5329 61.4423 75.5329 42.9226C75.5329 24.4029 60.5197 9.38965 42 9.38965C23.4803 9.38965 8.46707 24.4029 8.46707 42.9226C8.46707 61.4423 23.4803 76.4555 42 76.4555Z" fill="#5FC4EA"/>
<path d="M67.9248 59.8083C67.8266 59.7836 56.2569 57.2212 56.2569 57.2212C56.2569 57.2212 48.2859 57.7279 39.4406 58.2924C28.2699 59.0053 21.3915 70.8213 26.2878 80.8871C29.246 82.1129 32.3382 82.986 35.5007 83.4884L48.3241 83.5159C51.4888 83.0272 54.5849 82.1676 57.5484 80.9546L65.883 76.3457C69.8147 73.5304 73.2216 70.0467 75.9486 66.0533C74.2833 63.0212 71.4416 60.6937 67.9248 59.8083Z" fill="white"/>
<path d="M34.0803 55.792C26.4893 57.4777 16.1141 59.7822 16.0316 59.8032C12.5277 60.6878 9.6952 63.0039 8.02945 66.0219C10.6238 69.8287 13.8366 73.1747 17.5349 75.9215L26.1208 75.8811V72.3588C26.1208 68.002 30.8402 67.3141 34.0802 66.9833L34.0803 55.792Z" fill="white"/>
<path d="M61.8812 26.3059V17.535C61.8812 7.85073 54.0304 0 44.3461 0H39.7068C29.6823 0 21.556 8.12637 21.556 18.1509V26.3057L61.8812 26.3059Z" fill="#433F43"/>
<path d="M41.8058 63.3032C38.3758 63.3032 35.5952 60.5227 35.5952 57.0926V43.1816H48.0165V57.0926C48.0165 60.5227 45.2358 63.3032 41.8058 63.3032Z" fill="#F99675"/>
<path d="M48.0165 51.7283V44.73H35.5952V51.7283C35.5952 55.1584 38.3758 57.9389 41.8058 57.9389C45.2358 57.9389 48.0165 55.1584 48.0165 51.7283Z" fill="#DD7F66"/>
<path d="M59.4381 33.6026H58.3418V23.1221H59.4381C61.7214 23.1221 63.5722 24.9729 63.5722 27.2562V29.4683C63.5722 31.7518 61.7214 33.6026 59.4381 33.6026Z" fill="#F99675"/>
<path d="M59.4381 30.192V26.5332C59.8209 26.5332 60.188 26.6853 60.4586 26.9559C60.7293 27.2266 60.8814 27.5937 60.8814 27.9765V28.7487C60.8814 29.1315 60.7293 29.4986 60.4586 29.7693C60.188 30.0399 59.8209 30.192 59.4381 30.192Z" fill="#DD7F66"/>
<path d="M19.8649 29.4685C19.8649 31.7518 21.7158 33.6026 23.999 33.6026H24.9562L25.2485 23.1221H23.999C21.7158 23.1221 19.8649 24.9729 19.8649 27.2562V29.4685Z" fill="#F99675"/>
<path d="M22.5505 28.7498C22.5506 29.1339 22.7032 29.5023 22.9748 29.7739C23.2465 30.0456 23.6149 30.1982 23.999 30.1982V26.5264C23.6149 26.5264 23.2465 26.679 22.9748 26.9507C22.7032 27.2223 22.5506 27.5907 22.5505 27.9748V28.7498Z" fill="#DD7F66"/>
<path d="M28.3826 12.1411L28.442 40.6465C28.6549 47.7499 34.5763 53.3566 41.6826 53.4217L44.1255 53.444C52.7673 52.3084 59.4382 44.9152 59.4382 35.9634L59.5136 31.3897L55.3171 12.1411H28.3826Z" fill="#FBAC91"/>
<path d="M34.1875 29.3745V30.6179C34.1933 31.0036 34.3506 31.3714 34.6254 31.6421C34.9002 31.9128 35.2704 32.0645 35.6561 32.0645C36.0418 32.0645 36.412 31.9128 36.6868 31.6421C36.9615 31.3714 37.1188 31.0036 37.1246 30.6179V29.3745H34.1875ZM46.1532 29.3745V30.6179C46.159 31.0036 46.3163 31.3714 46.5911 31.6421C46.8659 31.9128 47.2361 32.0645 47.6218 32.0645C48.0075 32.0645 48.3777 31.9128 48.6525 31.6421C48.9273 31.3714 49.0845 31.0036 49.0904 30.6179V29.3745H46.1532Z" fill="#F99675"/>
<path d="M35.6561 30.9098C35.2666 30.9098 34.8931 30.7551 34.6177 30.4797C34.3423 30.2042 34.1876 29.8307 34.1875 29.4413V27.5522L34.7289 26.7325L34.1875 25.9128V25.4249C34.1933 25.0392 34.3506 24.6713 34.6254 24.4007C34.9002 24.13 35.2704 23.9783 35.6561 23.9783C36.0418 23.9783 36.412 24.13 36.6868 24.4007C36.9616 24.6713 37.1188 25.0392 37.1247 25.4249V29.4413C37.1246 29.8307 36.9699 30.2042 36.6945 30.4797C36.4191 30.7551 36.0456 30.9098 35.6561 30.9098ZM47.6218 30.9098C47.2323 30.9098 46.8588 30.7551 46.5834 30.4797C46.308 30.2042 46.1533 29.8307 46.1532 29.4413V27.5522L46.6946 26.7325L46.1532 25.9128V25.4249C46.1591 25.0392 46.3164 24.6713 46.5911 24.4007C46.8659 24.13 47.2361 23.9783 47.6218 23.9783C48.0075 23.9783 48.3777 24.13 48.6525 24.4007C48.9273 24.6713 49.0846 25.0392 49.0904 25.4249V29.4413C49.0903 29.8307 48.9356 30.2042 48.6602 30.4797C48.3848 30.7551 48.0113 30.9098 47.6218 30.9098ZM37.5908 22.362H33.3081C32.9186 22.362 32.5451 22.2072 32.2697 21.9318C31.9943 21.6564 31.8395 21.2829 31.8395 20.8934C31.8395 20.5039 31.9943 20.1304 32.2697 19.8549C32.5451 19.5795 32.9186 19.4248 33.3081 19.4248H37.5908C37.9764 19.4306 38.3443 19.5879 38.615 19.8627C38.8856 20.1375 39.0373 20.5077 39.0373 20.8934C39.0373 21.2791 38.8856 21.6493 38.615 21.9241C38.3443 22.1988 37.9764 22.3561 37.5908 22.362ZM49.8288 22.362H45.5461C45.1566 22.362 44.7831 22.2072 44.5077 21.9318C44.2323 21.6564 44.0776 21.2829 44.0776 20.8934C44.0776 20.5039 44.2323 20.1304 44.5077 19.8549C44.7831 19.5795 45.1566 19.4248 45.5461 19.4248H49.8288C50.2144 19.4306 50.5823 19.5879 50.853 19.8627C51.1236 20.1375 51.2753 20.5077 51.2753 20.8934C51.2753 21.2791 51.1236 21.6493 50.853 21.9241C50.5823 22.1988 50.2144 22.3561 49.8288 22.362Z" fill="#433F43"/>
<path d="M39.4264 32.9945C39.0613 34.4524 39.7248 36.0403 40.9935 36.519C41.517 36.717 42.0947 36.717 42.6182 36.519C43.8869 36.0403 44.5505 34.4524 44.1853 32.9945L42.9751 28.1616C42.6705 26.9448 40.9414 26.9448 40.6367 28.1616L39.4264 32.9945Z" fill="#F99675"/>
<path d="M34.7289 28.0938C34.5853 28.0938 34.4476 28.0367 34.3461 27.9352C34.2446 27.8337 34.1875 27.696 34.1875 27.5524V25.9128C34.191 25.7716 34.2496 25.6373 34.3507 25.5386C34.4519 25.44 34.5876 25.3848 34.7289 25.3848C34.8702 25.3848 35.0059 25.44 35.107 25.5386C35.2082 25.6373 35.2668 25.7716 35.2703 25.9128V27.5524C35.2702 27.696 35.2132 27.8337 35.1117 27.9352C35.0101 28.0367 34.8725 28.0938 34.7289 28.0938ZM46.6946 28.0938C46.551 28.0938 46.4134 28.0367 46.3118 27.9352C46.2103 27.8337 46.1533 27.696 46.1532 27.5524V25.9128C46.1567 25.7716 46.2153 25.6373 46.3165 25.5386C46.4176 25.44 46.5533 25.3848 46.6946 25.3848C46.8359 25.3848 46.9716 25.44 47.0728 25.5386C47.1739 25.6373 47.2325 25.7716 47.236 25.9128V27.5524C47.236 27.696 47.1789 27.8337 47.0774 27.9352C46.9759 28.0367 46.8382 28.0938 46.6946 28.0938Z" fill="white"/>
<path d="M58.0992 11.7549H25.977L23.999 30.198V35.7886C23.999 45.5794 31.8913 53.489 41.604 53.5928C41.6254 53.5931 41.6466 53.5948 41.6682 53.5949C42.0282 53.5976 42.3883 53.5894 42.7478 53.5703L42.7615 53.5698L42.7607 53.5694C43.2206 53.5448 43.6755 53.502 44.1253 53.4429C35.4113 52.3073 29.7402 44.8549 29.7402 35.7886V16.6457C29.7402 15.3042 30.6144 14.0951 31.9081 13.7402L31.9326 13.7335C32.9151 15.0237 34.4665 15.8568 36.2131 15.8568H48.9128C50.6119 15.8583 52.2983 15.5638 53.8963 14.9866C55.0784 16.0382 55.8238 17.5702 55.8238 19.2768V27.6998C55.8238 29.7374 57.4756 31.3894 59.5133 31.3894V30.1915L58.0992 11.7549Z" fill="#F99675"/>
<path d="M31.5657 8.08936C27.3867 8.08936 23.9988 11.4772 23.9988 15.6562V30.1919C26.0365 30.1919 27.6883 28.5401 27.6883 26.5025V18.0795C27.6883 14.9084 30.2589 12.3376 33.4301 12.3376H50.0821C53.2531 12.3376 55.8239 14.9083 55.8239 18.0795V26.5026C55.8239 28.5403 57.4758 30.1921 59.5134 30.1921V15.6562C59.5134 11.4772 56.1256 8.08936 51.9465 8.08936H31.5657Z" fill="#433F43"/>
<path d="M40.1165 0C34.9906 0 30.8354 4.15523 30.8354 9.28108C30.8354 12.2513 33.2432 14.6591 36.2134 14.6591H48.9132C55.8798 14.6591 61.7115 9.79933 63.2029 3.28489C63.5883 1.60103 62.2878 0 60.5603 0H40.1165Z" fill="#554E56"/>
<path d="M47.5418 38.1035H45.9921L41.9106 38.9509L37.8292 38.1035H36.4582C35.9983 38.1035 35.6307 38.5049 35.6921 38.9608C35.8067 39.8135 36.0941 40.6339 36.5368 41.3716L44.8012 43.8207C46.6676 42.9046 48.0198 41.1014 48.3079 38.9608C48.3692 38.5049 48.0017 38.1035 47.5418 38.1035Z" fill="#E41E7F"/>
<path d="M36.5375 41.3712C37.6498 43.2264 39.6795 44.4686 42 44.4686C42.971 44.4697 43.9292 44.2478 44.8008 43.8199C44.4375 41.5405 42.4632 39.7983 40.0816 39.7983C38.6759 39.7983 37.412 40.4053 36.5375 41.3712Z" fill="#FE646F"/>
<path d="M44.8899 39.7983H38.9312C38.6389 39.7983 38.3586 39.6821 38.1518 39.4754C37.9451 39.2687 37.829 38.9884 37.829 38.696V38.1035H45.9921V38.696C45.9921 38.9884 45.876 39.2687 45.6693 39.4754C45.4626 39.6821 45.1822 39.7983 44.8899 39.7983Z" fill="white"/>
<path d="M41.8058 66.1885V63.3033L53.9835 56.7178L56.2568 57.2213L49.7239 71.5048C49.3177 72.3929 48.1486 72.6001 47.4618 71.906L41.8058 66.1885Z" fill="#F7F7F8"/>
<path d="M41.8058 63.3034L48.0165 52.4702L53.9835 56.7178L47.6875 69.4536L41.8058 63.3034Z" fill="white"/>
<path d="M41.8059 66.1887V63.3036L35.3276 57.939L29.3606 60.6072L34.7215 71.4516C35.1648 72.3484 36.3797 72.5015 37.0318 71.743L41.8059 66.1887Z" fill="#F7F7F8"/>
<path d="M41.6839 63.3037L35.5831 52.4771L29.5063 56.7181L35.8023 69.4539L41.6839 63.3037Z" fill="white"/>
<path d="M41.9107 62.5669C32.0166 62.5669 23.636 69.1648 20.934 78.1914C22.6506 79.219 24.4403 80.1195 26.2887 80.8854C27.9172 73.7642 34.303 68.4352 41.9108 68.4352C49.5422 68.4352 55.9439 73.7979 57.5476 80.9525C58.2643 80.6591 58.9726 80.3455 59.6715 80.0119L62.2866 76.4547C59.084 68.331 51.1584 62.5669 41.9107 62.5669Z" fill="#554E56"/>
<path d="M42 84C44.1507 84 46.2626 83.834 48.324 83.5154C47.8668 80.3828 45.1701 77.977 41.9107 77.977C38.6611 77.977 35.9705 80.3679 35.501 83.4864C37.6505 83.8283 39.8235 84 42 84ZM41.9107 62.5669C32.3628 62.5669 24.2242 68.7113 21.2381 77.2533L24.2769 79.9878C24.9392 80.305 25.61 80.6043 26.2885 80.8854C27.917 73.7642 34.3029 68.4352 41.9107 68.4352C43.5311 68.4352 44.8448 67.1215 44.8448 65.501C44.8448 63.8805 43.5311 62.5669 41.9107 62.5669Z" fill="#433F43"/>
<path d="M44.0064 80.9304V67.5318C44.0064 66.3745 43.068 65.436 41.9106 65.436C40.7532 65.436 39.8148 66.3745 39.8148 67.5318V80.9304H44.0064Z" fill="#433F43"/>
<path d="M64.5682 75.8812H60.1598C59.0022 75.8812 58.0639 76.8196 58.0639 77.977C58.0639 78.9662 58.7502 79.7933 59.6718 80.0134C61.8457 78.9755 63.9241 77.7484 65.8828 76.3461C65.5109 76.0449 65.0467 75.8807 64.5682 75.8812ZM28.8189 72.4055C28.3125 72.4055 27.8048 72.2231 27.4024 71.8539L24.1544 68.8733C23.3017 68.0906 23.2447 66.7649 24.0274 65.9122C24.81 65.0593 26.1357 65.0026 26.9886 65.7849L30.2366 68.7655C31.0894 69.5482 31.1464 70.8739 30.3637 71.7266C30.1675 71.9409 29.9288 72.1119 29.6628 72.2288C29.3968 72.3457 29.1094 72.4059 28.8189 72.4055Z" fill="#FBAC91"/>
<path d="M25.8929 75.2893C25.3866 75.2893 24.8791 75.1071 24.4765 74.7377L21.2285 71.7573C20.3756 70.9746 20.3187 69.6489 21.1012 68.7962C21.8837 67.9431 23.2096 67.8862 24.0624 68.6689L27.3104 71.6493C28.1633 72.432 28.2201 73.7577 27.4376 74.6104C27.2415 74.8247 27.0028 74.9958 26.7368 75.1127C26.4709 75.2296 26.1834 75.2897 25.8929 75.2893Z" fill="#FBAC91"/>
<path d="M23.8501 78.9016C23.3438 78.9016 22.8363 78.7193 22.4337 78.3499L19.1857 75.3695C18.3328 74.5869 18.276 73.2611 19.0585 72.4084C19.8409 71.5555 21.1668 71.4985 22.0196 72.2811L25.2676 75.2616C26.1205 76.0442 26.1773 77.3699 25.3948 78.2227C25.1987 78.437 24.96 78.608 24.694 78.7249C24.4281 78.8418 24.1407 78.9019 23.8501 78.9016Z" fill="#FBAC91"/>
<path d="M17.535 75.9215C19.6466 77.4901 21.904 78.8523 24.2762 79.989C24.1878 79.5601 23.9664 79.1698 23.6436 78.8739L20.3956 75.8935C19.5779 75.143 18.3266 75.1665 17.535 75.9215Z" fill="#FBAC91"/>
</g>
<defs>
<clipPath id="clip0_1018_16682">
<rect width="84" height="84" fill="white"/>
</clipPath>
</defs>
</svg>
