<svg width="24" height="24" viewBox="0 0 24 24" fill="none" xmlns="http://www.w3.org/2000/svg">
<path d="M23.0639 0.808847L23.0361 0.782499C22.5044 0.277916 21.8152 0 21.0954 0C20.2885 0 19.5137 0.354894 18.9697 0.973601L8.68328 12.6735C8.58952 12.7801 8.51841 12.9059 8.47444 13.0429L7.26491 16.81C7.12507 17.2455 7.19526 17.7272 7.45263 18.0984C7.71206 18.4725 8.13 18.6959 8.57072 18.6959C8.76135 18.6959 8.94774 18.6551 9.12447 18.5748L12.6265 16.9831C12.7538 16.9252 12.8681 16.8403 12.9618 16.7337L23.2482 5.03386C24.3186 3.81647 24.2361 1.92127 23.0639 0.808847ZM9.58233 16.1141L10.2921 13.9036L10.3519 13.8355L11.6971 15.112L11.6373 15.1801L9.58233 16.1141ZM21.7816 3.64201L13.0368 13.5883L11.6916 12.3118L20.4364 2.36545C20.6074 2.17091 20.8415 2.06374 21.0955 2.06374C21.3183 2.06374 21.5317 2.14986 21.6968 2.30657L21.7246 2.33291C22.0877 2.67749 22.1132 3.26476 21.7816 3.64201Z" fill="#483D6B"/>
<path d="M21.069 9.51901C20.5205 9.51901 20.0758 9.98101 20.0758 10.5509V19.3112C20.0758 20.7582 18.9426 21.9354 17.5499 21.9354H5.51228C4.11947 21.9354 2.98642 20.7582 2.98642 19.3112V6.90666C2.98642 5.45971 4.11953 4.28249 5.51228 4.28249H14.2252C14.7737 4.28249 15.2184 3.82048 15.2184 3.25062C15.2184 2.68075 14.7737 2.21875 14.2252 2.21875H5.51228C3.02416 2.21875 1 4.32176 1 6.90666V19.3112C1 21.8961 3.02422 23.9991 5.51228 23.9991H17.5498C20.0379 23.9991 22.0621 21.8961 22.0621 19.3112V10.5509C22.0622 9.98101 21.6175 9.51901 21.069 9.51901Z" fill="#483D6B"/>
</svg>
