<svg width="40" height="40" viewBox="0 0 40 40" fill="none" xmlns="http://www.w3.org/2000/svg">
<g id="Group 72">
<circle id="Ellipse 70" opacity="0.2" cx="20" cy="20" r="20" fill="#EA5F7E"/>
<path id="cancel" d="M14.6 27.5L20 22.1L25.4 27.5L27.5 25.4L22.1 20L27.5 14.6L25.4 12.5L20 17.9L14.6 12.5L12.5 14.6L17.9 20L12.5 25.4L14.6 27.5ZM20 35C17.925 35 15.975 34.606 14.15 33.818C12.325 33.031 10.7375 31.9625 9.3875 30.6125C8.0375 29.2625 6.969 27.675 6.182 25.85C5.394 24.025 5 22.075 5 20C5 17.925 5.394 15.975 6.182 14.15C6.969 12.325 8.0375 10.7375 9.3875 9.3875C10.7375 8.0375 12.325 6.9685 14.15 6.1805C15.975 5.3935 17.925 5 20 5C22.075 5 24.025 5.3935 25.85 6.1805C27.675 6.9685 29.2625 8.0375 30.6125 9.3875C31.9625 10.7375 33.031 12.325 33.818 14.15C34.606 15.975 35 17.925 35 20C35 22.075 34.606 24.025 33.818 25.85C33.031 27.675 31.9625 29.2625 30.6125 30.6125C29.2625 31.9625 27.675 33.031 25.85 33.818C24.025 34.606 22.075 35 20 35Z" fill="#EA5F7E"/>
</g>
</svg>
