<svg width="22" height="22" viewBox="0 0 22 22" fill="none" xmlns="http://www.w3.org/2000/svg">
<g clip-path="url(#clip0_3809_138512)">
<path d="M10.9997 0C8.82418 0 6.6975 0.645122 4.88861 1.85379C3.07971 3.06245 1.66985 4.78037 0.837308 6.79031C0.00476604 8.80024 -0.213065 11.0119 0.211361 13.1457C0.635788 15.2794 1.68341 17.2394 3.22175 18.7777C4.76009 20.316 6.72005 21.3636 8.85378 21.7881C10.9875 22.2125 13.1992 21.9947 15.2091 21.1621C17.2191 20.3296 18.937 18.9197 20.1457 17.1108C21.3543 15.3019 21.9994 13.1753 21.9994 10.9997C21.996 8.08347 20.836 5.28764 18.7739 3.22554C16.7118 1.16344 13.916 0.00344038 10.9997 0ZM10.9997 19.9995C9.21974 19.9995 7.47972 19.4717 5.99972 18.4827C4.51971 17.4938 3.36619 16.0883 2.68502 14.4438C2.00385 12.7993 1.82562 10.9897 2.17288 9.24395C2.52014 7.49816 3.37728 5.89456 4.63592 4.63592C5.89456 3.37728 7.49817 2.52013 9.24395 2.17288C10.9897 1.82562 12.7993 2.00384 14.4438 2.68501C16.0883 3.36619 17.4938 4.51971 18.4828 5.99971C19.4717 7.47972 19.9995 9.21973 19.9995 10.9997C19.9966 13.3857 19.0475 15.6731 17.3603 17.3603C15.6732 19.0475 13.3857 19.9966 10.9997 19.9995Z" fill="#483D6B"/>
<path d="M13.2076 4.66508C12.638 4.29014 11.9832 4.06466 11.3036 4.00943C10.6239 3.95421 9.9413 4.07102 9.31868 4.34909C8.61655 4.66126 8.02207 5.17356 7.6096 5.82187C7.19713 6.47019 6.985 7.22574 6.99974 7.994V7.99999C7.00054 8.2652 7.10666 8.51924 7.29475 8.7062C7.48284 8.89317 7.73751 8.99776 8.00272 8.99697C8.26793 8.99617 8.52196 8.89006 8.70893 8.70196C8.8959 8.51387 9.00049 8.25921 8.99969 7.994C8.98948 7.61976 9.08794 7.25059 9.28316 6.93115C9.47837 6.6117 9.76198 6.35567 10.0997 6.19404C10.4181 6.04404 10.7697 5.97814 11.1209 6.00265C11.472 6.02716 11.8111 6.14125 12.1056 6.33404C12.3685 6.50792 12.5866 6.74149 12.7421 7.01569C12.8976 7.28989 12.986 7.59696 13.0003 7.91186C13.0145 8.22675 12.9541 8.54055 12.824 8.82766C12.6939 9.11477 12.4978 9.36706 12.2516 9.56395C11.5672 10.0867 11.0093 10.7569 10.6194 11.5249C10.2295 12.2929 10.0177 13.1388 9.99967 13.9998C10.0001 14.1312 10.0264 14.2611 10.0771 14.3822C10.1278 14.5034 10.2018 14.6134 10.295 14.7059C10.3882 14.7984 10.4987 14.8717 10.6202 14.9215C10.7417 14.9714 10.8718 14.9968 11.0031 14.9963C11.1345 14.9959 11.2644 14.9695 11.3855 14.9189C11.5067 14.8682 11.6167 14.7941 11.7092 14.701C11.8017 14.6078 11.875 14.4973 11.9248 14.3758C11.9747 14.2543 12.0001 14.1242 11.9996 13.9928C12.0188 13.4324 12.1635 12.8834 12.4231 12.3864C12.6827 11.8893 13.0506 11.4569 13.4996 11.1209C13.991 10.7269 14.3824 10.2224 14.642 9.6485C14.9015 9.07459 15.0219 8.4475 14.9932 7.81828C14.9646 7.18907 14.7877 6.57551 14.4771 6.02757C14.1664 5.47963 13.7308 5.0128 13.2056 4.66508H13.2076Z" fill="#483D6B"/>
<path d="M10.9995 18.0019C11.5518 18.0019 11.9995 17.5542 11.9995 17.0019C11.9995 16.4497 11.5518 16.002 10.9995 16.002C10.4472 16.002 9.99951 16.4497 9.99951 17.0019C9.99951 17.5542 10.4472 18.0019 10.9995 18.0019Z" fill="#483D6B"/>
</g>
<defs>
<clipPath id="clip0_3809_138512">
<rect width="22" height="22" fill="white"/>
</clipPath>
</defs>
</svg>
