<svg width="24" height="22" viewBox="0 0 24 22" fill="none" xmlns="http://www.w3.org/2000/svg">
<g id="Group">
<path id="01 align center" d="M17.5 0C16.3739 0.0172091 15.2724 0.326058 14.3067 0.895358C13.341 1.46466 12.5453 2.27425 12 3.24237C11.4546 2.27425 10.6589 1.46466 9.6932 0.895358C8.7275 0.326058 7.62601 0.0172091 6.49996 0C4.7049 0.0766288 3.01366 0.848179 1.79574 2.14609C0.577818 3.444 -0.0677922 5.16277 -4.17093e-05 6.92689C-4.17093e-05 13.5836 10.956 21.2719 11.422 21.5981L12 22L12.578 21.5981C13.044 21.2739 24 13.5836 24 6.92689C24.0677 5.16277 23.4221 3.444 22.2042 2.14609C20.9863 0.848179 19.295 0.0766288 17.5 0ZM12 19.581C8.74696 17.1934 1.99996 11.3277 1.99996 6.92689C1.9316 5.6837 2.36632 4.46439 3.20932 3.53488C4.05232 2.60537 5.23519 2.04107 6.49996 1.96508C7.76472 2.04107 8.9476 2.60537 9.7906 3.53488C10.6336 4.46439 11.0683 5.6837 11 6.92689H13C12.9316 5.6837 13.3663 4.46439 14.2093 3.53488C15.0523 2.60537 16.2352 2.04107 17.5 1.96508C18.7647 2.04107 19.9476 2.60537 20.7906 3.53488C21.6336 4.46439 22.0683 5.6837 22 6.92689C22 11.3296 15.253 17.1934 12 19.581Z" fill="#483D6B"/>
</g>
</svg>
