<svg width="24" height="24" viewBox="0 0 24 24" fill="none" xmlns="http://www.w3.org/2000/svg">
<g id="&#208;&#152;&#208;&#186;&#208;&#190;&#208;&#189;&#208;&#186;&#208;&#184; &#209;&#132;&#208;&#184;&#208;&#187;&#209;&#140;&#209;&#130;&#209;&#128; - 19,528 &#208;&#177;&#208;&#181;&#209;&#129;&#208;&#191;&#208;&#187;&#208;&#176;&#209;&#130;&#208;&#189;&#209;&#139;&#209;&#133; &#208;&#184;&#208;&#186;&#208;&#190;&#208;&#189;&#208;&#190;&#208;&#186;-12">
<g id="Group">
<g id="Group_2">
<path id="Vector" fill-rule="evenodd" clip-rule="evenodd" d="M7.3273 3.4297C7.59071 3.4297 7.8482 3.51347 8.06722 3.67041C8.28623 3.82735 8.45694 4.05041 8.55774 4.31139C8.65854 4.57237 8.68492 4.85955 8.63353 5.13661C8.58214 5.41366 8.4553 5.66816 8.26904 5.8679C8.08278 6.06765 7.84547 6.20368 7.58712 6.25879C7.32877 6.3139 7.06099 6.28562 6.81763 6.17751C6.57427 6.06941 6.36627 5.88635 6.21992 5.65147C6.07358 5.41659 5.99547 5.14045 5.99547 4.85797C5.99547 4.47917 6.13579 4.11588 6.38555 3.84803C6.63532 3.58018 6.97407 3.4297 7.3273 3.4297ZM4.74822 4.14383H2.66591C2.4893 4.14383 2.31992 4.21907 2.19504 4.353C2.07016 4.48692 2 4.66857 2 4.85797C2 5.04737 2.07016 5.22901 2.19504 5.36294C2.31992 5.49686 2.4893 5.5721 2.66591 5.5721H4.74822C4.89538 6.18592 5.22872 6.72982 5.69574 7.11818C6.16277 7.50655 6.73698 7.71732 7.32796 7.71732C7.91895 7.71732 8.49315 7.50655 8.96018 7.11818C9.42721 6.72982 9.76054 6.18592 9.9077 5.5721H21.3114C21.4881 5.5721 21.6574 5.49686 21.7823 5.36294C21.9072 5.22901 21.9774 5.04737 21.9774 4.85797C21.9774 4.66857 21.9072 4.48692 21.7823 4.353C21.6574 4.21907 21.4881 4.14383 21.3114 4.14383H9.90704C9.75965 3.53033 9.42626 2.98679 8.95932 2.5987C8.49238 2.21061 7.91838 2 7.32763 2C6.73687 2 6.16288 2.21061 5.69594 2.5987C5.229 2.98679 4.89561 3.53033 4.74822 4.14383ZM7.34994 17.7124C7.61335 17.7124 7.87084 17.7961 8.08986 17.9531C8.30888 18.11 8.47958 18.3331 8.58038 18.5941C8.68118 18.8551 8.70756 19.1422 8.65617 19.4193C8.60478 19.6963 8.47794 19.9508 8.29168 20.1506C8.10542 20.3503 7.86811 20.4864 7.60976 20.5415C7.35141 20.5966 7.08363 20.5683 6.84027 20.4602C6.59691 20.3521 6.38891 20.169 6.24257 19.9341C6.09622 19.6993 6.01811 19.4231 6.01811 19.1406C6.01811 18.7618 6.15843 18.3986 6.4082 18.1307C6.65796 17.8629 6.99672 17.7124 7.34994 17.7124ZM4.76953 18.4265H2.68855C2.51194 18.4265 2.34256 18.5018 2.21768 18.6357C2.0928 18.7696 2.02264 18.9512 2.02264 19.1406C2.02264 19.33 2.0928 19.5117 2.21768 19.6456C2.34256 19.7795 2.51194 19.8548 2.68855 19.8548H4.76953C4.91669 20.4686 5.25002 21.0125 5.71705 21.4009C6.18408 21.7892 6.75829 22 7.34927 22C7.94026 22 8.51446 21.7892 8.98149 21.4009C9.44852 21.0125 9.78185 20.4686 9.92901 19.8548H21.3341C21.5107 19.8548 21.6801 19.7795 21.805 19.6456C21.9298 19.5117 22 19.33 22 19.1406C22 18.9512 21.9298 18.7696 21.805 18.6357C21.6801 18.5018 21.5107 18.4265 21.3341 18.4265H9.92901C9.78185 17.8127 9.44852 17.2688 8.98149 16.8804C8.51446 16.4921 7.94026 16.2813 7.34927 16.2813C6.75829 16.2813 6.18408 16.4921 5.71705 16.8804C5.25002 17.2688 4.91669 17.8127 4.76953 18.4265ZM13.9678 12.1664C14.0076 12.5282 14.1748 12.86 14.4352 13.0939C14.6956 13.3278 15.0295 13.4461 15.3686 13.4248C15.7077 13.4034 16.0264 13.2438 16.2594 12.9788C16.4924 12.7137 16.6222 12.3632 16.6222 11.9989C16.6222 11.6347 16.4924 11.2842 16.2594 11.0191C16.0264 10.7541 15.7077 10.5945 15.3686 10.5731C15.0295 10.5518 14.6956 10.6701 14.4352 10.904C14.1748 11.1379 14.0076 11.4697 13.9678 11.8315C13.9925 11.9415 13.9925 12.0563 13.9678 12.1664ZM12.7119 11.2852H2.66591C2.4893 11.2852 2.31992 11.3604 2.19504 11.4943C2.07016 11.6283 2 11.8099 2 11.9993C2 12.1887 2.07016 12.3703 2.19504 12.5043C2.31992 12.6382 2.4893 12.7134 2.66591 12.7134H12.7119C12.8593 13.3269 13.1926 13.8705 13.6596 14.2586C14.1265 14.6467 14.7005 14.8573 15.2913 14.8573C15.882 14.8573 16.456 14.6467 16.923 14.2586C17.3899 13.8705 17.7233 13.3269 17.8707 12.7134H21.3121C21.4887 12.7134 21.6581 12.6382 21.783 12.5043C21.9079 12.3703 21.978 12.1887 21.978 11.9993C21.978 11.8099 21.9079 11.6283 21.783 11.4943C21.6581 11.3604 21.4887 11.2852 21.3121 11.2852H17.87C17.7226 10.6717 17.3892 10.1281 16.9223 9.74004C16.4554 9.35195 15.8814 9.14134 15.2906 9.14134C14.6998 9.14134 14.1259 9.35195 13.6589 9.74004C13.192 10.1281 12.8593 10.6717 12.7119 11.2852Z" fill="#483D6B"/>
</g>
</g>
</g>
</svg>
