<svg width="24" height="24" viewBox="0 0 24 24" fill="none" xmlns="http://www.w3.org/2000/svg">
<g clip-path="url(#clip0_3979_88806)">
<path d="M22.2026 19.8608H1.79742C0.804703 19.8608 0 19.0561 0 18.0634V5.93414C0 4.94147 0.804703 4.13672 1.79742 4.13672H22.2026C23.1952 4.13672 24 4.94142 24 5.93414V18.0635C24 19.0561 23.1953 19.8608 22.2026 19.8608Z" fill="#FF4B55"/>
<path d="M16.3768 13.2347C16.3768 13.2347 15.5525 13.0973 14.9419 12.5909C14.7617 12.4415 14.5003 12.3274 14.2457 12.243C14.4504 12.2339 14.6675 12.2396 14.8727 12.2811C15.7226 12.4529 16.5467 12.0404 16.5467 12.0404C16.5467 12.0404 15.7152 12.1243 14.993 11.796C14.7977 11.7072 14.5444 11.6654 14.2971 11.6478C14.475 11.5967 14.6637 11.5566 14.85 11.5463C15.7159 11.4983 16.4093 10.8913 16.4093 10.8913C16.4093 10.8913 15.6259 11.1822 14.8443 11.0465C14.6166 11.007 14.3372 11.0366 14.0772 11.0889C14.2483 10.9814 14.4366 10.881 14.632 10.8164C15.4552 10.544 15.9662 9.77698 15.9662 9.77698C15.9662 9.77698 15.2858 10.2623 14.4959 10.3355C14.2613 10.3572 13.9942 10.4625 13.7531 10.5837C13.8922 10.4313 14.051 10.2803 14.2267 10.1637C14.9492 9.68422 15.2403 8.80977 15.2403 8.80977C15.2403 8.80977 14.7117 9.45706 13.9688 9.73559C13.7663 9.81153 13.5565 9.96359 13.368 10.1275C13.4581 9.96369 13.564 9.79986 13.6898 9.65914C14.2677 9.01269 14.3283 8.09309 14.3283 8.09309C14.3283 8.09309 13.9804 8.85294 13.3321 9.31011C13.1431 9.44342 12.9665 9.66223 12.8195 9.88339C12.8645 9.68623 12.9265 9.48177 13.019 9.2975C13.408 8.52252 13.2263 7.619 13.2263 7.619C13.2263 7.619 13.0889 8.44334 12.5825 9.05398C12.4331 9.23413 12.319 9.49555 12.2346 9.75027C12.2255 9.54556 12.2312 9.32844 12.2727 9.12327C12.4445 8.27333 12.032 7.44922 12.032 7.44922C12.032 7.44922 12.1159 8.28073 11.7876 9.00289C11.6988 9.19822 11.657 9.45153 11.6394 9.6988C11.5882 9.52095 11.5482 9.33223 11.5379 9.14591C11.4899 8.28008 10.8829 7.58661 10.8829 7.58661C10.8829 7.58661 11.1737 8.37008 11.0381 9.15167C10.9986 9.3793 11.0282 9.65872 11.0804 9.91878C10.973 9.74773 10.8726 9.55939 10.808 9.36392C10.5356 8.5407 9.76855 8.02977 9.76855 8.02977C9.76855 8.02977 10.2538 8.71016 10.327 9.50005C10.3487 9.73461 10.454 10.0018 10.5754 10.2429C10.4229 10.1038 10.2719 9.94503 10.1553 9.7692C9.67578 9.04672 8.80133 8.75572 8.80133 8.75572C8.80133 8.75572 9.44863 9.28433 9.72716 10.0272C9.80309 10.2297 9.95516 10.4396 10.119 10.628C9.95525 10.5379 9.79142 10.432 9.6507 10.3062C9.00425 9.72828 8.08466 9.66767 8.08466 9.66767C8.08466 9.66767 8.8445 10.0156 9.30167 10.664C9.43489 10.8529 9.65375 11.0296 9.87481 11.1765C9.6777 11.1316 9.47324 11.0696 9.28902 10.9771C8.51403 10.5881 7.61052 10.7697 7.61052 10.7697C7.61052 10.7697 8.43486 10.9071 9.0455 11.4135C9.22564 11.5629 9.48706 11.6771 9.74178 11.7614C9.53708 11.7705 9.31995 11.7648 9.11478 11.7233C8.26484 11.5515 7.44073 11.964 7.44073 11.964C7.44073 11.964 8.27225 11.8801 8.99441 12.2084C9.18973 12.2972 9.44305 12.339 9.69031 12.3567C9.51247 12.4078 9.32375 12.4478 9.13742 12.4581C8.27159 12.5061 7.57813 13.1131 7.57813 13.1131C7.57813 13.1131 8.36159 12.8223 9.14319 12.9579C9.37081 12.9974 9.65023 12.9679 9.9103 12.9156C9.73925 13.023 9.55091 13.1234 9.35544 13.1881C8.53222 13.4605 8.02128 14.2275 8.02128 14.2275C8.02128 14.2275 8.70167 13.7422 9.49156 13.669C9.72613 13.6473 9.99336 13.542 10.2344 13.4207C10.0953 13.5732 9.93655 13.7241 9.76072 13.8408C9.03824 14.3203 8.74719 15.1947 8.74719 15.1947C8.74719 15.1947 9.2758 14.5474 10.0186 14.2689C10.2211 14.1929 10.431 14.0409 10.6194 13.877C10.5294 14.0407 10.4234 14.2046 10.2977 14.3453C9.7198 14.9917 9.65919 15.9113 9.65919 15.9113C9.65919 15.9113 10.0071 15.1515 10.6555 14.6943C10.8445 14.561 11.0211 14.3422 11.168 14.1211C11.1231 14.3183 11.0611 14.5227 10.9686 14.707C10.5796 15.482 10.7612 16.3855 10.7612 16.3855C10.7612 16.3855 10.8987 15.5611 11.405 14.9505C11.5544 14.7703 11.6686 14.5089 11.753 14.2542C11.762 14.459 11.7563 14.6761 11.7148 14.8813C11.543 15.7312 11.9555 16.5553 11.9555 16.5553C11.9555 16.5553 11.8716 15.7238 12.2 15.0016C12.2887 14.8063 12.3305 14.5529 12.3482 14.3057C12.3993 14.4836 12.4393 14.6723 12.4497 14.8586C12.4977 15.7244 13.1046 16.4179 13.1046 16.4179C13.1046 16.4179 12.8138 15.6344 12.9494 14.8528C12.989 14.6252 12.9594 14.3458 12.9071 14.0858C13.0145 14.2568 13.115 14.4451 13.1796 14.6406C13.452 15.4638 14.219 15.9748 14.219 15.9748C14.219 15.9748 13.7337 15.2944 13.6605 14.5044C13.6388 14.2699 13.5335 14.0026 13.4122 13.7616C13.5647 13.9007 13.7156 14.0594 13.8323 14.2353C14.3118 14.9577 15.1862 15.2488 15.1862 15.2488C15.1862 15.2488 14.5389 14.7202 14.2604 13.9774C14.1845 13.7749 14.0324 13.565 13.8685 13.3766C14.0323 13.4666 14.1961 13.5725 14.3368 13.6983C14.9832 14.2762 15.9028 14.3368 15.9028 14.3368C15.9028 14.3368 15.143 13.9888 14.6858 13.3405C14.5525 13.1515 14.3337 12.9748 14.1125 12.828C14.3097 12.8729 14.5141 12.9349 14.6984 13.0274C15.4733 13.4164 16.3768 13.2347 16.3768 13.2347ZM11.999 14.1018C10.8387 14.1018 9.89811 13.1612 9.89811 12.0009C9.89811 10.8406 10.8387 9.89998 11.999 9.89998C13.1593 9.89998 14.0999 10.8406 14.0999 12.0009C14.0999 13.1612 13.1593 14.1018 11.999 14.1018Z" fill="#FFE15A"/>
<path d="M11.3329 11.1505C11.3777 11.1155 11.4222 11.0804 11.4675 11.0492C11.1699 10.9138 10.9019 10.8488 10.714 10.8197C10.6841 10.8522 10.6571 10.8872 10.6296 10.9219C10.8142 10.9577 11.0622 11.0262 11.3329 11.1505ZM10.8043 10.727C11.0063 10.7498 11.2987 10.81 11.6232 10.9495C11.6764 10.9181 11.7306 10.8885 11.7858 10.8607C11.4355 10.7169 11.1193 10.6633 10.9017 10.6467C10.8689 10.6733 10.835 10.6982 10.8043 10.727ZM11.8561 11.7008C11.815 11.6619 11.7726 11.6244 11.729 11.5884C11.3357 11.9627 10.9916 12.5087 10.8362 13.3008C10.8927 13.3513 10.9488 13.4024 11.0114 13.4454C11.1256 12.6398 11.4601 12.0837 11.8561 11.7008ZM11.7036 11.3528C11.7482 11.317 11.7927 11.281 11.8379 11.2489C11.7829 11.2138 11.728 11.183 11.6734 11.1529C11.6265 11.185 11.5797 11.216 11.5334 11.252C11.5912 11.2838 11.648 11.3174 11.7036 11.3528ZM12.7905 11.2514C13.1277 11.5476 13.436 11.9647 13.6553 12.5429C13.7116 12.3712 13.7497 12.1912 13.7497 12.0007C13.7502 11.6527 13.6464 11.3126 13.4518 11.0241C13.2779 11.0587 13.0445 11.1263 12.7905 11.2514ZM11.8688 11.4654C11.9127 11.498 11.9557 11.5348 11.999 11.5711C12.0421 11.5348 12.0852 11.498 12.1291 11.4654C12.0859 11.4294 12.0428 11.3939 11.999 11.3616C11.9551 11.394 11.912 11.4294 11.8688 11.4654ZM11.999 10.9584C11.9429 10.9873 11.8877 11.018 11.8336 11.0505C11.8898 11.0799 11.9449 11.1113 11.999 11.1444C12.053 11.1113 12.1082 11.08 12.1643 11.0505C12.1102 11.018 12.055 10.9873 11.999 10.9584ZM10.6454 13.0986C10.8306 12.3423 11.1798 11.8241 11.5705 11.4677C11.5173 11.4301 11.4627 11.3945 11.4069 11.361C11.0309 11.6916 10.6907 12.1693 10.481 12.8577C10.529 12.9424 10.584 13.023 10.6454 13.0986ZM11.2074 11.2514C10.9535 11.1262 10.72 11.0587 10.546 11.024C10.3514 11.3125 10.2477 11.6527 10.2482 12.0007C10.2482 12.1912 10.2862 12.3712 10.3425 12.5429C10.5619 11.9646 10.8701 11.5476 11.2074 11.2514ZM11.999 10.762C12.3714 10.6081 12.715 10.5534 12.9594 10.539C12.6834 10.3573 12.354 10.25 11.999 10.25C11.6439 10.25 11.3145 10.3573 11.0385 10.539C11.2829 10.5534 11.6265 10.608 11.999 10.762ZM11.999 11.8489C11.6498 12.2358 11.3616 12.7914 11.2681 13.587C11.4911 13.6901 11.7372 13.7515 11.999 13.7515C12.2608 13.7515 12.5068 13.6901 12.7298 13.587C12.6363 12.7914 12.3481 12.2358 11.999 11.8489ZM12.591 11.361C12.5352 11.3945 12.4807 11.4301 12.4274 11.4677C12.8181 11.8241 13.1673 12.3423 13.3525 13.0986C13.4139 13.023 13.4689 12.9424 13.5169 12.8577C13.3073 12.1694 12.967 11.6916 12.591 11.361ZM13.1616 13.3008C13.0063 12.5087 12.6622 11.9628 12.2689 11.5884C12.2253 11.6244 12.1829 11.6619 12.1417 11.7008C12.5377 12.0837 12.8723 12.6398 12.9864 13.4454C13.0491 13.4024 13.1052 13.3513 13.1616 13.3008ZM12.2121 10.8606C12.2673 10.8885 12.3215 10.9181 12.3747 10.9495C12.6992 10.8099 12.9916 10.7498 13.1936 10.727C13.1629 10.6982 13.129 10.6732 13.0962 10.6467C12.8786 10.6633 12.5624 10.7169 12.2121 10.8606ZM12.2943 11.3528C12.3499 11.3174 12.4067 11.2838 12.4645 11.252C12.4183 11.216 12.3714 11.185 12.3245 11.1529C12.2699 11.183 12.2151 11.2138 12.16 11.2489C12.2052 11.281 12.2497 11.317 12.2943 11.3528ZM12.665 11.1505C12.9357 11.0262 13.1837 10.9577 13.3682 10.9219C13.3407 10.8872 13.3138 10.8522 13.2838 10.8198C13.0959 10.8489 12.8279 10.9138 12.5303 11.0493C12.5757 11.0804 12.6203 11.1155 12.665 11.1505Z" fill="#FFE15A"/>
</g>
<defs>
<clipPath id="clip0_3979_88806">
<rect width="24" height="24" fill="white"/>
</clipPath>
</defs>
</svg>
