<svg width="68" height="68" viewBox="0 0 68 68" fill="none" xmlns="http://www.w3.org/2000/svg">
<circle cx="34" cy="34" r="34" fill="white"/>
<g clip-path="url(#clip0_857_15036)">
<path d="M24.2668 36.0435L16.5062 54.2037C16.4221 54.3997 16.388 54.6135 16.4069 54.826C16.4258 55.0384 16.4971 55.2429 16.6145 55.421C16.7321 55.5989 16.8919 55.7449 17.0798 55.8459C17.2676 55.947 17.4775 55.9999 17.6907 56H20.1227C20.3499 56 20.5731 55.9399 20.7696 55.8258C20.9661 55.7117 21.129 55.5477 21.2418 55.3504L30.906 38.4378L24.2668 36.0435Z" fill="#331E33"/>
<path d="M31.1829 35.375L29.3646 32.7969H25.5788L23.4485 35.375C23.4485 35.5133 25.8657 54.8681 25.8657 54.8681C25.9448 55.5142 26.4935 56 27.1445 56H29.8938C30.6057 56 31.1829 55.4228 31.1829 54.7109V35.3754L31.1827 35.3753C31.1828 35.3752 31.1829 35.3752 31.1829 35.375Z" fill="#4D354D"/>
<path d="M31.1829 54.711V35.3755L31.1827 35.3753L31.1829 35.375L29.3646 32.7969H27.3157V56H29.8938C30.6057 56.0001 31.1829 55.4229 31.1829 54.711Z" fill="#331E33"/>
<path d="M46.6516 39.2422V44.3984C46.6516 45.1202 46.0845 45.6875 45.3625 45.6875C44.6406 45.6875 44.0735 45.1202 44.0735 44.3984V40.5312H41.4954V44.3984C41.4954 45.1202 40.9283 45.6875 40.2063 45.6875C39.4843 45.6875 38.9172 45.1202 38.9172 44.3984V39.2422C38.9172 38.5202 39.4843 37.9531 40.2063 37.9531H45.3625C46.0845 37.9531 46.6516 38.5202 46.6516 39.2422Z" fill="#4D354D"/>
<path d="M46.6516 39.2422V44.3984C46.6516 45.1202 46.0845 45.6875 45.3625 45.6875C44.6406 45.6875 44.0735 45.1202 44.0735 44.3984V40.5312H42.7844V37.9531H45.3625C46.0845 37.9531 46.6516 38.5202 46.6516 39.2422Z" fill="#331E33"/>
<path d="M50.5188 43.1094H35.05C34.3281 43.1094 33.761 43.6765 33.761 44.3984V54.7109C33.761 55.4327 34.3281 56 35.05 56H50.5188C51.2408 56 51.8079 55.4327 51.8079 54.7109V44.3984C51.8079 43.6765 51.2408 43.1094 50.5188 43.1094Z" fill="#FFDD33"/>
<path d="M51.8079 44.3984V54.7109C51.8079 55.4327 51.2408 56 50.5188 56H42.7844V43.1094H50.5188C51.2408 43.1094 51.8079 43.6765 51.8079 44.3984Z" fill="#FFBB33"/>
<path d="M27.3157 19.7344C29.4515 19.7344 31.1829 18.003 31.1829 15.8672C31.1829 13.7314 29.4515 12 27.3157 12C25.1799 12 23.4485 13.7314 23.4485 15.8672C23.4485 18.003 25.1799 19.7344 27.3157 19.7344Z" fill="#FFD9B3"/>
<path d="M31.1829 15.8672C31.1829 13.7347 29.4481 12 27.3157 12V19.7344C29.4482 19.7344 31.1829 17.9996 31.1829 15.8672Z" fill="#FFBB99"/>
<path d="M40.2064 19.7344H26.3679C24.5677 19.7344 22.8733 20.6936 21.9468 22.2383L16.3763 31.6928C16.01 32.3021 16.2076 33.094 16.8169 33.4602L19.0174 34.7858C19.6154 35.1509 20.4152 34.9645 20.7873 34.3452L23.4486 29.7372V35.375H31.1829V24.8906H40.2064C40.9189 24.8906 41.4954 24.3141 41.4954 23.6016V21.0234C41.4954 20.3109 40.9189 19.7344 40.2064 19.7344Z" fill="#99AAFF"/>
<path d="M31.1829 24.8906H40.2063C40.9188 24.8906 41.4954 24.3141 41.4954 23.6016V21.0234C41.4954 20.3109 40.9188 19.7344 40.2063 19.7344H27.3157V35.375H31.1829V24.8906Z" fill="#8080FF"/>
</g>
<defs>
<clipPath id="clip0_857_15036">
<rect width="44" height="44" fill="white" transform="translate(12 12)"/>
</clipPath>
</defs>
</svg>
