<svg width="25" height="25" viewBox="0 0 25 25" fill="none" xmlns="http://www.w3.org/2000/svg">
<g clip-path="url(#clip0_613_6479)">
<path d="M12.5 15.4922C10.8432 15.4922 9.5 16.8353 9.5 18.4922V24.4922H15.5V18.4922C15.5 16.8353 14.1568 15.4922 12.5 15.4922Z" fill="#483D6B"/>
<path d="M17.5 18.4924V24.4924H21.5C23.1568 24.4924 24.5 23.1492 24.5 21.4924V12.3714C24.5002 11.8519 24.2983 11.3527 23.937 10.9794L15.439 1.79236C13.9396 0.170021 11.4089 0.0704117 9.78655 1.56985C9.70949 1.64107 9.63526 1.7153 9.56403 1.79236L1.08102 10.9764C0.708733 11.3512 0.499861 11.8581 0.5 12.3864V21.4924C0.5 23.1492 1.84316 24.4924 3.5 24.4924H7.49998V18.4924C7.51869 15.7656 9.72027 13.5388 12.3784 13.4747C15.1255 13.4084 17.4791 15.6731 17.5 18.4924Z" fill="#483D6B"/>
<path d="M12.5 15.4922C10.8432 15.4922 9.5 16.8353 9.5 18.4922V24.4922H15.5V18.4922C15.5 16.8353 14.1568 15.4922 12.5 15.4922Z" fill="#483D6B"/>
</g>
<defs>
<clipPath id="clip0_613_6479">
<rect width="24" height="24" fill="white" transform="translate(0.5 0.5)"/>
</clipPath>
</defs>
</svg>
