<svg width="72" height="72" viewBox="0 0 72 72" fill="none" xmlns="http://www.w3.org/2000/svg">
<path fill-rule="evenodd" clip-rule="evenodd" d="M59.1069 53.7331L69.217 60.6228L69.0321 32.5163L59.0144 39.5389L59.1069 53.7331ZM46.1089 10.1898C44.3175 8.42228 41.8519 7.33639 39.1371 7.35429C36.4254 7.37219 33.9776 8.48791 32.2115 10.2779C30.444 12.0693 29.3581 14.5349 29.376 17.2497C29.3939 19.9614 30.5096 22.4092 32.2996 24.1752C36.142 27.9684 42.4052 27.9296 46.1984 24.0857C47.966 22.2943 49.0519 19.8287 49.034 17.1139C49.0146 14.4051 47.8989 11.9574 46.1089 10.1898ZM20.7321 13.3894C19.2643 11.941 17.2432 11.052 15.0192 11.0669C12.7982 11.0818 10.7935 11.9962 9.3451 13.4624C7.89674 14.9302 7.00773 16.9513 7.02265 19.1753C7.03757 21.3963 7.95193 23.4011 9.41818 24.8494C12.5849 27.9744 17.6787 27.9445 20.8052 24.7778C22.2535 23.3101 23.1425 21.289 23.1276 19.065C23.1127 16.8424 22.1983 14.8377 20.7321 13.3894ZM5.62053 29.3825C3.70232 29.3944 2.1406 30.9859 2.15253 32.9012L2.33898 61.1285C2.3539 63.0437 3.94396 64.604 5.8577 64.592L53.5357 64.2788C55.4539 64.2668 57.0156 62.6753 57.0037 60.7601L56.8172 32.5372C56.8053 30.619 55.2137 29.0573 53.2985 29.0692L5.62053 29.3825ZM15.0117 8.9175C17.8279 8.8996 20.3845 10.0228 22.2416 11.856C24.1001 13.6907 25.2591 16.2354 25.277 19.0545C25.2949 21.8707 24.1717 24.4273 22.3386 26.2844C22.0412 26.5857 21.7254 26.8681 21.3929 27.1301L32.4189 27.057C31.8372 26.6558 31.2912 26.2053 30.79 25.7101C28.6078 23.5562 27.2475 20.57 27.2251 17.2586C27.2027 13.9517 28.5228 10.9506 30.6752 8.76983C32.8291 6.5876 35.8153 5.22724 39.1267 5.20487C42.4336 5.1825 45.4347 6.50257 47.6155 8.65497C49.7977 10.8089 51.158 13.7951 51.1804 17.1065C51.2028 20.4134 49.8827 23.4145 47.7303 25.5952C47.2332 26.0988 46.6927 26.5575 46.1149 26.966L53.2896 26.9183C56.3981 26.8974 58.9458 29.4197 58.9666 32.5268L58.995 36.9255L69.4766 29.5793C70.194 29.0782 71.1636 29.6017 71.1651 30.4564L71.3769 62.6619C71.3799 63.536 70.3999 64.0342 69.6973 63.5539L59.1218 56.3494L59.1501 60.7511C59.171 63.8596 56.6487 66.4073 53.5416 66.4267L5.85919 66.7399C2.75216 66.7578 0.207463 64.237 0.186581 61.1315L0.000128738 32.9086C-0.0207539 29.8001 2.50157 27.2524 5.6086 27.2315L8.85883 27.2107C8.52405 26.9539 8.20571 26.6764 7.90569 26.3798C6.04714 24.5451 4.88815 22.0005 4.87025 19.1813C4.85235 16.3651 5.97554 13.8085 7.80873 11.9514C9.6464 10.0959 12.1911 8.93689 15.0117 8.9175ZM38.008 48.0828L22.7338 57.0355C21.7285 57.6247 20.4696 56.9206 20.4621 55.7467L20.3458 38.0428C20.3383 36.8868 21.5674 36.132 22.6011 36.7197L37.9916 45.471C38.2377 45.6112 38.4286 45.7962 38.5554 46.014C38.8179 46.4629 38.8209 47.0805 38.5643 47.5324C38.4375 47.7517 38.2496 47.9411 38.008 48.0828ZM39.0939 49.9369L23.8212 58.8896C23.2469 59.2267 22.622 59.3967 21.9925 59.4012C20.7052 59.4102 19.4582 58.7001 18.8064 57.5889C18.4887 57.0474 18.3172 56.4239 18.3127 55.7557L18.1963 38.0517C18.1784 35.2728 21.1855 33.4411 23.6616 34.8492L39.0521 43.6005C39.6308 43.9302 40.0903 44.3836 40.408 44.9266C41.0568 46.0333 41.0673 47.4787 40.4333 48.5945C40.1246 49.1389 39.6696 49.5983 39.0939 49.9369ZM44.7098 34.8089C44.1161 34.8119 43.6328 34.3316 43.6314 33.7395C43.6284 33.1458 44.1087 32.6625 44.7008 32.661L50.894 32.6207C51.4877 32.6178 51.971 33.0981 51.9725 33.6902C51.9754 34.2839 51.4951 34.7672 50.903 34.7687L44.7098 34.8089Z" fill="#483D6B"/>
<circle opacity="0.8" cx="36" cy="36" r="18" fill="#00DA7D"/>
<path d="M43.8657 34.928L36.9142 34.949V28.1343C36.9145 27.9935 36.887 27.854 36.8332 27.7238C36.7795 27.5936 36.7005 27.4753 36.6009 27.3757C36.5013 27.2762 36.3831 27.1972 36.2529 27.1435C36.1227 27.0897 35.9832 27.0622 35.8424 27.0625C35.7016 27.0622 35.562 27.0897 35.4319 27.1435C35.3017 27.1972 35.1834 27.2762 35.0838 27.3757C34.9843 27.4753 34.9053 27.5936 34.8516 27.7238C34.7978 27.854 34.7703 27.9935 34.7706 28.1343L34.7916 34.9282H28.1343C27.9935 34.9279 27.854 34.9554 27.7238 35.0092C27.5936 35.0629 27.4753 35.1419 27.3757 35.2415C27.2762 35.341 27.1972 35.4593 27.1435 35.5895C27.0897 35.7197 27.0622 35.8592 27.0625 36C27.0622 36.1408 27.0897 36.2803 27.1435 36.4105C27.1972 36.5406 27.2762 36.6589 27.3758 36.7585C27.4753 36.858 27.5936 36.937 27.7238 36.9907C27.854 37.0444 27.9935 37.0719 28.1343 37.0716H34.7811V43.8657C34.7808 44.0065 34.8084 44.146 34.8621 44.2762C34.9159 44.4064 34.9948 44.5246 35.0944 44.6242C35.194 44.7238 35.3122 44.8027 35.4424 44.8565C35.5726 44.9102 35.7121 44.9378 35.8529 44.9375C35.9937 44.9378 36.1332 44.9102 36.2634 44.8565C36.3935 44.8027 36.5118 44.7238 36.6114 44.6242C36.711 44.5246 36.7899 44.4064 36.8437 44.2762C36.8974 44.146 36.925 44.0065 36.9247 43.8657V37.0718H43.8657C44.0065 37.0721 44.146 37.0445 44.2762 36.9908C44.4064 36.937 44.5246 36.8581 44.6242 36.7585C44.7238 36.6589 44.8027 36.5406 44.8565 36.4105C44.9102 36.2803 44.9378 36.1408 44.9375 36C44.9373 35.7158 44.8243 35.4433 44.6233 35.2423C44.4224 35.0414 44.1499 34.9283 43.8657 34.928Z" fill="white"/>
</svg>
