<svg width="72" height="72" viewBox="0 0 72 72" fill="none" xmlns="http://www.w3.org/2000/svg">
<path d="M58.9434 6.07227H13.924C11.8421 6.07399 9.84601 6.90178 8.37389 8.37389C6.90178 9.84601 6.07399 11.8421 6.07227 13.924V58.9434C6.07399 61.0253 6.90178 63.0214 8.37389 64.4935C9.84601 65.9656 11.8421 66.7934 13.924 66.7952H58.9434C61.0253 66.7934 63.0214 65.9656 64.4935 64.4935C65.9656 63.0214 66.7934 61.0253 66.7952 58.9434V13.924C66.7934 11.8421 65.9656 9.84601 64.4935 8.37389C63.0214 6.90178 61.0253 6.07399 58.9434 6.07227ZM64.5221 58.9434C64.5204 60.4224 63.9321 61.8404 62.8862 62.8862C61.8404 63.9321 60.4224 64.5204 58.9434 64.5221H13.924C12.445 64.5204 11.027 63.9321 9.98118 62.8862C8.93534 61.8404 8.34703 60.4224 8.34532 58.9434V52.0203L20.208 38.4944C20.5555 38.0973 20.9838 37.7792 21.4643 37.5612C21.9447 37.3432 22.4662 37.2304 22.9938 37.2304C23.5214 37.2304 24.0429 37.3432 24.5234 37.5612C25.0038 37.7792 25.4322 38.0973 25.7796 38.4944L35.3511 49.405C35.9119 50.0454 36.603 50.5585 37.3782 50.91C38.1534 51.2616 38.9947 51.4434 39.8459 51.4434C40.6971 51.4434 41.5384 51.2616 42.3136 50.91C43.0888 50.5585 43.7799 50.0454 44.3407 49.405L48.3276 44.8589C48.6758 44.463 49.1044 44.1458 49.5848 43.9286C50.0652 43.7113 50.5864 43.5989 51.1137 43.5989C51.641 43.5989 52.1622 43.7113 52.6426 43.9286C53.123 44.1458 53.5516 44.463 53.8998 44.8589L64.5221 56.9743V58.9434ZM64.5221 53.5264L55.6079 43.36C55.0463 42.7212 54.3549 42.2095 53.58 41.8589C52.805 41.5084 51.9643 41.3271 51.1137 41.3271C50.2632 41.3271 49.4224 41.5084 48.6474 41.8589C47.8725 42.2095 47.1812 42.7212 46.6196 43.36L42.6313 47.9061C42.2839 48.3031 41.8556 48.6211 41.3752 48.8391C40.8948 49.057 40.3734 49.1698 39.8459 49.1698C39.3184 49.1698 38.7969 49.057 38.3165 48.8391C37.8361 48.6211 37.4079 48.3031 37.0604 47.9061L27.4883 36.9955C26.9275 36.3553 26.2364 35.8423 25.4613 35.4908C24.6862 35.1393 23.8449 34.9575 22.9938 34.9575C22.1427 34.9575 21.3015 35.1393 20.5263 35.4908C19.7512 35.8423 19.0601 36.3553 18.4994 36.9955L8.34532 48.5718V13.924C8.34703 12.445 8.93534 11.027 9.98118 9.98118C11.027 8.93534 12.445 8.34703 13.924 8.34532H58.9434C60.4224 8.34703 61.8404 8.93534 62.8862 9.98118C63.9321 11.027 64.5204 12.445 64.5221 13.924V53.5264Z" fill="#483D6B"/>
<path d="M45.6262 14.5044C44.2022 14.5043 42.8102 14.9264 41.6262 15.7174C40.4422 16.5084 39.5194 17.6327 38.9744 18.9482C38.4294 20.2637 38.2867 21.7112 38.5644 23.1078C38.8421 24.5044 39.5277 25.7873 40.5345 26.7942C41.5414 27.8011 42.8242 28.4868 44.2207 28.7647C45.6173 29.0425 47.0648 28.9 48.3804 28.3551C49.6959 27.8102 50.8203 26.8875 51.6114 25.7035C52.4025 24.5196 52.8248 23.1276 52.8248 21.7037C52.8226 19.7951 52.0635 17.9653 50.714 16.6156C49.3645 15.266 47.5348 14.5067 45.6262 14.5044ZM45.6262 26.5324C44.6709 26.5325 43.7371 26.2494 42.9429 25.7188C42.1486 25.1882 41.5295 24.4339 41.1639 23.5515C40.7983 22.669 40.7026 21.6979 40.8889 20.761C41.0752 19.8242 41.5352 18.9636 42.2106 18.2882C42.886 17.6127 43.7466 17.1528 44.6835 16.9665C45.6203 16.7801 46.5914 16.8758 47.4739 17.2414C48.3564 17.607 49.1106 18.2261 49.6412 19.0204C50.1718 19.8147 50.4549 20.7485 50.4548 21.7037C50.4532 22.9839 49.944 24.2111 49.0388 25.1163C48.1335 26.0215 46.9063 26.5308 45.6262 26.5324Z" fill="#483D6B"/>
<circle opacity="0.8" cx="36" cy="36" r="18" fill="#00DA7D"/>
<path d="M43.8657 34.928L36.9142 34.949V28.1343C36.9145 27.9935 36.887 27.854 36.8332 27.7238C36.7795 27.5936 36.7005 27.4753 36.6009 27.3757C36.5013 27.2762 36.3831 27.1972 36.2529 27.1435C36.1227 27.0897 35.9832 27.0622 35.8424 27.0625C35.7016 27.0622 35.562 27.0897 35.4319 27.1435C35.3017 27.1972 35.1834 27.2762 35.0838 27.3757C34.9843 27.4753 34.9053 27.5936 34.8516 27.7238C34.7978 27.854 34.7703 27.9935 34.7706 28.1343L34.7916 34.9282H28.1343C27.9935 34.9279 27.854 34.9554 27.7238 35.0092C27.5936 35.0629 27.4753 35.1419 27.3757 35.2415C27.2762 35.341 27.1972 35.4593 27.1435 35.5895C27.0897 35.7197 27.0622 35.8592 27.0625 36C27.0622 36.1408 27.0897 36.2803 27.1435 36.4105C27.1972 36.5406 27.2762 36.6589 27.3758 36.7585C27.4753 36.858 27.5936 36.937 27.7238 36.9907C27.854 37.0444 27.9935 37.0719 28.1343 37.0716H34.7811V43.8657C34.7808 44.0065 34.8084 44.146 34.8621 44.2762C34.9159 44.4064 34.9948 44.5246 35.0944 44.6242C35.194 44.7238 35.3122 44.8027 35.4424 44.8565C35.5726 44.9102 35.7121 44.9378 35.8529 44.9375C35.9937 44.9378 36.1332 44.9102 36.2634 44.8565C36.3935 44.8027 36.5118 44.7238 36.6114 44.6242C36.711 44.5246 36.7899 44.4064 36.8437 44.2762C36.8974 44.146 36.925 44.0065 36.9247 43.8657V37.0718H43.8657C44.0065 37.0721 44.146 37.0445 44.2762 36.9908C44.4064 36.937 44.5246 36.8581 44.6242 36.7585C44.7238 36.6589 44.8027 36.5406 44.8565 36.4105C44.9102 36.2803 44.9378 36.1408 44.9375 36C44.9373 35.7158 44.8243 35.4433 44.6233 35.2423C44.4224 35.0414 44.1499 34.9283 43.8657 34.928Z" fill="white"/>
</svg>
