<svg width="72" height="72" viewBox="0 0 72 72" fill="none" xmlns="http://www.w3.org/2000/svg">
<g id="&#208;&#152;&#209;&#129;&#208;&#186;&#208;&#176;&#209;&#130;&#209;&#140; &#209;&#128;&#208;&#181;&#208;&#183;&#209;&#131;&#208;&#187;&#209;&#140;&#209;&#130;&#208;&#176;&#209;&#130;&#209;&#139; &#208;&#180;&#208;&#187;&#209;&#143; &#209;&#132;&#208;&#190;&#209;&#130;&#208;&#190; - Flaticon-12 1">
<g id="Group">
<path id="Vector" d="M58.2417 6H13.7583C11.7012 6.0017 9.72882 6.81963 8.27423 8.27423C6.81963 9.72882 6.0017 11.7012 6 13.7583V58.2417C6.0017 60.2988 6.81963 62.2712 8.27423 63.7258C9.72882 65.1804 11.7012 65.9983 13.7583 66H58.2417C60.2988 65.9983 62.2712 65.1804 63.7258 63.7258C65.1804 62.2712 65.9983 60.2988 66 58.2417V13.7583C65.9983 11.7012 65.1804 9.72882 63.7258 8.27423C62.2712 6.81963 60.2988 6.0017 58.2417 6ZM63.754 58.2417C63.7523 59.7031 63.171 61.1042 62.1376 62.1376C61.1042 63.171 59.7031 63.7523 58.2417 63.754H13.7583C12.2969 63.7523 10.8958 63.171 9.86238 62.1376C8.82899 61.1042 8.24769 59.7031 8.24599 58.2417V51.4011L19.9675 38.0361C20.3108 37.6438 20.734 37.3294 21.2087 37.114C21.6835 36.8986 22.1988 36.7872 22.7201 36.7872C23.2414 36.7872 23.7567 36.8986 24.2315 37.114C24.7062 37.3294 25.1294 37.6438 25.4727 38.0361L34.9303 48.8169C35.4844 49.4496 36.1673 49.9566 36.9332 50.304C37.6992 50.6513 38.5305 50.831 39.3716 50.831C40.2126 50.831 41.0439 50.6513 41.8099 50.304C42.5758 49.9566 43.2587 49.4496 43.8128 48.8169L47.7523 44.3249C48.0964 43.9337 48.5199 43.6203 48.9945 43.4056C49.4692 43.1909 49.9842 43.0799 50.5052 43.0799C51.0262 43.0799 51.5412 43.1909 52.0159 43.4056C52.4906 43.6203 52.9141 43.9337 53.2582 44.3249L63.754 56.296V58.2417ZM63.754 52.8892L54.9459 42.8439C54.391 42.2127 53.7079 41.707 52.9422 41.3606C52.1764 41.0143 51.3457 40.8351 50.5052 40.8351C49.6648 40.8351 48.834 41.0143 48.0683 41.3606C47.3026 41.707 46.6195 42.2127 46.0646 42.8439L42.1239 47.3358C41.7805 47.728 41.3574 48.0423 40.8827 48.2577C40.408 48.473 39.8928 48.5844 39.3716 48.5844C38.8503 48.5844 38.3351 48.473 37.8604 48.2577C37.3857 48.0423 36.9626 47.728 36.6192 47.3358L27.1611 36.5551C26.607 35.9225 25.9241 35.4156 25.1582 35.0683C24.3923 34.721 23.5611 34.5413 22.7201 34.5413C21.8792 34.5413 21.0479 34.721 20.282 35.0683C19.5161 35.4156 18.8333 35.9225 18.2791 36.5551L8.24599 47.9936V13.7583C8.24769 12.2969 8.82899 10.8958 9.86238 9.86238C10.8958 8.82899 12.2969 8.24769 13.7583 8.24599H58.2417C59.7031 8.24769 61.1042 8.82899 62.1376 9.86238C63.171 10.8958 63.7523 12.2969 63.754 13.7583V52.8892Z" fill="#5F7EEA"/>
<path id="Vector_2" d="M43.4835 16.6067C42.1341 16.6066 40.8149 17.0066 39.6928 17.7562C38.5708 18.5058 37.6962 19.5713 37.1797 20.818C36.6632 22.0647 36.528 23.4365 36.7912 24.76C37.0544 26.0835 37.7041 27.2993 38.6582 28.2535C39.6124 29.2077 40.8281 29.8576 42.1516 30.1209C43.475 30.3842 44.8469 30.2491 46.0936 29.7328C47.3403 29.2164 48.4059 28.3419 49.1556 27.2199C49.9053 26.0979 50.3055 24.7788 50.3055 23.4294C50.3035 21.6206 49.5841 19.8865 48.3052 18.6075C47.0262 17.3284 45.2922 16.6089 43.4835 16.6067ZM43.4835 28.0054C42.5782 28.0055 41.6933 27.7372 40.9406 27.2344C40.1878 26.7315 39.6011 26.0167 39.2547 25.1804C38.9082 24.3441 38.8175 23.4239 38.9941 22.536C39.1706 21.6482 39.6065 20.8326 40.2466 20.1925C40.8867 19.5524 41.7023 19.1165 42.5901 18.9399C43.478 18.7634 44.3982 18.8541 45.2346 19.2005C46.0709 19.547 46.7856 20.1337 47.2885 20.8865C47.7913 21.6392 48.0596 22.5241 48.0595 23.4294C48.058 24.6425 47.5754 25.8056 46.7175 26.6634C45.8597 27.5213 44.6966 28.0039 43.4835 28.0054Z" fill="#5F7EEA"/>
</g>
</g>
</svg>
