<svg width="116" height="116" viewBox="0 0 116 116" fill="none" xmlns="http://www.w3.org/2000/svg">
<g opacity="0.5" clip-path="url(#clip0_327_15563)">
<mask id="mask0_327_15563" style="mask-type:luminance" maskUnits="userSpaceOnUse" x="0" y="0" width="116" height="117">
<path d="M116 0.0146484H0V116.015H116V0.0146484Z" fill="white"/>
</mask>
<g mask="url(#mask0_327_15563)">
<mask id="mask1_327_15563" style="mask-type:luminance" maskUnits="userSpaceOnUse" x="9" y="45" width="59" height="47">
<path d="M9 54.5037L60.7567 45.0241L67.5277 81.9932L15.7711 91.4727L9 54.5037Z" fill="white"/>
</mask>
<g mask="url(#mask1_327_15563)">
<path d="M12.5815 53.8393C10.6332 54.1961 9.3434 56.0647 9.70023 58.0129L15.172 87.8879C15.5288 89.8361 17.3972 91.1262 19.3454 90.7694L63.9924 82.5921C65.9407 82.2352 67.2308 80.3666 66.8739 78.4184L61.4022 48.5434C61.0453 46.5952 59.1768 45.3051 57.2285 45.662L12.5815 53.8393Z" fill="#5FC4EA"/>
<path d="M31.0381 55.0715L40.4086 53.3553L40.849 55.76L37.9169 56.297C37.6304 55.4659 36.771 54.9462 35.8783 55.1097C34.9859 55.2731 34.3668 56.0636 34.3935 56.9424L31.4786 57.4762L31.0381 55.0715ZM38.0155 56.8353L40.9476 56.2983L41.3878 58.702L32.0174 60.4182L31.5772 58.0145L34.4918 57.4807C34.7783 58.3119 35.6377 58.8318 36.5301 58.6683C37.4228 58.5048 38.0424 57.714 38.0155 56.8353ZM36.4417 58.1369C37.133 58.0102 37.5913 57.3481 37.4648 56.6577C37.3384 55.9674 36.6752 55.5106 35.9839 55.6373C35.2926 55.7639 34.8348 56.4259 34.9613 57.1163C35.0877 57.8066 35.7504 58.2635 36.4417 58.1369Z" fill="white"/>
<path d="M25.3979 67.2138C26.8592 66.9461 28.2606 67.9137 28.5283 69.3749C28.7959 70.8362 27.8284 72.2376 26.3671 72.5053C24.9059 72.7729 23.5044 71.8054 23.2368 70.3441C22.9691 68.8829 23.9367 67.4814 25.3979 67.2138Z" fill="white"/>
<path d="M34.0406 77.7151C34.1938 78.1858 33.8638 78.6566 33.3768 78.7458L22.0241 80.8251C21.5371 80.9143 21.0629 80.5908 21.0391 80.0964C20.8816 76.811 23.1755 73.8349 26.4997 73.226C29.824 72.6172 33.0235 74.5871 34.0406 77.7151Z" fill="white"/>
<path d="M37.8949 66.2421L56.0844 62.9106C56.4649 62.8409 56.8298 63.0932 56.8995 63.4737C56.9691 63.854 56.7173 64.2191 56.3368 64.2888L38.1473 67.6203C37.7667 67.69 37.4017 67.4379 37.332 67.0576C37.2623 66.6771 37.5143 66.3118 37.8949 66.2421Z" fill="white"/>
<path d="M38.7821 71.0983L56.9716 67.7668C57.3522 67.6971 57.717 67.9494 57.7867 68.3299C57.8564 68.7102 57.6046 69.0753 57.224 69.145L39.0345 72.4765C38.654 72.5462 38.2889 72.2941 38.2193 71.9138C38.1496 71.5333 38.4016 71.168 38.7821 71.0983Z" fill="white"/>
<path d="M39.6723 75.932L57.8618 72.6005C58.2424 72.5308 58.6072 72.7832 58.6769 73.1637C58.7466 73.5442 58.4948 73.909 58.1142 73.9787L39.9247 77.3102C39.5442 77.3799 39.1792 77.1281 39.1095 76.7476C39.0398 76.367 39.2918 76.0017 39.6723 75.932Z" fill="white"/>
<path d="M22.426 84.1176L58.7501 77.4646C59.1306 77.3949 59.4953 77.6473 59.565 78.0278C59.6347 78.4084 59.3831 78.7731 59.0025 78.8428L22.6785 85.4958C22.2979 85.5655 21.9329 85.3137 21.8632 84.9331C21.7935 84.5526 22.0455 84.1873 22.426 84.1176Z" fill="white"/>
</g>
<mask id="mask2_327_15563" style="mask-type:luminance" maskUnits="userSpaceOnUse" x="49" y="15" width="59" height="86">
<path d="M62.9879 15.9998L107.887 23.9821L94.2768 100.535L49.378 92.5522L62.9879 15.9998Z" fill="white"/>
</mask>
<g mask="url(#mask2_327_15563)">
<path d="M100.969 22.755L69.9046 17.2322C66.0844 16.553 62.4306 19.1346 61.7437 22.9982L50.6309 85.5051C49.944 89.3689 52.4841 93.0516 56.3043 93.7308L87.3688 99.2536C91.189 99.9328 94.8428 97.3512 95.5297 93.4874L106.642 30.9806C107.329 27.1169 104.789 23.4342 100.969 22.755ZM94.2992 92.9977C94.1343 93.1067 94.0418 93.1678 93.8769 93.2767L52.5312 85.9261C52.3317 85.8906 52.1974 85.7083 52.231 85.519L63.2366 23.6151C63.2703 23.4257 63.4592 23.3009 63.6587 23.3364L105.005 30.6871C105.204 30.7225 105.338 30.9048 105.305 31.0942L94.2992 92.9977Z" fill="#5FC4EA"/>
</g>
</g>
</g>
<defs>
<clipPath id="clip0_327_15563">
<rect width="116" height="116" fill="white"/>
</clipPath>
</defs>
</svg>
