<svg width="22" height="22" viewBox="0 0 22 22" fill="none" xmlns="http://www.w3.org/2000/svg">
<path d="M21.2649 9.62416C20.639 8.76899 19.6771 8.21057 18.6252 8.092L16.0708 7.80319C15.8651 7.78 15.7162 7.59254 15.7387 7.38653L16.0225 4.85082C16.1727 3.51275 15.5965 2.1813 14.5174 1.37514C14.0404 1.0181 13.439 0.909463 12.8654 1.07706C12.2938 1.24464 11.845 1.6613 11.6342 2.21906L10.3753 5.55496C9.96739 6.63602 9.26116 7.57201 8.33361 8.26092L7.43676 8.92706C6.99813 8.32749 6.2952 7.93303 5.49775 7.93303H3.40881C2.0807 7.93302 1 9.01474 1 10.3449V19.0966C1 20.4268 2.0807 21.5085 3.40881 21.5085H5.49775C6.3234 21.5085 7.05259 21.0897 7.4868 20.4538L11.2528 21.6403C12.01 21.8788 12.7966 22 13.5919 22H16.3903C18.5352 22 20.3923 20.4698 20.8044 18.362L21.9298 12.605C22.1329 11.565 21.8907 10.4787 21.2649 9.62416ZM5.8742 19.0966C5.8742 19.3046 5.70516 19.4736 5.49776 19.4736H3.40882C3.20108 19.4736 3.03238 19.3046 3.03238 19.0966V10.3449C3.03238 10.1369 3.20108 9.96795 3.40882 9.96795H5.49776C5.70516 9.96795 5.8742 10.1369 5.8742 10.3449V19.0966ZM19.9358 12.2142L18.8104 17.9712C18.5842 19.1265 17.566 19.9651 16.3904 19.9651H13.5919C13.0044 19.9651 12.4222 19.8756 11.8628 19.6994L7.90657 18.453V11.1121L9.54465 9.89508C10.7858 8.97301 11.7305 7.72105 12.2766 6.27434L13.4596 3.13914C13.8598 3.51805 14.0656 4.06983 14.0034 4.62361L13.7189 7.16064C13.572 8.48083 14.5247 9.67649 15.8432 9.82486L18.3976 10.1137C18.8938 10.17 19.3304 10.423 19.6261 10.8271C19.9212 11.2305 20.0317 11.7233 19.9358 12.2142Z" fill="#483D6B"/>
</svg>
