<svg width="50" height="52" viewBox="0 0 50 52" fill="none" xmlns="http://www.w3.org/2000/svg">
<path d="M26.2188 12.1643C29.578 12.1643 32.3012 9.44119 32.3012 6.08213C32.3012 2.72306 29.578 0 26.2188 0C22.8596 0 20.1365 2.72306 20.1365 6.08213C20.1365 9.44119 22.8596 12.1643 26.2188 12.1643Z" fill="#5FC4EA"/>
<path d="M26.2185 52.0005C28.2338 52.0005 29.8676 50.3668 29.8676 48.3516C29.8676 46.3364 28.2338 44.7027 26.2185 44.7027C24.2032 44.7027 22.5695 46.3364 22.5695 48.3516C22.5695 50.3668 24.2032 52.0005 26.2185 52.0005Z" fill="#5FC4EA"/>
<path d="M11.2732 17.7453C14.2967 17.7453 16.7477 15.2944 16.7477 12.271C16.7477 9.24761 14.2967 6.79667 11.2732 6.79667C8.24973 6.79667 5.79871 9.24761 5.79871 12.271C5.79871 15.2944 8.24973 17.7453 11.2732 17.7453Z" fill="#5FC4EA"/>
<path d="M41.1642 45.1995C42.8438 45.1995 44.2054 43.838 44.2054 42.1584C44.2054 40.4789 42.8438 39.1174 41.1642 39.1174C39.4846 39.1174 38.123 40.4789 38.123 42.1584C38.123 43.838 39.4846 45.1995 41.1642 45.1995Z" fill="#5FC4EA"/>
<path d="M5.08235 32.082C7.76905 32.082 9.94705 29.9041 9.94705 27.2175C9.94705 24.5309 7.76905 22.3529 5.08235 22.3529C2.39565 22.3529 0.217651 24.5309 0.217651 27.2175C0.217651 29.9041 2.39565 32.082 5.08235 32.082Z" fill="#5FC4EA"/>
<path d="M47.353 29.6469C48.6958 29.6469 49.7844 28.5583 49.7844 27.2156C49.7844 25.8728 48.6958 24.7843 47.353 24.7843C46.0102 24.7843 44.9216 25.8728 44.9216 27.2156C44.9216 28.5583 46.0102 29.6469 47.353 29.6469Z" fill="#5FC4EA"/>
<path d="M8.26337 39.1527C7.86775 39.5477 7.55389 40.0168 7.33975 40.5332C7.12561 41.0496 7.01538 41.6032 7.01538 42.1622C7.01538 42.7212 7.12561 43.2748 7.33975 43.7912C7.55389 44.3076 7.86775 44.7767 8.26337 45.1717C8.65838 45.5673 9.12751 45.8812 9.64392 46.0953C10.1603 46.3094 10.7139 46.4196 11.273 46.4196C11.832 46.4196 12.3856 46.3094 12.902 46.0953C13.4184 45.8812 13.8876 45.5673 14.2826 45.1717C14.6782 44.7767 14.9921 44.3076 15.2062 43.7912C15.4203 43.2748 15.5306 42.7212 15.5306 42.1622C15.5306 41.6032 15.4203 41.0496 15.2062 40.5332C14.9921 40.0168 14.6782 39.5477 14.2826 39.1527C13.8888 38.755 13.42 38.4393 12.9034 38.2238C12.3869 38.0083 11.8327 37.8974 11.273 37.8974C10.7132 37.8974 10.1591 38.0083 9.6425 38.2238C9.12592 38.4393 8.65717 38.755 8.26337 39.1527Z" fill="#5FC4EA"/>
<path d="M41.1619 14.0943C42.169 14.0943 42.9854 13.278 42.9854 12.2709C42.9854 11.2638 42.169 10.4474 41.1619 10.4474C40.1548 10.4474 39.3384 11.2638 39.3384 12.2709C39.3384 13.278 40.1548 14.0943 41.1619 14.0943Z" fill="#5FC4EA"/>
</svg>
