<svg width="20" height="20" viewBox="0 0 20 20" fill="none" xmlns="http://www.w3.org/2000/svg">
<g id="&#208;&#152;&#209;&#129;&#208;&#186;&#208;&#176;&#209;&#130;&#209;&#140; &#209;&#128;&#208;&#181;&#208;&#183;&#209;&#131;&#208;&#187;&#209;&#140;&#209;&#130;&#208;&#176;&#209;&#130;&#209;&#139; &#208;&#180;&#208;&#187;&#209;&#143; &#208;&#179;&#208;&#181;&#208;&#190;&#208;&#187;&#208;&#190;&#208;&#186;&#208;&#176;&#209;&#134;&#208;&#184;&#209;&#143; - Flaticon-12 (2) 1">
<g id="Group">
<path id="Vector" fill-rule="evenodd" clip-rule="evenodd" d="M9.5 0C7.24597 0.000981467 5.08456 0.859751 3.49072 2.3876C1.89689 3.91544 1.00102 5.98737 1 8.14807C1.15932 9.80708 1.76534 11.398 2.75873 12.7651C4.4832 15.2609 6.47137 17.5798 8.69173 19.685C8.90802 19.887 9.19804 20 9.5 20C9.80196 20 10.092 19.887 10.3083 19.685C12.5286 17.5798 14.5168 15.2609 16.2413 12.7651C17.2347 11.398 17.8407 9.80708 18 8.14807C17.999 5.98737 17.1031 3.91544 15.5093 2.3876C13.9154 0.859751 11.754 0.000981467 9.5 0ZM9.5 4.4444C8.81226 4.4444 8.13997 4.63989 7.56813 5.00616C6.9963 5.37243 6.5506 5.89302 6.28742 6.5021C6.02423 7.11118 5.95537 7.7814 6.08954 8.42799C6.22371 9.07459 6.55489 9.66853 7.0412 10.1347C7.5275 10.6009 8.14709 10.9183 8.82162 11.047C9.49614 11.1756 10.1953 11.1096 10.8307 10.8573C11.4661 10.605 12.0092 10.1777 12.3912 9.62958C12.7733 9.08142 12.9773 8.43696 12.9773 7.7777C12.9769 6.89377 12.6104 6.04616 11.9584 5.42113C11.3063 4.7961 10.4221 4.44479 9.5 4.4444Z" fill="#00DA7D"/>
</g>
</g>
</svg>
