<svg width="22" height="22" viewBox="0 0 22 22" fill="none" xmlns="http://www.w3.org/2000/svg">
<path d="M15.6119 20.9688C15.6119 21.2423 15.5033 21.5046 15.3099 21.698C15.1165 21.8913 14.8542 22 14.5807 22H4.85889C3.94752 21.999 3.07377 21.6365 2.42934 20.9921C1.7849 20.3476 1.42241 19.4739 1.42139 18.5625V3.4375C1.42241 2.52613 1.7849 1.65239 2.42934 1.00795C3.07377 0.363516 3.94752 0.00102356 4.85889 0L14.5807 0C14.8542 0 15.1165 0.108649 15.3099 0.302046C15.5033 0.495443 15.6119 0.757746 15.6119 1.03125C15.6119 1.30475 15.5033 1.56706 15.3099 1.76045C15.1165 1.95385 14.8542 2.0625 14.5807 2.0625H4.85889C4.49434 2.0629 4.14483 2.20789 3.88705 2.46567C3.62928 2.72344 3.48428 3.07295 3.48389 3.4375V18.5625C3.48427 18.9271 3.62926 19.2766 3.88704 19.5343C4.14482 19.7921 4.49433 19.9371 4.85889 19.9375H14.5807C14.8542 19.9375 15.1165 20.0462 15.3099 20.2395C15.5033 20.4329 15.6119 20.6952 15.6119 20.9688ZM20.2763 10.2708L15.3757 5.37015C15.2803 5.27263 15.1666 5.19501 15.041 5.14176C14.9154 5.08852 14.7805 5.06071 14.6441 5.05996C14.5077 5.0592 14.3726 5.08551 14.2464 5.13736C14.1202 5.18921 14.0056 5.26558 13.9092 5.36203C13.8127 5.45848 13.7364 5.57311 13.6846 5.69927C13.6327 5.82543 13.6064 5.96063 13.6072 6.09702C13.608 6.23342 13.6358 6.3683 13.689 6.49387C13.7423 6.61944 13.8199 6.73319 13.9175 6.82855L17.0575 9.96875H8.93916C8.66565 9.96875 8.40335 10.0774 8.20995 10.2708C8.01656 10.4642 7.90791 10.7265 7.90791 11C7.90791 11.2735 8.01656 11.5358 8.20995 11.7292C8.40335 11.9226 8.66565 12.0312 8.93916 12.0312H17.0575L13.9173 15.1714C13.8211 15.2671 13.7447 15.3808 13.6926 15.506C13.6404 15.6312 13.6135 15.7655 13.6133 15.9012C13.6131 16.0368 13.6397 16.1712 13.6915 16.2966C13.7433 16.422 13.8194 16.5359 13.9153 16.6318C14.0112 16.7277 14.1252 16.8038 14.2505 16.8556C14.3759 16.9074 14.5103 16.934 14.6459 16.9338C14.7816 16.9337 14.9159 16.9067 15.0411 16.8545C15.1663 16.8024 15.28 16.726 15.3757 16.6298L20.2763 11.7292C20.4697 11.5358 20.5784 11.2735 20.5784 11C20.5784 10.7265 20.4697 10.4642 20.2763 10.2708Z" fill="#EA5F7E"/>
</svg>
