<svg width="22" height="22" viewBox="0 0 22 22" fill="none" xmlns="http://www.w3.org/2000/svg">
<path d="M7.76923 22C7.54482 22 7.32959 21.9109 7.17091 21.7522C7.01222 21.5935 6.92308 21.3783 6.92308 21.1538V16.9231H5.23077C4.10911 16.9217 3.03378 16.4756 2.24065 15.6824C1.44752 14.8893 1.00134 13.814 1 12.6923V4.23077C1.00134 3.10911 1.44752 2.03378 2.24065 1.24065C3.03378 0.447515 4.10911 0.00134357 5.23077 0H17.0769C18.1986 0.00134357 19.2739 0.447515 20.067 1.24065C20.8602 2.03378 21.3063 3.10911 21.3077 4.23077V12.6923C21.3063 13.814 20.8602 14.8893 20.067 15.6824C19.2739 16.4756 18.1986 16.9217 17.0769 16.9231H14.0054L8.31923 21.7961C8.16635 21.9279 7.97111 22.0003 7.76923 22ZM5.23077 1.69231C4.55753 1.69231 3.91186 1.95975 3.43581 2.43581C2.95975 2.91186 2.69231 3.55753 2.69231 4.23077V12.6923C2.69231 13.3655 2.95975 14.0112 3.43581 14.4873C3.91186 14.9633 4.55753 15.2308 5.23077 15.2308H7.76923C7.99364 15.2308 8.20887 15.3199 8.36755 15.4786C8.52624 15.6373 8.61538 15.8525 8.61538 16.0769V19.3143L13.1423 15.4347C13.2952 15.3029 13.4904 15.2305 13.6923 15.2308H17.0769C17.7502 15.2308 18.3958 14.9633 18.8719 14.4873C19.3479 14.0112 19.6154 13.3655 19.6154 12.6923V4.23077C19.6154 3.55753 19.3479 2.91186 18.8719 2.43581C18.3958 1.95975 17.7502 1.69231 17.0769 1.69231H5.23077Z" fill="#483D6B"/>
<path d="M6.07707 10.1522C7.01171 10.1522 7.76938 9.39452 7.76938 8.45989C7.76938 7.52525 7.01171 6.76758 6.07707 6.76758C5.14244 6.76758 4.38477 7.52525 4.38477 8.45989C4.38477 9.39452 5.14244 10.1522 6.07707 10.1522Z" fill="#483D6B"/>
<path d="M11.1537 10.1522C12.0884 10.1522 12.846 9.39452 12.846 8.45989C12.846 7.52525 12.0884 6.76758 11.1537 6.76758C10.2191 6.76758 9.46143 7.52525 9.46143 8.45989C9.46143 9.39452 10.2191 10.1522 11.1537 10.1522Z" fill="#483D6B"/>
<path d="M16.2309 10.1522C17.1655 10.1522 17.9232 9.39452 17.9232 8.45989C17.9232 7.52525 17.1655 6.76758 16.2309 6.76758C15.2962 6.76758 14.5386 7.52525 14.5386 8.45989C14.5386 9.39452 15.2962 10.1522 16.2309 10.1522Z" fill="#483D6B"/>
</svg>
