<svg width="16" height="16" viewBox="0 0 16 16" fill="none" xmlns="http://www.w3.org/2000/svg">
<g clip-path="url(#clip0_1033_22353)">
<path d="M15.0406 7.00017L8.80859 7.03218H8.64453H8.44141H8.22637C8.22637 7.03218 7.96591 7.03191 7.83984 7.03218C7.71378 7.03191 7.60156 7.03218 7.49147 7.03218C7.35547 7.03225 7.28906 7.03223 7.28906 7.03223L7.125 7.03221L7.03906 7.03227L6.90896 7.03218L0.959366 7.00034C0.833305 7.00007 0.708431 7.0247 0.591914 7.07282C0.475396 7.12094 0.369529 7.19159 0.28039 7.28073C0.191251 7.36987 0.120595 7.47574 0.0724785 7.59225C0.0243617 7.70877 -0.000268313 7.83365 2.20562e-06 7.95971C-0.000268395 8.08576 0.0243628 8.21063 0.0724816 8.32713C0.1206 8.44364 0.191259 8.5495 0.2804 8.63862C0.369542 8.72775 0.47541 8.79839 0.591926 8.84649C0.708443 8.89458 0.833313 8.91919 0.959366 8.9189H6.90896L7.01953 8.91907H7.375L7.92578 8.9189C7.92578 8.9189 8.1097 8.91915 8.23575 8.9189H8.42969H8.56641L8.71875 8.91907L8.76562 8.9189L8.82769 8.91907H15.0406C15.1667 8.91932 15.2916 8.89467 15.4081 8.84655C15.5246 8.79842 15.6304 8.72777 15.7196 8.63863C15.8087 8.5495 15.8794 8.44364 15.9275 8.32713C15.9756 8.21063 16.0002 8.08576 16 7.95971C15.9998 7.70532 15.8986 7.46142 15.7188 7.28152C15.5389 7.10163 15.295 7.00044 15.0406 7.00017Z" fill="#5F7EEA"/>
</g>
<defs>
<clipPath id="clip0_1033_22353">
<rect width="16" height="16" fill="white"/>
</clipPath>
</defs>
</svg>
