<svg width="76" height="76" viewBox="0 0 76 76" fill="none" xmlns="http://www.w3.org/2000/svg">
<g id="&#208;&#152;&#209;&#129;&#208;&#186;&#208;&#176;&#209;&#130;&#209;&#140; &#209;&#128;&#208;&#181;&#208;&#183;&#209;&#131;&#208;&#187;&#209;&#140;&#209;&#130;&#208;&#176;&#209;&#130;&#209;&#139; &#208;&#180;&#208;&#187;&#209;&#143; &#208;&#184;&#208;&#188;&#209;&#143; - Flaticon-12 (1) 1">
<g id="Group">
<path id="Vector" d="M69.2942 27.366V63.706C69.2942 66.1749 67.2927 68.1766 64.8235 68.1766H4.47064C2.00153 68.1766 0 66.1751 0 63.706V21.2353C0 18.7662 2.00153 16.7647 4.47064 16.7647H54.2224L44.7621 26.2251C44.0356 26.9516 43.4593 27.814 43.0662 28.7632C42.673 29.7124 42.4706 30.7298 42.4706 31.7572V34.6471C42.4706 38.3506 45.4729 41.3529 49.1765 41.3529H52.0665C54.1414 41.3529 56.1313 40.5287 57.5985 39.0615L69.2942 27.366ZM14.5294 61.4757C14.5294 57.8382 14.653 54.4007 14.897 51.2377C19.9638 49.1118 24.2456 46.0703 27.0268 42.6216C31.5066 37.0666 31.3442 31.0606 25.588 28.1824C19.8259 25.3013 15.4249 28.7734 12.9629 36.3353C11.9332 39.4981 11.179 43.4705 10.6976 48.0454C9.2471 48.531 7.76753 48.9251 6.26762 49.2252C5.05712 49.4673 4.27203 50.6448 4.51413 51.8555C4.75623 53.066 5.93394 53.8511 7.14445 53.609C8.20775 53.3963 9.26219 53.1414 10.3053 52.8451C10.141 55.5722 10.059 58.4608 10.059 61.476C10.059 62.7106 11.0598 63.7113 12.2943 63.7113C13.5286 63.711 14.5294 62.7103 14.5294 61.4757ZM27.3881 54.0066L31.9296 48.8164L32.1357 50.4648C32.3653 52.3023 34.0412 53.6055 35.8787 53.3759C36.6493 53.2796 37.3626 52.9187 37.8968 52.355L39.9764 50.16L41.3018 52.0499C41.7018 52.6202 42.2694 53.0517 42.9258 53.2846C43.5823 53.5175 44.2949 53.5402 44.9648 53.3495L53.1415 51.0219C54.3289 50.6839 55.0175 49.4472 54.6795 48.26C54.3415 47.0727 53.105 46.3841 51.9176 46.7221L44.5056 48.8319L42.8511 46.473C42.7221 46.2892 42.5751 46.1188 42.4122 45.9643C41.0679 44.6907 38.9457 44.748 37.6721 46.0922L36.2786 47.5631L36.0568 45.7893C35.9548 44.9733 35.5566 44.2233 34.9377 43.6818C33.5441 42.4623 31.4259 42.6035 30.2064 43.9972L24.024 51.063C23.211 51.992 23.3053 53.4043 24.2342 54.2171C25.163 55.0298 26.5752 54.9357 27.3881 54.0066ZM65.2864 12.0229L68.8311 8.47818C69.7039 7.60522 71.1192 7.60522 71.9922 8.47818L75.3451 11.8311C76.2181 12.704 76.2181 14.1194 75.3451 14.9922L71.8004 18.5369L65.2864 12.0229ZM23.5468 39.8153C21.652 42.1649 18.829 44.3401 15.4372 46.0654C15.8749 42.8274 16.4687 40.0076 17.2137 37.7193C18.9478 32.3934 20.9128 30.8431 23.5886 32.181C26.3677 33.5705 26.4395 36.2283 23.5468 39.8153ZM54.4374 35.9002C53.8086 36.529 52.9558 36.8822 52.0665 36.8823H49.1765C47.9419 36.8823 46.9411 35.8815 46.9411 34.647V31.757C46.9411 30.8677 47.2944 30.015 47.9232 29.3862L62.1253 15.1841L68.6393 21.6983L54.4374 35.9002Z" fill="#5F7EEA"/>
</g>
</g>
</svg>
