<svg width="20" height="20" viewBox="0 0 20 20" fill="none" xmlns="http://www.w3.org/2000/svg">
<g id="&#208;&#152;&#209;&#129;&#208;&#186;&#208;&#176;&#209;&#130;&#209;&#140; &#209;&#128;&#208;&#181;&#208;&#183;&#209;&#131;&#208;&#187;&#209;&#140;&#209;&#130;&#208;&#176;&#209;&#130;&#209;&#139; &#208;&#180;&#208;&#187;&#209;&#143; &#208;&#188;&#208;&#176;&#209;&#129;&#209;&#129;&#208;&#176; - Flaticon-12 (1) 1">
<g id="Group">
<path id="Vector" d="M12.1579 3.152C12.0393 2.551 12.5456 2 13.1725 2H14.0909C14.3621 2 14.6223 1.89464 14.8141 1.70711C15.0059 1.51957 15.1136 1.26522 15.1136 1C15.1136 0.734784 15.0059 0.48043 14.8141 0.292893C14.6223 0.105357 14.3621 0 14.0909 0L5.90909 0C5.63784 0 5.37771 0.105357 5.18591 0.292893C4.99411 0.48043 4.88636 0.734784 4.88636 1C4.88636 1.26522 4.99411 1.51957 5.18591 1.70711C5.37771 1.89464 5.63784 2 5.90909 2H6.82749C7.45443 2 7.96068 2.551 7.84204 3.152C7.56822 4.51751 6.81775 5.74759 5.71896 6.6319C4.62016 7.5162 3.24131 7.99981 1.81818 8V19C1.81818 19.2652 1.92593 19.5196 2.11773 19.7071C2.30952 19.8946 2.56966 20 2.8409 20H17.1591C17.4303 20 17.6905 19.8946 17.8823 19.7071C18.0741 19.5196 18.1818 19.2652 18.1818 19V8C16.7587 7.99981 15.3798 7.5162 14.281 6.6319C13.1822 5.74759 12.4318 4.51751 12.1579 3.152Z" fill="#5F7EEA"/>
</g>
</g>
</svg>
