<svg width="20" height="24" viewBox="0 0 20 24" fill="none" xmlns="http://www.w3.org/2000/svg">
<g id="Group">
<g id="01 align center">
<path id="Vector" d="M20 24H17.7778V18.957C17.7769 18.173 17.4305 17.4213 16.8145 16.867C16.1985 16.3126 15.3633 16.0008 14.4922 16H5.50778C4.63667 16.0008 3.80148 16.3126 3.18551 16.867C2.56954 17.4213 2.2231 18.173 2.22222 18.957V24H0V18.957C0.00176425 17.6428 0.582613 16.3829 1.61514 15.4536C2.64767 14.5244 4.04757 14.0016 5.50778 14H14.4922C15.9524 14.0016 17.3523 14.5244 18.3849 15.4536C19.4174 16.3829 19.9982 17.6428 20 18.957V24ZM10 12C8.68146 12 7.39253 11.6481 6.2962 10.9888C5.19987 10.3295 4.34539 9.39246 3.8408 8.2961C3.33622 7.19975 3.2042 5.99335 3.46143 4.82946C3.71867 3.66558 4.35361 2.59648 5.28596 1.75736C6.21831 0.918247 7.40619 0.346802 8.6994 0.115291C9.99261 -0.11622 11.333 0.00259972 12.5512 0.456726C13.7694 0.910851 14.8106 1.67989 15.5431 2.66658C16.2757 3.65328 16.6667 4.81331 16.6667 6C16.6649 7.59081 15.962 9.11602 14.7121 10.2409C13.4622 11.3658 11.7676 11.9984 10 12ZM10 2C9.12097 2 8.26169 2.2346 7.5308 2.67412C6.79991 3.11365 6.23026 3.73836 5.89387 4.46927C5.55748 5.20017 5.46946 6.00444 5.64095 6.78036C5.81244 7.55629 6.23574 8.26902 6.8573 8.82843C7.47887 9.38784 8.27079 9.7688 9.13293 9.92314C9.99507 10.0775 10.8887 9.99827 11.7008 9.69552C12.5129 9.39277 13.2071 8.88008 13.6954 8.22228C14.1838 7.56449 14.4444 6.79113 14.4444 6C14.4444 4.93914 13.9762 3.92172 13.1427 3.17158C12.3092 2.42143 11.1787 2 10 2Z" fill="#483D6B"/>
</g>
</g>
</svg>
