<svg width="18" height="18" viewBox="0 0 18 18" fill="none" xmlns="http://www.w3.org/2000/svg">
<g clip-path="url(#clip0_3536_83454)">
<path fill-rule="evenodd" clip-rule="evenodd" d="M17.6708 15.8323C17.5513 15.9514 17.4072 16.1038 17.2543 16.2649C16.873 16.6697 16.3965 17.1728 16.0979 17.3769C14.5268 18.4504 12.425 17.9367 10.9382 17.3173C8.97695 16.5001 6.84165 14.9938 4.92439 13.0763C3.00534 11.1587 1.49921 9.02271 0.682028 7.06255C0.0632952 5.57549 -0.451484 3.4732 0.622264 1.90176C0.826165 1.60294 1.33047 1.12725 1.73468 0.745151C1.8964 0.592788 2.04756 0.448827 2.16709 0.329686C2.3793 0.118535 2.66648 0 2.96584 0C3.2652 0 3.55238 0.118535 3.76458 0.329686L6.65533 3.21959C6.86637 3.43179 6.98483 3.71889 6.98483 4.01816C6.98483 4.31743 6.86637 4.60453 6.65533 4.81673L5.86785 5.60262C5.60486 5.86369 5.4332 6.2027 5.37842 6.56919C5.32363 6.93569 5.38865 7.31008 5.5638 7.63664C6.64692 9.68093 8.31907 11.3528 10.3635 12.4356C10.69 12.6107 11.0644 12.6756 11.4307 12.6207C11.7971 12.5659 12.136 12.3941 12.3969 12.131L13.1824 11.3451C13.3946 11.1339 13.6818 11.0154 13.9811 11.0154C14.2805 11.0154 14.5677 11.1339 14.7799 11.3451L17.6708 14.2355C17.8819 14.4476 18.0003 14.7347 18.0003 15.0339C18.0003 15.3331 17.8819 15.6202 17.6708 15.8323Z" fill="white"/>
</g>
<defs>
<clipPath id="clip0_3536_83454">
<rect width="18" height="18" fill="white"/>
</clipPath>
</defs>
</svg>
