<svg width="16" height="16" viewBox="0 0 16 16" fill="none" xmlns="http://www.w3.org/2000/svg">
<g clip-path="url(#clip0_1033_22357)">
<path d="M15.0406 7.04047L8.81828 7.05928V0.959366C8.81855 0.833305 8.79392 0.708431 8.74581 0.591914C8.69769 0.475396 8.62703 0.369529 8.5379 0.28039C8.44876 0.191251 8.34289 0.120595 8.22637 0.0724785C8.10985 0.0243617 7.98498 -0.000268315 7.85892 2.20441e-06C7.73286 -0.000268315 7.60798 0.0243617 7.49147 0.0724785C7.37495 0.120595 7.26908 0.191251 7.17994 0.28039C7.0908 0.369529 7.02015 0.475396 6.97203 0.591914C6.92391 0.708431 6.89928 0.833305 6.89956 0.959366L6.91837 7.04064H0.959366C0.833305 7.04037 0.708431 7.065 0.591914 7.11311C0.475396 7.16123 0.369529 7.23189 0.28039 7.32103C0.191251 7.41017 0.120595 7.51603 0.0724785 7.63255C0.0243617 7.74907 -0.000268313 7.87394 2.20563e-06 8C-0.000268395 8.12605 0.0243628 8.25092 0.0724816 8.36743C0.1206 8.48394 0.191259 8.58979 0.2804 8.67892C0.369542 8.76804 0.47541 8.83868 0.591926 8.88678C0.708443 8.93488 0.833313 8.95949 0.959366 8.9592H6.90896V15.0406C6.90871 15.1667 6.93336 15.2916 6.98148 15.4081C7.02961 15.5246 7.10026 15.6304 7.1894 15.7196C7.27853 15.8087 7.38439 15.8794 7.5009 15.9275C7.61741 15.9756 7.74227 16.0002 7.86832 16C7.99438 16.0002 8.11924 15.9756 8.23575 15.9275C8.35226 15.8794 8.45812 15.8087 8.54725 15.7196C8.63638 15.6304 8.70704 15.5246 8.75517 15.4081C8.80329 15.2916 8.82794 15.1667 8.82769 15.0406V8.95937H15.0406C15.1667 8.95961 15.2916 8.93497 15.4081 8.88684C15.5246 8.83872 15.6304 8.76806 15.7196 8.67893C15.8087 8.58979 15.8794 8.48394 15.9275 8.36743C15.9756 8.25092 16.0002 8.12606 16 8C15.9998 7.74562 15.8986 7.50171 15.7188 7.32182C15.5389 7.14193 15.295 7.04074 15.0406 7.04047Z" fill="#5F7EEA"/>
</g>
<defs>
<clipPath id="clip0_1033_22357">
<rect width="16" height="16" fill="white"/>
</clipPath>
</defs>
</svg>
