<svg width="46" height="47" viewBox="0 0 46 47" fill="none" xmlns="http://www.w3.org/2000/svg">
<g clip-path="url(#clip0_889_17245)">
<rect y="0.5" width="46" height="46" rx="18" fill="#5F7EEA"/>
<g clip-path="url(#clip1_889_17245)">
<path d="M23 10.5C20.4288 10.5 17.9154 11.2624 15.7776 12.6909C13.6398 14.1194 11.9735 16.1497 10.9896 18.5251C10.0056 20.9006 9.74819 23.5144 10.2498 26.0362C10.7514 28.5579 11.9895 30.8743 13.8076 32.6924C15.6257 34.5105 17.9421 35.7486 20.4638 36.2502C22.9856 36.7518 25.5995 36.4944 27.9749 35.5104C30.3503 34.5265 32.3807 32.8603 33.8091 30.7224C35.2376 28.5846 36 26.0712 36 23.5C35.9963 20.0533 34.6254 16.7489 32.1883 14.3117C29.7511 11.8746 26.4467 10.5037 23 10.5ZM23 34.3333C20.8574 34.3333 18.7629 33.698 16.9813 32.5076C15.1998 31.3172 13.8113 29.6253 12.9913 27.6457C12.1714 25.6662 11.9568 23.488 12.3748 21.3865C12.7928 19.2851 13.8246 17.3547 15.3397 15.8397C16.8548 14.3246 18.7851 13.2928 20.8865 12.8748C22.988 12.4568 25.1662 12.6714 27.1457 13.4913C29.1253 14.3113 30.8172 15.6998 32.0076 17.4813C33.198 19.2629 33.8333 21.3574 33.8333 23.5C33.8302 26.3722 32.6878 29.1259 30.6568 31.1568C28.6259 33.1878 25.8722 34.3302 23 34.3333ZM28.4167 23.5C28.4167 23.7873 28.3025 24.0629 28.0994 24.266C27.8962 24.4692 27.6207 24.5833 27.3333 24.5833H24.0833V27.8333C24.0833 28.1207 23.9692 28.3962 23.766 28.5994C23.5629 28.8025 23.2873 28.9167 23 28.9167C22.7127 28.9167 22.4371 28.8025 22.234 28.5994C22.0308 28.3962 21.9167 28.1207 21.9167 27.8333V24.5833H18.6667C18.3794 24.5833 18.1038 24.4692 17.9006 24.266C17.6975 24.0629 17.5833 23.7873 17.5833 23.5C17.5833 23.2127 17.6975 22.9371 17.9006 22.734C18.1038 22.5308 18.3794 22.4167 18.6667 22.4167H21.9167V19.1667C21.9167 18.8793 22.0308 18.6038 22.234 18.4006C22.4371 18.1975 22.7127 18.0833 23 18.0833C23.2873 18.0833 23.5629 18.1975 23.766 18.4006C23.9692 18.6038 24.0833 18.8793 24.0833 19.1667V22.4167H27.3333C27.6207 22.4167 27.8962 22.5308 28.0994 22.734C28.3025 22.9371 28.4167 23.2127 28.4167 23.5Z" fill="white"/>
</g>
</g>
<defs>
<clipPath id="clip0_889_17245">
<rect width="46" height="46" fill="white" transform="translate(0 0.5)"/>
</clipPath>
<clipPath id="clip1_889_17245">
<rect width="26" height="26" fill="white" transform="translate(10 10.5)"/>
</clipPath>
</defs>
</svg>
