<svg width="130" height="130" viewBox="0 0 130 130" fill="none" xmlns="http://www.w3.org/2000/svg">
<circle cx="68" cy="65" r="56" fill="#5F7EEA"/>
<g clip-path="url(#clip0_264_5460)">
<path d="M87.7478 65.3423L70.5078 80.9474V65.3423H87.7478Z" fill="#D1B288"/>
<path d="M130 0L70.5075 65.3423V80.9473L51.7324 65.3423L130 0Z" fill="#EACA9B"/>
<path d="M130 0L51.7327 65.3423H21.1091C20.3405 65.3423 20.0658 64.3266 20.7282 63.9387L130 0Z" fill="#FFE8C2"/>
<path d="M35.2917 61.2252C34.5231 61.2252 34.2474 60.2095 34.9109 59.8216L113.257 13.9788L130.001 0L20.7297 63.9377C20.0662 64.3266 20.342 65.3423 21.1098 65.3423H51.7342L56.6655 61.2252H35.2917Z" fill="#F4DAB5"/>
<path d="M130 0L115.551 64.5298C115.5 64.7603 115.371 64.9664 115.187 65.1141C115.003 65.2618 114.774 65.3423 114.538 65.3423H70.5078L130 0Z" fill="#FFE8C2"/>
<path d="M118.971 109.582C120.755 109.82 122.133 111.343 122.133 113.193C122.133 115.204 120.501 116.837 118.489 116.837H92.9744C90.9619 116.837 89.3303 115.204 89.3303 113.193C89.3303 111.178 90.9619 109.546 92.9744 109.546H95.1166C94.6656 108.64 94.4317 107.642 94.4333 106.63C94.4333 103.007 97.37 100.071 100.992 100.071C104.615 100.071 107.555 103.007 107.555 106.63C107.555 107.678 107.306 108.668 106.871 109.546H109.255C109.255 106.863 111.429 104.687 114.114 104.687C116.8 104.687 118.974 106.863 118.974 109.546C118.974 109.559 118.971 109.569 118.971 109.582ZM47.5262 20.6378C49.9205 20.9572 51.7672 23.0004 51.7672 25.4808C51.7672 28.1826 49.5772 30.3695 46.8764 30.3695H12.6476C9.94703 30.3695 7.75709 28.1826 7.75709 25.4808C7.75709 22.7802 9.94703 20.5903 12.6478 20.5903H15.5188C14.915 19.375 14.601 18.0364 14.6014 16.6794C14.6014 11.8176 18.5438 7.87695 23.4038 7.87695C28.2656 7.87695 32.2062 11.8176 32.2062 16.6794C32.2062 18.084 31.8759 19.4119 31.2886 20.5903H34.4873C34.4873 16.9889 37.4083 14.07 41.0076 14.07C44.6098 14.07 47.5279 16.9889 47.5279 20.5903C47.5279 20.606 47.5262 20.622 47.5262 20.6378ZM29.6415 91.2445C31.425 91.4837 32.8034 93.0051 32.8034 94.8548C32.8034 96.8663 31.1708 98.4989 29.1596 98.4989H3.64406C1.6316 98.4989 0 96.8663 0 94.8548C0 92.8403 1.6316 91.208 3.64406 91.208H5.78728C5.33554 90.3028 5.10123 89.3047 5.10301 88.2931C5.10301 84.6699 8.03969 81.7329 11.6629 81.7329C15.2862 81.7329 18.2246 84.6699 18.2246 88.2929C18.2246 89.3402 17.9758 90.3312 17.5414 91.2077H19.9248C19.9248 88.5259 22.0997 86.349 24.7845 86.349C27.4694 86.349 29.6436 88.526 29.6436 91.208C29.6436 91.2217 29.6415 91.2318 29.6415 91.2445Z" fill="#5FC4EA"/>
<path d="M95.8795 114.925C96.3843 113.334 97.9179 112.295 99.5861 112.295C100.453 112.295 101.117 111.508 100.949 110.657C100.866 110.237 100.824 109.809 100.824 109.38C100.824 106.096 103.237 103.375 106.387 102.896C105.111 101.058 102.92 99.902 100.473 100.091C97.2481 100.339 94.6506 102.978 94.4465 106.205C94.3711 107.41 94.6209 108.55 95.1168 109.546H93.0805C91.1178 109.546 89.4288 111.052 89.3346 113.013C89.2343 115.107 90.9027 116.835 92.9746 116.835H95.8369C95.6871 116.246 95.6642 115.607 95.8795 114.925ZM14.1842 27.6311C14.4879 25.1555 16.6748 23.3406 19.1691 23.3406C20.412 23.3406 21.3543 22.2178 21.1329 20.9948C21.0395 20.4781 20.9927 19.954 20.9932 19.4289C20.9932 14.5679 24.9338 10.6285 29.7926 10.6273C28.1879 8.93447 25.9205 7.87695 23.4043 7.87695C18.5445 7.87695 14.6019 11.8176 14.6019 16.6794C14.6012 18.0363 14.9149 19.375 15.5185 20.5903H12.7646C10.1126 20.5903 7.8533 22.6533 7.76011 25.3043C7.66185 28.0864 9.88836 30.3697 12.6478 30.3697H14.6453C14.2282 29.5213 14.0681 28.5694 14.1842 27.6311ZM6.55025 96.5875C7.054 94.9978 8.58734 93.9583 10.2558 93.9583C11.1226 93.9583 11.7868 93.1696 11.6185 92.3198C11.5358 91.899 11.4943 91.4711 11.4946 91.0422C11.4946 87.7584 13.9067 85.0388 17.0566 84.5577C15.78 82.7199 13.5893 81.5644 11.1432 81.7528C7.91881 82.0008 5.32033 84.6402 5.11695 87.8683C5.04078 89.0726 5.29062 90.2132 5.78752 91.208H3.75043C1.78773 91.208 0.0984937 92.7154 0.00429446 94.6753C-0.0959985 96.769 1.57344 98.4989 3.64429 98.4989H6.50658C6.35677 97.9085 6.33392 97.269 6.55025 96.5875Z" fill="#23C1F1"/>
</g>
<defs>
<clipPath id="clip0_264_5460">
<rect width="130" height="130" fill="white"/>
</clipPath>
</defs>
</svg>
