<svg width="25" height="25" viewBox="0 0 25 25" fill="none" xmlns="http://www.w3.org/2000/svg">
<g clip-path="url(#clip0_3471_80187)">
<path d="M1.34092 9.22727C0.686377 9.22727 0.25 8.79089 0.25 8.13635V3.77271C0.25 1.91817 1.66817 0.5 3.52271 0.5H7.88635C8.54089 0.5 8.97727 0.936377 8.97727 1.59092C8.97727 2.24546 8.54089 2.68184 7.88635 2.68184H3.52271C2.86817 2.68184 2.43179 3.11822 2.43179 3.77276V8.13639C2.43184 8.79089 1.99546 9.22727 1.34092 9.22727Z" fill="#483D6B"/>
<path d="M23.1589 9.22727C22.5043 9.22727 22.0679 8.79089 22.0679 8.13635V3.77271C22.0679 3.11817 21.6316 2.68179 20.977 2.68179H16.6134C15.9588 2.68179 15.5225 2.24542 15.5225 1.59087C15.5225 0.936332 15.9588 0.5 16.6134 0.5H20.977C22.8316 0.5 24.2497 1.91817 24.2497 3.77271V8.13635C24.2498 8.79089 23.8134 9.22727 23.1589 9.22727Z" fill="#483D6B"/>
<path d="M7.88635 24.5007H3.52271C1.66817 24.5007 0.25 23.0825 0.25 21.228V16.8644C0.25 16.2098 0.686377 15.7734 1.34092 15.7734C1.99546 15.7734 2.43184 16.2098 2.43184 16.8644V21.228C2.43184 21.8825 2.86822 22.3189 3.52276 22.3189H7.88639C8.54093 22.3189 8.97731 22.7553 8.97731 23.4098C8.97726 24.0643 8.54089 24.5007 7.88635 24.5007Z" fill="#483D6B"/>
<path d="M20.9775 24.5007H16.6139C15.9593 24.5007 15.5229 24.0644 15.5229 23.4098C15.5229 22.7553 15.9593 22.3189 16.6139 22.3189H20.9775C21.632 22.3189 22.0684 21.8825 22.0684 21.228V16.8644C22.0684 16.2098 22.5048 15.7734 23.1593 15.7734C23.8139 15.7734 24.2503 16.2098 24.2503 16.8644V21.228C24.2502 23.0826 22.832 24.5007 20.9775 24.5007Z" fill="#483D6B"/>
<path d="M10.0683 11.4088H5.70469C5.05015 11.4088 4.61377 10.9724 4.61377 10.3178V5.9542C4.61377 5.29966 5.05015 4.86328 5.70469 4.86328H10.0683C10.7229 4.86328 11.1592 5.29966 11.1592 5.9542V10.3178C11.1592 10.9724 10.7229 11.4088 10.0683 11.4088ZM6.79561 9.22691H8.97745V7.04508H6.79561V9.22691Z" fill="#483D6B"/>
<path d="M10.0683 20.1353H5.70469C5.05015 20.1353 4.61377 19.6989 4.61377 19.0444V14.6808C4.61377 14.0262 5.05015 13.5898 5.70469 13.5898H10.0683C10.7229 13.5898 11.1592 14.0262 11.1592 14.6808V19.0444C11.1592 19.6989 10.7229 20.1353 10.0683 20.1353ZM6.79561 17.9535H8.97745V15.7716H6.79561V17.9535Z" fill="#483D6B"/>
<path d="M18.7954 11.4088H14.4317C13.7772 11.4088 13.3408 10.9724 13.3408 10.3178V5.9542C13.3408 5.29966 13.7772 4.86328 14.4317 4.86328H18.7954C19.4499 4.86328 19.8863 5.29966 19.8863 5.9542V10.3178C19.8863 10.9724 19.4499 11.4088 18.7954 11.4088ZM15.5227 9.22691H17.7045V7.04508H15.5227V9.22691Z" fill="#483D6B"/>
<path d="M14.4317 16.8626C13.7772 16.8626 13.3408 16.4262 13.3408 15.7717V14.6808C13.3408 14.0262 13.7772 13.5898 14.4317 13.5898C15.0863 13.5898 15.5227 14.0262 15.5227 14.6808V15.7717C15.5227 16.4263 15.0863 16.8626 14.4317 16.8626Z" fill="#483D6B"/>
<path d="M18.7956 15.7717H17.7047C17.0501 15.7717 16.6138 15.3353 16.6138 14.6808C16.6138 14.0262 17.0501 13.5898 17.7047 13.5898H18.7956C19.4502 13.5898 19.8865 14.0262 19.8865 14.6808C19.8865 15.3353 19.4502 15.7717 18.7956 15.7717Z" fill="#483D6B"/>
<path d="M18.7953 20.135H15.5226C14.868 20.135 14.4316 19.6986 14.4316 19.044C14.4316 18.3895 14.868 17.9531 15.5226 17.9531H18.7953C19.4498 17.9531 19.8862 18.3895 19.8862 19.044C19.8862 19.6986 19.4498 20.135 18.7953 20.135Z" fill="#483D6B"/>
</g>
<defs>
<clipPath id="clip0_3471_80187">
<rect width="24" height="24" fill="white" transform="translate(0.25 0.5)"/>
</clipPath>
</defs>
</svg>
