<svg width="114" height="114" viewBox="0 0 114 114" fill="none" xmlns="http://www.w3.org/2000/svg">
<g opacity="0.5" clip-path="url(#clip0_327_15701)">
<mask id="mask0_327_15701" style="mask-type:luminance" maskUnits="userSpaceOnUse" x="0" y="0" width="114" height="114">
<path d="M114 0H0V114H114V0Z" fill="white"/>
</mask>
<g mask="url(#mask0_327_15701)">
<path d="M40.0369 36.9103C50.1049 45.999 63.0719 61.9433 59.0369 67.6629L20.9585 68.3681C16.7668 62.6485 21.9379 47.6443 32.7503 37.1845C16.2183 28.1742 25.2286 12.9351 36.3936 12.9351C47.5977 12.9351 56.1771 29.2711 40.0369 36.9103Z" fill="#2FA8D6"/>
<path d="M61.1913 76.0037H11.3604C11.3996 73.4573 11.3996 70.9505 11.4388 70.5975C12.3006 61.7831 13.2408 42.7831 35.414 42.7831H37.3336C40.5852 42.8223 42.2305 43.2532 44.6594 43.8408C54.9625 46.2701 58.5274 53.0862 60.0161 60.882C60.5254 63.6635 60.9955 71.4206 61.1913 76.0037Z" fill="#5EC3E9"/>
<path d="M45.3645 26.0934C45.3645 32.1656 41.3687 39.5697 36.4326 39.5697C31.4965 39.5697 27.5006 32.1656 27.5006 26.0934C27.5006 20.0213 31.4965 15.0852 36.4326 15.0852C41.3687 15.046 45.3645 19.9821 45.3645 26.0934Z" fill="#F5ABC1"/>
<path d="M46.2264 20.0636C49.7522 31.8946 33.4161 22.2966 31.6141 20.4554C31.3398 23.3152 28.911 25.9399 28.8326 25.9791C28.48 26.2141 21.8594 26.8018 25.8945 19.7111C27.4615 16.9688 30.6347 14.0306 36.511 14.0306C42.3873 14.0306 45.3646 17.0471 46.2264 20.0636Z" fill="#2FA8D6"/>
<path d="M29.068 31.1081C30.0474 30.7947 30.4391 29.2669 29.9298 27.6999C29.4206 26.1329 28.2061 25.1535 27.2268 25.4669C26.2474 25.7803 25.8556 27.3081 26.3649 28.8751C26.8742 30.4421 28.0886 31.4215 29.068 31.1081Z" fill="#F5ABC1"/>
<path d="M28.2061 29.7362C28.1669 29.697 27.1483 29.031 27.1092 28.0517C27.07 27.5424 27.3442 27.0331 27.8927 26.6022L28.0494 26.7589C27.5401 27.1506 27.305 27.5816 27.3442 28.0517C27.3834 28.9135 28.3236 29.5403 28.3628 29.5403L28.2061 29.7362Z" fill="#A2542E"/>
<path d="M46.3044 28.8353C46.8136 27.2683 46.4219 25.7405 45.4425 25.4271C44.4631 25.1137 43.2487 26.0931 42.7394 27.6601C42.2301 29.2271 42.6219 30.7549 43.6013 31.0683C44.5806 31.3817 45.7951 30.4023 46.3044 28.8353Z" fill="#F5ABC1"/>
<path d="M44.3459 30.0493C44.3851 30.0101 45.4036 29.3441 45.4428 28.3648C45.482 27.8555 45.2078 27.3462 44.6593 26.9153L44.5026 27.072C45.0119 27.4637 45.2469 27.8947 45.2078 28.3648C45.1686 29.2266 44.2284 29.8534 44.1892 29.8534L44.3459 30.0493Z" fill="#A2542E"/>
<path d="M30.5174 26.6428L30.4391 26.3294C30.4783 26.3294 31.536 25.7026 32.3587 25.6635C33.4556 25.5851 34.2391 25.9377 34.5525 26.6428L34.3174 26.7995C32.9463 25.115 30.5566 26.6428 30.5174 26.6428Z" fill="#1333B4"/>
<path d="M42.8577 26.6428L42.936 26.3294C42.8969 26.3294 41.8391 25.7026 41.0164 25.6635C39.9195 25.5851 39.136 25.9377 38.8226 26.6428L39.0577 26.7995C40.4288 25.115 42.8185 26.6428 42.8577 26.6428Z" fill="#1333B4"/>
<path d="M34.121 28.2073L33.9251 28.3225C33.8468 28.2073 33.7684 28.092 33.6901 28.0152C33.5725 27.8999 33.455 27.7847 33.2983 27.7078C32.9849 27.5542 32.6715 27.4773 32.2798 27.5542C32.1622 27.5542 32.0839 27.5926 31.9663 27.631C31.3004 27.8615 30.7519 28.3225 30.7519 28.3225L30.5952 28.1688C30.6344 28.1304 31.3004 27.5158 32.123 27.3621H32.2014C32.6323 27.2853 33.0241 27.3621 33.3375 27.5542C33.3767 27.5926 33.455 27.631 33.4942 27.6694C33.7684 27.7847 33.9643 27.9768 34.121 28.2073Z" fill="#1333B4"/>
<path d="M33.4158 28.0992C33.4158 28.6741 33.1416 29.1723 32.789 29.1723C32.4364 29.1723 32.123 28.6741 32.123 28.0992C32.123 27.8693 32.1622 27.6393 32.2797 27.4477C32.6323 27.4094 32.9849 27.4094 33.3375 27.6393C33.4158 27.7543 33.4158 27.9459 33.4158 28.0992Z" fill="#160707"/>
<path d="M42.7007 28.3245C42.7007 28.3245 41.9956 27.6701 41.2121 27.5546C40.8595 27.4776 40.5069 27.5546 40.1935 27.7086C39.9585 27.8241 39.7626 28.055 39.5667 28.3245L39.3708 28.209C39.5667 27.901 39.8018 27.7086 40.076 27.5546C40.4286 27.3621 40.8203 27.2852 41.2121 27.3621C42.0739 27.5161 42.8183 28.1705 42.8183 28.209L42.7007 28.3245Z" fill="#1333B4"/>
<path d="M41.3294 28.238C41.3294 28.3439 41.0552 28.4357 40.7026 28.4357C40.35 28.4357 40.0758 28.351 40.0758 28.238C40.0758 28.2027 40.115 28.1745 40.1542 28.1463C40.5067 28.111 40.8985 28.1039 41.2119 28.111C41.2902 28.1533 41.3294 28.1957 41.3294 28.238Z" fill="#160707"/>
<path d="M37.0206 32.4051C36.7072 32.4051 36.3546 32.1701 36.3154 32.1309L36.4721 31.8959C36.6288 32.0134 36.9422 32.1701 37.0989 32.0917C37.1381 32.0917 37.1773 32.0526 37.2165 31.9742C37.334 31.6216 36.8247 29.3103 36.4721 27.8216L36.7464 27.7433C36.8247 28.135 37.6474 31.4649 37.4907 32.0134C37.4515 32.2093 37.334 32.2876 37.2165 32.3268C37.1381 32.4051 37.0989 32.4051 37.0206 32.4051Z" fill="#1333B4"/>
<path d="M23.1131 61.1594L22.1337 76.0064H21.7811L22.7605 61.0814L23.1131 61.1594Z" fill="#2FA8D6"/>
<path d="M40.4287 42.9409V42.9017V34.0089H32.7112V42.9017C32.7112 42.9017 32.8287 52.578 36.4328 52.6563C40.037 52.7347 40.4287 42.9409 40.4287 42.9409Z" fill="#F5ABC1"/>
<path d="M50.732 76.0022H50.3794L50.1835 73.0249L49.9485 69.4991L49.5175 63.2311L49.3608 61.1552L49.7134 61.1156L49.9093 63.7799L50.2619 69.382L50.4969 73.0641L50.732 76.0022Z" fill="#2FA8D6"/>
<path d="M33.1813 38.2761C33.1029 38.1977 33.0246 38.1586 32.9071 38.1194L32.7504 38.2761C32.8287 38.3544 32.9462 38.3936 33.0246 38.472C33.7689 38.9812 34.9834 39.5689 36.3937 39.6864V39.4905C35.0617 39.373 33.9256 38.7462 33.1813 38.2761Z" fill="#B16B37"/>
<path d="M33.6907 28.1734C33.6907 28.7873 33.299 29.2477 32.7897 29.2477C32.2804 29.2477 31.8887 28.7489 31.8887 28.1734C31.8887 27.9815 31.9278 27.7897 32.0062 27.6362C32.0454 27.5211 32.1237 27.4444 32.2021 27.3677H32.2804C32.7114 27.2909 33.1031 27.3677 33.4165 27.5595C33.4557 27.5979 33.534 27.6362 33.5732 27.6746C33.6124 27.7897 33.6516 27.9048 33.6907 28.0583V28.1734Z" fill="#1333B4"/>
<path d="M41.2905 27.369C41.3689 27.4458 41.4081 27.5225 41.4864 27.6376C41.5648 27.7911 41.6039 27.9829 41.6039 28.1748C41.6039 28.7887 41.2122 29.2492 40.7029 29.2492C40.1936 29.2492 39.8019 28.7503 39.8019 28.1748V28.0213C39.8019 27.9062 39.8411 27.7527 39.9194 27.6376L41.2905 27.369Z" fill="#1333B4"/>
<path d="M35.7668 35.2246C36.4328 35.2246 37.1771 34.9504 37.9606 34.4019L37.8039 34.1669C36.9029 34.7937 36.0802 35.0287 35.2967 34.872C34.2389 34.6762 33.6905 33.736 33.6905 33.736L33.4554 33.8535C33.4554 33.8927 34.0431 34.872 35.2183 35.1463C35.4142 35.1854 35.5709 35.2246 35.7668 35.2246Z" fill="#1333B4"/>
<path d="M28.3627 31.1878C28.5978 30.9527 28.5978 30.5218 28.3627 30.2868C28.1277 30.0517 27.6967 30.0517 27.4617 30.2868C27.2266 30.5218 27.2266 30.9527 27.4617 31.1878C27.6967 31.4228 28.1277 31.462 28.3627 31.1878Z" fill="#869DFF"/>
<path d="M45.482 31.1878C45.717 30.9527 45.717 30.5218 45.482 30.2868C45.2469 30.0517 44.816 30.0517 44.581 30.2868C44.3459 30.5218 44.3459 30.9527 44.581 31.1878C44.816 31.462 45.2469 31.462 45.482 31.1878Z" fill="#869DFF"/>
<path d="M32.7112 42.8247L36.2761 45.4103L40.4287 42.8639V42.9422L36.2761 45.4886L32.7112 42.9031V42.8247Z" fill="#E4CFBD"/>
<path d="M36.7072 45.761C36.9423 45.526 36.9423 45.0951 36.7072 44.86C36.4722 44.625 36.0412 44.625 35.8062 44.86C35.5711 45.0951 35.5711 45.526 35.8062 45.761C36.0804 46.0353 36.4722 46.0353 36.7072 45.761Z" fill="#869DFF"/>
<path d="M88.3402 72.3185C90.7691 71.0649 93.7072 69.5367 96.0969 66.7165C97.1938 65.3845 98.4866 63.2299 97.1938 60.6051C96.8413 59.9 95.4701 60.2526 93.433 60.4093C92.2578 60.4876 91.1217 60.7223 90.1031 60.9969C88.1835 62.2505 86.4206 62.9557 85.7547 62.7206C85.7547 62.7206 87.5176 61.7017 90.1031 60.9969C92.9237 59.1948 96.1361 56.335 96.8804 53.9454C97.5464 51.8299 96.9196 50.2237 96.9196 50.2237C96.8413 50.0278 96.4887 49.7144 95.666 49.0093C95.666 49.0093 94.6474 48.1082 93.0413 47.8732C90.1031 47.4423 87.0475 50.4196 86.5382 50.8897C81.0928 56.1392 80.5835 65.2274 80.231 72.7103C80.0351 77.2155 79.6433 85.6773 82.4248 86.5392C82.9732 86.6959 83.1299 86.4608 86.8907 84.6192C90.4949 82.8563 91.8268 82.3866 93.8639 80.8588C95.7052 79.4876 96.1753 78.7041 96.4103 78.1165C96.9588 76.8629 97.3897 75.5309 96.7237 74.199C96.6454 74.0419 96.2145 73.4938 95.9794 73.2196C95.1176 72.201 93.8248 72.0443 93.3155 72.0051C90.1423 71.6526 82.934 74.9825 82.934 74.9433C82.8949 74.7866 88.3402 72.3185 88.3402 72.3185Z" fill="#E78E80"/>
<path d="M90.1418 60.9971C87.5562 61.7022 85.7933 62.7208 85.7933 62.7208C86.4597 62.9558 88.183 62.2119 90.1418 60.9971Z" fill="#EC7B58"/>
<path d="M100.446 30.79C99.2307 30.359 98.1342 30.6724 97.1156 30.9467C96.1362 31.2209 95.4699 31.5735 94.921 31.8869C92.6493 33.1797 91.0826 34.1982 90.26 34.7075C86.7342 36.9405 85.9895 37.4498 84.7355 37.4498C80.8575 37.4498 85.7548 48.2621 85.7548 48.2621C85.7548 48.2621 89.6328 44.8147 95.9404 41.1322C95.9404 41.1322 99.6616 38.7034 101.464 36.6663C103.031 34.8642 103.069 34.0807 103.031 33.7673C102.952 32.357 101.621 31.2209 100.446 30.79Z" fill="#E78E80"/>
<path d="M53.0038 114.195C54.9234 112.746 56.6471 112.119 57.3131 111.845C65.5007 108.633 78.389 94.4903 84.5003 86.5377C87.3213 82.8553 85.9894 80.4656 85.1275 78.3109C84.3836 76.4309 82.0718 76.235 79.8784 72.9051C79.0162 71.5728 78.6636 70.5546 78.3114 69.614C76.6265 65.1872 74.2364 59.0367 70.0055 56.334C66.1667 53.9051 60.7997 54.3752 57.3914 55.9027C53.1605 57.7439 47.8323 62.9154 46.422 64.247C45.4426 65.1872 43.6801 67.381 42.6224 66.7542C41.212 65.8924 43.3271 62.6408 43.1312 58.802C43.0921 58.0573 46.7354 57.901 47.9498 51.9851C48.0673 51.4759 48.1457 49.7917 48.0281 47.2841C47.9498 45.4824 47.8714 44.7769 47.3622 44.4635C46.8137 44.1501 46.0302 44.5418 45.2467 44.9336C44.9725 45.0907 44.0323 45.5604 42.5044 47.2058C41.2508 48.5769 41.4079 48.7728 40.6636 49.2429C40.311 49.4779 40.1931 49.4779 38.0385 50.2614C36.5106 50.8099 36.3539 50.8882 36.1189 51.0841C35.3354 51.6326 34.9828 52.4165 34.6302 53.2779C33.7684 55.4326 33.3766 57.235 33.2591 57.7831C32.358 61.9361 32.5147 62.1319 31.9663 63.8948C31.457 65.5402 31.3003 65.4618 30.7127 67.3418C30.3993 68.3212 29.8904 70.0453 29.6945 71.847C29.4986 73.8449 29.7333 75.334 30.1642 77.4886C30.8302 81.0144 31.457 84.5402 32.123 88.066C32.6714 90.9257 33.1024 93.1587 32.3189 95.8614C31.7704 97.7814 26.991 101.424 17.3147 118.466C16.6488 119.641 16.8055 121.129 17.7848 122.031C20.057 124.185 24.2879 127.789 28.0879 128.651C31.6137 129.435 36.4714 129.592 39.6446 129.552C41.5642 129.552 43.2096 128.259 43.9539 126.496C47.8714 117.408 52.6904 114.431 53.0038 114.195Z" fill="#E78E80"/>
<path d="M50.9271 60.2501C48.89 61.9347 47.1663 63.58 46.4611 64.2852C45.6384 65.1075 42.9354 68.9466 42.1127 65.6563C42.1518 66.4786 42.2302 66.9491 42.4261 67.8497C42.8962 69.9656 44.5415 73.1384 44.9333 74.1965C49.5168 87.2415 46.6178 89.7491 47.989 89.8666C50.3395 90.0233 59.1147 72.2765 52.5725 62.3264C51.9848 61.5033 51.4756 60.8378 50.9271 60.2501Z" fill="#E78E80"/>
<path d="M47.0491 95.1984C59.8202 95.1984 72.8656 93.5919 79.4079 92.8083C80.9357 90.8496 79.0945 89.596 81.3274 86.6974C81.4058 86.5795 81.4841 86.5019 81.5625 86.384L49.3604 81.6046C49.3213 81.6046 46.7749 95.1984 47.0491 95.1984Z" fill="#E78E80"/>
<path d="M42.3087 66.5204V66.3245C42.2695 66.0503 42.2303 65.5015 42.7004 63.3468C42.7788 63.0726 42.818 62.7987 42.8963 62.5633C43.0922 61.7015 43.2489 60.9963 43.2489 60.3699V59.3509V58.8812V58.7633C43.2489 58.6853 43.2881 58.607 43.3272 58.5674C43.4056 58.5286 43.5623 58.4499 43.719 58.3716C44.6984 57.9018 46.6963 56.9225 47.8324 53.1225C47.8716 53.0049 47.7932 52.887 47.6757 52.8482C47.5582 52.8091 47.4406 52.887 47.4406 53.0049C46.3437 56.6482 44.4633 57.5493 43.5231 57.9798C43.1314 58.1757 42.8963 58.2936 42.8571 58.5286C42.818 58.607 42.818 58.6853 42.8571 58.8812V59.3509V60.3303C42.8571 60.9179 42.7004 61.5451 42.5046 62.4462C42.4654 62.6808 42.387 62.9551 42.3087 63.2297C41.8386 65.4627 41.8778 66.0503 41.8778 66.3637V66.5596C41.8778 66.8726 41.9169 67.3039 42.1912 67.9307C49.8695 84.6585 47.8716 94.9616 44.7767 100.681C44.7375 100.799 44.7767 100.916 44.8551 100.955C44.9726 100.995 45.0901 100.955 45.1293 100.877C46.9314 97.5468 47.8716 93.5905 47.9107 89.1241C47.9499 82.7781 46.1479 75.6087 42.5437 67.7736C42.3479 67.186 42.3087 66.8338 42.3087 66.5204Z" fill="#5E7DE9"/>
<path d="M32.5543 87.0455C31.9275 84.5775 29.8121 75.3325 30.2038 77.526C30.8698 81.0517 31.4966 84.5775 32.1626 88.1033C32.711 90.9631 33.142 92.4909 32.5543 95.2332C32.2409 96.6435 26.6389 102.441 18.0203 117.21C16.5708 119.718 17.5894 122.891 20.2141 124.106C27.6574 108.945 31.1832 104.165 32.5152 101.658C35.375 96.2517 34.6698 95.3507 32.5543 87.0455Z" fill="#E78E80"/>
<path d="M89.4365 64.5594C88.7705 63.8934 88.0262 63.6192 87.5561 63.5404C87.4385 63.5016 87.3214 63.58 87.3214 63.6975C87.3214 63.815 87.3602 63.8934 87.4777 63.9322C87.909 64.0109 88.5355 64.2456 89.1231 64.8332C89.7499 65.4992 89.9849 66.2439 90.1025 66.7532C90.1416 66.8703 90.22 66.9491 90.3375 66.9099C90.4554 66.9099 90.5334 66.792 90.4942 66.6744C90.4159 66.1264 90.1416 65.2645 89.4365 64.5594Z" fill="#D86A4F"/>
<path d="M82.6204 78.0017C82.3066 77.6883 81.9541 77.4141 81.5623 77.1787C81.4448 77.1007 81.3269 77.1399 81.2881 77.2574C81.2489 77.3358 81.2489 77.4925 81.3664 77.5316C81.7186 77.7663 82.0716 78.0017 82.3458 78.3151C82.7376 78.7069 83.051 79.177 83.3252 79.6863C83.364 79.8038 83.4819 79.843 83.5998 79.8038C83.7173 79.7646 83.7557 79.6471 83.7169 79.5292C83.4035 78.9415 83.0514 78.4718 82.6204 78.0017Z" fill="#D86A4F"/>
<path d="M46.9707 44.5033C46.8532 44.5033 46.7749 44.5816 46.7749 44.66C46.6965 45.1301 46.3439 46.5796 44.7377 47.8332C44.2676 48.2249 43.7975 48.46 43.445 48.6167C43.3274 48.6559 43.2883 48.7734 43.3274 48.8909C43.3666 49.0085 43.4841 49.0476 43.6017 49.0085C44.0718 48.8126 44.5419 48.4992 44.9728 48.1858C46.6965 46.8538 47.0883 45.326 47.1666 44.7775C47.1666 44.6208 47.0883 44.5033 46.9707 44.5033Z" fill="#5E7DE9"/>
<path d="M96.4876 58.9597C96.2134 58.6858 95.2732 57.7844 93.902 57.7065C92.766 57.6281 91.9825 58.137 90.9247 58.8034C90.5721 59.038 90.5721 59.0776 87.9474 61.4669C87.1251 62.2116 86.8113 62.4854 86.5375 63.0339C86.3416 63.3869 85.9499 64.2483 85.9886 65.3061C86.067 66.9126 87.0855 68.7143 88.7309 69.2632C90.0237 69.6549 91.199 69.1452 91.9825 68.7931C93.4711 68.1267 97.2711 64.4442 97.5845 63.7391C98.0546 62.6813 97.7804 61.5456 97.6629 61.0751C97.467 60.605 97.2319 59.7432 96.4876 58.9597Z" fill="#E78E80"/>
<path d="M95.6662 65.3455C94.6868 66.2853 93.6679 67.1476 92.6497 67.8919C92.1796 68.2441 91.6312 68.6359 90.8085 68.8713C90.025 69.1064 89.4765 69.0672 89.2023 69.0276C88.8497 68.9888 88.458 68.8317 88.1446 68.6754C87.204 68.1658 86.7343 67.2647 86.5384 66.7946C86.0287 65.5018 86.1466 64.6404 86.46 63.6222C86.7343 62.7995 88.2229 61.5455 89.2023 60.7225C89.4765 60.4878 89.75 60.2531 89.9458 60.0964C90.0246 60.0177 90.0246 59.9002 89.9458 59.7826C89.8679 59.7043 89.7504 59.7043 89.6724 59.7826C89.4765 59.9389 89.2411 60.1744 88.9665 60.4091C87.8699 61.3101 86.3817 62.5637 86.0683 63.5043C85.7157 64.562 85.5982 65.5418 86.1466 66.9521C86.3425 67.5006 86.8518 68.4795 87.9095 69.0672C88.3792 69.341 88.8105 69.4198 89.1239 69.4985C89.2415 69.4985 89.3982 69.5369 89.5941 69.5369C89.9075 69.5369 90.3776 69.4981 90.8868 69.341C91.7879 69.0672 92.3751 68.6754 92.884 68.2837C93.9029 67.5002 94.9219 66.6383 95.9404 65.6977C96.0184 65.6194 96.0184 65.5018 95.9404 65.4235C95.9013 65.2672 95.7446 65.2672 95.6662 65.3455Z" fill="#5E7DE9"/>
<path d="M94.6865 47.3638C94.4123 47.2071 93.8247 46.9329 93.0412 46.972C92.8453 46.972 92.336 47.0112 91.6309 47.3638C90.8865 47.7164 89.4371 48.6958 88.5748 50.6153C88.3789 51.0463 87.2037 53.5535 88.3402 55.9824C88.5748 56.4916 89.0453 57.5102 90.1418 57.9411C91.2391 58.4112 92.2965 58.0195 92.7278 57.8628C93.8247 57.471 94.4511 56.7659 95.2346 55.904C96.214 54.8071 96.8804 54.0628 97.1154 52.8483C97.468 51.1638 96.8016 49.7927 96.6453 49.4401C96.4494 49.0092 95.8618 47.9514 94.6865 47.3638Z" fill="#E78E80"/>
<path d="M95.9396 54.7669C95.8613 54.6885 95.7042 54.7273 95.6654 54.8061C95.2737 55.2762 94.8819 55.7463 94.4902 56.1772C93.863 56.882 93.5891 57.0391 93.5108 57.1174C93.1578 57.3525 92.7273 57.6655 92.0221 57.783C91.1603 57.9401 90.4551 57.6655 90.2592 57.5483C89.5149 57.1954 89.1232 56.6077 88.9273 56.3339C88.418 55.5896 88.3396 54.8844 88.2609 54.3751C88.1826 53.905 88.1046 52.9256 88.4568 51.7892C88.7314 50.8885 89.1619 50.0659 89.7891 49.3607C89.8675 49.2823 89.8675 49.1648 89.7891 49.0865C89.7108 49.0081 89.5537 49.0081 89.4757 49.0865C88.8097 49.8304 88.3005 50.7318 88.0262 51.672C87.6733 52.8861 87.752 53.905 87.8304 54.4143C87.9087 54.9232 88.0262 55.7067 88.5743 56.5298C88.7702 56.8432 89.2015 57.4696 90.0634 57.8613C90.2984 57.9789 90.8073 58.1747 91.4737 58.1747C91.6695 58.1747 91.8654 58.1747 92.0613 58.136C92.8448 58.0184 93.3537 57.6267 93.7067 57.3912C93.863 57.2737 94.1768 57.0391 94.7644 56.4119C95.1953 55.9813 95.5871 55.5108 95.9788 55.0019C96.0176 54.9628 96.0176 54.8448 95.9396 54.7669Z" fill="#5E7DE9"/>
<path d="M92.2965 52.6114C91.7485 51.9842 91.1213 51.632 90.612 51.4361C90.4945 51.3965 90.3773 51.4753 90.3378 51.5536C90.2986 51.6712 90.3773 51.7883 90.4557 51.7883C90.8862 51.9454 91.4739 52.2588 91.9831 52.8464C92.1402 53.0423 92.6103 53.5907 92.7279 54.3742C92.7666 54.6876 92.7666 55.001 92.7279 55.3141C92.7279 55.4316 92.7666 55.5099 92.8842 55.5495C93.0021 55.5887 93.1196 55.5099 93.1196 55.3928C93.1584 55.0398 93.1584 54.6876 93.1196 54.3347C93.0021 53.434 92.4924 52.8464 92.2965 52.6114Z" fill="#5E7DE9"/>
<path d="M84.7743 14.6962H52.3764C49.9867 14.6962 48.028 16.6549 48.028 19.0446V88.189C48.028 90.5786 49.9867 92.5374 52.3764 92.5374H84.7743C87.164 92.5374 89.1228 90.5786 89.1228 88.189V19.0446C89.1228 16.6549 87.164 14.6962 84.7743 14.6962Z" fill="#5FC4EA"/>
<path d="M84.7355 16.3378H52.3376C50.849 16.3378 49.6345 17.5522 49.6345 19.0409V88.1852C49.6345 89.6739 50.849 90.8883 52.3376 90.8883H84.7355C86.2242 90.8883 87.4386 89.6739 87.4386 88.1852V19.0409C87.4386 17.5522 86.2242 16.3378 84.7355 16.3378Z" fill="#869DFF"/>
<mask id="mask1_327_15701" style="mask-type:luminance" maskUnits="userSpaceOnUse" x="56" y="37" width="48" height="47">
<path d="M56.7432 37.1559H103.483V83.8959H56.7432V37.1559Z" fill="white"/>
</mask>
<g mask="url(#mask1_327_15701)">
<path d="M73.1583 52.2865C77.2862 56.0129 82.6027 62.55 80.9483 64.8951L65.3362 65.1842C63.6175 62.8392 65.7377 56.6875 70.1708 52.399C63.3927 48.7047 67.0869 42.4567 71.6645 42.4567C76.2582 42.4567 79.7758 49.1545 73.1583 52.2865Z" fill="#2FA8D6"/>
<path d="M81.8317 68.3141H61.401C61.4171 67.27 61.4171 66.2422 61.4331 66.0975C61.7865 62.4836 62.172 54.6936 71.263 54.6936H72.05C73.3831 54.7097 74.0577 54.8863 75.0536 55.1273C79.2778 56.1233 80.7395 58.9179 81.3498 62.1142C81.5586 63.2546 81.7514 66.435 81.8317 68.3141Z" fill="#5EC3E9"/>
<path d="M75.343 47.8525C75.343 50.3421 73.7047 53.3777 71.6809 53.3777C69.6571 53.3777 68.0188 50.3421 68.0188 47.8525C68.0188 45.3629 69.6571 43.3391 71.6809 43.3391C73.7047 43.323 75.343 45.3468 75.343 47.8525Z" fill="#F5ABC1"/>
<path d="M75.696 45.3825C77.1416 50.2331 70.4438 46.298 69.7049 45.5431C69.5925 46.7156 68.5967 47.7917 68.5646 47.8078C68.42 47.9042 65.7055 48.1451 67.3599 45.2379C68.0024 44.1136 69.3034 42.9089 71.7127 42.9089C74.122 42.9089 75.3427 44.1457 75.696 45.3825Z" fill="#2FA8D6"/>
<path d="M68.6609 49.9112C69.0624 49.7827 69.223 49.1562 69.0142 48.5138C68.8054 47.8713 68.3075 47.4698 67.906 47.5982C67.5044 47.7267 67.3438 48.3532 67.5526 48.9956C67.7614 49.6381 68.2593 50.0396 68.6609 49.9112Z" fill="#F5ABC1"/>
<path d="M68.3076 49.3474C68.2915 49.3314 67.8739 49.0583 67.8578 48.6568C67.8418 48.448 67.9542 48.2392 68.1791 48.0625L68.2433 48.1267C68.0345 48.2874 67.9381 48.464 67.9542 48.6568C67.9703 49.0101 68.3558 49.2671 68.3718 49.2671L68.3076 49.3474Z" fill="#A2542E"/>
<path d="M75.7281 48.9772C75.9369 48.3347 75.7763 47.7083 75.3747 47.5798C74.9732 47.4513 74.4753 47.8529 74.2665 48.4953C74.0577 49.1378 74.2183 49.7642 74.6198 49.8927C75.0214 50.0212 75.5193 49.6197 75.7281 48.9772Z" fill="#F5ABC1"/>
<path d="M74.9248 49.4777C74.9409 49.4616 75.3585 49.1886 75.3746 48.787C75.3906 48.5782 75.2782 48.3694 75.0533 48.1927L74.9891 48.257C75.1979 48.4176 75.2943 48.5943 75.2782 48.787C75.2621 49.1404 74.8767 49.3974 74.8606 49.3974L74.9248 49.4777Z" fill="#A2542E"/>
<path d="M69.2551 48.0758L69.223 47.9473C69.2391 47.9473 69.6728 47.6903 70.0101 47.6742C70.4598 47.6421 70.781 47.7866 70.9095 48.0758L70.8131 48.14C70.251 47.4493 69.2712 48.0758 69.2551 48.0758Z" fill="#1333B4"/>
<path d="M74.3146 48.0758L74.3468 47.9473C74.3307 47.9473 73.897 47.6903 73.5597 47.6742C73.11 47.6421 72.7888 47.7866 72.6603 48.0758L72.7566 48.14C73.3188 47.4493 74.2986 48.0758 74.3146 48.0758Z" fill="#1333B4"/>
<path d="M70.7329 48.7183L70.6526 48.7656C70.6205 48.7183 70.5884 48.6709 70.5562 48.6394C70.5081 48.592 70.4599 48.5446 70.3956 48.5131C70.2671 48.4499 70.1386 48.4183 69.978 48.4499C69.9298 48.4499 69.8977 48.4657 69.8495 48.4815C69.5765 48.5762 69.3516 48.7656 69.3516 48.7656L69.2874 48.7025C69.3034 48.6867 69.5765 48.4341 69.9138 48.371H69.9459C70.1226 48.3394 70.2832 48.371 70.4117 48.4499C70.4277 48.4657 70.4599 48.4815 70.4759 48.4973C70.5884 48.5446 70.6687 48.6236 70.7329 48.7183Z" fill="#1333B4"/>
<path d="M70.4437 48.6719C70.4437 48.9076 70.3313 49.1119 70.1867 49.1119C70.0422 49.1119 69.9137 48.9076 69.9137 48.6719C69.9137 48.5776 69.9298 48.4833 69.9779 48.4048C70.1225 48.389 70.2671 48.389 70.4116 48.4833C70.4437 48.5305 70.4437 48.609 70.4437 48.6719Z" fill="#5EC3E9"/>
<path d="M74.2506 48.7665C74.2506 48.7665 73.9615 48.4976 73.6403 48.4501C73.4957 48.4185 73.3512 48.4501 73.2227 48.5134C73.1263 48.5608 73.046 48.6557 72.9657 48.7665L72.8854 48.719C72.9657 48.5925 73.0621 48.5134 73.1745 48.4501C73.319 48.371 73.4797 48.3394 73.6403 48.371C73.9936 48.4343 74.2988 48.7032 74.2988 48.719L74.2506 48.7665Z" fill="#1333B4"/>
<path d="M73.6883 48.7323C73.6883 48.7757 73.5759 48.8133 73.4313 48.8133C73.2867 48.8133 73.1743 48.7786 73.1743 48.7323C73.1743 48.7178 73.1904 48.7063 73.2064 48.6947C73.351 48.6802 73.5116 48.6773 73.6401 48.6802C73.6722 48.6976 73.6883 48.7149 73.6883 48.7323Z" fill="#5EC3E9"/>
<path d="M71.9213 50.4386C71.7928 50.4386 71.6483 50.3422 71.6322 50.3261L71.6964 50.2298C71.7607 50.278 71.8892 50.3422 71.9534 50.3101C71.9695 50.3101 71.9856 50.294 72.0016 50.2619C72.0498 50.1173 71.841 49.1697 71.6964 48.5593L71.8089 48.5272C71.841 48.6878 72.1783 50.0531 72.1141 50.278C72.098 50.3583 72.0498 50.3904 72.0016 50.4065C71.9695 50.4386 71.9534 50.4386 71.9213 50.4386Z" fill="#1333B4"/>
<path d="M66.2197 62.2302L65.8181 68.3175H65.6736L66.0751 62.1982L66.2197 62.2302Z" fill="#2FA8D6"/>
<path d="M73.3191 54.7607V54.7447V51.0986H70.1549V54.7447C70.1549 54.7447 70.2031 58.712 71.6808 58.7441C73.1585 58.7762 73.3191 54.7607 73.3191 54.7607Z" fill="#F5ABC1"/>
<path d="M77.543 68.316H77.3984L77.3181 67.0953L77.2218 65.6498L77.0451 63.0799L76.9808 62.2287L77.1254 62.2125L77.2057 63.3049L77.3503 65.6017L77.4466 67.1114L77.543 68.316Z" fill="#2FA8D6"/>
<path d="M70.3473 52.8503C70.3152 52.8181 70.2831 52.8021 70.2349 52.786L70.1707 52.8503C70.2028 52.8824 70.251 52.8984 70.2831 52.9306C70.5883 53.1394 71.0862 53.3803 71.6644 53.4285V53.3482C71.1183 53.3 70.6525 53.043 70.3473 52.8503Z" fill="#B16B37"/>
<path d="M70.5562 48.7013C70.5562 48.953 70.3956 49.1418 70.1868 49.1418C69.978 49.1418 69.8174 48.9373 69.8174 48.7013C69.8174 48.6226 69.8334 48.544 69.8656 48.4811C69.8816 48.4339 69.9138 48.4024 69.9459 48.3709H69.978C70.1547 48.3395 70.3153 48.3709 70.4438 48.4496C70.4599 48.4653 70.492 48.4811 70.508 48.4968C70.5241 48.544 70.5402 48.5912 70.5562 48.6541V48.7013Z" fill="#1333B4"/>
<path d="M73.6721 48.3754C73.7042 48.4068 73.7203 48.4383 73.7524 48.4855C73.7846 48.5484 73.8006 48.6271 73.8006 48.7057C73.8006 48.9574 73.64 49.1462 73.4312 49.1462C73.2224 49.1462 73.0618 48.9417 73.0618 48.7057V48.6428C73.0618 48.5956 73.0778 48.5327 73.11 48.4855L73.6721 48.3754Z" fill="#1333B4"/>
<path d="M71.4079 51.5969C71.6809 51.5969 71.9861 51.4845 72.3073 51.2596L72.2431 51.1633C71.8736 51.4202 71.5363 51.5166 71.2151 51.4524C70.7814 51.3721 70.5566 50.9866 70.5566 50.9866L70.4602 51.0348C70.4602 51.0508 70.7011 51.4524 71.183 51.5648C71.2633 51.5809 71.3275 51.5969 71.4079 51.5969Z" fill="#1333B4"/>
<path d="M68.3719 49.9421C68.4682 49.8457 68.4682 49.669 68.3719 49.5726C68.2755 49.4763 68.0988 49.4763 68.0025 49.5726C67.9061 49.669 67.9061 49.8457 68.0025 49.9421C68.0988 50.0384 68.2755 50.0545 68.3719 49.9421Z" fill="#869DFF"/>
<path d="M75.391 49.9421C75.4874 49.8457 75.4874 49.669 75.391 49.5726C75.2947 49.4763 75.118 49.4763 75.0216 49.5726C74.9252 49.669 74.9252 49.8457 75.0216 49.9421C75.118 50.0545 75.2947 50.0545 75.391 49.9421Z" fill="#869DFF"/>
<path d="M70.1549 54.7115L71.6165 55.7716L73.3191 54.7276V54.7597L71.6165 55.8038L70.1549 54.7437V54.7115Z" fill="#E4CFBD"/>
<path d="M71.7927 55.9146C71.889 55.8182 71.889 55.6415 71.7927 55.5452C71.6963 55.4488 71.5196 55.4488 71.4232 55.5452C71.3269 55.6415 71.3269 55.8182 71.4232 55.9146C71.5357 56.027 71.6963 56.027 71.7927 55.9146Z" fill="#869DFF"/>
<path d="M58.8351 52.7225L58.3123 52.4897C58.1437 52.3813 57.5873 52.2762 57.4785 52.4536C57.3242 52.705 57.6504 52.9598 57.9166 53.0992L58.7215 53.4717C58.8962 53.554 58.9445 53.2248 58.9445 53.2248C59.053 53.0567 59.0039 52.8307 58.8351 52.7225Z" fill="#F5ABC1"/>
<path d="M63.2906 57.0715C63.2132 56.8282 63.1461 56.213 63.17 56.0411C63.1941 55.8691 63.1971 54.6304 63.0361 54.0482C62.8752 53.466 62.9267 53.1973 62.8777 52.9896C62.782 52.5828 62.7877 52.3084 62.7533 51.8015C62.7116 51.1904 62.1816 51.8825 62.1765 52.2086C62.1712 52.5348 62.2115 53.626 62.1222 53.9199C62.0327 54.2139 61.7906 54.0735 61.691 54.0242C60.4917 53.4306 60.3135 53.4483 59.7023 53.2319C59.1903 53.0509 58.7804 52.9233 58.6439 53.1651C58.54 53.416 58.7025 53.5227 58.784 53.6199C58.6796 53.6309 58.576 53.6927 58.508 53.7962C58.3936 53.9706 58.4456 54.1507 58.5949 54.2564L58.6594 54.3013C58.5627 54.3148 58.5296 54.3935 58.4677 54.4876C58.4368 54.5348 58.4287 54.5874 58.4247 54.6293C58.4233 54.7174 58.42 54.7961 58.5004 54.8576C58.5408 54.8984 58.5856 54.9385 58.6298 54.9748C58.5492 54.9654 58.4835 55.0583 58.4673 55.1448C58.4673 55.1448 58.4213 55.2421 58.6397 55.4209L59.0937 55.8679C59.3169 56.1654 60.148 56.4371 61.1099 57.0084C61.3979 57.1794 61.4254 57.5644 61.4333 58.0429C61.436 58.1995 61.3845 64.0839 61.3845 64.0839L64.4518 64.1101C64.4518 64.1101 63.598 58.0384 63.2906 57.0715Z" fill="#F5ABC1"/>
<path d="M65.3577 51.8823L59.228 52.2126C58.8736 52.2318 58.6019 52.5343 58.6209 52.8885L58.8138 56.472C58.8234 56.6492 58.9749 56.7849 59.152 56.7753L65.9232 56.4106C66.1004 56.4012 66.2363 56.2497 66.2267 56.0726L66.0337 52.4892C66.0147 52.135 65.712 51.8633 65.3577 51.8823Z" fill="#D6DBF0"/>
<path d="M65.4744 53.6193L64.9715 53.6465C64.9296 53.6487 64.8973 53.6846 64.8997 53.7265C64.902 53.7684 64.9376 53.8008 64.9794 53.7986L65.4826 53.7714C65.5244 53.769 65.5565 53.7331 65.5543 53.6911C65.552 53.6492 65.5162 53.6171 65.4744 53.6193Z" fill="#5EC3E9"/>
<path d="M65.4869 54.075L64.9742 54.1027C64.9322 54.1049 64.9002 54.141 64.9024 54.1829C64.9046 54.2247 64.9404 54.257 64.9822 54.2548L65.4951 54.2268C65.5369 54.2246 65.569 54.1889 65.5667 54.1468C65.5645 54.1049 65.5287 54.0728 65.4869 54.075Z" fill="#5EC3E9"/>
<path d="M65.5228 54.5291L65.0199 54.5563C64.9779 54.5585 64.9457 54.5944 64.9481 54.6363C64.9503 54.6782 64.9859 54.7106 65.0277 54.7084L65.5307 54.6809C65.5726 54.6786 65.6048 54.6429 65.6026 54.6009C65.6004 54.559 65.5646 54.5269 65.5228 54.5291Z" fill="#5EC3E9"/>
<path d="M65.5362 54.9847L65.0233 55.0125C64.9815 55.0148 64.9495 55.0506 64.9517 55.0927C64.9539 55.1346 64.9897 55.1667 65.0315 55.1644L65.5444 55.1368C65.5862 55.1344 65.6183 55.0985 65.616 55.0565C65.6138 55.0146 65.578 54.9825 65.5362 54.9847Z" fill="#5EC3E9"/>
<path d="M65.5606 55.4387L65.0477 55.4663C65.0059 55.4686 64.9739 55.5046 64.9761 55.5465C64.9784 55.5884 65.014 55.6207 65.0558 55.6184L65.5687 55.5904C65.6106 55.5882 65.6427 55.5525 65.6405 55.5105C65.6382 55.4686 65.6024 55.4365 65.5606 55.4387Z" fill="#5EC3E9"/>
<path d="M64.6934 53.664L64.4561 53.6768C64.4142 53.6791 64.3819 53.7148 64.3841 53.7567C64.3864 53.7987 64.4224 53.8309 64.4642 53.8286L64.7015 53.8158C64.7436 53.8135 64.7757 53.7777 64.7735 53.7358C64.7712 53.6939 64.7353 53.6616 64.6934 53.664Z" fill="#5EC3E9"/>
<path d="M64.7428 54.5736L64.5054 54.5866C64.4635 54.5889 64.4312 54.6248 64.4335 54.6667C64.4357 54.7086 64.4717 54.7407 64.5136 54.7384L64.751 54.7258C64.7929 54.7234 64.825 54.6875 64.8228 54.6454C64.8205 54.6035 64.7847 54.5714 64.7428 54.5736Z" fill="#5EC3E9"/>
<path d="M64.7179 54.118L64.4805 54.131C64.4386 54.1332 64.4063 54.1689 64.4086 54.211C64.4108 54.2529 64.4467 54.285 64.4886 54.2827L64.7259 54.2697C64.768 54.2675 64.8001 54.2318 64.7979 54.1897C64.7956 54.1478 64.7597 54.1157 64.7179 54.118Z" fill="#5EC3E9"/>
<path d="M64.7669 55.0276L64.5294 55.0406C64.4875 55.0429 64.4554 55.0784 64.4576 55.1203C64.4599 55.1624 64.4957 55.1947 64.5376 55.1924L64.7752 55.1794C64.8171 55.1772 64.8492 55.1413 64.8469 55.0994C64.8447 55.0575 64.809 55.0254 64.7669 55.0276Z" fill="#5EC3E9"/>
<path d="M64.7911 55.4833L64.5537 55.4963C64.5118 55.4986 64.4796 55.5344 64.4818 55.5763C64.484 55.6182 64.5201 55.6503 64.562 55.6481L64.7992 55.6351C64.8412 55.6329 64.8733 55.5971 64.8711 55.5551C64.8689 55.5132 64.833 55.4811 64.7911 55.4833Z" fill="#5EC3E9"/>
<path d="M61.8874 53.8141L61.65 53.8271C61.6082 53.8294 61.5759 53.8649 61.5781 53.9068C61.5803 53.9489 61.6162 53.9812 61.6581 53.9789L61.8955 53.9659C61.9375 53.9637 61.9697 53.9278 61.9674 53.8859C61.9652 53.844 61.9293 53.8119 61.8874 53.8141Z" fill="#5EC3E9"/>
<path d="M61.9012 54.2642L61.6637 54.2772C61.6219 54.2794 61.5897 54.3153 61.5919 54.3572C61.5941 54.3991 61.63 54.4312 61.6719 54.429L61.9093 54.4163C61.9513 54.4139 61.9835 54.378 61.9812 54.336C61.979 54.2941 61.9431 54.262 61.9012 54.2642Z" fill="#5EC3E9"/>
<path d="M61.9256 54.7255L61.6883 54.7385C61.6464 54.7407 61.6141 54.7763 61.6163 54.8182C61.6186 54.8602 61.6546 54.8925 61.6963 54.8903L61.9338 54.8773C61.9757 54.8751 62.0079 54.8393 62.0056 54.7973C62.0034 54.7554 61.9675 54.7233 61.9256 54.7255Z" fill="#5EC3E9"/>
<path d="M61.9609 55.1795L61.7235 55.1923C61.6816 55.1946 61.6494 55.2303 61.6516 55.2722C61.654 55.3142 61.6899 55.3464 61.7318 55.3441L61.9691 55.3313C62.011 55.3291 62.0431 55.2932 62.0409 55.2513C62.0387 55.2094 62.0028 55.1771 61.9609 55.1795Z" fill="#5EC3E9"/>
<path d="M61.9851 55.6352L61.7477 55.6482C61.7058 55.6504 61.6735 55.6863 61.6758 55.7282C61.678 55.7701 61.7139 55.8022 61.7558 55.8L61.9931 55.787C62.0352 55.7847 62.0673 55.749 62.0651 55.7069C62.0628 55.665 62.027 55.6329 61.9851 55.6352Z" fill="#5EC3E9"/>
<path d="M63.7924 53.7096L62.1433 53.7989C62.1014 53.8011 62.0693 53.8368 62.0716 53.8789C62.0738 53.9207 62.1096 53.9528 62.1514 53.9506L63.8005 53.8614C63.8424 53.8591 63.8745 53.8234 63.8723 53.7814C63.87 53.7395 63.8342 53.7074 63.7924 53.7096Z" fill="#5EC3E9"/>
<path d="M63.8106 54.1632L62.1789 54.2513C62.1369 54.2535 62.1049 54.2894 62.1071 54.3313C62.1093 54.3732 62.1451 54.4053 62.1871 54.403L63.8187 54.315C63.8606 54.3127 63.8927 54.2769 63.8904 54.235C63.8882 54.1931 63.8524 54.1608 63.8106 54.1632Z" fill="#5EC3E9"/>
<path d="M63.8531 54.6175L62.2038 54.7065C62.162 54.7088 62.13 54.7447 62.1322 54.7865C62.1345 54.8284 62.1702 54.8607 62.2121 54.8583L63.8611 54.7694C63.9031 54.767 63.9352 54.7313 63.9329 54.6892C63.9307 54.6473 63.8949 54.6152 63.8531 54.6175Z" fill="#5EC3E9"/>
<path d="M63.86 55.0731L62.2283 55.1614C62.1864 55.1636 62.1543 55.1993 62.1565 55.2412C62.1588 55.2832 62.1946 55.3153 62.2364 55.3131L63.8681 55.2249C63.9101 55.2226 63.9421 55.1869 63.9399 55.1449C63.9376 55.103 63.9018 55.0709 63.86 55.0731Z" fill="#5EC3E9"/>
<path d="M63.8846 55.5303L62.2528 55.6185C62.2109 55.6207 62.1788 55.6564 62.1812 55.6983C62.1834 55.7404 62.2191 55.7725 62.261 55.7702L63.8928 55.6822C63.9346 55.6798 63.9666 55.6441 63.9644 55.602C63.9622 55.5602 63.9264 55.528 63.8846 55.5303Z" fill="#5EC3E9"/>
<path d="M60.507 53.8894L59.721 53.9318C59.4552 53.9461 59.2515 54.1731 59.2658 54.4388L59.324 55.522C59.3385 55.7877 59.5655 55.9916 59.8312 55.9772L60.6172 55.9349C60.883 55.9207 61.0867 55.6935 61.0725 55.4277L61.0142 54.3446C60.9997 54.0788 60.7728 53.8751 60.507 53.8894Z" fill="#5EC3E9"/>
<path d="M58.6043 52.5641C58.5947 52.387 58.7304 52.2355 58.9076 52.2261L65.6791 51.8614C65.8563 51.8518 66.0076 51.9877 66.0171 52.1648L66.057 52.9047L58.6442 53.304L58.6043 52.5641Z" fill="#5EC3E9"/>
<path d="M65.0775 52.2675L65.1695 52.2626L65.1886 52.615L65.0965 52.6201L65.0775 52.2675Z" fill="white"/>
<path d="M65.2346 52.2559L65.3881 52.2478C65.4237 52.2458 65.4557 52.2515 65.484 52.2643C65.5124 52.2773 65.535 52.2965 65.5515 52.3224C65.568 52.3482 65.5773 52.3786 65.5792 52.4141C65.5812 52.4497 65.5752 52.4812 65.5614 52.5085C65.5476 52.5358 65.5275 52.5575 65.5007 52.5734C65.474 52.5892 65.4428 52.5982 65.4072 52.6001L65.2535 52.6084L65.2346 52.2559ZM65.3993 52.5207C65.4272 52.5192 65.4492 52.5096 65.4651 52.4917C65.481 52.4736 65.4883 52.4495 65.4867 52.4194C65.4851 52.3891 65.4753 52.3658 65.4575 52.3497C65.4397 52.3335 65.4168 52.3262 65.389 52.3277L65.3308 52.331L65.3413 52.5245L65.3993 52.5212L65.3993 52.5207Z" fill="white"/>
<path d="M63.6363 52.4116L62.0734 52.4961C62.0316 52.4984 61.9993 52.5341 62.0016 52.5761C62.004 52.618 62.0396 52.6501 62.0816 52.6479L63.6443 52.5634C63.6863 52.5611 63.7183 52.5254 63.7161 52.4834C63.7139 52.4415 63.6781 52.4094 63.6363 52.4116Z" fill="#F5F6FF"/>
<path d="M61.7319 52.5167L59.2458 52.6509C59.204 52.6532 59.1719 52.6889 59.1741 52.7309C59.1764 52.7728 59.212 52.8049 59.2538 52.8027L61.7399 52.6684C61.7817 52.6661 61.8138 52.6303 61.8115 52.5884C61.8093 52.5465 61.7737 52.5143 61.7319 52.5167Z" fill="#F5F6FF"/>
<path d="M60.5277 54.7622C60.5318 54.8369 60.5154 54.9112 60.4803 54.9756C60.4453 55.0397 60.3934 55.0913 60.3312 55.1232C60.2688 55.1553 60.1991 55.1666 60.1305 55.1556C60.0619 55.1447 59.9977 55.1119 59.9461 55.0617C59.8944 55.0115 59.8575 54.9458 59.84 54.8731C59.8227 54.8005 59.8254 54.7241 59.848 54.6535C59.8708 54.583 59.9124 54.5215 59.9676 54.4767C60.0227 54.4321 60.089 54.4063 60.1581 54.4026C60.204 54.4001 60.2501 54.4074 60.2935 54.4242C60.337 54.4409 60.3767 54.4666 60.411 54.5001C60.4454 54.5334 60.4735 54.5738 60.4935 54.6188C60.5135 54.6638 60.5251 54.7125 60.5277 54.7622Z" fill="#F5F6FF"/>
<path d="M60.7843 55.9262L60.7618 55.5088C60.7581 55.4392 60.7364 55.3722 60.6998 55.3167C60.6633 55.2612 60.6135 55.2196 60.557 55.1976L60.3421 55.1143L60.053 55.1298L59.8481 55.2359C59.7943 55.2638 59.7493 55.3105 59.7189 55.3696C59.6884 55.4288 59.674 55.4978 59.6777 55.5674L59.7002 55.9848L60.7843 55.9262Z" fill="white"/>
<path d="M60.5654 68.2311L65.0621 68.302L64.5425 61.0672L64.5399 61.0487L64.5346 61.0119L64.3286 60.9904L64.11 60.9678L63.9863 60.9548L62.9755 60.8497L62.81 60.8325L61.4131 60.6874L61.3372 60.6796L61.212 60.674L60.7727 60.6548L60.7726 60.6601L60.5654 68.2311Z" fill="#5EC3E9"/>
<path d="M64.4625 61.0719L64.9823 68.3001L65.1292 68.3024L64.6077 61.0626L64.5429 61.0665L64.54 61.0668L64.4625 61.0719Z" fill="#5E7DE9"/>
<path d="M64.462 61.0738L64.3016 61.0853L64.2902 60.924L64.4515 60.9135L64.462 61.0738ZM64.9817 68.3021L64.9792 68.4627L64.8321 68.4604L64.8216 68.3137L64.9817 68.3021ZM65.1287 68.3044L65.2889 68.2929L65.3015 68.4678L65.1262 68.465L65.1287 68.3044ZM64.607 61.0645L64.5968 60.9042L64.7559 60.894L64.7672 61.0529L64.607 61.0645ZM64.5422 61.0685L64.5525 61.2288L64.552 61.2288L64.5422 61.0685ZM64.5393 61.0688L64.5288 60.9085L64.5296 60.9085L64.5393 61.0688ZM64.6221 61.0622L65.1419 68.2906L64.8216 68.3137L64.3016 61.0853L64.6221 61.0622ZM64.9843 68.1415L65.1312 68.1438L65.1262 68.465L64.9792 68.4627L64.9843 68.1415ZM64.9685 68.316L64.4468 61.076L64.7672 61.0529L65.2889 68.2929L64.9685 68.316ZM64.6173 61.2247L64.5525 61.2288L64.532 60.9084L64.5968 60.9042L64.6173 61.2247ZM64.552 61.2288L64.5491 61.2291L64.5296 60.9085L64.5325 60.9082L64.552 61.2288ZM64.5498 61.2291L64.4723 61.234L64.4515 60.9135L64.5288 60.9085L64.5498 61.2291Z" fill="#2FA8D6"/>
<path d="M58.3387 54.0896L58.731 54.2722C58.8981 54.3826 59.4531 54.4956 59.5643 54.3197C59.7221 54.0705 59.3993 53.8113 59.1352 53.668L58.6177 53.4242C58.3096 53.3483 58.2365 53.586 58.2365 53.586C58.1143 53.8562 58.1716 53.9792 58.3387 54.0896Z" fill="#F5ABC1"/>
<path d="M58.3663 54.7871L58.7168 54.9501C58.8661 55.049 59.362 55.1498 59.4615 54.9925C59.6025 54.7698 59.3139 54.5383 59.0781 54.4103L58.6155 54.1924C58.3402 54.1246 58.2747 54.337 58.2747 54.337C58.1562 54.5621 58.217 54.6884 58.3663 54.7871Z" fill="#F5ABC1"/>
<path d="M58.3954 55.3775L58.6944 55.5167C58.8217 55.6008 59.2446 55.687 59.3296 55.5529C59.4497 55.363 59.2037 55.1654 59.0023 55.0562L58.6078 54.8704C58.3731 54.8125 58.285 55.0197 58.285 55.0197C58.2229 55.1877 58.268 55.2933 58.3954 55.3775Z" fill="#F5ABC1"/>
<path d="M58.3785 54.0657L58.3801 54.1674C58.5954 54.2806 58.8049 54.3588 58.9787 54.4117C59.0265 54.4263 59.0731 54.4395 59.1175 54.4511L59.127 54.3618C59.0868 54.3511 59.0451 54.3392 59.0022 54.3261C58.8219 54.271 58.6022 54.1878 58.3785 54.0657Z" fill="#5E7DE9"/>
<path d="M58.3905 54.7837L58.3923 54.8827C58.5604 54.9617 58.7212 55.0197 58.8594 55.0618C58.9072 55.0764 58.9536 55.0896 58.9982 55.1014L59.0076 55.0119C58.9673 55.0011 58.9257 54.9893 58.8829 54.9763C58.7382 54.932 58.5678 54.8697 58.3905 54.7837Z" fill="#F5ABC1"/>
</g>
<path d="M52.1034 15.87H85.0106C86.5384 15.87 87.7528 17.0848 87.7528 18.5731V87.5607C87.7528 89.0498 86.4992 90.2638 85.0106 90.2638H52.1034C50.5755 90.2638 49.3611 89.0498 49.3611 87.5607V18.5731C49.3611 17.0848 50.6147 15.87 52.1034 15.87ZM68.7528 64.4473C75.7652 64.4473 81.4848 57.5916 81.4848 49.169C81.4848 40.7463 75.7652 33.8906 68.7528 33.8906C61.7405 33.8906 56.0209 40.7463 56.0209 49.169C56.0209 57.5916 61.7405 64.4473 68.7528 64.4473Z" fill="white"/>
<path d="M49.3611 72.5571H87.9095V88.1489C87.9095 89.8726 86.4992 91.2829 84.7755 91.2829H52.4951C50.7714 91.2829 49.3611 89.8726 49.3611 88.1489V72.5571Z" fill="#5FC4EA"/>
<path d="M49.3611 26.0947H87.9095V19.004C87.9095 17.2803 86.4992 15.87 84.7755 15.87H52.4951C50.7714 15.87 49.3611 17.2803 49.3611 19.004V26.0947Z" fill="#5FC4EA"/>
<path d="M68.7913 77.4956C71.2362 77.4956 73.2185 79.4775 73.2185 81.9224C73.2185 84.3669 71.2362 86.3492 68.7913 86.3492C66.3468 86.3492 64.3645 84.3669 64.3645 81.9224C64.3645 79.4775 66.3468 77.4956 68.7913 77.4956Z" stroke="white" stroke-width="0.196319"/>
<path d="M68.7914 78.5099C70.6742 78.5099 72.1996 80.0362 72.1996 81.9181C72.1996 83.8005 70.6742 85.3264 68.7914 85.3264C66.909 85.3264 65.3835 83.8005 65.3835 81.9181C65.3835 80.0362 66.909 78.5099 68.7914 78.5099Z" fill="white"/>
<path d="M94.6084 70.7939C93.5115 70.4021 92.4538 70.8335 92.0229 71.0293C91.3177 71.3423 91.1218 71.617 90.0641 72.5176C88.4579 73.8496 87.9095 74.0454 86.0291 75.6516C85.0105 76.5526 84.893 76.7485 84.7754 76.9836C84.0311 78.6289 85.4022 80.5485 85.4806 80.7052C85.7157 81.019 86.2641 81.763 87.2827 82.1155C87.5961 82.2331 88.0662 82.3114 88.693 82.2722C90.0249 82.1943 91.1218 81.5671 92.8847 80.3135C94.9218 78.8644 95.862 78.0809 96.293 77.5712C97.5074 76.0434 97.3115 74.0846 96.4497 72.5176C96.2146 72.1258 95.6662 71.1856 94.6084 70.7939Z" fill="#E78E80"/>
<path d="M94.5297 78.5129C94.5297 78.5129 91.0435 81.7253 88.8493 81.9212C88.771 81.9212 87.9095 81.9995 87.439 81.8428C86.8905 81.6861 86.5384 81.3727 86.2246 81.0985C85.6761 80.6284 85.3631 80.0799 85.206 79.8057C85.1672 79.7665 85.1672 79.7274 85.1277 79.6882C84.7359 79.0222 84.6184 78.3562 84.7755 77.6902C85.206 76.0057 87.439 74.6737 88.771 73.8902C89.2806 73.616 89.5936 73.381 89.7895 73.2243C89.8287 73.1851 89.8287 73.1459 89.7895 73.1067L89.5936 72.95C89.5545 72.9109 89.5153 72.9109 89.5153 72.95C89.3586 73.0676 89.006 73.3026 88.6143 73.5377C87.2431 74.3603 84.9318 75.7315 84.4617 77.5727C84.2658 78.3562 84.4225 79.1006 84.8534 79.8841C84.8926 79.9232 84.8926 79.9624 84.9318 80.0016C85.0885 80.315 85.4411 80.9026 86.0287 81.4119C86.3813 81.7253 86.773 82.0387 87.3998 82.2346C87.674 82.3129 87.9095 82.3521 88.1054 82.3521C90.4947 82.7047 94.6864 79.2573 94.9215 78.748C95.0782 78.3562 94.6081 78.4346 94.5297 78.5129Z" fill="#5E7DE9"/>
<path d="M68.7519 33.8861C75.7834 33.8861 81.4838 40.7265 81.4838 49.1645C81.4838 57.6024 75.7834 64.4428 68.7519 64.4428C61.7203 64.4428 56.0199 57.6024 56.0199 49.1645C56.0199 40.7265 61.7203 33.8861 68.7519 33.8861Z" stroke="white" stroke-width="0.588958" stroke-linecap="round" stroke-dasharray="2.16 2.16"/>
<path d="M68.7442 33.8861C75.7757 33.8861 81.4761 40.7265 81.4761 49.1645C81.4761 57.6024 75.7757 64.4428 68.7442 64.4428C61.7126 64.4428 56.0122 57.6024 56.0122 49.1645C56.0122 40.7265 61.7126 33.8861 68.7442 33.8861Z" stroke="white" stroke-width="0.588958" stroke-linecap="round" stroke-dasharray="2.16 2.16"/>
<path d="M5.10247 37.9684L3.82714 37.4005C3.41602 37.1363 2.05898 36.8798 1.79357 37.3125C1.41716 37.9257 2.21287 38.5471 2.86218 38.8872L4.82521 39.7958C5.25144 39.9964 5.36912 39.1935 5.36912 39.1935C5.63379 38.7835 5.51399 38.2323 5.10247 37.9684Z" fill="#F5ABC1"/>
<path d="M15.9697 48.585C15.7808 47.9916 15.6172 46.4912 15.6755 46.0717C15.7343 45.6522 15.7415 42.6312 15.349 41.211C14.9564 39.7912 15.082 39.1357 14.9626 38.6292C14.7291 37.637 14.7431 36.9676 14.6592 35.7313C14.5573 34.2409 13.2648 35.9288 13.2522 36.7243C13.2393 37.5199 13.3376 40.1813 13.1199 40.898C12.9017 41.6151 12.3112 41.2728 12.0682 41.1526C9.14308 39.7046 8.70829 39.7479 7.21757 39.2202C5.96881 38.7785 4.96914 38.4674 4.63621 39.0572C4.38287 39.6692 4.77919 39.9293 4.97801 40.1663C4.72331 40.1933 4.47057 40.3441 4.30478 40.5965C4.02577 41.0219 4.15245 41.4612 4.51669 41.7188L4.67403 41.8283C4.43804 41.8614 4.35744 42.0533 4.2065 42.2828C4.13103 42.398 4.11138 42.5262 4.10154 42.6283C4.09815 42.8434 4.09003 43.0352 4.28631 43.1852C4.38465 43.2847 4.49399 43.3825 4.60191 43.4711C4.40519 43.4481 4.2449 43.6747 4.20553 43.8857C4.20553 43.8857 4.09326 44.1229 4.6259 44.5592L5.73318 45.6494C6.27771 46.3749 8.30463 47.0377 10.6507 48.4311C11.3533 48.8481 11.4204 49.7871 11.4396 50.9542C11.4461 51.3363 11.3206 65.6883 11.3206 65.6883L18.8018 65.7522C18.8018 65.7522 16.7193 50.9433 15.9697 48.585Z" fill="#F5ABC1"/>
<path d="M21.0115 35.9181L6.06102 36.7238C5.19675 36.7706 4.53395 37.5085 4.58028 38.3723L5.05099 47.1126C5.07435 47.5447 5.44369 47.8757 5.87582 47.8524L22.3909 46.9627C22.8231 46.9398 23.1545 46.5704 23.1311 46.1383L22.6604 37.3984C22.6141 36.5346 21.8758 35.8717 21.0115 35.9181Z" fill="#E7E9F4"/>
<path d="M21.2946 40.1649L20.068 40.2312C19.9656 40.2366 19.887 40.3241 19.8929 40.4263C19.8983 40.5285 19.9852 40.6076 20.0872 40.6021L21.3146 40.5359C21.4166 40.53 21.4947 40.4425 21.4893 40.34C21.4838 40.2378 21.3965 40.1595 21.2946 40.1649Z" fill="#5EC3E9"/>
<path d="M21.3266 41.2771L20.0761 41.3446C19.9737 41.35 19.8955 41.4379 19.901 41.5401C19.9064 41.6422 19.9937 41.721 20.0957 41.7155L21.3466 41.6473C21.4486 41.6418 21.5268 41.5547 21.5213 41.4522C21.5159 41.35 21.4286 41.2717 21.3266 41.2771Z" fill="#5EC3E9"/>
<path d="M21.4142 42.3816L20.1876 42.4479C20.0852 42.4533 20.0067 42.5408 20.0125 42.643C20.0179 42.7451 20.1049 42.8242 20.2068 42.8188L21.4334 42.7517C21.5358 42.7463 21.6144 42.6592 21.6089 42.5566C21.6035 42.4545 21.5162 42.3762 21.4142 42.3816Z" fill="#5EC3E9"/>
<path d="M21.4461 43.494L20.1952 43.5619C20.0932 43.5673 20.015 43.6548 20.0205 43.7574C20.0259 43.8595 20.1132 43.9379 20.2152 43.9324L21.4661 43.865C21.5681 43.8591 21.6463 43.7716 21.6408 43.6691C21.6354 43.5669 21.5481 43.4886 21.4461 43.494Z" fill="#5EC3E9"/>
<path d="M21.506 44.599L20.2551 44.6665C20.1532 44.6719 20.075 44.7598 20.0804 44.862C20.0859 44.9641 20.1728 45.0428 20.2747 45.0374L21.5257 44.9692C21.628 44.9637 21.7062 44.8766 21.7008 44.7741C21.6953 44.6719 21.608 44.5936 21.506 44.599Z" fill="#5EC3E9"/>
<path d="M19.3897 40.2649L18.812 40.2962C18.7101 40.3017 18.6315 40.3888 18.6369 40.4909C18.6424 40.5935 18.7301 40.6718 18.8317 40.6664L19.4093 40.635C19.5116 40.6296 19.5898 40.5421 19.5844 40.4399C19.5789 40.3377 19.4916 40.259 19.3897 40.2649Z" fill="#5EC3E9"/>
<path d="M19.509 42.4817L18.9314 42.5135C18.8294 42.5189 18.7509 42.6064 18.7563 42.7086C18.7618 42.8108 18.8495 42.8891 18.9514 42.8836L19.5291 42.8527C19.631 42.8468 19.7092 42.7593 19.7038 42.6568C19.6983 42.5546 19.611 42.4763 19.509 42.4817Z" fill="#5EC3E9"/>
<path d="M19.4498 41.3769L18.8722 41.4086C18.7702 41.4141 18.6917 41.5012 18.6971 41.6037C18.7026 41.7059 18.7899 41.7842 18.8918 41.7788L19.4695 41.747C19.5718 41.7416 19.65 41.6545 19.6446 41.5519C19.6391 41.4498 19.5518 41.3714 19.4498 41.3769Z" fill="#5EC3E9"/>
<path d="M19.569 43.5939L18.991 43.6256C18.889 43.6311 18.8108 43.7178 18.8163 43.82C18.8217 43.9226 18.909 44.0013 19.011 43.9958L19.589 43.9641C19.691 43.9586 19.7691 43.8711 19.7637 43.769C19.7583 43.6668 19.6713 43.5885 19.569 43.5939Z" fill="#5EC3E9"/>
<path d="M19.6286 44.7005L19.0509 44.7322C18.949 44.7377 18.8704 44.8252 18.8758 44.9273C18.8813 45.0295 18.969 45.1079 19.0709 45.1024L19.6482 45.0707C19.7505 45.0652 19.8287 44.9781 19.8233 44.8755C19.8178 44.7734 19.7305 44.695 19.6286 44.7005Z" fill="#5EC3E9"/>
<path d="M12.5454 40.6374L11.9678 40.6691C11.8658 40.6746 11.7873 40.7613 11.7927 40.8635C11.7981 40.966 11.8855 41.0447 11.9874 41.0393L12.5651 41.0075C12.6674 41.0021 12.7456 40.9146 12.7401 40.8124C12.7347 40.7103 12.6474 40.6319 12.5454 40.6374Z" fill="#5EC3E9"/>
<path d="M12.5794 41.744L12.0013 41.7757C11.8998 41.7811 11.8212 41.8686 11.8266 41.9708C11.8321 42.073 11.9194 42.1513 12.0214 42.1458L12.599 42.1149C12.7013 42.1091 12.7795 42.0216 12.7741 41.919C12.7686 41.8168 12.6813 41.7385 12.5794 41.744Z" fill="#5EC3E9"/>
<path d="M12.6387 42.8559L12.0611 42.8876C11.9591 42.8931 11.8806 42.9798 11.886 43.082C11.8915 43.1845 11.9792 43.2632 12.0807 43.2578L12.6588 43.2261C12.7607 43.2206 12.8389 43.1335 12.8335 43.0309C12.828 42.9288 12.7407 42.8504 12.6387 42.8559Z" fill="#5EC3E9"/>
<path d="M12.7247 43.9609L12.147 43.9923C12.0451 43.9977 11.9665 44.0848 11.972 44.187C11.9778 44.2896 12.0651 44.3679 12.1671 44.3624L12.7447 44.3311C12.8467 44.3256 12.9248 44.2381 12.9194 44.136C12.914 44.0338 12.8266 43.9551 12.7247 43.9609Z" fill="#5EC3E9"/>
<path d="M12.7844 45.0713L12.2067 45.1031C12.1048 45.1085 12.0262 45.196 12.0317 45.2982C12.0371 45.4004 12.1244 45.4787 12.2264 45.4732L12.804 45.4415C12.9064 45.4361 12.9845 45.3489 12.9791 45.2464C12.9736 45.1442 12.8863 45.0659 12.7844 45.0713Z" fill="#5EC3E9"/>
<path d="M17.1939 40.3878L13.1718 40.6049C13.0694 40.6104 12.9913 40.6973 12.9967 40.7996C13.0021 40.9016 13.0895 40.9797 13.1914 40.9743L17.2135 40.7572C17.3159 40.7517 17.394 40.6648 17.3886 40.5625C17.3832 40.4605 17.2958 40.3823 17.1939 40.3878Z" fill="#5EC3E9"/>
<path d="M17.2392 41.4954L13.2595 41.7097C13.1571 41.7152 13.079 41.8025 13.0844 41.9044C13.0898 42.0064 13.1772 42.0845 13.2795 42.0791L17.2589 41.8648C17.3612 41.8594 17.4394 41.7721 17.4339 41.6701C17.4285 41.5682 17.3412 41.4896 17.2392 41.4954Z" fill="#5EC3E9"/>
<path d="M17.341 42.5992L13.3185 42.8159C13.2165 42.8214 13.1383 42.9087 13.1438 43.0107C13.1492 43.1126 13.2365 43.1912 13.3385 43.1853L17.3606 42.969C17.463 42.9632 17.5411 42.8762 17.5357 42.7739C17.5303 42.6719 17.4429 42.5938 17.341 42.5992Z" fill="#5EC3E9"/>
<path d="M17.3581 43.7124L13.3784 43.9271C13.276 43.9325 13.1978 44.0195 13.2033 44.1214C13.2087 44.2238 13.296 44.3019 13.398 44.2965L17.3778 44.0818C17.4801 44.0764 17.5583 43.9895 17.5528 43.8871C17.5474 43.7852 17.4601 43.707 17.3581 43.7124Z" fill="#5EC3E9"/>
<path d="M17.4182 44.8211L13.4384 45.0357C13.3361 45.0412 13.2579 45.1281 13.2638 45.2301C13.2692 45.3324 13.3561 45.4106 13.4585 45.4051L17.4382 45.1908C17.5402 45.185 17.6184 45.0981 17.6129 44.9957C17.6075 44.8938 17.5202 44.8156 17.4182 44.8211Z" fill="#5EC3E9"/>
<path d="M9.18074 40.8182L7.2636 40.9216C6.6154 40.9565 6.11849 41.5101 6.15333 42.1583L6.29545 44.8001C6.33068 45.4483 6.8843 45.9456 7.5325 45.9104L9.44964 45.8074C10.0978 45.7725 10.5948 45.2185 10.5599 44.5703L10.4178 41.9285C10.3826 41.2803 9.82894 40.7834 9.18074 40.8182Z" fill="#5EC3E9"/>
<path d="M4.53904 37.5927C4.51568 37.1606 4.84669 36.7913 5.27882 36.7683L21.7947 35.8787C22.2269 35.8553 22.5958 36.1867 22.6192 36.6188L22.7165 38.4234L4.63636 39.3973L4.53904 37.5927Z" fill="#5EC3E9"/>
<path d="M20.3284 36.8594L20.5527 36.8473L20.5993 37.7049L20.3745 37.7174L20.3284 36.8594Z" fill="white"/>
<path d="M20.7115 36.8383L21.0852 36.8187C21.1718 36.8138 21.2496 36.8276 21.3185 36.8588C21.3877 36.8905 21.4426 36.9372 21.4827 37.0001C21.5229 37.0631 21.5456 37.1371 21.5501 37.2233C21.555 37.31 21.5405 37.3866 21.507 37.453C21.4734 37.5195 21.4244 37.5724 21.3591 37.611C21.2942 37.6495 21.2183 37.6714 21.1316 37.6759L20.7575 37.6963L20.7115 36.8383ZM21.1123 37.4829C21.1802 37.4792 21.2338 37.4558 21.2725 37.4121C21.3112 37.3681 21.329 37.3096 21.325 37.2363C21.3211 37.1625 21.2973 37.1057 21.2541 37.0667C21.2108 37.0272 21.1551 37.0095 21.0872 37.0131L20.9456 37.0211L20.9711 37.492L21.1123 37.484L21.1123 37.4829Z" fill="white"/>
<path d="M16.8124 37.2198L13.0004 37.4254C12.8985 37.4308 12.8199 37.5177 12.8254 37.6201C12.8312 37.722 12.9181 37.8002 13.0205 37.7947L16.832 37.5892C16.9344 37.5837 17.0125 37.4968 17.0071 37.3945C17.0016 37.2925 16.9143 37.2144 16.8124 37.2198Z" fill="#F5F6FF"/>
<path d="M12.1673 37.4687L6.10377 37.7955C6.00181 37.8009 5.92365 37.8878 5.92909 37.9902C5.93454 38.0921 6.02146 38.1703 6.12341 38.1648L12.187 37.8381C12.2889 37.8326 12.3671 37.7453 12.3617 37.6433C12.3562 37.5414 12.2693 37.4628 12.1673 37.4687Z" fill="#F5F6FF"/>
<path d="M9.23059 42.9466C9.24064 43.129 9.20057 43.3101 9.11503 43.4671C9.0295 43.6236 8.90293 43.7493 8.75125 43.8273C8.59917 43.9056 8.42909 43.9331 8.26182 43.9061C8.09455 43.8796 7.93791 43.7996 7.81211 43.6773C7.68593 43.5546 7.59599 43.3945 7.55333 43.2172C7.51107 43.0402 7.51753 42.8538 7.57275 42.6815C7.62835 42.5096 7.72984 42.3596 7.86438 42.2504C7.99892 42.1416 8.16054 42.0788 8.32916 42.0697C8.44092 42.0636 8.55348 42.0814 8.65941 42.1223C8.76533 42.1631 8.86229 42.2258 8.94603 42.3074C9.02977 42.3887 9.09835 42.4873 9.14716 42.597C9.19597 42.7067 9.22427 42.8254 9.23059 42.9466Z" fill="#F5F6FF"/>
<path d="M9.85667 45.7825L9.8018 44.7645C9.79272 44.5947 9.73966 44.4313 9.6505 44.2959C9.56135 44.1605 9.43992 44.059 9.30207 44.0055L8.77791 43.8021L8.07285 43.84L7.57314 44.099C7.44199 44.167 7.33206 44.2809 7.25809 44.4251C7.18372 44.5692 7.14855 44.7376 7.15763 44.9073L7.2125 45.9253L9.85667 45.7825Z" fill="white"/>
<path d="M9.32253 75.7997L20.2902 75.9725L19.0227 58.3266L19.0164 58.2814L19.0037 58.1919L18.501 58.1393L17.9679 58.0843L17.6663 58.0525L15.2008 57.7962L14.7971 57.7542L11.3901 57.4004L11.2051 57.3814L10.8997 57.3675L9.82809 57.3209L9.82789 57.3338L9.32253 75.7997Z" fill="#5EC3E9"/>
<path d="M18.8269 58.3385L20.0947 75.9684L20.4531 75.974L19.1811 58.3159L19.0231 58.3255L19.016 58.3262L18.8269 58.3385Z" fill="#5E7DE9"/>
<path d="M18.8271 58.3416L18.436 58.3695L18.4081 57.9761L18.8015 57.9506L18.8271 58.3416ZM20.0949 75.9715L20.0887 76.3632L19.7299 76.3575L19.7042 75.9998L20.0949 75.9715ZM20.4533 75.9771L20.8439 75.9492L20.8748 76.3756L20.4471 76.3689L20.4533 75.9771ZM19.1808 58.319L19.156 57.928L19.5439 57.9031L19.5715 58.2907L19.1808 58.319ZM19.0228 58.3286L19.048 58.7197L19.0468 58.7196L19.0228 58.3286ZM19.0157 58.3293L18.9901 57.9383L18.9921 57.9383L19.0157 58.3293ZM19.2177 58.3133L20.4855 75.9436L19.7042 75.9998L18.436 58.3695L19.2177 58.3133ZM20.101 75.5798L20.4594 75.5854L20.4471 76.3689L20.0887 76.3632L20.101 75.5798ZM20.0626 76.0055L18.7902 58.3469L19.5715 58.2907L20.8439 75.9492L20.0626 76.0055ZM19.206 58.7096L19.048 58.7197L18.998 57.938L19.156 57.928L19.206 58.7096ZM19.0468 58.7196L19.0397 58.7203L18.9921 57.9383L18.9992 57.9376L19.0468 58.7196ZM19.0413 58.7203L18.8523 58.7323L18.8015 57.9506L18.9901 57.9383L19.0413 58.7203Z" fill="#2FA8D6"/>
<path d="M3.89239 41.3007L4.8492 41.746C5.25674 42.0153 6.61038 42.2909 6.88161 41.8619C7.26653 41.254 6.47918 40.6217 5.83508 40.2723L4.57267 39.6776C3.82137 39.4926 3.64297 40.0724 3.64297 40.0724C3.345 40.7314 3.48485 41.0314 3.89239 41.3007Z" fill="#F5ABC1"/>
<path d="M3.95888 43.013L4.8138 43.4104C5.1779 43.6516 6.38743 43.8976 6.63012 43.5139C6.97406 42.9708 6.27028 42.4061 5.69494 42.0938L4.5667 41.5623C3.89541 41.397 3.73562 41.9152 3.73562 41.9152C3.44643 42.4642 3.59478 42.7722 3.95888 43.013Z" fill="#F5ABC1"/>
<path d="M4.03031 44.4507L4.75959 44.7902C5.07019 44.9953 6.10163 45.2055 6.30895 44.8785C6.60187 44.4153 6.00179 43.9333 5.51075 43.667L4.54857 43.2138C3.97602 43.0727 3.76119 43.5779 3.76119 43.5779C3.60977 43.9877 3.71972 44.2452 4.03031 44.4507Z" fill="#F5ABC1"/>
<path d="M3.98773 41.2578L3.99166 41.5055C4.51665 41.781 5.02769 41.9712 5.45155 42.1001C5.56814 42.1357 5.68165 42.1676 5.79012 42.196L5.81314 41.9785C5.7152 41.9527 5.6134 41.9236 5.5089 41.8918C5.06906 41.7576 4.53313 41.5552 3.98773 41.2578Z" fill="#5E7DE9"/>
<path d="M4.01825 43.0066L4.02268 43.2476C4.43261 43.4398 4.82492 43.5811 5.16183 43.6836C5.27841 43.7192 5.39153 43.7511 5.50039 43.7799L5.52342 43.562C5.4251 43.5358 5.32368 43.5071 5.21918 43.4753C4.8663 43.3675 4.45063 43.216 4.01825 43.0066Z" fill="#F5ABC1"/>
</g>
</g>
<defs>
<clipPath id="clip0_327_15701">
<rect width="114" height="114" fill="white"/>
</clipPath>
</defs>
</svg>
