<svg width="68" height="68" viewBox="0 0 68 68" fill="none" xmlns="http://www.w3.org/2000/svg">
<circle cx="34" cy="34" r="34" fill="white"/>
<path d="M40.8672 25.0532H12.5852V47.8292H40.8672V41.243V25.0532Z" fill="#FFDE76"/>
<path d="M12.5852 42.6831H15.5509V47.829H12.5852V42.6831Z" fill="#5FC4EA"/>
<path d="M16.7324 16.2505L16.735 33.8978H34.3788V16.2539L16.7324 16.2505Z" fill="#F6CCAF"/>
<path d="M31.269 16.2539H34.3791V33.8977H16.7352V32.0776C26.1626 30.5453 31.269 22.9476 31.269 16.2539Z" fill="#E5AD88"/>
<path d="M22.1176 30.2968H19.5008C19.1021 30.2968 18.7781 30.6208 18.7781 31.0196C18.7781 31.4183 19.1021 31.7423 19.5008 31.7423H22.1185C22.5172 31.7423 22.8412 31.4183 22.8412 31.0196C22.8403 30.6208 22.5164 30.2968 22.1176 30.2968ZM22.1176 27.4678H19.5008C19.1021 27.4678 18.7781 27.7918 18.7781 28.1905C18.7781 28.5893 19.1021 28.9132 19.5008 28.9132H22.1185C22.5172 28.9132 22.8412 28.5893 22.8412 28.1905C22.8412 27.7918 22.5164 27.4678 22.1176 27.4678Z" fill="#B7826A"/>
<path d="M15.5508 42.6831V47.829H12.7294C13.777 46.2315 14.4052 44.2025 14.7593 42.6831H15.5508Z" fill="#5FC4EA"/>
<path d="M39.768 25.0532C39.0547 26.9129 37.9152 29.3286 36.1672 31.8225L33.2995 35.3451C30.1971 39.0086 22.4241 42.9927 15.5508 44.2096V47.8301H40.8671V25.0532H39.768Z" fill="#E8C560"/>
<path d="M27.4053 16.2539V21.472L26.2469 20.647C25.8473 20.3523 25.2646 20.3523 24.8659 20.647L23.7075 21.472V16.2539H27.4053Z" fill="#BE927C"/>
<path d="M27.4053 16.2539V21.472L26.2469 20.647C25.8473 20.3523 25.2646 20.3523 24.8659 20.647L23.7075 21.472V20.4631C24.9123 19.3571 25.495 17.622 25.776 16.2539H27.4053Z" fill="#B7826A"/>
<path d="M40.8668 39.0239H55.4143V47.8291H40.8668V39.0239Z" fill="#5FC4EA"/>
<path d="M55.4143 47.8291H40.8668V45.4478C46.5937 44.0221 49.8284 41.2016 51.5489 39.0239H55.4143V47.8291Z" fill="#5FC4EA"/>
<path d="M55.4146 39.0239H47.1259V31.665H49.5545C50.0452 31.665 50.5101 31.8747 50.8376 32.2279C50.8831 32.2735 50.9226 32.3259 50.9622 32.3783L54.7726 37.6549C55.0872 38.0811 55.2771 38.5461 55.4146 39.0239Z" fill="#F3F0FF"/>
<path d="M48.2256 30.4346V31.6653H40.8668V29.8193H47.6103C47.9575 29.8193 48.2256 30.0875 48.2256 30.4346Z" fill="#5FC4EA"/>
<path d="M40.8668 31.665H47.1256V39.0239H40.8668V31.665Z" fill="#F3F0FF"/>
<path d="M48.2256 30.4346V31.6653H40.8668V31.2528C43.4398 31.056 44.9849 30.4871 45.901 29.8193H47.6095C47.9575 29.8193 48.2256 30.0875 48.2256 30.4346Z" fill="#5FC4EA"/>
<path d="M47.1262 31.665V39.0239H42.5234C45.1359 36.713 45.4436 33.1182 45.4565 31.665H47.1262ZM55.4149 39.0239H48.4291C50.3798 37.1908 50.8319 34.4082 50.8379 32.2279C50.8834 32.2735 50.923 32.3259 50.9625 32.3783L54.773 37.6549C55.0875 38.0811 55.2774 38.5461 55.4149 39.0239Z" fill="#D7D3ED"/>
<path d="M53.9951 42.3223H55.4147V44.5549H53.9951V42.3223Z" fill="#FFDE76"/>
<path d="M55.4147 42.3223V44.5549H53.9951V44.0771C54.814 43.7325 54.967 42.8396 54.9851 42.3223H55.4147Z" fill="#E8C560"/>
<path d="M44.2028 47.8213C44.2028 50.0024 45.9714 51.7495 48.1516 51.7495C48.4378 51.7495 48.7179 51.7211 48.9903 51.6584C50.7521 51.2742 52.0798 49.7085 52.0798 47.8213C52.0798 45.9478 50.7521 44.3683 48.9903 43.9842C48.7179 43.9214 48.4378 43.8931 48.1516 43.8931C45.9714 43.8931 44.2028 45.6617 44.2028 47.8213Z" fill="#615684"/>
<path d="M45.8937 47.8215C45.8937 49.7087 47.2214 51.2745 48.99 51.6586C50.7517 51.2745 52.0795 49.7087 52.0795 47.8215C52.0795 45.948 50.7517 44.3685 48.99 43.9844C47.2223 44.3754 45.8937 45.948 45.8937 47.8215Z" fill="#7A6D98"/>
<path d="M46.1949 47.8237C46.1949 48.8937 47.0586 49.778 48.1492 49.778C49.2191 49.778 50.0828 48.8937 50.0828 47.8237C50.0828 46.7538 49.2191 45.8901 48.1492 45.8901C47.0595 45.8901 46.1949 46.7538 46.1949 47.8237ZM47.7375 47.8237C47.7375 47.5977 47.9223 47.4327 48.1492 47.4327C48.3546 47.4327 48.5402 47.5977 48.5402 47.8237C48.5402 48.2766 47.7375 48.2766 47.7375 47.8237Z" fill="#615684"/>
<path d="M47.738 47.8236C47.738 48.2765 48.5406 48.2765 48.5406 47.8236C48.5406 47.5976 48.3559 47.4326 48.1496 47.4326C47.9236 47.4326 47.738 47.5976 47.738 47.8236Z" fill="white"/>
<path d="M21.0101 47.8213C21.0101 50.0024 22.7787 51.7495 24.959 51.7495C25.2451 51.7495 25.5253 51.7211 25.7977 51.6584C27.5594 51.2742 28.8872 49.7085 28.8872 47.8213C28.8872 45.9478 27.5594 44.3683 25.7977 43.9842C25.5253 43.9214 25.2451 43.8931 24.959 43.8931C22.7787 43.8931 21.0101 45.6617 21.0101 47.8213Z" fill="#615684"/>
<path d="M22.7018 47.8215C22.7018 49.7087 24.0295 51.2745 25.7981 51.6586C27.5598 51.2745 28.8876 49.7087 28.8876 47.8215C28.8876 45.948 27.5598 44.3685 25.7981 43.9844C24.0295 44.3754 22.7018 45.948 22.7018 47.8215Z" fill="#7A6D98"/>
<path d="M23.0026 47.8237C23.0026 48.8937 23.8662 49.778 24.9568 49.778C26.0267 49.778 26.8904 48.8937 26.8904 47.8237C26.8904 46.7538 26.0267 45.8901 24.9568 45.8901C23.8671 45.8901 23.0026 46.7538 23.0026 47.8237ZM24.546 47.8237C24.546 47.5977 24.7308 47.4327 24.9576 47.4327C25.163 47.4327 25.3487 47.5977 25.3487 47.8237C25.3478 48.2766 24.546 48.2766 24.546 47.8237Z" fill="#615684"/>
<path d="M24.5458 47.8236C24.5458 48.2765 25.3485 48.2765 25.3485 47.8236C25.3485 47.5976 25.1637 47.4326 24.9575 47.4326C24.7306 47.4326 24.5458 47.5976 24.5458 47.8236Z" fill="white"/>
</svg>
