<svg width="22" height="22" viewBox="0 0 22 22" fill="none" xmlns="http://www.w3.org/2000/svg">
<g clip-path="url(#clip0_3809_138519)">
<path d="M21.8607 9.33168C21.8086 8.988 21.5716 8.70127 21.2445 8.58524L19.5113 7.96898C19.4088 7.67859 19.2925 7.39628 19.1636 7.12319L19.9523 5.46342C20.1012 5.15043 20.0659 4.78024 19.8603 4.50033C19.1956 3.59621 18.4013 2.80192 17.4996 2.14021C17.2194 1.93454 16.8505 1.89957 16.5368 2.0488L14.8781 2.8369C14.605 2.70799 14.3223 2.59196 14.0317 2.48944L13.4151 0.756058C13.2991 0.429557 13.0131 0.193205 12.6702 0.140429C11.4519 -0.0468097 10.5501 -0.0468097 9.32986 0.140429C8.98732 0.193205 8.70097 0.429557 8.58494 0.756058L7.96843 2.48944C7.67779 2.59196 7.3951 2.70799 7.12226 2.8369L5.46286 2.0488C5.14987 1.89969 4.78032 1.93467 4.50041 2.14021C3.59868 2.80192 2.8044 3.59621 2.13966 4.50033C1.93399 4.78024 1.89876 5.1503 2.04762 5.46342L2.83634 7.12319C2.70743 7.39578 2.5914 7.67872 2.48863 7.96898L0.755252 8.58588C0.428373 8.70191 0.191767 8.98851 0.139245 9.33168C0.0446782 9.95286 0.000488281 10.4825 0.000488281 11.0007C0.000488281 11.5181 0.0446782 12.0485 0.139245 12.6697C0.191389 13.0133 0.428373 13.3001 0.755504 13.4161L2.48863 14.0323C2.5914 14.3232 2.70781 14.6057 2.83634 14.8788L2.04762 16.5379C1.89876 16.8509 1.93411 17.2211 2.13941 17.5004C2.80326 18.4039 3.59755 19.1981 4.50041 19.8611C4.78032 20.0668 5.14987 20.1024 5.46312 19.9525L7.12188 19.1644C7.39497 19.2933 7.67766 19.4094 7.9683 19.5119L8.58482 21.2453C8.70085 21.5718 8.98682 21.8081 9.32973 21.8609C9.9393 21.9548 10.4855 22.0003 10.9999 22.0003C11.5142 22.0003 12.0605 21.9548 12.67 21.8609C13.0128 21.8081 13.2989 21.5718 13.4149 21.2453L14.0314 19.5119C14.3221 19.4094 14.6047 19.2933 14.8778 19.1644L16.5366 19.9525C16.8502 20.1023 17.2198 20.0667 17.4997 19.8611C18.4036 19.197 19.1978 18.4027 19.8604 17.5004C20.0657 17.2211 20.1011 16.8509 19.9522 16.5379L19.1635 14.8788C19.2924 14.6057 19.4087 14.3226 19.5112 14.0323L21.2443 13.4161C21.5715 13.3001 21.8085 13.0135 21.8606 12.6697C21.9552 12.0485 21.9994 11.5182 21.9994 11.0007C21.9994 10.4831 21.9553 9.95273 21.8607 9.33168ZM20.0684 11.8328L18.4424 12.4111C18.1582 12.5117 17.9397 12.7425 17.8541 13.0323C17.7089 13.5233 17.5177 13.9879 17.2854 14.4139C17.1412 14.679 17.1323 14.9971 17.2618 15.2695L17.9993 16.8206C17.643 17.2485 17.2489 17.6432 16.8204 17.9991L15.2696 17.2625C14.9968 17.1317 14.6797 17.1422 14.4142 17.2859C13.9876 17.5179 13.5227 17.7088 13.0313 17.8543C12.7422 17.9396 12.5114 18.158 12.4105 18.4422L11.832 20.0688C11.2415 20.1289 10.7585 20.1289 10.1679 20.0688L9.58944 18.4422C9.48844 18.1587 9.25764 17.9395 8.96864 17.8543C8.47699 17.7088 8.01174 17.5179 7.58575 17.2859C7.32023 17.141 7.00256 17.1318 6.73036 17.2625L5.17954 17.9997C4.75141 17.643 4.35736 17.249 4.00068 16.8206L4.73815 15.2695C4.86769 14.9969 4.85872 14.679 4.71454 14.4139C4.48286 13.9892 4.29158 13.5239 4.14588 13.0316C4.06028 12.7425 3.84147 12.5117 3.55752 12.4111L1.93159 11.8328C1.90091 11.537 1.88613 11.2644 1.88613 11.0005C1.88613 10.7367 1.90091 10.4647 1.93159 10.1689L3.5579 9.59012C3.84173 9.4895 4.06028 9.2587 4.14588 8.96957C4.29133 8.47856 4.48261 8.0133 4.71454 7.58668C4.85872 7.32217 4.86769 7.0035 4.73815 6.73167L4.00068 5.1806C4.35761 4.75221 4.75166 4.35753 5.17954 4.00149L6.73099 4.7387C7.00257 4.86951 7.32149 4.85903 7.58638 4.71535C8.01212 4.48329 8.47699 4.29239 8.96864 4.14694C9.25777 4.06159 9.48856 3.84253 9.58944 3.55896L10.1679 1.93239C10.7529 1.87166 11.2368 1.87166 11.832 1.93239L12.4105 3.55896C12.5115 3.84253 12.7423 4.06171 13.0313 4.14694C13.523 4.29239 13.9882 4.48329 14.4142 4.71535C14.6797 4.86016 14.9968 4.86938 15.2696 4.7387L16.8204 4.00149C17.2483 4.35753 17.6424 4.75221 17.9993 5.1806L17.2618 6.73167C17.1323 7.00362 17.1412 7.32217 17.2854 7.58668C17.5181 8.01456 17.7093 8.47919 17.8541 8.96894C17.9397 9.2587 18.1582 9.4895 18.4424 9.59012L20.0684 10.1684C20.0991 10.4642 20.1138 10.7368 20.1138 11.0007C20.1138 11.2645 20.0991 11.537 20.0684 11.8328Z" fill="#483D6B"/>
<path d="M10.9996 6.41406C8.59288 6.41406 6.63477 8.37205 6.63477 10.7789C6.63477 13.1857 8.59276 15.1437 10.9996 15.1437C13.4064 15.1437 15.3644 13.1857 15.3644 10.7789C15.3644 8.37205 13.4063 6.41406 10.9996 6.41406ZM10.9996 13.2581C9.63261 13.2581 8.52041 12.1459 8.52041 10.7789C8.52041 9.41191 9.63261 8.29971 10.9996 8.29971C12.3666 8.29971 13.4788 9.41191 13.4788 10.7789C13.4788 12.1459 12.3666 13.2581 10.9996 13.2581Z" fill="#483D6B"/>
</g>
<defs>
<clipPath id="clip0_3809_138519">
<rect width="22" height="22" fill="white"/>
</clipPath>
</defs>
</svg>
