<svg width="22" height="22" viewBox="0 0 22 22" fill="none" xmlns="http://www.w3.org/2000/svg">
<g clip-path="url(#clip0_3809_138504)">
<path d="M11 0C4.93447 0 0 4.93447 0 11C0 17.0655 4.93447 22 11 22C17.0651 22 22 17.0655 22 11C22 4.93447 17.0651 0 11 0ZM10.0833 20.1203C5.75938 19.6886 2.31136 16.2406 1.87966 11.9167H7.45396C7.78652 13.2019 8.79808 14.2135 10.0833 14.546V20.1203ZM9.16667 11C9.16667 9.98889 9.98889 9.16667 11 9.16667C12.0111 9.16667 12.8333 9.98889 12.8333 11C12.8333 12.0111 12.0111 12.8333 11 12.8333C9.98889 12.8333 9.16667 12.0111 9.16667 11ZM11.9167 20.1203V14.546C13.2019 14.2135 14.2135 13.2019 14.546 11.9167H20.1203C19.6891 16.2406 16.2406 19.6886 11.9167 20.1203ZM14.546 10.0833C14.1374 8.50446 12.7051 7.33333 11 7.33333C9.2949 7.33333 7.86261 8.50446 7.45396 10.0833H1.87966C2.34113 5.45793 6.25486 1.83333 11 1.83333C15.7451 1.83333 19.6589 5.45793 20.1203 10.0833H14.546Z" fill="#483D6B"/>
</g>
<defs>
<clipPath id="clip0_3809_138504">
<rect width="22" height="22" fill="white"/>
</clipPath>
</defs>
</svg>
