<svg width="187" height="120" viewBox="0 0 187 120" fill="none" xmlns="http://www.w3.org/2000/svg">
<g id="Group 26">
<rect id="Rectangle 21" opacity="0.12" width="187" height="120" rx="10" fill="#5F7EEA"/>
<g id="ICON" opacity="0.5">
<g id="Group">
<g id="Group_2">
<path id="Vector" d="M129.064 79.5037V95.8283H112.686M57 79.5037V95.8283H73.3782M129.064 40.3246V24H112.686M57 40.3246V24H73.3782" stroke="#5FC4EA" stroke-width="4.11586"/>
</g>
</g>
<g id="Group_3">
<g id="Group_4">
<path id="Vector_2" d="M74.1232 53.6165L77.4504 43.6681C77.6175 43.1678 78.0867 42.8315 78.6157 42.8315H107.246C107.775 42.8315 108.245 43.1678 108.412 43.6681L111.739 53.6165C111.954 54.2581 111.605 54.9511 110.962 55.1649C110.837 55.2065 110.706 55.2278 110.574 55.2278H75.2885C74.6104 55.2278 74.0601 54.6793 74.0601 54.0034C74.0601 53.872 74.0814 53.7414 74.1232 53.6165ZM108.133 69.0019C105.839 69.0019 103.986 67.1563 103.986 64.87C103.986 62.5837 105.839 60.7374 108.133 60.7374C110.426 60.7374 112.278 62.5837 112.278 64.87C112.278 67.1563 110.426 69.0019 108.133 69.0019ZM77.7305 69.0019C75.4367 69.0019 73.5843 67.1563 73.5843 64.87C73.5843 62.5837 75.4367 60.7374 77.7305 60.7374C80.0242 60.7374 81.8758 62.5837 81.8758 64.87C81.8758 67.1563 80.0242 69.0019 77.7305 69.0019ZM112.057 41.4814C111.504 39.8563 109.956 38.6989 108.133 38.6989H77.7305C75.906 38.6989 74.3861 39.8563 73.8054 41.4814L68.1247 57.7875C68.0796 57.9165 68.0567 58.0528 68.0567 58.1891V79.511C68.0567 80.1868 68.607 80.7354 69.2851 80.7354H75.1198C75.7979 80.7354 76.3482 80.1868 76.3482 79.511V76.4501C76.3482 75.7742 76.8985 75.2257 77.5765 75.2257H108.286C108.964 75.2257 109.514 75.7742 109.514 76.4501V79.511C109.514 80.1868 110.064 80.7354 110.742 80.7354H116.577C117.255 80.7354 117.805 80.1868 117.805 79.511V58.1891C117.805 58.0528 117.783 57.9165 117.737 57.7875L112.057 41.4814Z" fill="#5FC4EA"/>
</g>
</g>
<g id="Group_5" opacity="0.25">
<g id="Group_6">
<path id="Vector_3" d="M128.488 84.7539V96.9968H57.0008V84.7539H128.488Z" fill="url(#paint0_linear_327_15682)"/>
</g>
</g>
</g>
</g>
<defs>
<linearGradient id="paint0_linear_327_15682" x1="92.9153" y1="84.8074" x2="92.921" y2="97.1258" gradientUnits="userSpaceOnUse">
<stop stop-color="#34D6FB" stop-opacity="0"/>
<stop offset="0.5" stop-color="#34D6FB" stop-opacity="0.5"/>
<stop offset="1" stop-color="#5FC4EA"/>
</linearGradient>
</defs>
</svg>
