<svg width="100" height="100" viewBox="0 0 100 100" fill="none" xmlns="http://www.w3.org/2000/svg">
<g id="ICON" opacity="0.5" clip-path="url(#clip0_327_15651)">
<g id="Clip path group">
<mask id="mask0_327_15651" style="mask-type:luminance" maskUnits="userSpaceOnUse" x="0" y="0" width="100" height="100">
<g id="__lottie_element_700">
<path id="Vector" d="M100 0H0V100H100V0Z" fill="white"/>
</g>
</mask>
<g mask="url(#mask0_327_15651)">
<g id="Group">
<g id="Group_2">
<g id="Group_3">
<path id="Vector_2" d="M79.6164 32.4783L60.6668 13.6512C60.2482 13.2428 59.6866 13.0079 59.1047 13.0079H27.1271C22.6449 13.0079 19 16.6325 19 21.084V79.9137C19 84.3755 22.6449 88 27.1271 88H72.1325C76.6147 88 80.2597 84.3755 80.2597 79.9137V34.0302C80.2597 33.4482 80.0248 32.8867 79.6164 32.4783Z" fill="#5EC3E9"/>
</g>
</g>
<g id="Group_4">
<g id="Group_5">
<path id="Vector_3" d="M79.6158 32.4781L60.6661 13.6509C60.2475 13.2425 59.6859 13.0077 59.104 13.0077H49.6292V87.9997H72.1319C76.614 87.9997 80.259 84.3752 80.259 79.9135V34.03C80.259 33.448 80.0242 32.8865 79.6158 32.4781Z" fill="#5EC3E9"/>
</g>
</g>
<g id="Group_6">
<g id="Group_7">
<path id="Vector_4" d="M36.6162 59.4886H27.2537C26.0489 59.4886 25.0687 58.5084 25.0687 57.3037V47.9412C25.0687 46.7364 26.0489 45.7562 27.2537 45.7562H36.6162C37.8209 45.7562 38.8011 46.7364 38.8011 47.9412V57.3037C38.8011 58.5084 37.8209 59.4886 36.6162 59.4886Z" fill="white"/>
</g>
</g>
<g id="Group_8">
<g id="Group_9">
<path id="Vector_5" d="M61.2913 50.2639H56.6856C55.9097 50.2639 55.2869 49.2837 55.2869 48.0789C55.2869 46.8639 55.9097 45.8838 56.6856 45.8838H61.2913C62.0673 45.8838 62.6891 46.8639 62.6891 48.0789C62.6891 49.2837 62.0673 50.2639 61.2913 50.2639Z" fill="white"/>
</g>
</g>
<g id="Group_10">
<g id="Group_11">
<path id="Vector_6" d="M70.0173 62.0351H56.7035C55.7336 62.0351 54.9474 61.0549 54.9474 59.8502C54.9474 58.6352 55.7336 57.655 56.7035 57.655H70.0173C70.9872 57.655 71.7734 58.6352 71.7734 59.8502C71.7734 61.0549 70.9872 62.0351 70.0173 62.0351Z" fill="white"/>
</g>
</g>
<g id="Group_12">
<g id="Group_13">
<path id="Vector_7" d="M70.3571 73.8217H57.0433C56.0734 73.8217 55.2872 72.8416 55.2872 71.6368C55.2872 70.4218 56.0734 69.4417 57.0433 69.4417H70.3571C71.3271 69.4417 72.1132 70.4218 72.1132 71.6368C72.1132 72.8416 71.3271 73.8217 70.3571 73.8217Z" fill="white"/>
</g>
</g>
<g id="Group_14">
<g id="Group_15">
<path id="Vector_8" d="M38.7594 36.2436H27.2222C26.0276 36.2436 25.0679 35.2941 25.0679 34.1302C25.0679 32.9662 26.0276 32.0167 27.2222 32.0167H38.7594C39.9438 32.0167 40.9137 32.9662 40.9137 34.1302C40.9137 35.2941 39.9438 36.2436 38.7594 36.2436Z" fill="white"/>
</g>
</g>
<g id="Group_16">
<g id="Group_17">
<path id="Vector_9" d="M79.6179 32.4832L60.7806 13.6459C60.1476 13.0129 59.198 12.8291 58.3812 13.166C57.5542 13.5132 57.0233 14.3095 57.0233 15.1978V28.1542C57.0233 32.616 60.6478 36.2405 65.1096 36.2405H78.066C78.9543 36.2405 79.7507 35.6994 80.0876 34.8826C80.4347 34.0556 80.2407 33.1162 79.6179 32.4832Z" fill="#4EB5DA"/>
</g>
</g>
</g>
</g>
</g>
</g>
<defs>
<clipPath id="clip0_327_15651">
<rect width="100" height="100" fill="white"/>
</clipPath>
</defs>
</svg>
