<svg width="18" height="18" viewBox="0 0 18 18" fill="none" xmlns="http://www.w3.org/2000/svg">
<g id="&#208;&#152;&#209;&#129;&#208;&#186;&#208;&#176;&#209;&#130;&#209;&#140; &#209;&#128;&#208;&#181;&#208;&#183;&#209;&#131;&#208;&#187;&#209;&#140;&#209;&#130;&#208;&#176;&#209;&#130;&#209;&#139; &#208;&#180;&#208;&#187;&#209;&#143; &#208;&#179;&#209;&#128;&#209;&#131;&#208;&#183;&#208;&#190;&#208;&#178;&#208;&#184;&#208;&#186; - Flaticon-12 (2) 1">
<g id="Group">
<path id="Vector" d="M0.197639 1.8644C0.329462 1.73262 0.486057 1.6665 0.666368 1.6665H11.3332C11.5137 1.6665 11.6701 1.73262 11.8019 1.8644C11.9338 1.99637 11.9998 2.15271 11.9998 2.33324V4.33329H13.6666C13.8541 4.33329 14.0574 4.37842 14.2761 4.46869C14.4949 4.5591 14.6702 4.67001 14.8021 4.80198L16.8646 6.86453C16.9549 6.9548 17.0329 7.05889 17.099 7.17703C17.165 7.29488 17.2136 7.40105 17.2449 7.49463C17.2761 7.58847 17.2988 7.71679 17.3125 7.88014C17.3263 8.04341 17.3351 8.16319 17.3386 8.23963C17.3419 8.31596 17.3419 8.44796 17.3386 8.63549C17.3351 8.8231 17.3333 8.94452 17.3333 9.00016V12.3335C17.5138 12.3335 17.6701 12.3994 17.8021 12.5315C17.934 12.6632 18 12.8196 18 13.0002C18 13.1042 17.9862 13.1963 17.9584 13.2761C17.9306 13.356 17.8838 13.4201 17.8176 13.4689C17.7616 13.5106 17.7043 13.5505 17.6458 13.5887C17.5971 13.6199 17.5155 13.6407 17.401 13.6511C17.2864 13.6616 17.2083 13.6686 17.1666 13.6721C17.1249 13.6754 17.0365 13.6754 16.9011 13.6721C16.7655 13.6686 16.6874 13.6669 16.6666 13.6669H15.9999C15.9999 14.4028 15.7395 15.0313 15.2188 15.5522C14.6979 16.073 14.0694 16.3335 13.3333 16.3335C12.5972 16.3335 11.9687 16.073 11.4479 15.5522C10.927 15.0313 10.6667 14.4028 10.6667 13.6669H6.66656C6.66656 14.4028 6.40609 15.0313 5.88534 15.5522C5.36466 16.073 4.73612 16.3335 3.99996 16.3335C3.26365 16.3335 2.63552 16.073 2.11458 15.5522C1.59368 15.0313 1.33336 14.4028 1.33336 13.6669C1.31263 13.6669 1.23444 13.6686 1.09912 13.6721C0.96365 13.6754 0.875099 13.6754 0.833433 13.6721C0.791695 13.6686 0.713432 13.6616 0.598942 13.6511C0.484415 13.6407 0.402906 13.6199 0.354198 13.5887C0.30549 13.5575 0.248354 13.5176 0.182388 13.4689C0.11635 13.4201 0.0693951 13.356 0.0417023 13.2761C0.0136089 13.1963 0 13.1041 0 13.0002V2.33335C-0.000146866 2.15278 0.0657825 1.99662 0.197639 1.8644ZM12.396 14.6043C12.6597 14.8681 12.9723 15.0004 13.3334 15.0004C13.6945 15.0004 14.0071 14.8683 14.271 14.6043C14.5349 14.3406 14.6668 14.028 14.6668 13.6669C14.6668 13.3058 14.5347 12.993 14.271 12.7292C14.0071 12.4655 13.6946 12.3334 13.3334 12.3334C12.9723 12.3334 12.6598 12.4654 12.396 12.7292C12.132 12.993 12 13.3058 12 13.6669C12 14.028 12.132 14.3406 12.396 14.6043ZM12 8.33336H16.0001V8.02097C16.0001 7.93067 15.9689 7.85427 15.9064 7.79173L13.8751 5.76052C13.8127 5.69799 13.7361 5.66683 13.6459 5.66683H12V8.33336ZM3.06254 14.6043C3.32633 14.8681 3.6389 15.0004 3.99996 15.0004C4.36116 15.0004 4.67384 14.8683 4.93763 14.6043C5.20146 14.3406 5.33346 14.028 5.33346 13.6669C5.33346 13.3058 5.20149 12.993 4.93763 12.7292C4.67384 12.4655 4.36116 12.3334 3.99996 12.3334C3.6389 12.3334 3.32633 12.4654 3.06254 12.7292C2.79872 12.9932 2.6666 13.3058 2.6666 13.6669C2.6666 14.028 2.79846 14.3406 3.06254 14.6043Z" fill="white"/>
</g>
</g>
</svg>
