<svg width="112" height="112" viewBox="0 0 112 112" fill="none" xmlns="http://www.w3.org/2000/svg">
<path d="M73.4802 33.2266H1.48962V91.2019H73.4802V74.4369V33.2266Z" fill="#5FC4EA"/>
<path d="M1.48962 78.1025H9.03869V91.2013H1.48962V78.1025Z" fill="#5FC4EA"/>
<path d="M12.0462 10.8193L12.0528 55.7396H56.9644V10.8281L12.0462 10.8193Z" fill="#F6CCAF"/>
<path d="M49.0484 10.8281H56.9649V55.7397H12.0534V51.1066C36.0503 47.2063 49.0484 27.8666 49.0484 10.8281Z" fill="#E5AD88"/>
<path d="M25.7539 46.5733H19.093C18.078 46.5733 17.2533 47.398 17.2533 48.413C17.2533 49.428 18.078 50.2527 19.093 50.2527H25.7561C26.7711 50.2527 27.5958 49.428 27.5958 48.413C27.5936 47.398 26.7689 46.5733 25.7539 46.5733ZM25.7539 39.3721H19.093C18.078 39.3721 17.2533 40.1968 17.2533 41.2118C17.2533 42.2268 18.078 43.0514 19.093 43.0514H25.7561C26.7711 43.0514 27.5958 42.2268 27.5958 41.2118C27.5958 40.1968 26.7689 39.3721 25.7539 39.3721Z" fill="#B7826A"/>
<path d="M9.03828 78.1025V91.2013H1.85672C4.52328 87.1347 6.12234 81.97 7.0236 78.1025H9.03828Z" fill="#5FC4EA"/>
<path d="M70.6822 33.2266C68.8665 37.9603 65.9659 44.1094 61.5165 50.4575L54.2169 59.4241C46.32 68.7494 26.534 78.8906 9.03842 81.9881V91.2041H73.48V33.2266H70.6822Z" fill="#5BB7DA"/>
<path d="M39.2136 10.8281V24.1106L36.2649 22.0106C35.2477 21.2603 33.7646 21.2603 32.7496 22.0106L29.8008 24.1106V10.8281H39.2136Z" fill="#BE927C"/>
<path d="M39.2136 10.8281V24.1106L36.2649 22.0106C35.2477 21.2603 33.7646 21.2603 32.7496 22.0106L29.8008 24.1106V21.5425C32.8677 18.7272 34.3508 14.3106 35.0661 10.8281H39.2136Z" fill="#B7826A"/>
<path d="M73.4792 68.7881H110.509V91.2012H73.4792V68.7881Z" fill="#5FC4EA"/>
<path d="M110.509 91.2012H73.4792V85.1396C88.0567 81.5106 96.2904 74.3312 100.67 68.7881H110.509V91.2012Z" fill="#5FC4EA"/>
<path d="M110.51 68.7882H89.4114V50.0566H95.5933C96.8424 50.0566 98.0258 50.5904 98.8593 51.4895C98.9752 51.6054 99.0758 51.7388 99.1764 51.8723L108.876 65.3035C109.676 66.3885 110.16 67.572 110.51 68.7882Z" fill="#F3F0FF"/>
<path d="M92.2107 46.9246V50.0571H73.4792V45.3584H90.6445C91.5282 45.3584 92.2107 46.0409 92.2107 46.9246Z" fill="#5FC4EA"/>
<path d="M73.4792 50.0566H89.4107V68.7882H73.4792V50.0566Z" fill="#F3F0FF"/>
<path d="M92.2107 46.9246V50.0571H73.4792V49.0071C80.0286 48.5062 83.9617 47.0581 86.2936 45.3584H90.6423C91.5282 45.3584 92.2107 46.0409 92.2107 46.9246Z" fill="#5FC4EA"/>
<path d="M89.4122 50.0566V68.7882H77.6959C84.3459 62.906 85.129 53.7557 85.1619 50.0566H89.4122ZM110.511 68.7882H92.7284C97.694 64.1223 98.8447 57.0391 98.86 51.4895C98.9759 51.6054 99.0765 51.7388 99.1772 51.8723L108.877 65.3035C109.677 66.3885 110.161 67.572 110.511 68.7882Z" fill="#D7D3ED"/>
<path d="M106.896 77.1836H110.51V82.8667H106.896V77.1836Z" fill="#FFDE76"/>
<path d="M110.51 77.1836V82.8667H106.896V81.6505C108.981 80.7733 109.371 78.5005 109.416 77.1836H110.51Z" fill="#E8C560"/>
<path d="M81.9707 91.1817C81.9707 96.7336 86.4726 101.181 92.0223 101.181C92.7507 101.181 93.4639 101.109 94.1573 100.949C98.6417 99.9711 102.021 95.9854 102.021 91.1817C102.021 86.4129 98.6417 82.3923 94.1573 81.4145C93.4639 81.2548 92.7507 81.1826 92.0223 81.1826C86.4726 81.1826 81.9707 85.6845 81.9707 91.1817Z" fill="#615684"/>
<path d="M86.2747 91.1822C86.2747 95.986 89.6544 99.9716 94.1563 100.949C98.6407 99.9716 102.02 95.986 102.02 91.1822C102.02 86.4135 98.6407 82.3929 94.1563 81.415C89.6566 82.4104 86.2747 86.4135 86.2747 91.1822Z" fill="#7A6D98"/>
<path d="M87.0417 91.1875C87.0417 93.9109 89.2401 96.1619 92.0161 96.1619C94.7395 96.1619 96.9379 93.9109 96.9379 91.1875C96.9379 88.4641 94.7395 86.2656 92.0161 86.2656C89.2423 86.2656 87.0417 88.4641 87.0417 91.1875ZM90.9682 91.1875C90.9682 90.6122 91.4386 90.1922 92.0161 90.1922C92.5389 90.1922 93.0114 90.6122 93.0114 91.1875C93.0114 92.3403 90.9682 92.3403 90.9682 91.1875Z" fill="#615684"/>
<path d="M90.9694 91.1877C90.9694 92.3405 93.0125 92.3405 93.0125 91.1877C93.0125 90.6124 92.5422 90.1924 92.0172 90.1924C91.4419 90.1924 90.9694 90.6124 90.9694 91.1877Z" fill="white"/>
<path d="M22.9349 91.1817C22.9349 96.7336 27.4367 101.181 32.9864 101.181C33.7149 101.181 34.428 101.109 35.1214 100.949C39.6058 99.9711 42.9855 95.9854 42.9855 91.1817C42.9855 86.4129 39.6058 82.3923 35.1214 81.4145C34.428 81.2548 33.7149 81.1826 32.9864 81.1826C27.4367 81.1826 22.9349 85.6845 22.9349 91.1817Z" fill="#615684"/>
<path d="M27.2409 91.1822C27.2409 95.986 30.6206 99.9716 35.1225 100.949C39.6068 99.9716 42.9865 95.986 42.9865 91.1822C42.9865 86.4135 39.6068 82.3929 35.1225 81.415C30.6206 82.4104 27.2409 86.4135 27.2409 91.1822Z" fill="#7A6D98"/>
<path d="M28.0065 91.1875C28.0065 93.9109 30.205 96.1619 32.9809 96.1619C35.7043 96.1619 37.9028 93.9109 37.9028 91.1875C37.9028 88.4641 35.7043 86.2656 32.9809 86.2656C30.2072 86.2656 28.0065 88.4641 28.0065 91.1875ZM31.9353 91.1875C31.9353 90.6122 32.4056 90.1922 32.9831 90.1922C33.5059 90.1922 33.9784 90.6122 33.9784 91.1875C33.9762 92.3403 31.9353 92.3403 31.9353 91.1875Z" fill="#615684"/>
<path d="M31.9349 91.1877C31.9349 92.3405 33.978 92.3405 33.978 91.1877C33.978 90.6124 33.5077 90.1924 32.9827 90.1924C32.4052 90.1924 31.9349 90.6124 31.9349 91.1877Z" fill="white"/>
</svg>
