<svg width="22" height="22" viewBox="0 0 22 22" fill="none" xmlns="http://www.w3.org/2000/svg">
<path d="M21 22H18.8889V17.3773C18.8881 16.6586 18.5589 15.9696 17.9738 15.4614C17.3886 14.9532 16.5952 14.6674 15.7676 14.6667H7.23239C6.40483 14.6674 5.61141 14.9532 5.02624 15.4614C4.44107 15.9696 4.11195 16.6586 4.11111 17.3773V22H2V17.3773C2.00168 16.1726 2.55348 15.0177 3.53438 14.1658C4.51528 13.314 5.84519 12.8348 7.23239 12.8333H15.7676C17.1548 12.8348 18.4847 13.314 19.4656 14.1658C20.4465 15.0177 20.9983 16.1726 21 17.3773V22ZM11.5 11C10.2474 11 9.0229 10.6774 7.98139 10.0731C6.93988 9.46874 6.12812 8.60976 5.64876 7.60476C5.16941 6.59977 5.04399 5.4939 5.28836 4.42701C5.53273 3.36011 6.13592 2.3801 7.02166 1.61092C7.90739 0.841726 9.03588 0.317902 10.2644 0.105683C11.493 -0.106535 12.7664 0.00238307 13.9237 0.418665C15.0809 0.834947 16.0701 1.5399 16.766 2.44437C17.4619 3.34884 17.8333 4.41221 17.8333 5.5C17.8317 6.95825 17.1639 8.35635 15.9765 9.38748C14.7891 10.4186 13.1792 10.9985 11.5 11ZM11.5 1.83334C10.6649 1.83334 9.8486 2.04838 9.15426 2.45128C8.45992 2.85418 7.91875 3.42683 7.59917 4.09683C7.2796 4.76683 7.19599 5.50407 7.35891 6.21533C7.52182 6.9266 7.92395 7.57994 8.51444 8.09273C9.10493 8.60552 9.85725 8.95474 10.6763 9.09622C11.4953 9.23769 12.3443 9.16508 13.1158 8.88756C13.8873 8.61004 14.5467 8.14007 15.0106 7.53709C15.4746 6.93411 15.7222 6.2252 15.7222 5.5C15.7222 4.52754 15.2774 3.59491 14.4856 2.90728C13.6937 2.21964 12.6198 1.83334 11.5 1.83334Z" fill="#483D6B"/>
</svg>
